<svg xmlns="http://www.w3.org/2000/svg" width="8.496" height="11.895" viewBox="0 0 8.496 11.895">
  <g id="Group_60268" data-name="Group 60268" transform="translate(-466.752 -301.053)">
    <path id="Path_14271" data-name="Path 14271" d="M6.425,6.673h7.647a.425.425,0,0,0,.3-.725L10.549,2.124a.425.425,0,0,0-.6,0L6.125,5.948a.425.425,0,0,0,.3.725Z" transform="translate(460.751 299.053)"/>
    <path id="Path_14272" data-name="Path 14272" d="M14.072,19H6.425a.425.425,0,0,0-.3.725l3.823,3.823a.425.425,0,0,0,.6,0l3.823-3.823a.425.425,0,0,0-.3-.725Z" transform="translate(460.751 289.274)"/>
  </g>
</svg>
