<svg width="2172" height="1095" viewBox="0 0 2172 1095" fill="none" xmlns="http://www.w3.org/2000/svg">
<mask id="mask0_125_10206" style="mask-type:alpha" maskUnits="userSpaceOnUse" x="0" y="0" width="2172" height="1095">
<g opacity="0.7">
<path d="M2170.32 1.95818C2152.09 1.49055 2134.34 3.82867 2117.98 8.03728C1639.02 141.31 1513.32 97.821 1402.58 59.4759C1343.7 38.9004 1287.63 19.7279 1185.3 28.1451C1126.89 32.8213 1073.62 44.5119 1021.75 55.7349C928.761 75.8427 840.912 95.0153 739.046 70.6988C727.364 67.8931 715.215 64.6197 703.065 61.3464C656.338 49.1882 608.208 36.0947 559.144 41.2386C485.781 48.7205 431.577 89.4038 378.775 128.684C351.673 149.26 323.169 170.303 292.796 186.202C207.751 231.094 156.351 210.051 97.0063 185.734C68.0351 173.576 37.662 161.418 0.74707 155.806V158.612C37.1947 164.224 67.1005 176.382 96.539 188.54C154.481 212.389 208.686 234.835 295.599 189.008C325.972 173.108 354.476 151.598 381.578 131.49C433.913 92.2095 487.65 51.9939 560.078 44.5119C608.208 39.8357 656.338 52.4615 702.598 64.6197C714.28 67.8931 726.429 71.1665 738.578 73.9722C841.38 98.7563 929.695 79.5837 1022.68 59.0083C1074.08 47.7853 1127.35 36.0947 1185.76 31.4185C1287.63 23.0012 1342.77 42.1738 1401.65 62.2816C1512.86 100.627 1639.02 144.116 2119.38 10.843C2135.27 6.63441 2153.03 4.29629 2170.32 4.76392V1.95818Z" fill="url(#paint0_linear_125_10206)" fill-opacity="0.5"/>
<path d="M2170.32 35.6272C2142.75 30.951 2112.84 32.8214 2087.14 40.771C2066.58 46.8502 2049.29 51.5264 2032.94 55.735C1947.43 78.1809 1876.4 88.9363 1813.78 98.2888C1732.01 110.447 1664.26 117.929 1607.25 119.799C1508.65 123.54 1453.51 108.576 1399.78 93.6125C1390.43 91.2744 1381.09 88.4687 1371.74 86.1305C1318 72.5695 1267.07 61.8141 1188.1 69.7637C1180.16 70.699 1172.21 71.6342 1163.33 73.0371C1119.88 79.5838 1080.16 89.4039 1041.84 99.224C994.18 111.382 948.854 123.073 898.855 127.281C849.791 131.49 804.465 127.749 760.074 116.526C747.457 113.253 734.841 109.979 722.692 106.238C678.767 94.0801 633.441 81.4543 587.648 83.7924C516.155 88.001 462.418 123.54 410.083 157.677C383.915 174.979 357.28 192.749 328.309 206.31C245.601 245.59 195.602 228.756 138.127 209.116C105.885 197.893 72.241 186.67 29.2515 184.331C24.1114 183.864 18.5041 183.864 12.4295 183.864C8.22399 183.864 4.48577 184.332 0.280273 184.799V187.605C4.48577 187.137 8.69127 186.67 12.4295 186.67C18.0368 186.67 23.6442 186.67 28.7842 187.137C70.8392 189.475 104.483 200.698 136.258 211.921C191.864 231.094 244.666 248.864 329.244 208.648C358.215 194.619 385.317 177.317 411.017 160.015C462.885 125.879 516.155 90.8068 586.714 86.5982C631.572 83.7924 676.898 96.4183 720.355 108.576C732.504 111.85 745.588 115.591 758.205 118.864C803.063 130.087 848.856 133.828 898.388 129.62C948.854 125.411 993.713 113.72 1041.84 101.562C1080.16 91.742 1119.88 81.4543 1162.87 75.3752C1171.28 73.9723 1179.22 73.0371 1187.63 72.5695C1266.14 64.6199 1316.6 75.3752 1369.87 88.9363C1379.22 91.2744 1388.56 94.0801 1397.91 96.4183C1451.64 111.382 1507.72 126.346 1606.31 122.605C1663.79 120.267 1731.54 113.253 1813.32 101.094C1875.93 91.742 1947.43 80.9867 2032.94 58.5407C2048.83 54.3321 2066.11 49.6559 2087.14 43.5768C2112.38 36.0948 2142.28 33.7567 2169.38 38.9006V35.6272H2170.32Z" fill="url(#paint1_linear_125_10206)" fill-opacity="0.5"/>
<path d="M2170.32 74.9075C2136.21 59.476 2091.82 61.8141 2056.3 73.0371C2035.74 79.5838 2019.39 84.26 2003.97 88.001C1935.74 105.303 1880.14 111.382 1825.93 117.461C1814.72 118.864 1803.04 119.799 1791.82 121.202C1704.44 131.49 1642.29 137.569 1591.36 141.31C1499.31 147.389 1446.51 137.569 1396.04 127.281C1386.69 125.411 1377.35 123.54 1368 122.138C1363.8 121.202 1359.59 120.735 1354.92 119.799C1310.99 111.85 1261 102.965 1189.97 110.915C1182.49 111.85 1174.55 112.785 1166.14 114.188C1126.42 121.202 1091.37 131.958 1057.26 142.245C1011 156.274 967.078 169.368 914.276 173.576C867.081 177.317 823.157 173.108 779.7 161.886C766.616 158.612 753.065 154.404 739.981 150.663C698.861 138.504 656.806 125.879 614.284 126.346C544.659 127.281 493.259 156.274 438.587 187.137C414.289 200.698 389.056 215.195 362.421 226.418C282.049 260.554 233.92 247.928 178.314 232.964C147.006 224.547 115.231 216.13 74.5779 215.195C69.4379 215.195 64.2978 215.195 58.6905 215.195C39.0648 216.13 18.9719 221.274 0.748047 229.691V232.497C18.9719 223.612 39.0648 218.468 59.1578 218C64.7651 218 69.9051 217.533 75.0452 218C115.231 218.936 147.006 227.353 178.314 235.77C232.05 250.266 282.984 263.827 364.757 229.223C391.859 217.533 417.092 203.504 441.391 189.943C495.595 159.547 546.528 130.555 615.218 129.62C656.806 129.152 698.861 141.31 739.981 153.468C753.065 157.209 766.616 161.418 779.7 164.691C823.157 176.382 867.548 180.123 915.678 176.382C968.48 172.641 1012.4 159.08 1059.13 145.051C1093.24 134.763 1128.29 124.476 1167.54 117.461C1175.95 116.058 1183.43 114.656 1190.9 114.188C1261 106.238 1310.99 115.123 1354.45 123.073C1358.66 124.008 1363.33 124.476 1367.54 125.411C1376.88 127.281 1386.69 129.152 1395.57 130.555C1446.51 140.375 1499.31 150.663 1591.83 144.583C1643.23 141.31 1704.91 134.763 1792.29 124.476C1803.51 123.073 1814.72 122.138 1825.93 120.735C1880.14 114.656 1935.74 108.576 2004.43 91.2744C2019.85 87.5334 2036.21 82.3895 2056.77 75.8428C2091.82 64.6198 2136.21 62.7493 2169.85 78.1809V74.9075H2170.32Z" fill="url(#paint2_linear_125_10206)" fill-opacity="0.5"/>
<path d="M2170.32 127.749C2168.45 125.411 2166.58 123.073 2164.24 121.202C2127.8 86.5981 2068.45 90.3391 2024.99 105.303C2004.9 111.85 1989.48 116.526 1974.53 120.267C1913.31 135.699 1863.78 138.504 1815.65 141.31C1800.23 142.245 1785.28 143.181 1770.33 144.583C1702.11 150.195 1646.03 155.806 1596.5 160.95L1576.41 162.821C1490.43 171.238 1440.9 166.094 1392.77 160.95C1383.42 160.015 1374.08 159.08 1364.73 158.144C1355.39 157.209 1345.57 156.274 1335.29 154.871C1296.04 150.195 1251.18 144.583 1192.77 152.533C1185.3 153.468 1177.82 154.871 1169.88 156.274C1133.43 163.756 1102.12 174.979 1071.75 185.734C1027.36 201.633 985.302 216.13 931.097 219.871C885.771 223.144 843.249 218.936 800.727 207.245C786.709 203.504 772.223 198.828 758.672 194.619C720.822 182.461 681.571 170.303 642.32 168.9C573.63 166.562 521.762 190.878 466.623 216.597C444.661 226.885 421.765 237.64 397.466 246.525C319.431 275.518 270.834 266.633 219.433 256.813C189.528 251.202 158.687 245.59 119.903 246.058C115.231 246.058 110.091 246.525 104.483 246.525C65.2319 248.863 25.046 267.101 0.280273 293.755V297.964C24.1114 270.374 65.2319 251.202 104.483 248.863C110.091 248.396 115.231 248.396 119.903 248.396C158.22 247.928 189.06 253.54 218.499 259.151C270.367 268.971 319.431 277.856 398.401 248.863C422.699 239.979 445.596 229.223 467.558 218.936C522.229 193.684 573.63 169.367 641.852 171.706C680.169 173.108 719.421 185.267 756.803 197.425C770.821 201.633 784.839 206.31 799.325 210.051C841.847 221.741 884.837 225.95 930.63 222.677C985.769 218.936 1027.82 203.972 1072.68 188.072C1103.06 177.317 1134.36 166.094 1170.34 158.612C1178.29 156.742 1185.76 155.806 1192.77 154.871C1250.72 146.922 1295.11 152.533 1334.36 157.209C1344.64 158.612 1354.45 159.547 1363.8 160.483C1373.14 161.418 1382.49 162.353 1391.83 163.288C1439.96 168.432 1489.96 173.576 1576.41 165.159L1596.5 163.288C1646.03 158.144 1702.11 152.533 1770.33 146.922C1785.28 145.519 1800.23 144.583 1815.65 144.116C1863.78 141.31 1913.78 138.504 1975.46 123.073C1990.42 119.332 2005.84 114.655 2025.93 107.641C2068.45 93.1448 2126.39 89.4038 2161.44 123.073C2164.71 125.878 2167.51 129.152 2169.85 132.425V127.749H2170.32Z" fill="url(#paint3_linear_125_10206)" fill-opacity="0.5"/>
<path d="M2170.32 214.727C2168.92 212.389 2167.51 210.051 2166.11 207.713C2162.37 201.633 2159.57 194.619 2156.3 188.54C2149.76 174.044 2142.75 159.08 2128.73 147.389C2084.34 110.447 2019.85 128.216 1994.15 137.569C1975 144.583 1960.04 149.26 1945.56 152.533C1889.02 166.562 1843.69 166.562 1799.77 166.562C1782.95 166.562 1766.12 166.562 1748.83 167.497C1682.95 170.77 1621.27 176.382 1560.99 184.331C1480.15 195.087 1432.49 194.619 1386.69 194.151C1378.28 194.151 1369.87 194.151 1360.99 194.151C1347.91 194.151 1333.42 193.216 1318.47 191.813C1283.43 189.008 1243.71 186.202 1195.58 193.684C1188.57 194.619 1181.56 196.022 1173.61 197.892C1139.97 206.31 1111.93 218 1084.83 229.223C1042.78 246.525 1003.53 262.892 947.453 266.633C903.996 269.439 862.875 264.763 821.755 253.072C806.802 248.863 791.382 243.72 776.429 238.576C741.85 226.885 705.87 214.727 670.357 211.453C601.2 205.374 547.463 225.015 490.922 246.058C472.231 253.072 453.073 260.086 432.513 266.633C356.814 290.482 310.086 285.806 260.554 280.662C232.05 277.856 202.612 275.05 165.697 276.921C160.557 277.388 155.417 277.856 150.744 277.856C111.026 281.597 70.3724 299.834 45.1394 326.021C30.1865 341.453 24.5792 355.949 18.9719 369.978C14.7664 381.201 10.5609 391.489 2.14988 401.776C1.6826 402.244 1.21532 402.712 0.748047 403.179V407.855C2.14988 406.453 3.55171 405.05 4.95355 403.179C13.3645 392.424 17.57 382.136 22.2428 370.913C27.8502 356.884 33.4575 342.856 47.9431 327.892C72.2415 302.64 112.895 284.403 151.679 280.662C155.884 280.194 161.492 279.727 166.164 279.727C202.612 277.856 232.05 280.662 260.554 283.468C310.553 288.611 357.748 293.288 433.914 268.971C454.475 262.424 473.633 255.41 492.324 248.396C548.865 227.82 602.134 208.18 670.357 214.259C705.403 217.533 740.916 229.223 775.494 240.914C790.447 246.058 805.867 251.201 820.82 255.41C862.408 267.568 903.996 271.777 947.92 269.439C1004.46 266.165 1044.18 249.331 1086.23 232.029C1113.34 220.806 1141.37 209.115 1174.55 200.698C1182.03 198.828 1189.04 197.425 1196.04 196.49C1243.71 189.008 1282.96 192.281 1318 194.619C1333.42 195.554 1347.44 196.957 1360.99 196.957C1369.4 196.957 1378.28 196.957 1386.69 196.957C1432.49 197.425 1480.15 197.892 1561.46 187.137C1621.73 179.187 1683.41 173.576 1749.3 170.303C1766.59 169.367 1782.95 169.367 1800.23 169.367C1844.63 169.367 1890.42 169.367 1946.96 154.871C1961.45 151.13 1976.4 146.454 1995.56 139.439C2020.79 130.087 2083.87 112.785 2126.86 148.792C2140.41 160.015 2146.95 174.044 2153.5 189.008C2156.3 195.554 2159.57 202.101 2163.31 208.648C2165.65 212.389 2167.98 216.13 2170.32 219.403V214.727Z" fill="url(#paint4_linear_125_10206)" fill-opacity="0.5"/>
<path d="M2170.32 266.166C2155.83 254.943 2143.68 242.317 2134.34 228.288C2130.6 222.677 2127.33 217.065 2123.59 211.454C2115.18 197.425 2107.7 184.331 2093.22 173.576C2060.98 150.195 2017.52 148.792 1962.85 170.303C1945.09 177.317 1930.14 181.993 1916.12 185.267C1856.77 199.763 1812.38 196.49 1765.19 193.216C1752.57 192.281 1739.49 191.346 1726.4 190.878C1656.78 188.072 1598.37 196.957 1544.63 205.842C1462.86 219.871 1417.53 224.079 1369.4 228.756L1356.32 230.159C1340.43 231.561 1322.68 231.094 1303.52 230.159C1272.21 229.223 1236.7 227.82 1196.98 234.835C1189.97 236.238 1183.43 237.641 1175.95 239.511C1144.64 248.396 1119.41 261.022 1095.11 272.712C1056.33 291.885 1019.41 309.655 962.405 312.928C920.818 315.266 881.099 310.122 840.913 297.964C824.559 292.82 807.737 286.741 791.849 281.13C760.541 269.907 728.299 258.216 696.992 253.54C625.031 242.784 570.359 257.748 506.81 275.05C493.726 278.791 480.175 282.532 466.157 285.806C394.663 304.978 349.804 304.511 302.142 304.511C274.573 304.511 246.536 304.043 211.023 307.784C206.35 308.252 201.21 308.719 197.005 309.655C159.155 314.331 119.437 331.633 93.269 354.546C78.3161 367.64 70.8397 380.266 63.8305 392.424C58.2232 402.244 52.6159 412.064 43.2703 420.949C35.7939 428.431 27.3829 434.51 17.1028 440.589C11.9627 443.395 6.35538 446.201 0.748047 448.539V451.345C7.28993 449.006 13.3645 446.201 18.9719 442.927C29.252 436.848 38.1303 430.301 45.6067 422.82C54.9523 413.467 60.5596 403.647 66.6342 393.827C73.6434 381.669 81.1198 369.51 95.6054 356.417C121.306 333.971 160.09 317.137 197.472 312.46C201.677 311.993 206.817 311.057 211.49 311.057C246.536 307.784 275.04 307.784 302.142 307.784C349.804 307.784 395.13 308.252 468.026 289.547C482.044 285.806 495.595 282.065 508.679 278.791C571.761 261.489 626.433 246.525 697.459 257.281C728.767 261.957 759.14 273.18 791.849 284.871C807.737 290.482 824.558 296.561 841.38 301.705C881.566 313.863 921.752 319.007 964.274 316.669C1022.22 313.863 1059.13 295.626 1098.38 276.453C1122.68 264.763 1147.45 252.137 1178.75 243.252C1185.76 241.382 1192.77 239.511 1199.32 238.576C1239.03 231.561 1274.08 232.964 1304.92 233.9C1324.08 234.835 1342.3 235.302 1358.19 233.9L1371.27 232.497C1419.4 227.82 1464.26 223.612 1546.5 209.583C1600.24 200.231 1658.18 191.813 1727.81 194.619C1740.89 195.087 1753.97 196.022 1766.59 196.957C1813.79 200.231 1858.64 203.504 1918.46 188.54C1932.47 185.267 1947.43 180.123 1965.65 173.108C2018.92 152.533 2061.44 153.468 2092.28 176.382C2106.3 186.67 2113.78 199.763 2122.19 213.792C2125.46 219.403 2128.73 225.482 2132.94 231.094C2143.22 245.59 2156.3 259.151 2171.72 271.309V266.166H2170.32Z" fill="url(#paint5_linear_125_10206)" fill-opacity="0.5"/>
<path d="M2170.32 302.64C2143.22 288.612 2120.32 270.374 2102.56 248.864C2098.82 244.187 2095.09 239.043 2091.35 234.367C2082 221.274 2072.66 209.116 2057.7 199.295C2015.65 172.641 1968.45 186.67 1932.01 202.101C1915.18 209.116 1901.17 213.792 1887.15 217.065C1837.15 229.223 1797.9 224.079 1760.52 218.936C1742.76 216.598 1724.53 214.259 1704.91 213.792C1639.49 211.921 1582.02 216.13 1529.21 227.353C1486.69 236.238 1455.38 243.252 1427.35 249.799C1400.71 255.878 1377.81 261.022 1353.05 266.166C1335.76 269.907 1315.67 269.439 1292.77 269.439C1264.73 269.439 1233.43 269.439 1199.78 275.986C1193.24 277.389 1186.7 279.259 1179.69 281.13C1150.72 290.95 1127.82 304.043 1106.33 316.669C1070.81 337.244 1037.17 356.885 978.76 359.223C939.041 361.093 900.724 355.949 861.94 343.323C843.716 337.244 825.493 330.23 807.736 323.683C779.232 312.46 752.13 302.173 724.561 296.094C644.656 278.324 582.975 290.014 505.407 304.978L500.735 305.914C433.914 319.475 391.859 323.216 347.468 327.892C319.898 330.698 291.862 333.503 256.348 338.18C252.61 338.647 248.405 339.582 244.666 340.05L242.797 340.518C205.882 346.597 168.033 362.028 141.398 382.136C126.913 393.359 118.034 404.115 109.156 414.402C101.68 423.287 94.6704 431.704 84.3902 440.122C76.4465 446.668 67.5683 452.28 57.2881 456.956C40.4662 464.906 20.3732 470.517 0.280273 475.193V477.999C20.8405 472.855 41.4007 467.711 58.69 459.294C68.9701 454.15 77.8484 448.539 86.2594 441.992C97.0067 433.575 104.016 425.158 111.492 415.805C119.903 405.517 128.782 394.762 143.267 384.007C169.435 364.367 206.817 348.935 243.265 342.856L245.134 342.388C249.339 341.921 253.077 340.985 256.816 340.518C291.861 335.374 320.365 332.568 347.468 330.23C392.326 326.021 434.381 321.813 502.136 308.719L506.809 307.784C583.91 292.82 645.123 281.13 724.561 298.899C751.663 304.978 778.765 315.266 807.269 326.489C825.025 333.503 843.249 340.518 861.473 346.129C900.724 358.755 939.508 363.899 979.694 362.028C1039.04 359.223 1072.68 339.582 1108.66 319.007C1130.16 306.381 1152.59 293.755 1181.56 283.935C1188.1 281.597 1194.64 280.194 1201.18 278.791C1234.36 272.245 1265.67 272.245 1293.24 272.245C1315.67 272.245 1336.69 272.245 1354.45 268.971C1379.68 263.827 1402.58 258.684 1428.75 252.605C1456.78 246.525 1488.09 239.043 1530.61 230.159C1582.95 218.936 1640.42 214.727 1705.38 216.598C1724.53 217.065 1742.76 219.403 1760.52 221.741C1798.36 226.885 1837.62 231.561 1888.55 219.871C1902.1 216.598 1916.59 211.921 1933.88 204.439C1969.86 189.475 2016.12 175.447 2056.3 201.166C2070.79 210.518 2079.67 222.677 2089.01 235.302C2092.75 239.979 2096.02 245.123 2100.23 250.266C2118.45 272.245 2142.28 290.95 2170.32 305.446V302.64Z" fill="url(#paint6_linear_125_10206)" fill-opacity="0.5"/>
<path d="M2170.32 331.633C2132.94 319.007 2098.36 297.496 2071.25 269.906C2067.52 265.698 2063.78 261.957 2060.04 257.748C2048.83 245.59 2038.55 234.367 2022.66 225.482C1980.6 202.101 1939.48 217.065 1901.17 234.835C1884.81 242.317 1871.73 246.993 1858.18 249.799C1810.51 261.022 1776.4 254.007 1739.49 246.525C1721.73 242.784 1703.51 239.043 1683.41 237.64C1619.4 232.964 1564.26 236.705 1514.26 249.799C1462.86 262.892 1429.22 275.05 1396.04 286.741C1380.62 292.352 1365.67 297.496 1349.78 302.64C1331.09 308.719 1308.19 309.187 1283.89 310.122C1259.13 310.59 1230.62 311.525 1202.12 318.072C1196.04 319.475 1189.5 321.345 1182.96 323.683C1155.86 333.971 1135.76 348 1116.14 361.093C1083.9 383.071 1053.99 404.114 994.647 406.453C956.33 407.855 919.883 402.244 882.033 389.618C861.473 382.604 841.38 374.187 821.754 365.769C797.456 355.482 775.027 346.129 752.13 339.115C674.095 315.734 611.479 317.136 535.313 326.489C460.549 335.841 417.559 344.726 368.028 355.482C347.468 359.69 325.973 364.366 300.74 369.043C297.936 369.51 295.132 369.978 292.329 370.913L288.123 371.848C252.61 379.33 216.163 393.359 188.593 410.661C174.575 419.546 164.295 428.431 154.482 436.848C145.136 444.798 136.725 452.28 125.043 459.762C116.165 465.373 107.287 470.049 97.474 473.79C77.3811 482.208 53.5499 486.884 30.6533 492.028C20.3732 494.366 10.0931 496.236 0.280273 499.042V501.848C10.0931 499.51 20.8405 497.172 31.5879 494.833C54.9518 490.157 78.7829 485.013 99.3431 476.596C109.156 472.388 118.502 467.711 127.38 462.1C139.529 454.618 147.94 447.136 157.286 438.719C166.631 430.301 176.911 421.884 190.93 412.999C218.032 396.165 254.012 382.136 289.058 374.654L293.263 373.719C296.067 373.251 298.871 372.316 301.674 371.848C326.907 367.172 348.402 362.496 368.962 358.287C418.494 348 461.483 338.647 536.248 329.295C611.479 319.942 674.095 318.539 751.663 341.921C774.559 348.935 796.989 358.287 821.287 368.575C840.913 376.992 861.473 385.41 882.033 392.424C920.35 405.517 957.265 411.129 996.049 409.726C1056.33 407.388 1086.7 386.345 1119.41 363.899C1138.57 350.805 1158.19 336.777 1185.3 326.489C1191.37 324.151 1197.91 322.28 1203.99 320.877C1232.02 314.331 1260.06 313.395 1284.83 312.928C1309.59 312.46 1332.49 311.525 1351.65 305.446C1367.53 300.302 1382.49 295.158 1397.91 289.547C1430.62 277.856 1464.26 265.698 1515.66 252.604C1565.19 239.979 1620.33 236.238 1683.88 240.914C1703.51 242.317 1721.73 246.058 1739.49 249.799C1775 256.813 1811.45 264.763 1859.58 253.072C1873.13 249.799 1886.68 245.122 1903.03 237.64C1940.42 220.806 1980.6 205.842 2021.26 228.288C2036.68 236.705 2046.96 247.928 2057.7 260.086C2061.44 264.295 2065.18 268.036 2068.92 272.245C2096.49 300.302 2132.47 322.28 2170.78 334.906V331.633H2170.32Z" fill="url(#paint7_linear_125_10206)" fill-opacity="0.5"/>
<path d="M2170.32 353.611C2166.11 353.144 2162.37 352.208 2158.17 351.273C2116.58 342.388 2076.86 321.813 2039.48 290.482C2035.74 287.209 2032.47 284.403 2028.73 281.13C2016.12 269.907 2003.97 259.151 1987.15 251.202C1943.22 230.626 1906.31 248.864 1870.33 266.633C1854.91 274.115 1842.29 278.791 1829.67 281.597C1784.81 291.885 1752.57 282.532 1718.93 272.712C1701.17 267.569 1682.95 262.425 1662.39 260.087C1599.3 252.605 1547.44 255.878 1499.31 270.374C1451.65 284.871 1419.4 301.237 1389.03 317.137C1375.01 324.619 1361.46 331.165 1346.98 337.712C1327.82 346.129 1303.52 347.532 1277.82 348.935C1254.45 350.338 1230.16 351.741 1205.86 358.287C1199.78 359.69 1193.71 362.028 1187.63 364.367C1161.93 375.59 1144.64 390.086 1127.35 404.115C1098.85 427.496 1072.22 449.942 1012.4 451.812C975.957 452.747 940.911 447.136 903.996 434.042C880.632 425.625 857.268 414.87 835.306 404.582C816.615 395.697 798.858 387.748 781.102 380.733C706.337 351.741 645.591 341.453 571.294 345.662C503.072 349.403 461.484 362.964 417.56 377.928C396.065 384.942 373.636 392.424 347.001 398.971C345.132 399.438 343.263 399.906 340.926 400.374C339.057 400.841 336.721 401.309 334.384 401.776C299.338 410.661 264.76 423.287 237.191 437.316C224.107 443.863 213.359 450.409 203.079 456.956C191.397 463.97 180.183 470.985 166.632 477.531C156.819 482.208 147.473 485.949 138.128 489.222C118.035 495.769 94.6709 500.445 72.7088 504.186C58.2232 506.992 44.6721 509.33 32.0556 512.603C20.841 515.409 10.5609 517.747 0.748047 520.553V523.359C11.0282 521.02 21.7755 518.215 32.9902 515.409C45.6067 512.136 59.1578 509.798 73.6434 506.992C96.0727 502.783 119.437 498.575 139.53 491.56C149.342 488.287 158.688 484.546 168.501 479.87C182.519 473.323 193.734 466.309 205.416 459.294C215.696 453.215 225.976 446.668 239.06 439.654C266.629 425.625 300.74 412.999 335.319 404.582C337.655 404.115 339.524 403.647 341.861 403.179C343.73 402.712 346.066 402.244 347.935 401.776C374.57 395.23 397 387.748 418.494 380.266C462.418 365.769 503.539 352.208 571.294 348.467C644.657 344.259 704.935 354.547 779.7 383.539C797.456 390.554 814.746 398.503 833.437 407.388C855.866 417.676 878.763 428.431 902.594 436.848C939.509 449.942 975.489 456.021 1012.4 455.086C1073.62 453.215 1100.72 430.769 1129.69 406.92C1146.51 392.892 1163.8 378.395 1189.04 367.64C1194.64 365.302 1200.72 362.964 1206.79 361.561C1230.62 355.014 1254.92 354.079 1277.82 352.676C1303.99 351.273 1328.75 349.87 1348.38 340.985C1362.86 334.439 1376.41 327.424 1390.43 320.41C1421.27 304.511 1452.58 288.144 1500.24 273.648C1547.9 259.151 1599.3 255.878 1661.92 263.36C1682.01 265.698 1700.24 270.842 1717.53 275.986C1751.64 285.806 1784.35 295.158 1830.14 284.871C1843.22 282.065 1856.31 276.921 1871.73 269.439C1908.64 251.202 1943.22 234.367 1985.28 254.007C2001.63 261.489 2013.31 272.245 2025.93 283.468C2029.67 286.741 2032.94 289.547 2036.68 292.82C2074.53 324.619 2114.71 345.194 2156.77 354.079C2160.97 355.014 2165.18 355.949 2169.85 356.417V353.611H2170.32Z" fill="url(#paint8_linear_125_10206)" fill-opacity="0.5"/>
<path d="M2170.32 369.51C2155.83 369.043 2140.88 368.108 2126.39 365.302C2077.8 356.885 2037.14 332.101 2007.71 311.525C2004.9 309.655 2001.63 307.316 1998.83 305.446C1983.87 294.691 1969.86 284.871 1951.63 277.856C1909.58 261.489 1879.2 277.856 1847.43 295.158C1844.63 296.561 1842.29 297.964 1839.49 299.367C1825 306.849 1812.85 311.525 1800.7 314.331C1757.71 323.683 1728.27 312.46 1696.97 300.77C1679.68 294.223 1661.92 287.209 1640.89 283.935C1579.68 273.648 1529.68 276.453 1483.89 292.82C1440.9 308.252 1411.93 328.36 1383.89 348C1370.34 357.352 1357.72 366.237 1343.7 374.654C1324.55 385.877 1299.31 388.215 1272.21 390.553C1251.18 392.424 1229.22 394.294 1208.66 400.374C1202.59 402.244 1196.98 404.582 1191.37 407.388C1167.54 419.546 1152.12 434.978 1137.17 449.942C1112.4 474.726 1089.04 498.574 1028.76 499.51C994.18 499.977 960.069 493.898 925.023 480.337C896.986 469.582 869.884 455.553 844.184 441.992C832.035 435.445 820.82 429.834 809.138 424.222C738.579 389.618 680.169 368.108 606.339 366.705C541.388 365.302 501.669 384.007 459.614 403.179C439.054 412.999 417.559 422.819 392.794 430.769L390.457 431.704C387.653 432.64 384.383 433.575 381.112 434.51C342.795 446.201 311.954 456.488 286.254 466.776C275.974 470.985 266.629 474.726 257.75 478.934C241.863 485.949 226.91 492.495 209.153 498.107C198.406 501.848 189.06 504.654 179.715 506.992C159.622 512.136 137.66 515.409 116.165 519.15C102.147 521.488 88.5958 523.359 75.512 526.164C50.7463 530.841 29.2515 535.517 9.62584 540.193C6.82218 540.661 4.01851 541.596 1.21484 542.064V544.869C4.48579 543.934 7.28945 543.466 10.5604 542.531C30.1861 537.855 51.6808 533.179 76.4466 528.502C89.5303 526.164 102.614 523.826 116.632 521.488C138.127 518.215 160.089 514.941 180.182 509.33C189.995 506.992 199.341 504.186 210.088 500.445C227.845 494.366 242.797 487.819 259.152 481.272C268.03 477.531 277.376 473.323 287.656 469.114C313.356 458.826 344.197 448.539 382.513 436.848C385.784 435.913 388.588 434.978 391.859 434.042L394.195 433.107C419.428 425.158 440.923 415.337 461.483 405.517C503.071 386.345 542.322 367.64 606.339 369.043C679.235 370.446 737.177 391.956 807.269 426.56C818.483 432.172 830.165 438.251 842.315 444.33C868.482 457.891 895.584 471.92 923.621 483.143C959.601 496.704 994.18 503.251 1028.76 502.315C1090.44 500.913 1114.27 477.064 1139.5 451.812C1153.99 436.848 1169.41 421.884 1192.77 410.194C1197.91 407.388 1203.52 405.517 1209.13 403.647C1229.69 397.568 1251.18 395.697 1272.21 393.827C1299.78 391.489 1325.48 389.151 1345.11 377.46C1359.12 369.043 1372.21 360.158 1385.76 350.805C1413.8 331.165 1442.3 311.057 1485.29 295.626C1530.61 279.259 1579.68 276.921 1640.42 287.209C1660.99 290.482 1678.74 297.496 1696.03 304.043C1727.81 316.201 1757.71 327.424 1801.64 318.072C1814.25 315.266 1826.87 310.59 1841.35 302.64C1844.16 301.237 1846.96 299.834 1849.3 298.432C1880.61 281.597 1910.04 265.23 1950.7 281.13C1968.45 288.144 1982.47 297.964 1997.42 308.252C2000.23 310.122 2003.5 312.46 2006.3 314.331C2036.21 335.374 2076.86 360.158 2126.39 368.575C2140.88 370.913 2155.83 372.316 2170.79 372.784V369.51H2170.32Z" fill="url(#paint9_linear_125_10206)" fill-opacity="0.5"/>
<path d="M2170.32 381.201C2162.84 381.201 2155.83 381.201 2148.82 381.201C2131.07 381.201 2112.38 381.669 2094.62 379.331C2052.1 373.719 2015.65 354.547 1975.93 332.101L1973.13 330.23C1954.44 319.942 1937.15 310.122 1916.12 303.576C1875 290.95 1848.83 306.849 1821.26 323.683C1817.06 326.489 1812.38 328.827 1808.18 331.633C1794.63 339.583 1782.94 344.259 1771.26 346.597C1730.61 355.482 1703.51 342.388 1674.54 328.36C1657.71 319.942 1639.96 311.525 1618.93 306.849C1559.12 293.288 1511.46 295.626 1468 313.863C1429.68 329.762 1403.52 354.079 1378.28 376.992C1366.13 388.215 1353.05 399.906 1339.5 410.661C1320.81 424.69 1294.64 427.963 1267.07 431.237C1247.91 433.575 1228.29 435.913 1210.53 441.992C1204.92 443.863 1199.31 446.201 1194.17 449.474C1171.75 462.1 1158.66 478.934 1146.05 494.366C1125.02 520.553 1105.39 545.337 1044.65 546.272C1011.94 546.74 979.227 540.193 945.116 526.164C909.603 511.668 876.893 491.56 845.586 472.388L836.707 466.776C775.494 429.366 717.084 394.295 640.918 386.345C578.303 380.266 540.453 403.179 500.735 427.963C481.576 439.654 461.483 452.28 438.119 461.165C434.381 462.568 430.643 463.97 426.905 465.373C397.934 475.661 365.691 485.481 333.917 494.366C305.413 502.783 279.245 510.265 249.807 516.812C238.592 519.15 228.779 521.021 219.434 522.891C199.341 526.632 178.78 528.97 158.687 531.776C144.669 533.646 131.118 535.049 118.034 537.387C92.334 541.128 71.7738 544.869 53.5499 548.61C37.1952 551.884 18.9714 555.625 1.21484 560.301V563.107C19.4387 557.963 37.6625 554.222 54.4845 550.948C72.7083 547.207 92.8013 543.934 118.969 539.725C132.053 537.855 145.604 535.984 159.622 534.114C179.715 531.776 200.742 528.97 220.368 525.229C229.714 523.359 239.994 521.488 250.741 519.15C280.18 512.603 306.347 505.121 334.851 496.704C366.159 487.352 398.868 477.999 427.839 467.711C431.578 466.309 435.316 464.906 439.054 463.503C462.885 454.618 482.978 441.992 502.137 429.834C541.855 405.518 579.237 382.604 640.451 388.683C715.682 396.165 773.625 431.237 834.371 468.647L843.249 474.258C875.024 493.898 907.734 514.006 943.714 528.503C978.292 542.531 1011.47 549.078 1044.65 548.61C1107.26 548.143 1127.35 522.423 1148.85 495.769C1161.47 480.337 1174.08 463.97 1196.04 451.345C1200.72 448.539 1205.86 446.201 1211.46 444.33C1229.22 438.251 1248.38 435.913 1267.54 434.043C1295.57 430.769 1322.21 427.963 1341.83 412.999C1355.85 402.712 1368.47 390.554 1381.09 379.331C1406.32 356.417 1432.02 332.568 1469.87 316.669C1512.39 298.899 1559.59 296.561 1618.46 309.655C1639.49 314.331 1656.78 322.748 1673.13 330.698C1702.57 344.726 1730.14 358.288 1772.2 349.403C1784.81 346.597 1796.5 341.921 1810.51 333.971C1815.19 331.165 1819.39 328.827 1823.6 326.021C1850.23 309.655 1875.93 293.755 1915.18 306.381C1935.74 312.928 1953.03 322.281 1971.26 333.036L1974.06 334.906C2014.25 357.352 2051.16 376.525 2094.15 382.604C2112.38 384.942 2130.6 384.942 2148.82 384.474C2155.83 384.474 2163.31 384.474 2170.32 384.474V381.201Z" fill="url(#paint10_linear_125_10206)" fill-opacity="0.5"/>
<path d="M2170.32 392.424C2151.63 390.086 2132.47 391.489 2114.24 392.424C2097.42 393.359 2080.13 394.294 2063.31 392.892C2025.93 389.618 1992.29 374.187 1959.58 359.223C1934.34 348 1908.64 335.842 1881.07 329.295C1840.42 319.475 1817.52 335.842 1793.69 352.676C1778.74 363.431 1762.85 374.654 1742.29 378.863C1703.51 386.813 1678.74 371.849 1652.11 355.949C1635.75 346.129 1618.93 335.842 1597.44 329.762C1538.56 312.928 1494.17 314.798 1452.58 335.374C1418.94 351.741 1396.04 378.863 1374.08 405.517C1362.4 419.546 1349.78 434.042 1336.23 446.668C1318 463.97 1290.43 467.711 1263.8 471.92C1240.44 475.193 1216.6 478.934 1197.91 491.093C1176.89 504.654 1166.14 521.956 1155.39 538.79C1137.17 567.315 1121.75 592.567 1060.53 592.567H1060.07C985.302 592.567 918.949 550.481 863.81 509.33C859.604 506.057 855.399 503.251 851.661 499.977C798.858 460.229 744.187 419.079 675.497 406.453C615.685 395.23 579.238 423.287 541.388 453.215C523.164 467.244 504.473 481.74 482.979 492.028C411.952 525.229 305.88 535.517 212.425 544.402C171.304 548.143 132.053 551.884 97.4745 557.495C60.5596 563.107 27.3829 569.653 0.748047 583.214V586.488C27.3829 571.991 61.0269 565.912 97.9418 559.833C132.52 554.689 171.304 550.948 212.425 546.74C306.348 537.855 412.42 527.567 483.913 494.366C505.875 484.078 524.566 469.582 542.79 455.086C580.172 425.625 615.685 398.035 674.095 408.791C742.318 421.417 796.522 462.1 848.857 501.848C853.063 505.121 857.268 507.927 861.006 511.2C916.612 552.819 983.433 595.373 1059.13 595.373H1059.6C1122.68 595.373 1139.5 568.25 1157.26 540.193C1167.54 523.826 1178.29 506.524 1198.85 493.431C1216.6 481.74 1240.44 478.467 1263.33 475.193C1290.43 471.452 1318.47 467.244 1337.63 449.474C1351.65 436.848 1363.8 421.884 1375.48 407.856C1397.44 381.669 1420.34 355.014 1453.05 338.647C1493.7 318.539 1537.16 317.137 1595.1 333.503C1616.13 339.583 1632.95 349.403 1648.84 359.223C1675.94 375.59 1701.64 391.021 1741.82 382.604C1763.32 377.928 1779.21 366.705 1794.63 355.949C1817.99 339.583 1839.95 323.683 1879.2 333.036C1906.31 339.583 1932.01 351.273 1957.24 362.496C1990.42 377.46 2024.53 392.892 2062.38 396.633C2079.67 398.035 2096.96 397.1 2114.24 396.165C2132.94 395.23 2151.63 393.827 2170.32 396.165V392.424Z" fill="url(#paint11_linear_125_10206)" fill-opacity="0.5"/>
<path d="M2170.32 435.445C2151.16 432.172 2131.53 431.237 2112.37 430.769C2095.09 430.301 2079.2 429.834 2063.31 427.496C2029.2 422.352 1999.29 406.92 1967.52 390.553C1942.29 377.46 1915.65 363.899 1887.15 355.949C1845.56 344.726 1820.33 360.625 1793.69 377.927C1779.21 387.28 1763.79 397.1 1745.56 402.244C1738.09 404.114 1731.08 405.517 1725 405.985C1701.17 408.323 1684.35 400.373 1665.19 391.021C1660.98 389.15 1656.78 386.812 1652.11 384.942C1640.42 379.798 1625.94 373.719 1608.65 370.446C1574.07 362.964 1546.5 360.625 1522.2 364.366C1502.11 367.172 1483.89 373.719 1466.13 384.007C1452.11 392.424 1439.49 403.179 1425.94 418.143C1417.53 427.496 1409.59 437.316 1402.11 447.136C1387.63 465.373 1372.67 484.078 1354.45 499.042C1333.89 515.876 1304.92 517.747 1277.35 519.617C1255.39 521.02 1234.83 522.423 1218.01 530.84C1197.91 540.661 1186.23 554.689 1175.48 568.25C1156.32 591.631 1138.57 613.61 1078.29 616.416C1072.21 616.883 1066.14 616.883 1060.07 616.883C989.974 615.948 928.293 580.876 877.36 546.74C870.818 542.531 864.276 537.855 857.267 533.179L846.987 526.164C800.727 494.833 747.924 458.826 682.505 447.603C625.03 437.783 589.984 463.503 552.602 491.092C535.313 503.718 517.089 517.279 496.529 526.164C426.437 557.495 323.636 567.315 232.984 575.732C195.135 579.473 159.154 582.747 127.379 587.423C89.9971 593.034 43.2694 599.581 12.429 624.365C10.5599 625.768 9.15808 627.171 7.28897 628.574C5.41986 630.444 3.55075 632.315 1.68164 634.185V638.394C4.01803 635.588 6.82169 632.782 9.62536 629.977C11.0272 628.574 12.8963 627.171 14.7654 625.768C45.1385 601.919 90.9317 594.905 127.847 589.761C159.621 585.085 195.602 581.811 233.451 578.07C324.571 569.653 427.372 559.833 498.398 528.502C519.425 519.15 537.649 505.589 554.938 492.963C591.386 466.308 626.432 440.589 682.038 450.409C746.522 461.632 798.857 497.172 845.118 528.502L855.398 535.517C861.94 540.193 868.482 544.402 875.491 549.078C926.891 583.214 989.039 618.754 1060.07 619.689C1066.14 619.689 1072.68 619.689 1078.76 619.221C1140.44 616.416 1159.6 592.567 1178.29 570.121C1189.03 557.027 1200.25 542.999 1219.87 533.646C1235.76 525.697 1256.32 524.294 1277.82 522.891C1306.32 521.02 1335.76 519.15 1356.79 501.38C1375.01 485.949 1389.96 467.244 1404.45 449.006C1411.93 439.186 1420.34 429.366 1428.28 420.014C1441.83 405.05 1454.45 394.762 1468 386.345C1485.29 376.057 1503.04 369.978 1523.14 367.172C1546.97 363.899 1574.07 365.769 1608.18 373.251C1625 376.992 1639.02 382.604 1650.7 387.748C1655.38 389.618 1659.58 391.956 1663.79 393.827C1683.41 403.179 1700.7 411.129 1725.94 408.791C1732.48 408.323 1739.49 406.92 1747.43 404.582C1766.12 399.438 1781.54 389.618 1796.5 379.798C1822.2 362.964 1846.49 347.532 1886.68 358.287C1915.18 365.769 1941.35 379.33 1966.58 392.424C1996.96 408.323 2028.73 424.222 2063.31 429.834C2079.67 432.172 2096.49 432.639 2112.84 433.107C2132 433.575 2151.63 434.042 2170.78 437.783V435.445H2170.32Z" fill="url(#paint12_linear_125_10206)" fill-opacity="0.5"/>
<path d="M2170.32 478.467C2151.16 473.79 2131.53 471.452 2112.38 469.114C2095.09 466.776 2078.73 464.906 2063.78 461.632C2032.47 454.618 2005.37 438.719 1976.4 421.884C1950.7 406.92 1924.06 391.489 1894.16 382.136C1850.7 369.043 1822.66 385.41 1793.23 403.179C1779.67 411.129 1765.66 419.546 1749.77 424.69C1741.82 427.496 1735.75 428.899 1730.14 430.302C1708.18 434.978 1694.63 430.301 1676.87 424.69C1672.67 423.287 1668.46 421.884 1663.79 420.481C1651.64 416.74 1637.62 412.999 1620.8 410.194C1593.7 405.985 1562.39 402.712 1533.89 408.323C1514.73 412.064 1496.97 420.014 1480.15 431.704C1467.53 440.589 1455.85 452.28 1443.23 468.179C1437.63 475.193 1432.49 482.208 1427.35 489.69C1411.46 511.668 1395.1 534.114 1372.68 550.481C1349.31 567.315 1318.94 566.848 1289.97 566.38C1270.81 565.912 1253.05 565.445 1238.57 570.121C1218.47 576.668 1206.79 586.955 1194.18 598.178C1174.08 615.948 1153.52 634.185 1095.58 639.797C1089.51 640.264 1083.43 640.732 1077.36 641.2C1004.46 645.408 941.845 614.545 889.977 583.682C881.566 578.538 873.155 573.394 864.744 568.25L853.53 561.236C803.531 530.373 751.663 498.107 688.581 488.287C633.909 479.87 599.798 503.251 563.35 528.035C546.528 539.725 528.772 551.416 509.146 559.833C439.522 589.294 339.992 598.646 251.676 606.596C217.565 609.869 185.323 612.675 155.884 616.416C119.904 621.092 75.5125 627.639 45.6067 649.149C43.7376 650.552 42.3358 651.487 40.4666 652.89C21.3083 668.322 10.5609 688.897 0.748047 708.537V715.552C0.748047 715.084 1.21532 714.617 1.21532 714.617C11.4954 693.574 22.2428 671.595 42.3358 654.761C43.7376 653.358 45.6067 652.423 47.0085 651.02C76.447 629.977 120.371 623.898 155.884 619.221C185.323 615.48 217.565 612.207 251.676 609.401C339.992 601.452 440.456 592.099 510.081 562.171C530.174 553.754 547.93 541.596 564.752 529.905C600.733 505.589 634.377 482.675 687.179 490.625C749.327 500.445 801.195 532.243 850.726 563.107L861.941 570.121C870.819 575.732 878.763 580.409 887.174 585.553C939.509 616.416 1002.59 647.746 1076.42 643.538C1082.96 643.07 1089.04 642.603 1095.11 642.135C1154.46 636.523 1176.42 616.883 1195.58 600.049C1207.73 589.293 1219.41 579.006 1238.57 572.927C1252.58 568.25 1270.34 568.718 1289.03 569.186C1317.54 569.653 1349.78 570.589 1374.08 552.819C1396.51 535.984 1413.33 513.538 1429.22 491.56C1434.82 484.078 1439.96 477.064 1445.1 470.05C1457.25 454.15 1468.93 442.927 1481.08 434.042C1497.44 422.352 1514.73 414.87 1533.42 411.129C1561.46 405.517 1592.3 408.791 1618.93 412.999C1635.75 415.338 1649.77 419.546 1661.45 422.82C1666.13 424.222 1670.33 425.625 1674.54 427.028C1691.83 432.64 1706.78 437.783 1729.68 433.107C1735.28 432.172 1741.82 430.302 1749.77 427.496C1765.66 422.352 1780.14 413.935 1793.69 405.517C1822.66 388.215 1849.77 372.316 1891.82 384.942C1921.26 393.827 1947.89 409.258 1973.59 424.222C2002.57 441.057 2030.13 457.424 2061.91 464.438C2077.33 468.179 2093.68 470.05 2110.97 471.92C2130.13 474.258 2149.76 476.596 2169.38 481.272V478.467H2170.32Z" fill="url(#paint13_linear_125_10206)" fill-opacity="0.5"/>
<path d="M2170.32 521.956C2152.09 516.812 2134.34 512.603 2116.58 508.862C2097.89 504.654 2080.13 500.913 2064.25 495.769C2035.74 486.884 2010.98 470.517 1984.81 453.215C1958.64 436.381 1932.01 418.611 1900.7 407.855C1854.91 392.424 1821.73 411.129 1789.95 428.899C1778.27 435.445 1766.12 441.992 1753.51 447.136C1746.96 449.474 1740.42 452.28 1734.82 454.15C1714.25 461.165 1702.57 459.294 1685.75 456.488C1682.48 456.021 1678.74 455.553 1675 455.085C1672.2 454.618 1668.93 454.15 1665.66 453.683C1655.85 452.28 1644.63 450.877 1632.01 449.474C1602.58 446.668 1571.74 444.798 1544.63 451.812C1525.94 456.956 1509.12 465.373 1493.7 478.934C1479.21 491.093 1468.47 506.056 1460.52 517.747C1457.25 522.423 1454.45 527.1 1451.18 531.776C1434.36 557.495 1417.07 584.15 1390.9 601.452C1364.26 618.754 1330.62 614.545 1301.18 610.804C1285.76 608.934 1270.81 607.063 1259.13 608.466C1237.63 611.272 1225.02 619.221 1210.06 628.106C1189.97 640.264 1166.61 654.293 1112.87 661.775C1106.79 662.71 1100.72 663.646 1094.64 664.113C1018.48 673.466 952.125 644.941 903.061 619.221C892.781 614.078 882.968 608.466 872.688 602.387L870.351 600.984C865.679 598.178 861.006 595.84 856.8 593.034C807.736 564.977 757.27 536.452 696.057 527.567C644.189 520.085 610.545 541.596 575.032 563.574C558.677 573.862 541.855 584.617 522.697 592.099C454.007 619.689 357.28 628.574 272.236 636.056C241.396 638.862 212.424 641.2 185.79 644.941C151.678 649.149 109.623 654.293 80.1848 673.466C78.3157 674.401 76.9138 675.804 75.512 676.739C54.9518 691.703 43.2698 711.343 32.0552 730.048C26.4479 739.401 20.8405 749.221 13.8314 758.106C10.0931 762.782 6.35491 767.458 2.14941 771.667V775.875C7.28947 770.731 11.9622 765.12 16.1677 759.508C23.1769 750.156 28.7842 740.336 34.3916 730.983C46.0735 711.343 57.2882 692.638 77.3811 678.142C78.783 677.207 80.6521 675.804 82.0539 674.869C111.025 656.631 152.613 651.487 186.257 647.279C212.892 644.005 241.863 641.2 272.703 638.394C358.215 630.912 455.409 622.027 524.566 594.437C543.724 586.955 560.546 576.2 577.368 565.445C612.414 543.466 645.123 522.891 695.589 529.905C755.868 538.322 803.998 565.912 854.931 594.905C859.604 597.711 864.277 600.049 868.482 602.855L870.819 604.257C881.566 610.337 891.379 615.948 901.659 621.092C951.19 647.279 1018.48 675.804 1095.58 666.451C1101.65 665.516 1107.73 665.048 1114.27 664.113C1168.94 656.631 1193.24 641.667 1212.4 629.977C1226.88 621.092 1239.03 613.61 1260.06 610.804C1271.74 609.401 1286.23 611.272 1301.18 613.142C1331.55 616.883 1366.13 621.092 1393.24 603.322C1419.87 586.02 1437.63 558.898 1454.45 533.179C1457.72 528.502 1460.52 523.359 1463.79 519.15C1471.74 507.459 1482.02 492.963 1496.5 480.805C1511.92 467.711 1527.81 459.294 1546.03 454.618C1572.67 447.603 1603.04 449.474 1632.01 452.28C1644.63 453.215 1655.38 455.085 1665.19 456.488C1668.46 456.956 1671.73 457.424 1674.54 457.891C1678.27 458.359 1682.01 458.826 1685.28 459.294C1702.57 462.1 1714.72 463.97 1736.22 456.488C1741.82 454.618 1748.83 451.812 1754.91 449.474C1767.52 444.33 1779.67 437.783 1791.36 431.237C1824.07 412.999 1854.91 395.697 1899.3 410.661C1930.14 420.949 1956.77 438.719 1982.47 455.553C2009.11 472.855 2033.87 489.222 2062.84 498.107C2078.73 503.251 2096.96 506.992 2115.65 511.2C2133.4 514.941 2151.63 519.15 2170.32 524.294V521.956Z" fill="url(#paint14_linear_125_10206)" fill-opacity="0.5"/>
<path d="M2170.32 565.445C2160.5 562.171 2150.69 559.365 2140.88 556.092C2112.84 547.207 2086.21 538.79 2064.71 530.373C2039.01 520.085 2016.58 503.718 1993.22 485.949C1967.05 466.776 1939.95 446.668 1907.71 434.51C1858.18 416.273 1819.86 436.848 1782.94 456.956C1774.53 461.632 1766.12 466.308 1757.71 470.049C1753.51 471.92 1749.77 473.79 1746.5 475.661C1744.16 476.596 1742.29 477.999 1739.95 478.934C1717.99 489.69 1709.11 490.157 1688.09 490.625H1686.22C1678.27 491.092 1668.46 490.625 1657.25 490.157C1653.04 490.157 1648.37 489.69 1643.23 489.69H1642.29C1612.39 488.754 1581.55 487.819 1555.38 496.704C1537.16 502.783 1521.74 512.603 1507.25 527.099C1494.63 539.725 1485.76 554.222 1477.81 568.25L1474.07 575.265C1458.19 603.79 1439.96 636.056 1409.59 653.358C1379.22 671.128 1341.37 661.775 1310.99 654.761C1299.31 651.955 1288.56 649.149 1279.22 648.682C1253.52 646.811 1239.5 652.423 1218.01 660.84C1198.38 668.322 1174.08 678.142 1130.16 686.091C1124.08 687.027 1118.01 688.43 1111.93 689.365C1050.25 701.523 989.507 691.235 915.677 657.099C904.93 651.955 894.182 646.343 881.099 639.797C873.622 636.056 866.146 631.847 859.137 628.106C808.671 601.452 761.476 576.668 701.664 569.186C652.6 563.106 619.89 581.811 585.312 601.919C569.424 610.804 553.07 620.157 535.313 627.171C466.623 652.89 372.233 661.307 288.591 668.322C262.423 670.66 237.19 672.998 213.826 675.336C179.715 679.077 140.931 683.286 112.427 699.185C110.558 700.12 109.156 701.055 107.754 701.991C87.1939 715.084 74.5774 731.918 61.9609 748.285C56.3536 756.235 50.279 764.185 43.2698 771.667C30.6533 785.695 16.635 796.918 0.280273 805.803V809.076C17.5695 799.724 32.5224 788.033 46.0735 773.537C53.0826 766.055 59.1573 757.638 64.7646 750.156C77.3811 733.321 89.5303 716.955 109.623 704.796C111.025 703.861 112.894 702.926 114.296 701.991C142.333 686.559 180.649 682.35 214.293 678.609C237.657 675.804 262.423 673.933 288.591 671.595C372.233 664.113 467.091 656.164 536.248 629.977C554.472 622.962 570.826 613.61 586.714 604.725C620.825 585.085 653.067 566.38 700.729 572.459C759.606 579.941 806.801 604.725 856.8 630.912C864.277 634.653 871.753 638.861 879.23 642.602C891.846 649.149 902.593 654.761 913.808 659.905C988.572 694.509 1049.79 704.796 1112.4 692.638C1118.48 691.235 1124.55 690.3 1130.62 689.365C1175.02 680.948 1199.31 671.595 1218.94 664.113C1239.97 655.696 1253.52 650.552 1278.75 652.423C1287.63 652.89 1298.38 655.696 1309.59 658.502C1340.43 665.984 1378.75 675.336 1410.52 656.631C1441.83 638.394 1460.06 606.128 1476.41 577.135L1480.15 570.121C1488.09 556.56 1496.97 542.063 1509.12 529.438C1523.61 514.941 1538.56 505.589 1556.31 499.51C1582.02 491.092 1612.86 492.028 1642.29 492.495H1643.23C1647.9 492.495 1652.57 492.963 1656.78 492.963C1667.99 493.431 1677.81 493.898 1685.75 493.431H1687.62C1708.65 492.495 1717.99 492.495 1740.89 481.272C1742.76 480.337 1745.09 479.402 1747.43 477.999C1750.7 476.128 1754.91 474.258 1758.65 472.387C1767.06 468.179 1775.94 463.503 1784.35 459.294C1820.79 439.654 1858.18 419.546 1905.84 436.848C1938.08 448.539 1964.72 468.646 1990.88 487.819C2014.71 505.589 2037.14 521.956 2063.31 532.711C2085.27 541.596 2111.91 550.013 2139.94 558.898C2150.22 562.171 2160.04 565.445 2170.32 568.718V565.445Z" fill="url(#paint15_linear_125_10206)" fill-opacity="0.5"/>
<path d="M2169.85 609.401C2134.34 596.775 2095.55 580.409 2065.18 564.977C2042.28 553.286 2022.19 536.92 2001.16 519.15C1975 497.639 1947.89 475.193 1913.78 461.165C1858.18 438.719 1810.51 465.373 1768.46 489.222L1760.98 493.431C1754.44 497.172 1749.3 500.445 1744.16 503.718L1740.42 506.524C1722.67 518.215 1717.06 522.423 1697.43 526.632C1686.69 528.97 1671.73 529.905 1654.91 530.373L1646.5 530.84C1618.93 531.776 1590.43 532.711 1566.6 542.063C1548.84 549.078 1534.35 559.833 1520.8 576.2C1509.59 589.761 1501.64 605.66 1495.1 619.689C1480.62 650.084 1462.39 688.43 1427.35 706.199C1391.83 724.437 1349.78 708.07 1319.41 696.379C1312.4 693.574 1305.39 690.768 1299.78 689.365C1265.2 678.61 1248.38 683.286 1207.26 694.976C1191.84 699.185 1172.68 704.796 1147.45 710.408C1140.91 711.811 1134.83 713.214 1129.22 715.084C1065.21 731.919 1003.06 725.84 928.294 694.976C917.08 690.3 905.865 685.156 892.314 679.077C882.034 674.401 872.221 669.257 862.408 664.581C812.877 640.264 766.149 617.819 708.206 611.272C661.946 606.128 629.704 622.962 596.06 640.264C581.107 648.214 565.219 656.164 548.397 662.243C478.773 686.559 385.318 694.509 303.077 701.056C282.049 702.926 262.424 704.329 243.265 706.199C211.023 709.473 174.108 713.214 146.539 725.84C145.137 726.775 143.268 727.242 141.866 728.178C121.306 738.933 107.287 753.429 94.2036 767.458C88.129 773.537 82.5216 780.084 75.5125 785.695C56.8214 802.997 34.8593 815.156 8.22449 823.573C5.8881 824.508 3.08444 824.976 0.748047 825.911V828.717C3.55171 827.782 6.35538 827.314 9.15904 826.379C36.2612 817.494 58.6905 804.868 77.3816 787.566C83.9235 781.487 89.9981 774.94 96.0727 768.861C109.624 754.365 122.708 740.804 143.268 730.516C144.67 729.581 146.071 729.113 147.941 728.178C175.043 715.552 209.621 712.278 243.265 709.005C262.424 707.135 282.049 705.264 303.077 703.861C385.785 696.847 479.708 689.365 549.332 664.581C566.621 658.502 582.509 650.552 597.462 642.603C630.638 625.3 662.413 608.934 707.739 614.077C765.214 620.157 811.942 643.07 861.006 666.919C870.819 671.595 881.099 676.739 890.912 681.415C904.463 687.494 915.678 692.638 926.892 697.314C1002.12 728.178 1064.74 734.257 1130.16 717.422C1136.23 716.019 1141.84 714.617 1148.38 712.746C1173.62 706.667 1192.77 701.523 1208.19 697.314C1249.31 685.624 1264.73 681.415 1298.38 691.703C1303.99 693.574 1310.53 695.912 1318 698.717C1349.31 710.876 1391.83 727.242 1429.22 708.07C1465.2 689.833 1483.42 651.02 1497.91 620.157C1504.45 606.596 1512.39 590.696 1523.14 577.135C1536.22 561.236 1550.24 550.481 1567.53 543.934C1590.89 534.581 1618.93 534.114 1646.5 533.179L1654.91 532.711C1671.73 532.243 1686.69 531.308 1697.9 528.97C1717.99 524.761 1724.54 520.085 1742.29 508.395L1746.03 505.589C1750.7 502.315 1756.31 498.574 1762.38 495.301L1769.86 491.092C1810.98 467.711 1857.71 441.524 1911.91 463.503C1945.56 477.064 1972.19 499.51 1998.36 521.02C2019.85 538.79 2039.95 555.625 2062.84 567.315C2093.22 582.747 2132.47 599.581 2167.98 611.739C2168.45 611.739 2168.92 612.207 2169.85 612.207V609.401Z" fill="url(#paint16_linear_125_10206)" fill-opacity="0.5"/>
<path d="M2170.32 653.358C2169.38 652.89 2168.45 652.423 2167.51 652.423C2137.61 640.732 2103.03 622.962 2065.18 599.113C2045.09 586.488 2027.33 570.121 2009.11 552.819C1982.94 528.502 1955.84 503.251 1920.32 487.819C1860.98 461.632 1803.04 491.56 1764.72 516.344C1759.11 519.617 1753.97 523.826 1748.83 528.502C1742.76 534.114 1738.09 538.79 1734.35 542.999C1726.87 550.948 1721.26 557.027 1708.18 562.639C1696.97 567.315 1681.08 569.186 1666.12 570.588C1661.45 571.056 1656.78 571.524 1652.11 571.991C1625.94 574.329 1598.84 576.668 1576.87 586.488C1559.59 594.437 1546.03 606.595 1533.89 624.365C1524.54 637.926 1518.47 653.358 1511.92 670.192C1497.91 706.667 1479.68 742.674 1445.1 758.105C1402.58 777.278 1354.92 749.688 1326.41 733.321C1324.08 731.919 1321.27 730.516 1319.41 729.113C1273.14 702.926 1254.45 708.07 1164.27 733.789C1158.19 735.66 1152.12 737.53 1146.05 739.401C1079.69 761.379 1016.14 759.041 940.91 731.919C927.826 727.242 914.743 721.631 903.528 716.955C890.911 711.343 878.295 705.732 866.146 700.12C817.549 678.142 771.288 657.099 714.28 651.487C670.824 647.279 639.516 661.775 606.339 676.739C591.854 683.286 576.901 690.3 561.013 695.444C488.585 718.358 394.195 725.839 311.02 732.386C297.469 733.321 284.385 734.257 271.769 735.66H270.367C238.592 738.465 206.35 740.803 179.715 751.091C178.313 751.559 176.444 752.494 175.042 752.962C154.015 761.846 139.529 773.069 124.576 784.76C118.969 789.436 112.894 793.645 106.82 798.321C87.6612 811.882 66.1664 822.17 40.4662 829.184C27.8497 832.458 14.2986 835.263 0.280273 837.601V840.407C14.2986 838.069 28.3169 835.263 41.4007 831.522C67.5683 824.508 89.5303 814.22 108.689 800.192C115.231 795.515 120.838 791.307 126.445 786.631C141.398 774.94 155.416 763.717 176.444 755.3C177.846 754.832 179.248 753.897 181.117 753.429C206.817 743.609 239.526 740.803 270.834 738.465H272.236C284.852 737.53 297.936 736.595 311.487 735.192C395.13 728.645 489.52 721.631 562.415 698.25C578.77 693.106 593.723 686.091 608.208 679.545C640.918 664.581 671.758 650.552 714.28 654.293C770.821 659.437 816.614 680.48 865.211 702.458C877.36 708.07 889.977 713.681 902.593 719.293C913.808 723.969 926.892 729.58 939.976 734.257C1016.14 761.379 1080.16 763.717 1147.45 741.739C1153.52 739.868 1159.6 737.998 1165.67 736.127C1254.45 710.876 1272.68 705.732 1318 730.983C1320.34 732.386 1322.68 733.789 1325.01 735.192C1353.98 752.026 1403.05 780.084 1446.97 759.976C1482.48 744.077 1500.71 707.602 1515.19 670.192C1521.74 653.358 1527.81 638.394 1537.16 624.833C1548.84 607.531 1562.39 595.84 1578.74 587.89C1600.24 578.07 1626.87 575.732 1652.57 573.394C1657.25 572.927 1661.92 572.459 1666.59 571.991C1682.01 570.588 1698.37 568.25 1710.05 563.574C1723.6 557.963 1729.67 551.883 1737.15 543.466C1740.89 539.258 1745.09 534.581 1751.17 529.438C1756.31 524.761 1761.45 521.02 1766.59 517.747C1803.97 493.431 1860.98 463.97 1918.92 489.222C1953.97 504.654 1980.6 529.438 2006.77 553.754C2025.46 571.056 2043.22 587.891 2063.31 600.516C2101.16 624.365 2135.74 642.135 2166.11 653.825C2167.51 654.293 2168.92 654.761 2170.32 655.228V653.358Z" fill="url(#paint17_linear_125_10206)" fill-opacity="0.5"/>
<path d="M2170.32 697.314C2168.45 696.847 2167.05 695.911 2165.18 695.444C2128.26 680.012 2092.75 654.293 2065.65 633.718C2048.36 620.624 2033.41 604.257 2017.05 587.423C1990.88 559.833 1964.25 531.776 1926.87 514.006C1870.79 487.351 1808.18 509.797 1768.46 539.258C1762.85 543.466 1758.18 547.675 1753.51 553.286C1746.96 561.236 1742.76 568.25 1739.49 574.329C1734.81 583.214 1730.61 591.164 1719.39 598.178C1708.18 605.193 1691.83 608.466 1677.34 610.804C1671.27 611.739 1665.19 612.674 1658.65 613.61C1633.88 616.883 1607.72 620.624 1587.62 631.379C1570.8 640.264 1557.72 653.358 1547.44 672.53C1539.49 687.494 1534.35 703.861 1529.21 719.76V720.228C1519.87 751.091 1502.58 794.58 1463.33 810.012C1428.75 823.573 1388.09 810.479 1339.5 769.328C1294.17 730.983 1267.54 729.113 1181.56 757.638C1175.48 759.508 1169.41 761.846 1163.33 764.185C1094.64 791.307 1030.16 793.177 953.527 769.328C942.312 766.055 930.163 761.379 914.743 755.767C899.79 750.156 884.837 743.609 870.818 737.53C822.689 716.955 777.363 697.782 720.822 693.573C679.702 690.3 648.862 702.458 616.619 715.552C603.068 721.163 589.05 726.307 574.097 730.983C494.66 753.897 389.99 760.911 305.88 766.523L296.067 766.99C267.563 768.861 238.125 770.731 213.359 777.746C211.957 778.213 210.555 778.681 208.686 779.148C186.724 786.163 170.369 795.048 153.547 803.933C148.407 806.738 143.267 809.544 138.127 812.35C118.969 822.17 97.474 830.119 72.7083 835.731C55.419 839.472 36.2607 842.745 18.0368 845.551C11.9622 846.486 6.35488 847.422 0.280273 848.357V851.162C6.35488 850.227 12.4295 849.292 18.5041 848.357C37.1952 845.551 56.3536 842.278 73.6429 838.537C98.8759 832.925 120.371 824.976 139.996 814.688C145.136 811.882 150.276 809.076 155.416 806.271C172.238 796.918 188.126 788.501 210.088 781.487C211.49 781.019 212.892 780.551 214.293 780.084C238.592 773.069 268.03 771.199 296.067 769.328L305.88 768.861C389.99 763.249 494.66 756.235 574.564 733.321C589.517 729.113 603.536 723.501 617.554 717.89C649.796 705.264 679.702 693.106 720.355 696.379C776.428 700.588 821.287 719.76 869.417 740.336C883.902 746.415 898.388 752.962 913.808 758.573C929.228 764.652 941.377 768.861 952.592 772.134C1029.69 795.983 1095.11 794.58 1164.74 766.99C1170.81 764.652 1176.89 762.314 1182.96 760.444C1272.68 730.516 1295.11 735.659 1337.63 771.666C1387.16 813.753 1428.75 827.314 1464.73 813.285C1504.91 797.386 1522.2 753.429 1532.02 722.098V721.631C1536.69 705.732 1541.83 689.365 1550.24 674.401C1560.52 655.696 1573.14 643.07 1589.49 634.185C1609.58 623.897 1634.82 620.156 1659.58 616.883C1665.66 615.948 1672.2 615.013 1678.27 614.077C1693.23 611.739 1710.05 608.466 1721.73 600.984C1733.41 593.502 1737.62 585.552 1742.76 576.2C1746.03 570.121 1749.77 563.106 1756.31 555.624C1760.52 550.481 1765.19 546.272 1770.8 542.063C1809.58 513.071 1870.79 491.092 1925.46 517.279C1962.38 534.581 1989.01 562.639 2014.71 590.229C2031.07 607.063 2046.02 623.43 2063.78 636.991C2090.88 658.034 2126.86 683.753 2163.78 699.185C2166.11 700.12 2167.98 701.055 2170.32 701.991V697.314Z" fill="url(#paint18_linear_125_10206)" fill-opacity="0.5"/>
<path d="M2170.32 741.271C2167.98 740.336 2165.18 739.401 2162.84 737.998C2126.39 721.631 2091.81 691.703 2066.11 667.854C2051.63 654.293 2039.01 638.862 2024.99 622.962C1999.29 592.099 1972.66 560.301 1933.41 540.193C1877.8 511.668 1810.51 529.438 1772.2 562.171C1767.06 566.847 1762.38 571.991 1758.65 577.603C1752.57 586.955 1749.77 595.84 1747.43 604.257C1744.16 615.48 1741.36 624.833 1731.08 633.718C1722.67 641.2 1710.05 646.344 1689.02 651.02C1682.01 652.423 1674.54 653.825 1667.06 655.228C1642.76 659.437 1618 664.113 1598.84 675.804C1582.48 685.624 1570.33 700.12 1560.99 720.696C1554.45 735.66 1550.71 752.026 1546.97 767.458L1546.03 770.731C1534.35 820.299 1512.86 850.695 1481.08 861.918C1425.94 881.091 1374.08 826.379 1359.59 809.076C1318.94 761.379 1287.63 746.883 1198.85 781.019C1192.77 783.357 1186.7 786.163 1180.62 788.969C1108.66 822.17 1044.65 827.314 966.61 806.738C954.928 803.465 941.845 799.256 926.425 794.113C909.135 788.033 892.313 781.487 875.959 774.94C828.296 755.767 782.97 737.998 727.364 734.724C688.58 732.386 656.805 742.674 626.432 752.962C613.816 757.17 600.732 761.379 587.181 764.652C503.071 785.695 400.27 792.71 330.178 796.451L319.898 796.918C295.132 797.854 269.899 799.256 247.47 803.465C246.068 803.933 244.666 803.933 243.265 804.4C218.032 809.544 198.406 816.091 177.846 823.105L170.369 825.443C151.678 831.99 130.183 837.134 105.418 841.343C96.0722 843.213 86.7266 844.616 76.4465 846.019C50.7463 850.227 24.5787 854.436 0.280273 860.983V863.788C24.5787 857.242 50.7463 853.033 76.9138 848.824C87.1939 847.422 96.5395 845.551 105.885 844.148C130.651 839.94 152.145 834.328 171.304 828.249L178.78 825.911C200.275 818.429 218.966 812.35 243.732 807.206C245.134 806.738 246.536 806.738 247.937 806.271C269.899 802.062 295.132 801.127 319.898 800.192L330.178 799.724C400.737 796.451 504.006 789.436 588.116 767.926C601.667 764.652 614.75 759.976 627.367 755.767C659.142 745.48 689.047 735.66 726.897 737.53C782.036 740.803 826.894 758.573 874.557 777.746C890.911 784.292 907.733 790.839 925.023 797.386C939.976 802.53 953.527 806.738 965.209 810.012C1044.65 831.055 1109.13 825.911 1182.03 792.242C1188.1 789.436 1194.17 786.631 1200.25 784.76C1285.76 751.559 1315.67 763.249 1357.25 811.882C1372.21 829.652 1425.48 885.299 1482.95 865.659C1515.19 854.436 1537.62 823.105 1549.77 772.602L1550.71 769.328C1554.45 753.897 1558.18 737.53 1564.26 723.034C1573.14 702.926 1584.82 688.897 1600.71 679.545C1619.4 668.322 1644.16 663.646 1667.99 659.437C1675.47 658.034 1682.95 656.631 1689.96 655.228C1711.45 650.552 1724.07 645.408 1733.41 637.459C1744.16 628.106 1746.96 617.818 1750.23 607.063C1752.57 598.646 1755.37 590.229 1761.45 580.876C1765.19 575.265 1769.39 570.588 1774.53 565.912C1810.98 535.049 1878.27 516.812 1931.54 544.402C1970.32 564.509 1996.49 595.84 2022.19 626.236C2035.74 642.603 2048.83 658.034 2063.31 671.595C2089.48 695.912 2124.06 726.307 2160.97 742.674C2164.24 744.077 2167.05 745.012 2169.85 746.415V741.271H2170.32Z" fill="url(#paint19_linear_125_10206)" fill-opacity="0.5"/>
<path d="M2170.32 785.228C2167.05 783.825 2163.78 782.89 2160.5 781.019C2132.47 767.926 2100.69 741.271 2066.58 701.991C2054.9 688.897 2044.62 674.401 2033.41 659.437C2008.17 624.833 1981.54 589.293 1940.42 566.38C1885.28 535.517 1810.98 550.948 1776.4 584.617C1771.26 589.761 1767.06 595.373 1763.79 601.919C1758.18 612.675 1756.78 622.962 1755.84 633.25C1753.97 645.876 1752.57 658.034 1743.23 668.789C1734.81 678.142 1722.2 684.689 1701.17 690.3C1693.23 692.638 1684.82 694.509 1676.41 696.379C1653.04 701.523 1628.74 707.135 1610.52 719.293C1594.16 730.048 1582.95 745.48 1575.47 767.926C1570.33 782.89 1568 798.789 1565.66 814.22L1564.73 820.767C1559.12 855.839 1543.23 900.731 1500.71 913.357C1452.58 927.853 1405.85 887.17 1381.09 848.357C1343.24 789.904 1305.85 765.12 1217.54 804.4C1211.46 807.206 1205.39 810.012 1199.31 813.285C1125.48 852.566 1060.07 861.45 980.629 843.213C968.012 840.407 954.461 836.666 939.041 831.99C919.415 825.911 900.724 818.897 882.5 811.882C834.838 794.113 790.447 777.278 734.841 774.94C697.926 773.537 666.151 781.954 635.778 789.904C624.563 792.71 612.881 795.983 601.199 798.321C529.706 813.753 444.194 823.573 360.084 825.911C352.608 825.911 345.131 826.379 337.187 826.379C318.496 826.846 299.338 827.314 282.049 828.249L277.843 828.717C251.676 831.055 229.246 833.861 203.079 838.069C182.519 841.343 161.024 844.148 139.062 846.486C88.1285 852.566 35.7934 860.515 1.21484 883.896V887.17C34.8588 862.853 87.6612 854.904 139.062 848.825C161.024 846.019 182.986 843.681 203.079 840.407C229.246 836.199 251.208 833.393 277.843 831.055L282.049 830.587C299.805 829.184 318.496 828.717 337.187 828.717C344.664 828.717 352.608 828.249 360.084 828.249C444.661 825.911 530.64 816.091 602.134 800.659C613.816 798.321 625.498 795.048 636.712 792.242C668.487 783.825 698.393 776.343 734.841 777.746C789.979 780.084 834.371 796.451 881.566 814.22C899.79 821.235 918.481 828.249 938.106 834.328C953.527 839.004 967.078 842.745 979.694 846.019C1060.07 864.256 1126.42 855.371 1201.18 815.623C1207.26 812.35 1213.33 809.544 1219.41 806.738C1305.85 768.861 1341.83 792.71 1378.75 849.76C1404.45 889.508 1452.11 930.659 1502.58 915.695C1546.5 902.601 1562.39 857.242 1568.46 821.235L1569.4 814.688C1571.73 799.256 1574.54 783.357 1579.21 768.861C1586.69 747.35 1597.44 732.386 1613.32 721.631C1631.08 709.473 1654.91 704.329 1678.27 699.185C1686.69 697.314 1695.1 695.444 1703.04 693.106C1717.53 689.365 1735.28 682.818 1746.5 670.66C1756.31 659.437 1758.18 646.811 1760.05 633.718C1761.45 623.898 1762.85 613.61 1767.99 602.855C1770.8 596.775 1775 591.164 1780.14 586.488C1813.78 553.754 1886.21 538.79 1939.95 568.718C1980.6 591.164 2006.77 626.703 2032 661.308C2042.75 675.804 2053.5 690.768 2065.18 703.861C2099.76 743.142 2131.53 770.264 2160.04 783.357C2163.78 785.228 2167.51 786.631 2171.25 788.033V785.228H2170.32Z" fill="url(#paint20_linear_125_10206)" fill-opacity="0.5"/>
<path d="M2170.32 829.184C2166.58 827.781 2162.37 825.911 2158.17 824.04C2117.98 803.933 2081.07 756.235 2067.05 736.595C2058.17 724.437 2049.76 710.875 2041.82 698.25C2017.05 658.969 1990.88 618.754 1947.43 592.567C1896.03 562.171 1815.19 569.186 1780.61 607.531C1775.47 613.142 1771.73 619.689 1768.93 626.236C1764.25 637.926 1764.25 650.084 1764.25 661.775C1764.25 676.739 1763.79 691.235 1754.91 703.861C1746.96 714.616 1734.35 723.034 1713.32 730.048C1704.91 732.854 1695.56 735.192 1686.69 737.998C1663.79 744.077 1639.96 750.623 1622.2 763.717C1606.31 775.875 1596.03 792.242 1589.96 815.623C1586.22 830.12 1584.82 845.551 1583.42 860.983C1582.95 864.256 1582.95 867.529 1582.48 870.803C1580.15 894.652 1569.4 952.169 1519.4 964.795C1467.53 977.889 1423.61 931.594 1401.65 887.637C1379.22 843.681 1355.39 819.364 1326.41 811.415C1301.18 804.4 1271.28 809.544 1235.3 827.314C1229.69 830.12 1223.15 833.393 1217.07 837.134C1141.37 882.493 1074.55 895.119 993.713 879.688C980.162 877.349 966.144 873.609 950.723 869.4C929.229 863.321 908.668 855.839 888.576 848.824C841.38 831.99 796.522 816.091 741.383 815.156C704.935 814.688 671.759 820.767 639.517 826.846C631.106 828.249 622.695 830.119 614.284 831.522C557.743 841.342 473.166 854.436 389.056 854.904C364.757 854.904 339.524 853.968 315.693 853.033H311.488C303.077 852.565 294.666 852.098 286.722 852.098C268.965 851.163 252.143 850.695 234.854 850.227C216.163 850.227 194.201 850.227 171.772 851.63C125.978 854.436 65.2324 864.724 34.8593 900.731C13.3645 925.982 11.9627 958.248 10.5609 990.047C8.69177 1010.62 7.75721 1032.6 0.748047 1052.71V1061.13C10.5609 1038.68 11.9627 1013.9 12.8973 989.579C14.2991 956.845 15.7009 926.45 36.7284 901.666C66.6342 866.594 126.446 856.306 171.304 853.968C193.734 852.565 215.696 852.565 234.387 853.033C252.143 853.033 268.498 853.968 286.255 854.904C294.198 855.371 302.609 855.839 311.02 855.839H315.226C339.057 856.774 364.29 857.709 388.588 857.709C472.698 857.242 557.743 844.148 614.284 834.328C622.695 832.925 631.106 831.522 639.517 829.652C673.161 823.573 704.468 817.494 740.916 817.961C795.587 818.897 839.979 834.796 886.706 851.63C906.799 858.645 927.36 866.126 948.854 872.206C964.274 876.414 978.293 880.155 991.844 882.493C1073.62 897.925 1141.37 885.299 1217.54 839.472C1223.61 835.731 1229.69 832.458 1235.76 829.652C1270.81 812.35 1299.78 807.206 1324.55 814.22C1352.58 822.17 1375.95 845.551 1397.91 889.04C1420.34 933.932 1466.13 981.162 1519.87 967.601C1571.27 954.507 1582.48 896.054 1584.82 871.27C1585.29 867.997 1585.29 864.724 1585.75 861.45C1587.16 846.486 1588.56 831.055 1592.3 816.558C1597.9 793.645 1608.18 777.746 1623.6 766.055C1640.89 753.429 1664.26 746.883 1687.15 740.803C1696.03 738.465 1705.38 735.66 1714.26 732.854C1728.74 728.178 1746.96 720.228 1757.71 705.732C1767.06 692.171 1767.52 677.674 1767.52 662.243C1767.52 650.552 1767.99 638.861 1772.2 627.171C1774.53 620.624 1778.27 614.545 1783.41 608.934C1817.06 571.524 1896.03 564.509 1945.56 594.437C1988.55 620.157 2014.25 660.372 2039.01 699.185C2046.96 711.811 2055.84 725.372 2064.71 737.53C2082.47 762.314 2117.98 806.271 2157.23 825.911C2161.91 828.249 2166.58 830.119 2170.79 831.522V829.184H2170.32Z" fill="url(#paint21_linear_125_10206)" fill-opacity="0.5"/>
<path d="M2170.32 872.673C2129.2 859.58 2088.54 807.206 2067.05 770.731C2060.98 760.444 2054.9 749.221 2049.29 738.933C2024.99 694.509 1999.76 648.682 1953.5 618.754C1919.86 597.243 1868.46 590.696 1827.8 602.854C1798.83 611.739 1779.67 628.574 1773.6 650.552C1769.86 663.646 1770.8 677.207 1772.2 690.3C1773.6 708.07 1774.53 724.437 1766.12 739.401C1753.04 761.847 1725 770.264 1695.56 779.616C1673.13 786.631 1649.77 794.113 1632.95 807.674C1602.11 832.925 1601.17 871.738 1599.77 908.68C1599.77 912.421 1599.77 916.63 1599.3 920.371C1598.37 940.011 1591.83 1004.08 1537.16 1015.77C1482.49 1027.46 1440.43 975.083 1420.8 926.918C1398.84 872.673 1371.27 842.278 1336.69 833.393C1307.26 825.911 1272.68 835.263 1233.43 861.45C1142.31 921.306 1066.14 934.4 961.471 907.277C938.107 901.198 915.677 893.716 894.183 886.234C847.455 870.335 803.064 855.371 748.859 855.371C748.392 855.371 747.925 855.371 747.457 855.371C692.786 855.839 639.984 862.853 588.583 869.868C511.015 880.623 430.643 891.378 345.131 877.35C331.113 875.011 317.095 872.206 303.544 869.4C270.834 862.853 237.19 856.306 203.546 855.839C160.089 855.371 104.016 868.465 79.2504 906.81C61.9611 933.464 63.8302 964.795 65.6993 995.191C67.5684 1026.52 69.9048 1059.26 49.8119 1084.97C47.4755 1088.25 44.6718 1091.05 41.8682 1093.86H46.0737C48.41 1091.52 50.7464 1088.72 52.6156 1086.38C72.7085 1059.72 70.8394 1026.52 68.9703 994.723C67.1012 964.795 65.232 933.464 82.054 907.745C105.885 871.27 159.155 858.177 201.677 858.177C202.144 858.177 203.079 858.177 203.546 858.177C237.19 858.645 270.367 865.191 303.076 871.738C316.627 874.544 330.646 877.35 344.664 879.688C430.643 893.716 511.482 882.961 589.518 872.206C640.451 865.191 693.253 858.177 747.925 857.709C748.392 857.709 748.859 857.709 749.327 857.709C803.063 857.709 846.988 872.673 893.715 888.572C915.21 896.054 937.639 903.536 961.003 909.616C1065.67 936.738 1145.11 923.177 1235.76 863.321C1274.08 838.069 1307.72 828.717 1336.23 835.731C1369.87 844.148 1396.51 874.076 1418 927.385C1438.09 976.953 1481.08 1030.26 1538.09 1018.1C1594.63 1005.95 1601.64 940.011 1602.58 920.371C1602.58 916.63 1603.04 912.421 1603.04 908.68C1603.98 871.738 1605.38 833.861 1635.29 809.544C1651.64 795.983 1674.54 788.969 1696.97 781.954C1727.34 772.602 1755.84 763.717 1769.39 740.336C1778.27 724.904 1777.34 707.135 1775.94 689.832C1775 676.739 1774.07 663.178 1777.34 651.02C1783.41 629.509 1802.1 613.61 1829.67 605.193C1868.92 593.502 1919.39 599.581 1952.1 620.624C1997.89 650.084 2022.66 695.444 2046.96 739.868C2052.56 750.624 2058.64 761.379 2064.71 771.667C2070.79 782.422 2117.98 860.048 2170.79 875.479V872.673H2170.32Z" fill="url(#paint22_linear_125_10206)" fill-opacity="0.5"/>
</g>
<path d="M2170.32 0.555308C2152.09 0.0876849 2133.87 2.4258 2117.52 7.10204C1639.02 139.907 1513.79 96.8858 1403.05 58.5406C1343.7 37.9652 1287.63 18.7926 1184.83 27.2099C1125.95 31.8861 1072.68 43.5767 1021.28 54.7996C928.761 74.9075 840.913 94.08 739.514 69.7636C727.832 66.9579 715.683 63.6845 704.001 60.4111C657.273 47.7853 608.676 35.1595 559.612 40.3033C485.782 47.7853 431.111 88.4685 378.308 128.217C351.206 148.324 323.17 169.367 292.797 185.267C208.219 229.691 157.286 208.648 98.4091 184.331C68.5033 172.641 38.1303 160.015 0.748047 154.403L0.748047 160.015C36.7284 165.626 66.6342 177.785 95.6054 189.475C154.015 213.324 208.687 235.77 296.068 189.943C326.908 174.044 354.945 152.533 382.514 131.958C434.382 93.1448 488.119 52.9292 560.079 45.4472C607.742 40.7709 655.871 53.3968 701.665 65.555C713.346 68.8283 725.496 72.1017 737.645 74.9075C840.913 99.6915 929.229 80.5189 1022.68 59.9435C1074.08 48.7205 1127.35 37.0299 1185.3 32.3537C1286.7 23.9365 1341.83 43.1091 1400.24 63.2169C1511.92 101.562 1638.09 145.519 2118.92 11.7783C2134.34 7.56966 2152.09 5.23154 2169.38 5.69917V0.555308L2170.32 0.555308Z" fill="url(#paint23_linear_125_10206)" fill-opacity="0.5"/>
<path d="M2170.32 391.021C2151.63 388.683 2132.47 390.086 2113.78 391.021C2096.96 391.956 2079.67 392.892 2062.84 391.489C2025.93 388.215 1992.29 372.784 1959.58 357.82C1934.34 346.597 1908.64 334.439 1880.61 327.892C1839.02 318.072 1815.19 334.906 1791.82 351.741C1776.87 362.496 1761.45 373.251 1741.36 377.46C1703.51 385.41 1679.68 371.381 1652.57 355.014C1636.22 345.194 1618.93 334.906 1597.44 328.827C1538.09 311.993 1493.23 313.863 1451.65 334.439C1418 351.273 1394.64 378.395 1372.21 404.582C1360.53 418.611 1348.38 433.107 1334.36 445.733C1316.13 462.567 1290.43 466.308 1262.86 470.517C1239.5 473.79 1215.2 477.531 1196.51 489.69C1175.02 503.718 1164.27 521.02 1153.52 537.855C1135.77 566.38 1120.35 590.696 1060.07 590.696C985.302 590.696 919.416 549.078 864.277 507.927L852.128 498.574C799.325 458.826 744.654 417.676 675.497 404.582C614.751 393.359 576.434 422.819 539.986 451.812C521.763 465.841 503.539 480.337 482.044 490.157C411.018 523.359 305.413 533.179 211.958 542.064C170.37 545.804 131.586 549.545 97.0072 555.157C60.5596 560.768 27.3829 566.848 0.748047 580.876V586.955C27.3829 572.459 61.0269 565.912 98.4091 560.301C132.52 555.157 171.772 551.416 212.892 547.207C306.815 538.323 413.354 528.035 485.315 494.366C507.277 484.078 526.435 469.114 544.659 455.085C582.041 426.093 617.087 398.503 674.562 409.258C742.318 421.884 796.055 462.567 848.39 501.848L860.539 511.2C916.145 552.819 983.433 595.373 1060.07 595.373H1060.53C1124.55 595.373 1141.37 568.25 1159.6 539.258C1169.88 522.891 1180.62 506.056 1200.72 492.963C1218.47 481.74 1241.84 477.999 1264.27 474.726C1291.84 470.517 1319.87 466.776 1339.5 448.539C1353.52 435.445 1365.67 420.949 1377.82 406.92C1399.78 381.201 1422.67 354.079 1454.92 338.18C1495.1 318.539 1538.56 316.669 1595.57 333.036C1616.13 339.115 1632.95 348.935 1648.84 358.755C1676.41 375.122 1702.11 391.021 1743.23 382.136C1765.19 377.46 1781.08 366.237 1796.5 355.014C1819.39 338.647 1841.35 323.216 1879.67 332.568C1906.77 339.115 1932.47 350.805 1957.24 362.028C1990.42 376.992 2024.53 392.892 2062.84 396.165C2080.13 397.568 2097.89 396.633 2114.71 395.697C2133.4 394.762 2152.09 393.359 2170.79 395.697V391.021H2170.32Z" fill="url(#paint24_linear_125_10206)" fill-opacity="0.5"/>
<path d="M2170.32 871.738C2130.13 858.645 2089.95 806.738 2068.45 770.264C2062.38 759.976 2056.3 748.753 2050.7 738.465C2026.4 694.041 2001.16 647.746 1954.44 617.819C1920.33 595.84 1868.46 589.294 1827.34 601.919C1797.9 610.804 1778.27 628.106 1771.73 650.552C1767.99 663.646 1768.93 677.207 1770.33 690.768C1771.73 708.07 1772.67 724.437 1764.25 739.401C1751.64 761.379 1723.6 769.796 1694.16 779.149C1671.27 786.163 1647.9 793.645 1630.61 807.674C1599.31 833.393 1598.37 872.206 1596.97 909.616C1596.97 913.357 1596.97 917.565 1596.5 921.306C1595.57 940.479 1589.03 1004.08 1535.76 1015.3C1482.49 1026.52 1440.9 975.083 1421.74 926.918C1399.78 872.206 1371.74 841.343 1336.7 832.458C1306.79 824.976 1271.28 834.328 1232.02 860.515C1141.37 920.371 1065.67 932.997 961.471 906.342C938.107 900.263 915.678 892.781 894.65 885.299C847.455 869.4 802.597 854.436 746.991 854.436C692.319 854.904 639.05 861.918 588.116 868.932C506.81 880.155 430.176 890.443 345.132 876.414C331.113 874.076 317.095 871.27 303.544 868.465C270.835 861.918 237.191 855.371 203.079 854.904C158.688 854.436 102.615 867.997 77.3817 906.342C59.6252 932.997 61.9616 964.795 63.8307 995.658C65.6998 1028.39 67.5689 1059.26 48.4105 1084.97C45.6068 1088.72 42.8032 1091.52 39.5322 1094.79H47.9432C49.8123 1092.46 52.1487 1090.12 54.0178 1087.78C74.5781 1060.66 72.2417 1027.46 70.3726 995.658C68.5034 965.73 66.6343 934.867 83.4563 909.148C107.287 872.673 161.492 860.047 203.547 860.515C237.191 860.983 270.367 867.529 302.61 873.609C316.161 876.414 330.179 879.22 344.197 881.558C430.644 895.587 511.483 884.832 589.518 874.076C640.451 867.062 693.254 860.047 747.458 859.58C801.195 859.112 846.054 874.076 892.781 889.975C914.276 897.457 936.705 904.939 960.537 911.018C1065.67 938.141 1145.58 924.58 1236.7 864.256C1274.55 839.472 1307.72 830.12 1335.76 837.134C1368.47 845.084 1395.57 875.947 1416.6 927.853C1436.69 977.889 1480.62 1031.67 1538.56 1019.51C1596.03 1007.35 1603.04 940.479 1603.98 920.371C1603.98 916.63 1604.45 912.421 1604.45 908.68C1605.38 872.206 1606.78 834.328 1636.22 810.479C1652.11 797.386 1675 789.904 1697.43 783.357C1726.87 774.005 1757.25 764.652 1770.8 741.271C1780.14 725.372 1778.74 707.602 1777.34 690.3C1776.4 677.207 1775.47 664.113 1778.74 651.487C1784.35 630.444 1802.57 614.545 1830.14 606.596C1868.92 594.905 1918.92 600.984 1951.17 622.027C1996.49 651.02 2021.26 696.847 2045.56 740.804C2051.16 751.559 2057.24 762.314 2063.31 772.602C2069.85 783.357 2117.05 861.918 2170.79 877.35V871.738H2170.32Z" fill="url(#paint25_linear_125_10206)" fill-opacity="0.5"/>
</mask>
<g mask="url(#mask0_125_10206)">
<rect x="126" y="-47.8311" width="1920" height="1190.95" fill="#D9D9D9"/>
</g>
<defs>
<linearGradient id="paint0_linear_125_10206" x1="120.108" y1="94.2638" x2="2027.84" y2="-146.434" gradientUnits="userSpaceOnUse">
<stop stop-color="#34CA00" stop-opacity="0"/>
<stop offset="0.445" stop-color="#34CA00" stop-opacity="0.1"/>
<stop offset="1" stop-color="#34CA00" stop-opacity="0"/>
</linearGradient>
<linearGradient id="paint1_linear_125_10206" x1="119.667" y1="119.456" x2="2023.5" y2="-137.521" gradientUnits="userSpaceOnUse">
<stop stop-color="#34CA00" stop-opacity="0"/>
<stop offset="0.445" stop-color="#34CA00" stop-opacity="0.1"/>
<stop offset="1" stop-color="#34CA00" stop-opacity="0"/>
</linearGradient>
<linearGradient id="paint2_linear_125_10206" x1="120.109" y1="144.82" x2="2018.76" y2="-128.868" gradientUnits="userSpaceOnUse">
<stop stop-color="#34CA00" stop-opacity="0"/>
<stop offset="0.445" stop-color="#34CA00" stop-opacity="0.1"/>
<stop offset="1" stop-color="#34CA00" stop-opacity="0"/>
</linearGradient>
<linearGradient id="paint3_linear_125_10206" x1="119.667" y1="182.381" x2="2024.77" y2="-69.9524" gradientUnits="userSpaceOnUse">
<stop stop-color="#34CA00" stop-opacity="0"/>
<stop offset="0.445" stop-color="#34CA00" stop-opacity="0.1"/>
<stop offset="1" stop-color="#34CA00" stop-opacity="0"/>
</linearGradient>
<linearGradient id="paint4_linear_125_10206" x1="120.109" y1="247.266" x2="2040.76" y2="64.2076" gradientUnits="userSpaceOnUse">
<stop stop-color="#34CA00" stop-opacity="0"/>
<stop offset="0.445" stop-color="#34CA00" stop-opacity="0.1"/>
<stop offset="1" stop-color="#34CA00" stop-opacity="0"/>
</linearGradient>
<linearGradient id="paint5_linear_125_10206" x1="120.186" y1="283.133" x2="2043.6" y2="108.006" gradientUnits="userSpaceOnUse">
<stop stop-color="#34CA00" stop-opacity="0"/>
<stop offset="0.445" stop-color="#34CA00" stop-opacity="0.1"/>
<stop offset="1" stop-color="#34CA00" stop-opacity="0"/>
</linearGradient>
<linearGradient id="paint6_linear_125_10206" x1="119.667" y1="311.267" x2="2041.98" y2="134.762" gradientUnits="userSpaceOnUse">
<stop stop-color="#34CA00" stop-opacity="0"/>
<stop offset="0.445" stop-color="#34CA00" stop-opacity="0.1"/>
<stop offset="1" stop-color="#34CA00" stop-opacity="0"/>
</linearGradient>
<linearGradient id="paint7_linear_125_10206" x1="119.693" y1="338.129" x2="2041.82" y2="158.355" gradientUnits="userSpaceOnUse">
<stop stop-color="#34CA00" stop-opacity="0"/>
<stop offset="0.445" stop-color="#34CA00" stop-opacity="0.1"/>
<stop offset="1" stop-color="#34CA00" stop-opacity="0"/>
</linearGradient>
<linearGradient id="paint8_linear_125_10206" x1="120.109" y1="363.669" x2="2040.57" y2="179.598" gradientUnits="userSpaceOnUse">
<stop stop-color="#34CA00" stop-opacity="0"/>
<stop offset="0.445" stop-color="#34CA00" stop-opacity="0.1"/>
<stop offset="1" stop-color="#34CA00" stop-opacity="0"/>
</linearGradient>
<linearGradient id="paint9_linear_125_10206" x1="120.576" y1="389.441" x2="2040.06" y2="200.419" gradientUnits="userSpaceOnUse">
<stop stop-color="#34CA00" stop-opacity="0"/>
<stop offset="0.445" stop-color="#34CA00" stop-opacity="0.1"/>
<stop offset="1" stop-color="#34CA00" stop-opacity="0"/>
</linearGradient>
<linearGradient id="paint10_linear_125_10206" x1="120.55" y1="412.695" x2="2038.39" y2="217.579" gradientUnits="userSpaceOnUse">
<stop stop-color="#34CA00" stop-opacity="0"/>
<stop offset="0.445" stop-color="#34CA00" stop-opacity="0.1"/>
<stop offset="1" stop-color="#34CA00" stop-opacity="0"/>
</linearGradient>
<linearGradient id="paint11_linear_125_10206" x1="120.109" y1="438.125" x2="2040.02" y2="251.249" gradientUnits="userSpaceOnUse">
<stop stop-color="#34CA00" stop-opacity="0"/>
<stop offset="0.445" stop-color="#34CA00" stop-opacity="0.1"/>
<stop offset="1" stop-color="#34CA00" stop-opacity="0"/>
</linearGradient>
<linearGradient id="paint12_linear_125_10206" x1="121.017" y1="475.909" x2="2041.67" y2="295.025" gradientUnits="userSpaceOnUse">
<stop stop-color="#34CA00" stop-opacity="0"/>
<stop offset="0.445" stop-color="#34CA00" stop-opacity="0.1"/>
<stop offset="1" stop-color="#34CA00" stop-opacity="0"/>
</linearGradient>
<linearGradient id="paint13_linear_125_10206" x1="120.109" y1="523.572" x2="2045.97" y2="370.03" gradientUnits="userSpaceOnUse">
<stop stop-color="#34CA00" stop-opacity="0"/>
<stop offset="0.445" stop-color="#34CA00" stop-opacity="0.1"/>
<stop offset="1" stop-color="#34CA00" stop-opacity="0"/>
</linearGradient>
<linearGradient id="paint14_linear_125_10206" x1="121.434" y1="563.684" x2="2048.27" y2="424.787" gradientUnits="userSpaceOnUse">
<stop stop-color="#34CA00" stop-opacity="0"/>
<stop offset="0.445" stop-color="#34CA00" stop-opacity="0.1"/>
<stop offset="1" stop-color="#34CA00" stop-opacity="0"/>
</linearGradient>
<linearGradient id="paint15_linear_125_10206" x1="119.667" y1="592.415" x2="2048.56" y2="456.121" gradientUnits="userSpaceOnUse">
<stop stop-color="#34CA00" stop-opacity="0"/>
<stop offset="0.445" stop-color="#34CA00" stop-opacity="0.1"/>
<stop offset="1" stop-color="#34CA00" stop-opacity="0"/>
</linearGradient>
<linearGradient id="paint16_linear_125_10206" x1="120.109" y1="615.238" x2="2048.3" y2="476.992" gradientUnits="userSpaceOnUse">
<stop stop-color="#34CA00" stop-opacity="0"/>
<stop offset="0.445" stop-color="#34CA00" stop-opacity="0.1"/>
<stop offset="1" stop-color="#34CA00" stop-opacity="0"/>
</linearGradient>
<linearGradient id="paint17_linear_125_10206" x1="119.667" y1="634.47" x2="2047.53" y2="491.155" gradientUnits="userSpaceOnUse">
<stop stop-color="#34CA00" stop-opacity="0"/>
<stop offset="0.445" stop-color="#34CA00" stop-opacity="0.1"/>
<stop offset="1" stop-color="#34CA00" stop-opacity="0"/>
</linearGradient>
<linearGradient id="paint18_linear_125_10206" x1="119.667" y1="652.997" x2="2046.69" y2="504.127" gradientUnits="userSpaceOnUse">
<stop stop-color="#34CA00" stop-opacity="0"/>
<stop offset="0.445" stop-color="#34CA00" stop-opacity="0.1"/>
<stop offset="1" stop-color="#34CA00" stop-opacity="0"/>
</linearGradient>
<linearGradient id="paint19_linear_125_10206" x1="119.667" y1="674.562" x2="2046.34" y2="523.486" gradientUnits="userSpaceOnUse">
<stop stop-color="#34CA00" stop-opacity="0"/>
<stop offset="0.445" stop-color="#34CA00" stop-opacity="0.1"/>
<stop offset="1" stop-color="#34CA00" stop-opacity="0"/>
</linearGradient>
<linearGradient id="paint20_linear_125_10206" x1="120.602" y1="709.272" x2="2048.83" y2="568.413" gradientUnits="userSpaceOnUse">
<stop stop-color="#34CA00" stop-opacity="0"/>
<stop offset="0.445" stop-color="#34CA00" stop-opacity="0.1"/>
<stop offset="1" stop-color="#34CA00" stop-opacity="0"/>
</linearGradient>
<linearGradient id="paint21_linear_125_10206" x1="120.135" y1="784.349" x2="2052.74" y2="677.452" gradientUnits="userSpaceOnUse">
<stop stop-color="#34CA00" stop-opacity="0"/>
<stop offset="0.445" stop-color="#34CA00" stop-opacity="0.1"/>
<stop offset="1" stop-color="#34CA00" stop-opacity="0"/>
</linearGradient>
<linearGradient id="paint22_linear_125_10206" x1="158.993" y1="811.657" x2="2055.41" y2="710.728" gradientUnits="userSpaceOnUse">
<stop stop-color="#34CA00" stop-opacity="0"/>
<stop offset="0.445" stop-color="#34CA00" stop-opacity="0.1"/>
<stop offset="1" stop-color="#34CA00" stop-opacity="0"/>
</linearGradient>
<linearGradient id="paint23_linear_125_10206" x1="120.109" y1="93.8718" x2="2028.49" y2="-144.302" gradientUnits="userSpaceOnUse">
<stop stop-color="#34CA00" stop-opacity="0"/>
<stop offset="0.445" stop-color="#34CA00" stop-opacity="0.1"/>
<stop offset="1" stop-color="#34CA00" stop-opacity="0"/>
</linearGradient>
<linearGradient id="paint24_linear_125_10206" x1="120.135" y1="437.594" x2="2040.57" y2="251.255" gradientUnits="userSpaceOnUse">
<stop stop-color="#34CA00" stop-opacity="0"/>
<stop offset="0.445" stop-color="#34CA00" stop-opacity="0.1"/>
<stop offset="1" stop-color="#34CA00" stop-opacity="0"/>
</linearGradient>
<linearGradient id="paint25_linear_125_10206" x1="156.785" y1="811.352" x2="2055.32" y2="710.642" gradientUnits="userSpaceOnUse">
<stop stop-color="#34CA00" stop-opacity="0"/>
<stop offset="0.445" stop-color="#34CA00" stop-opacity="0.1"/>
<stop offset="1" stop-color="#34CA00" stop-opacity="0"/>
</linearGradient>
</defs>
</svg>
