<svg xmlns="http://www.w3.org/2000/svg" xmlns:xlink="http://www.w3.org/1999/xlink" width="319" height="170" viewBox="0 0 319 170">
  <defs>
    <clipPath id="clip-path">
      <rect id="Rectangle_3545" data-name="Rectangle 3545" width="23" height="23" rx="2" transform="translate(1575 303)" fill="#fff"/>
    </clipPath>
  </defs>
  <g id="Group_60415" data-name="Group 60415" transform="translate(-1522 -186)">
    <rect id="Rectangle_3544" data-name="Rectangle 3544" width="319" height="102" rx="12" transform="translate(1522 221)" fill="#dfffd4"/>
    <g id="Rectangle_3538" data-name="Rectangle 3538" transform="translate(1536 186)" fill="#fff" stroke="#d0e0ca" stroke-width="1">
      <rect width="292" height="170" rx="15" stroke="none"/>
      <rect x="0.5" y="0.5" width="291" height="169" rx="14.5" fill="none"/>
    </g>
    <rect id="Rectangle_3539" data-name="Rectangle 3539" width="249" height="66" rx="8" transform="translate(1558 216)" fill="#dfffd4"/>
    <g id="Rectangle_3540" data-name="Rectangle 3540" transform="translate(1558 289)" fill="none" stroke="#eaeee9" stroke-width="1">
      <rect width="57" height="51" rx="5" stroke="none"/>
      <rect x="0.5" y="0.5" width="56" height="50" rx="4.5" fill="none"/>
    </g>
    <g id="Rectangle_3541" data-name="Rectangle 3541" transform="translate(1622 289)" fill="none" stroke="#eaeee9" stroke-width="1">
      <rect width="57" height="51" rx="5" stroke="none"/>
      <rect x="0.5" y="0.5" width="56" height="50" rx="4.5" fill="none"/>
    </g>
    <g id="Rectangle_3542" data-name="Rectangle 3542" transform="translate(1686 289)" fill="none" stroke="#eaeee9" stroke-width="1">
      <rect width="57" height="51" rx="5" stroke="none"/>
      <rect x="0.5" y="0.5" width="56" height="50" rx="4.5" fill="none"/>
    </g>
    <g id="Rectangle_3543" data-name="Rectangle 3543" transform="translate(1750 289)" fill="none" stroke="#eaeee9" stroke-width="1">
      <rect width="57" height="51" rx="5" stroke="none"/>
      <rect x="0.5" y="0.5" width="56" height="50" rx="4.5" fill="none"/>
    </g>
    <g id="Group_60347" data-name="Group 60347" transform="translate(0 3)">
      <line id="Line_312" data-name="Line 312" x2="11" transform="translate(1708.5 200.5)" fill="none" stroke="#34ca00" stroke-linecap="round" stroke-width="2"/>
      <line id="Line_313" data-name="Line 313" x2="25" transform="translate(1727.5 200.5)" fill="none" stroke="#b3c4ae" stroke-linecap="round" stroke-width="2"/>
      <line id="Line_314" data-name="Line 314" x2="12" transform="translate(1759.5 200.5)" fill="none" stroke="#b3c4ae" stroke-linecap="round" stroke-width="2"/>
      <line id="Line_315" data-name="Line 315" x2="12" transform="translate(1779.5 200.5)" fill="none" stroke="#b3c4ae" stroke-linecap="round" stroke-width="2"/>
    </g>
    <circle id="Ellipse_75" data-name="Ellipse 75" cx="4.5" cy="4.5" r="4.5" transform="translate(1561 199)" fill="#34ca00"/>
    <line id="Line_316" data-name="Line 316" x2="14" transform="translate(1574.5 203.5)" fill="none" stroke="#000" stroke-linecap="round" stroke-width="2"/>
    <g id="Mask_Group_8" data-name="Mask Group 8" clip-path="url(#clip-path)">
      <path id="picture-svgrepo-com" d="M0,0V23.659H23.659V0ZM13.489,4.16A1.69,1.69,0,1,1,11.8,5.85,1.69,1.69,0,0,1,13.489,4.16ZM19.5,19.5H4.16V16.091l4.323-4.562,5.006,3.577,3.6-2.094L19.5,15.556Z" transform="translate(1574.67 302.67)" fill="#c3e2b8"/>
    </g>
    <g id="Mask_Group_9" data-name="Mask Group 9" transform="translate(64)" clip-path="url(#clip-path)">
      <path id="picture-svgrepo-com-2" data-name="picture-svgrepo-com" d="M0,0V23.659H23.659V0ZM13.489,4.16A1.69,1.69,0,1,1,11.8,5.85,1.69,1.69,0,0,1,13.489,4.16ZM19.5,19.5H4.16V16.091l4.323-4.562,5.006,3.577,3.6-2.094L19.5,15.556Z" transform="translate(1574.67 302.67)" fill="#c3e2b8"/>
    </g>
    <g id="Mask_Group_10" data-name="Mask Group 10" transform="translate(128)" clip-path="url(#clip-path)">
      <path id="picture-svgrepo-com-3" data-name="picture-svgrepo-com" d="M0,0V23.659H23.659V0ZM13.489,4.16A1.69,1.69,0,1,1,11.8,5.85,1.69,1.69,0,0,1,13.489,4.16ZM19.5,19.5H4.16V16.091l4.323-4.562,5.006,3.577,3.6-2.094L19.5,15.556Z" transform="translate(1574.67 302.67)" fill="#c3e2b8"/>
    </g>
    <g id="Mask_Group_11" data-name="Mask Group 11" transform="translate(192)" clip-path="url(#clip-path)">
      <path id="picture-svgrepo-com-4" data-name="picture-svgrepo-com" d="M0,0V23.659H23.659V0ZM13.489,4.16A1.69,1.69,0,1,1,11.8,5.85,1.69,1.69,0,0,1,13.489,4.16ZM19.5,19.5H4.16V16.091l4.323-4.562,5.006,3.577,3.6-2.094L19.5,15.556Z" transform="translate(1574.67 302.67)" fill="#c3e2b8"/>
    </g>
  </g>
</svg>
