<svg xmlns="http://www.w3.org/2000/svg" width="14.734" height="15.231" viewBox="0 0 14.734 15.231">
  <g id="download-button-svgrepo-com" transform="translate(-0.489)">
    <path id="Path_15125" data-name="Path 15125" d="M13.177,19.1v3.479H2.535V19.1H.489v4.5a1.023,1.023,0,0,0,1.024,1.022H14.2a1.023,1.023,0,0,0,1.024-1.022V19.1Z" transform="translate(0 -9.398)" fill="#4a5b44"/>
    <path id="Path_15126" data-name="Path 15126" d="M11.6,9.362,8.675,5.823S8.229,5.4,8.712,5.4h1.65V.251S10.3,0,10.675,0H13c.272,0,.266.211.266.211V5.3h1.523c.586,0,.145.441.145.441s-2.492,3.308-2.839,3.655A.325.325,0,0,1,11.6,9.362Z" transform="translate(-3.934)" fill="#4a5b44"/>
  </g>
</svg>
