<svg xmlns="http://www.w3.org/2000/svg" width="17.448" height="17.448" viewBox="0 0 17.448 17.448">
  <g id="edit" transform="translate(0 -0.501)">
    <path id="Path_9768" data-name="Path 9768" d="M13.813,91.632a.727.727,0,0,0-.727.727v5.816a.728.728,0,0,1-.727.727H2.181a.728.728,0,0,1-.727-.727V88a.728.728,0,0,1,.727-.727H8a.727.727,0,0,0,0-1.454H2.181A2.184,2.184,0,0,0,0,88V98.175a2.184,2.184,0,0,0,2.181,2.181H12.359a2.184,2.184,0,0,0,2.181-2.181V92.359a.726.726,0,0,0-.727-.727Zm0,0" transform="translate(0 -82.408)" fill="#34ca00"/>
    <path id="Path_9769" data-name="Path 9769" d="M182.429,74.014a.368.368,0,0,0-.1.185l-.514,2.571a.363.363,0,0,0,.357.435.346.346,0,0,0,.071-.007l2.57-.514a.362.362,0,0,0,.186-.1l5.752-5.752-2.57-2.57Zm0,0" transform="translate(-175.613 -65.452)" fill="#34ca00"/>
    <path id="Path_9770" data-name="Path 9770" d="M395.022,1.033a1.819,1.819,0,0,0-2.57,0l-1.006,1.006,2.57,2.57L395.022,3.6a1.817,1.817,0,0,0,0-2.57Zm0,0" transform="translate(-378.106)" fill="#34ca00"/>
  </g>
</svg>
