<svg xmlns="http://www.w3.org/2000/svg" width="37" height="37" viewBox="0 0 37 37">
  <g id="Group_60595" data-name="Group 60595" transform="translate(-635 -581)">
    <circle id="Ellipse_63" data-name="Ellipse 63" cx="18.5" cy="18.5" r="18.5" transform="translate(635 581)" fill="#e8ffdf"/>
    <g id="vuesax_bold_sms" data-name="vuesax/bold/sms" transform="translate(88 338)">
      <g id="sms" transform="translate(556 252)">
        <path id="Vector" d="M0,0H18.383V18.383H0Z" fill="none" opacity="0"/>
        <path id="Vector-2" data-name="Vector" d="M11.489,0H3.83C1.532,0,0,1.149,0,3.83V9.191c0,2.681,1.532,3.83,3.83,3.83h7.66c2.3,0,3.83-1.149,3.83-3.83V3.83C15.319,1.149,13.787,0,11.489,0Zm.36,4.665L9.452,6.58a2.957,2.957,0,0,1-3.585,0L3.47,4.665a.589.589,0,0,1-.092-.812.573.573,0,0,1,.8-.092l2.4,1.915a1.828,1.828,0,0,0,2.152,0l2.4-1.915a.565.565,0,0,1,.8.092A.581.581,0,0,1,11.849,4.665Z" transform="translate(1.532 2.681)" fill="#34ca00"/>
      </g>
    </g>
  </g>
</svg>
