<svg xmlns="http://www.w3.org/2000/svg" width="16.891" height="11" viewBox="0 0 16.891 11">
  <g id="eye" transform="translate(0 -98.725)">
    <path id="Path_9829" data-name="Path 9829" d="M8.445,98.725c-3.227,0-6.154,1.929-8.313,5.062a.785.785,0,0,0,0,.872c2.159,3.137,5.086,5.066,8.313,5.066s6.154-1.929,8.313-5.062a.785.785,0,0,0,0-.872C14.6,100.654,11.672,98.725,8.445,98.725Zm.231,9.373a3.9,3.9,0,0,1-.463-7.746,3.9,3.9,0,0,1,.463,7.746Zm-.107-1.789a2.1,2.1,0,0,1-.245-4.171,2.1,2.1,0,0,1,.245,4.171Z" transform="translate(0 0)" fill="#4a5b44"/>
  </g>
</svg>
