<svg xmlns="http://www.w3.org/2000/svg" width="37" height="37" viewBox="0 0 37 37">
  <g id="Group_60310" data-name="Group 60310" transform="translate(-1012 -668)">
    <circle id="Ellipse_65" data-name="Ellipse 65" cx="18.5" cy="18.5" r="18.5" transform="translate(1012 668)" fill="#e8ffdf"/>
    <g id="vuesax_bold_notification" data-name="vuesax/bold/notification" transform="translate(849 489)">
      <g id="notification" transform="translate(172 188)">
        <path id="Vector" d="M11.292,9.384,10.54,8.137a2.791,2.791,0,0,1-.3-1.112v-1.9a4.44,4.44,0,0,0-2.532-4A2.2,2.2,0,0,0,5.77,0,2.225,2.225,0,0,0,3.824,1.142,4.454,4.454,0,0,0,1.344,5.124v1.9a2.724,2.724,0,0,1-.3,1.1L.285,9.384a1.756,1.756,0,0,0,.984,2.652,14.051,14.051,0,0,0,4.523.736,14.252,14.252,0,0,0,4.523-.729,1.812,1.812,0,0,0,.977-2.66Z" transform="translate(3.239 1.503)" fill="#34ca00"/>
        <path id="Vector-2" data-name="Vector" d="M4.245.008A2.265,2.265,0,0,1,2.119,1.5,2.228,2.228,0,0,1,.526.834,2.074,2.074,0,0,1,0,0C.1.015.2.023.3.038.473.06.654.083.834.1c.428.038.864.06,1.3.06S2.99.135,3.411.1c.158-.015.316-.023.466-.045Z" transform="translate(6.897 15.026)" fill="#34ca00"/>
        <path id="Vector-3" data-name="Vector" d="M0,0H18.031V18.031H0Z" transform="translate(18.031 18.031) rotate(180)" fill="none" opacity="0"/>
      </g>
    </g>
  </g>
</svg>
