<svg  width="24" height="24" viewBox="0 0 24 24">
  <g id="vuesax_bold_card-tick" data-name="vuesax/bold/card-tick" transform="translate(-300 -508)">
    <g id="card-tick">
      <path id="Vector" d="M0,1.21v5a4.135,4.135,0,0,0,4.14,4.14H15.85A4.153,4.153,0,0,0,20,6.2V1.21A1.208,1.208,0,0,0,18.79,0H1.21A1.208,1.208,0,0,0,0,1.21ZM6,7H4A.75.75,0,0,1,4,5.5H6A.75.75,0,0,1,6,7Zm6.5,0h-4a.75.75,0,0,1,0-1.5h4a.75.75,0,0,1,0,1.5Z" transform="translate(302 518.25)" fill="#34ca00"/>
      <path id="Vector-2" data-name="Vector" d="M11.5,1.21V4.14a1.208,1.208,0,0,1-1.21,1.21H1.21A1.218,1.218,0,0,1,0,4.12,4.131,4.131,0,0,1,4.14,0h6.15A1.208,1.208,0,0,1,11.5,1.21Z" transform="translate(302 511.4)" fill="#34ca00"/>
      <path id="Vector-3" data-name="Vector" d="M4.97,0H2.03A1.866,1.866,0,0,0,0,2.03V4.97A1.866,1.866,0,0,0,2.03,7H4.97A1.866,1.866,0,0,0,7,4.97V2.03A1.866,1.866,0,0,0,4.97,0Zm.66,2.45L3.26,5.22a.49.49,0,0,1-.37.18H2.87a.514.514,0,0,1-.37-.15L1.4,4.17a.519.519,0,0,1,0-.73.51.51,0,0,1,.73,0l.7.69,2-2.34a.521.521,0,0,1,.73-.06A.5.5,0,0,1,5.63,2.45Z" transform="translate(315 510)" fill="#34ca00"/>
      <path id="Vector-4" data-name="Vector" d="M0,0H24V24H0Z" transform="translate(300 508)" fill="none" opacity="0"/>
    </g>
  </g>
</svg>
