<svg  width="24" height="24" viewBox="0 0 24 24">
  <g id="vuesax_bold_password-check" data-name="vuesax/bold/password-check" transform="translate(-620 -188)">
    <path id="Vector" d="M3.75,2H1.5V.75A.755.755,0,0,0,.75,0,.755.755,0,0,0,0,.75v18.5A.755.755,0,0,0,.75,20a.755.755,0,0,0,.75-.75V18H3.75a4,4,0,0,0,4-4V6A4,4,0,0,0,3.75,2Z" transform="translate(634.25 190)" fill="currentcolor"/>
    <path id="Vector-2" data-name="Vector" d="M4,0A4,4,0,0,0,0,4v8a4,4,0,0,0,4,4H9a1,1,0,0,0,1-1V1A1,1,0,0,0,9,0Zm.17,8.38a1.155,1.155,0,0,1-.21.33,1.155,1.155,0,0,1-.33.21.943.943,0,0,1-.76,0,1.155,1.155,0,0,1-.33-.21,1.461,1.461,0,0,1-.22-.33A.986.986,0,0,1,2.25,8a1.052,1.052,0,0,1,.29-.71l.15-.12a.757.757,0,0,1,.18-.09.636.636,0,0,1,.18-.06,1,1,0,0,1,.91.27A1.052,1.052,0,0,1,4.25,8,1,1,0,0,1,4.17,8.38Zm3.5,0a1.155,1.155,0,0,1-.21.33,1.155,1.155,0,0,1-.33.21.943.943,0,0,1-.76,0,1.155,1.155,0,0,1-.33-.21.99.99,0,0,1-.21-1.09,1.032,1.032,0,0,1,.21-.33A1,1,0,0,1,7.75,8,1,1,0,0,1,7.67,8.38Z" transform="translate(622.5 192)" fill="currentcolor"/>
    <path id="Vector-3" data-name="Vector" d="M0,0H24V24H0Z" transform="translate(644 212) rotate(180)" fill="none" opacity="0"/>
  </g>
</svg>