<svg xmlns="http://www.w3.org/2000/svg" xmlns:xlink="http://www.w3.org/1999/xlink" width="851" height="507" viewBox="0 0 851 507">
  <defs>
    <clipPath id="clip-path">
      <rect id="Rectangle_3739" data-name="Rectangle 3739" width="851" height="507" transform="translate(1069 573)" fill="#fff" stroke="#707070" stroke-width="1"/>
    </clipPath>
  </defs>
  <g id="Mask_Group_19" data-name="Mask Group 19" transform="translate(-1069 -573)" clip-path="url(#clip-path)">
    <g id="Group" transform="matrix(0.574, -0.819, 0.819, 0.574, 847.209, 1228.508)" opacity="0.11">
      <g id="Group_8430" data-name="Group 8430" transform="translate(0.207 0.866)" opacity="0.7">
        <path id="Path_3113" data-name="Path 3113" d="M1129.309,418.86a103.893,103.893,0,0,1-26.891-11.252C867.777,262.307,794.61,266.952,730.141,271.06c-34.3,2.288-66.911,4.236-120.007-15.874-30.324-11.408-56.884-25.861-82.767-39.846-46.406-25.066-90.221-48.842-147.9-51.035-6.618-.242-13.553-.3-20.487-.358-26.608-.459-54.1-.62-79.392-10.866-37.85-15.206-60.622-45.607-82.858-75.03-11.352-15.328-23.379-31.123-37.158-44.4C121.04-3.721,90.638-.044,55.535,4.212,38.355,6.447,20.43,8.468,0,5.929L.415,4.4C20.6,6.868,38.273,4.775,55.7,2.612,89.991-1.6,122.089-5.619,161.47,32.548c13.779,13.275,25.737,29.325,37.158,44.4,21.987,29.353,44.581,59.428,81.935,74.492,24.866,9.849,52.288,10.266,78.648,10.653,6.687-.013,13.621.045,20.487.358,58.248,2.08,102.311,25.927,148.648,51.248,25.636,13.914,52.195,28.367,82.519,39.775,52.847,20.039,84.958,17.949,119.192,15.917,64.717-4.038,138.132-8.612,373.517,136.9a99.594,99.594,0,0,0,26.147,11.039Z" transform="translate(0 499.246)" fill="#34ca00"/>
        <path id="Path_3114" data-name="Path 3114" d="M1130.245,411.982a99.911,99.911,0,0,1-43.4-15.42c-10.02-6.432-18.508-11.6-26.571-16.379-42.092-25.206-78.215-41.843-110.084-56.438-41.624-19.031-76.5-33.386-106.49-43.052-51.8-16.994-83.292-17.2-114.035-17.19-5.308-.143-10.687-.03-15.995-.173-30.538-.757-59.172-2.618-99.93-18.93-4.08-1.715-8.16-3.429-12.667-5.54-22.109-10.16-41.748-21.538-60.644-32.7-23.513-13.857-45.853-27.105-71.781-36.983a222.434,222.434,0,0,0-75.281-15.185c-7.183-.129-14.366-.258-21.37-.061-25.12-.033-51.053-.025-75.024-8.245-37.341-13.138-60.625-40.663-83.372-67.212-11.339-13.4-22.857-27.129-36.238-38.916C139.245,5.595,110.209,7.189,76.788,9.18c-18.778,1.229-38.3,2.244-61.473-3-2.8-.525-5.776-1.375-9-2.3A57.472,57.472,0,0,1,0,1.53L.414,0A62.381,62.381,0,0,0,6.728,2.353c2.977.851,5.955,1.7,8.753,2.226,22.676,5.1,42.2,4.088,60.73,2.789,32.359-2.019,63.022-3.7,101.991,31.054,13.311,12.042,25.147,25.586,36.238,38.916,22.5,26.477,45.6,53.678,82.449,66.674,23.405,8.333,49.338,8.324,74.21,8.287,6.935.058,14.435,0,21.618.132a226.941,226.941,0,0,1,76.026,15.4c26.175,9.949,48.268,23.126,72.029,37.054,18.895,11.165,38.466,22.8,60.4,32.632A121.053,121.053,0,0,0,613.9,242.8c40.51,16.24,68.9,18.031,99.185,18.717,5.308.143,10.687.031,15.995.173,30.744-.008,62.728.339,114.531,17.332,30.171,9.992,65.114,24.093,106.738,43.124,31.868,14.6,68.239,31.3,110.331,56.509,7.816,4.7,16.3,9.876,26.572,16.379,12.3,7.906,27.828,13.716,42.98,15.023l-.485,1.785Z" transform="translate(4.035 487.768)" fill="#34ca00"/>
        <path id="Path_3115" data-name="Path 3115" d="M1129.169,414.97c-20.393,3.24-43.619-4.768-60.815-16.273-9.954-6.688-17.946-11.717-25.579-16.1-33.671-19.78-62.3-31.528-90.187-43.064-5.743-2.465-11.811-4.747-17.56-7.213-44.876-18.862-76.981-31.6-103.475-41.366-47.979-17.276-77.466-19.931-105.784-21.976-5.242-.4-10.478-.795-15.648-1.448-2.37-.128-4.674-.511-7.292-.71-24.5-2.328-52.361-5.068-88.9-20.174-3.832-1.644-7.912-3.359-12.171-5.4-20.055-9.848-37.074-21.027-53.668-31.81-22.492-14.664-43.881-28.465-71.3-38.768a216.533,216.533,0,0,0-73.186-14.037c-7.431-.2-15.248.039-22.749.095-23.63.392-47.827.9-70.337-5.807-36.832-11.07-59.843-34.672-84.314-59.79-10.9-11.079-22.157-22.809-34.642-32.968-37.634-30.8-65.056-31.217-96.793-31.492-17.868-.16-35.983-.39-57.708-6.046l-8.436-2.409A86.48,86.48,0,0,1,0,1.53L.414,0A77.574,77.574,0,0,0,29.288,16.762c2.977.851,5.638,1.885,8.436,2.41,21.477,5.585,39.593,5.815,57.46,5.975,30.676.247,59.724.579,98.034,31.847,12.664,10.484,23.99,21.96,34.89,33.038,24.292,24.792,47.055,48.323,83.391,59.252,22.014,6.562,46.141,6.313,69.772,5.921,7.5-.055,15.317-.294,22.749-.094,24.8.217,48.927,4.911,73.931,14.25,27.485,10.048,48.805,24.1,71.545,38.839,16.593,10.782,33.683,21.706,53.489,31.484a126.57,126.57,0,0,0,11.923,5.328c36.044,14.965,63.906,17.7,88.153,19.961,2.375.128,4.922.582,7.3.71,5.236.4,10.726.866,15.647,1.448,28.5,2.371,58.054,4.771,106.281,22.118,26.809,9.581,58.594,22.5,103.475,41.366,5.749,2.466,11.563,4.677,17.312,7.143,27.883,11.535,56.516,23.283,90.429,43.134,7.639,4.378,15.565,9.663,25.513,16.351,16.948,11.434,40.246,19.186,60.391,15.876l-.485,1.784Z" transform="translate(10.915 463.365)" fill="#34ca00"/>
        <path id="Path_3116" data-name="Path 3116" d="M1127.758,421.925a22.025,22.025,0,0,1-4.189,2.648c-24.466,13.338-55.425,2.3-76.292-12.452-9.7-6.617-17.2-11.5-24.587-15.812-30.22-17.7-56.108-26.739-81.252-35.568-8.047-2.849-15.851-5.627-23.584-8.659-35.4-13.406-64.343-24.97-89.883-35.287l-10.395-4.067c-44.407-17.63-71.469-22.338-97.787-26.833l-15.3-2.723c-5.1-.908-10.45-1.886-16.116-2.68-21.533-3.4-46.182-7.148-76.023-20.341-3.832-1.644-7.594-3.543-11.605-5.512-18.248-9.607-33.215-20.474-47.754-30.944-21.223-15.4-41.413-29.682-69.643-39.943a204.531,204.531,0,0,0-71.091-12.89c-8-.087-16.379.265-24.2.5-21.894.888-44.532,1.563-65.582-3.625-36.82-9.144-60.769-30.267-86.249-52.652-10.142-8.939-20.711-18.276-32.3-26.8-37.154-27.642-64.271-30.169-93.015-32.61C94.2,54.2,77,52.579,56.473,46.442c-2.481-.709-5.141-1.744-8.119-2.594C27.857,36.62,9.213,20.583,0,2.295L.622,0C9.2,18.656,28.2,35.345,48.7,42.574c2.908,1.105,5.638,1.885,8.119,2.593,20.277,6.066,37.482,7.685,53.943,9.09,28.992,2.513,56.358,5.111,94.008,32.894,11.59,8.529,22.159,17.866,32.3,26.8,25.3,22.059,49,43.112,85.573,52.184,20.553,5.047,43.191,4.371,64.838,3.412,8.065-.168,16.2-.591,24.444-.434a206.825,206.825,0,0,1,71.588,13.031c28.726,10.4,48.847,24.939,70.318,40.411,14.539,10.47,29.505,21.337,47.506,30.873a122.053,122.053,0,0,0,11.357,5.441c29.593,13.122,53.994,16.8,75.529,20.2,5.666.794,11.012,1.773,16.11,2.68l15.306,2.723c26.313,4.5,53.623,9.275,98.283,26.974l10.395,4.067c25.541,10.317,54.488,21.881,89.883,35.287,7.733,3.033,15.532,5.81,23.65,8.4,25.144,8.829,51.28,17.942,81.754,35.71,7.386,4.307,14.881,9.2,24.516,16.067,20.437,14.353,50.652,25.18,74.236,12.14a28.952,28.952,0,0,0,5.848-3.823l-.694,2.549Z" transform="translate(20.13 427.602)" fill="#34ca00"/>
        <path id="Path_3117" data-name="Path 3117" d="M1124.2,434.346q-1.637,1.593-3.268,3.186c-2.888,2.747-5.412,6.146-8.047,8.964-5.616,6.911-11.547,14.006-20.718,18.253-29.03,13.408-60.644-6.06-72.908-15.057a214.093,214.093,0,0,0-23.6-15.529c-27.949-16.224-52.019-23.1-75.344-29.76-8.929-2.552-17.863-5.1-26.908-8.235-34.5-11.778-66.421-24.192-97.258-37.668-41.337-18.124-66.713-25.1-91.1-31.789-4.47-1.276-8.934-2.551-13.647-3.9-6.95-1.984-14.777-3.672-22.928-5.174-19.021-3.786-40.526-8.28-64.978-19.659a122.381,122.381,0,0,1-11.04-5.625c-16.621-9.692-29.781-20.317-42.515-30.547-19.775-15.811-38.2-30.687-67.422-41.232a197.024,197.024,0,0,0-68.748-11.671c-8.562.027-17.51.492-26.209,1.029-20.088,1.129-40.99,2.3-60.331-1.3-37.62-7.174-63.253-26.032-90.167-46.08-8.889-6.659-18.026-13.389-27.976-20.077-36.673-24.483-62.176-29.021-89.237-33.729-15.55-2.793-31.6-5.728-50.922-12.347-2.66-1.034-5.321-2.069-7.8-2.778C40.6,85.56,21.7,69.451,12.174,51.348c-5.66-10.68-6.5-19.434-7.4-27.933C4.2,16.658,3.483,10.412.537,3.527L0,2.55.691,0A24.1,24.1,0,0,1,2.233,3.188C5.11,10.327,5.824,16.573,6.647,23.4c.906,8.5,1.811,17,7.292,27.353C23.111,68.205,42,84.314,62.045,92.236A76.657,76.657,0,0,0,69.6,94.942c19.077,6.548,35.123,9.483,50.673,12.276,27.309,4.779,53.06,9.388,89.912,34.2,9.95,6.688,19.087,13.417,27.976,20.077,26.984,19.792,52.368,38.579,89.492,45.612,19.093,3.531,39.677,2.544,59.765,1.415,8.7-.536,17.648-1,26.209-1.029,23.879-.321,46.584,3.692,69.562,11.629,29.54,10.36,48.143,25.562,67.919,41.373,12.733,10.229,25.894,20.855,42.267,30.476a105.371,105.371,0,0,0,10.792,5.555C628.37,307.83,649.7,312,668.652,316.04c8.323,1.829,15.973,3.19,23.171,5.245l13.647,3.9c24.383,6.69,49.764,13.664,91.35,31.86,30.832,13.477,62.755,25.891,97.258,37.668,9.039,3.132,17.725,5.612,26.908,8.235,23.568,6.733,47.885,13.678,75.768,30.157a278.269,278.269,0,0,1,23.524,15.784c12.015,8.926,42.958,27.926,71.105,14.816,8.852-4.064,14.4-10.72,20.084-17.885a107.882,107.882,0,0,1,8.108-9.219c1.8-1.685,3.588-3.37,5.313-4.8Z" transform="translate(36.543 367.761)" fill="#34ca00"/>
        <path id="Path_3118" data-name="Path 3118" d="M1125.093,430.012a88.7,88.7,0,0,0-24.7,15.193c-2.816,2.492-5.379,5.056-8.2,7.548-6.537,6.373-12.44,12.377-21.721,16.044-20.575,7.857-43.856,2.031-69.711-17.989a181.449,181.449,0,0,0-22.6-15.245c-29.371-16.9-53.424-21.852-78.97-27.226-6.834-1.4-13.922-2.878-20.939-4.608C840.87,394.7,811.168,381,783.946,368c-41.348-20.051-64.795-29.22-89.657-39.069l-6.741-2.749c-8.229-3.174-17.731-5.613-28.038-8.008-16.765-4.238-35.829-8.86-55.883-18.708-3.515-1.828-6.781-3.585-10.475-5.739-15.312-9.592-26.845-20.3-38.021-30.362-17.762-16.335-34.739-31.621-64.526-42.052a186.05,186.05,0,0,0-66.723-10.269c-9.444.324-19.275,1.087-28.54,1.737-18.282,1.37-37.13,2.854-54.445.655-39.8-5.051-66.62-21.5-97.808-40.572-6.4-4.024-13.038-8.119-20-12.03-35.131-21.3-59.02-27.845-84.328-35.074-14.639-4.181-29.6-8.178-47.9-15.6a69.044,69.044,0,0,1-7.167-3.146c-19.407-8.29-37.942-23.747-48.452-40.207C29.238,57.4,27.133,49.382,25.207,41.69c-1.527-6.2-3.054-12.409-6.7-18.67A72.01,72.01,0,0,0,7.51,8.344,98.011,98.011,0,0,0,0,1.53L.414,0A60.2,60.2,0,0,1,8.848,7.353a74.824,74.824,0,0,1,11.173,15c3.581,6.516,5.108,12.721,6.883,19C28.829,49.042,31,56.8,36.761,66.14c10.331,16.135,28.438,31.2,47.6,39.414a70.183,70.183,0,0,0,7.236,2.891c18.126,7.1,33.261,11.423,47.652,15.534,25.309,7.229,49.446,13.848,85.39,35.1,6.891,4.166,13.534,8.26,20,12.029,30.941,19,57.761,35.451,97.064,40.36,17.315,2.2,35.1.687,54.2-.725,9.265-.65,19.1-1.412,28.788-1.666a188.828,188.828,0,0,1,67.467,10.481c30.353,10.318,47.261,25.859,65.271,42.265,11.175,10.059,22.461,20.7,37.773,30.29a100.216,100.216,0,0,0,10.226,5.668c20.055,9.848,38.871,14.4,55.386,18.566,10.312,2.4,20.057,4.9,28.286,8.079l6.741,2.749c24.863,9.849,48.061,18.947,89.663,39.069,27.15,13.249,56.676,26.626,94.061,35.656,7.016,1.729,14.1,3.2,20.939,4.608,25.541,5.374,49.847,10.392,79.395,27.622,6.961,3.911,14.143,8.983,22.78,15.571,25.249,19.3,47.968,25.236,67.727,17.422,8.962-3.483,14.865-9.487,21.407-15.86a96.246,96.246,0,0,1,8.262-7.8A107.668,107.668,0,0,1,1126.6,427.42l-.761,2.8Z" transform="translate(43.243 344.052)" fill="#34ca00"/>
        <path id="Path_3119" data-name="Path 3119" d="M1126.794,424.729a117.312,117.312,0,0,0-43.922,19.042c-2.679,1.982-5.423,4.22-8.1,6.2-6.9,5.721-13.658,10.932-23.044,14.018-26.268,8.153-49.257-6.653-66.332-20.594a153.952,153.952,0,0,0-21.611-14.962c-24.753-14.212-46.353-17.361-66.961-20.226a274.821,274.821,0,0,1-30.286-5.629c-35.015-8.9-64.916-19.914-91.294-34.041-21.264-11.293-36.856-19.866-50.773-27.687-13.244-7.354-24.642-13.631-37.033-20.191-8.631-4.662-19.368-7.454-31.526-10.927-14.888-4.252-31.512-9-48.41-17.673-3.267-1.757-6.464-3.769-9.909-5.852-13.933-9.748-24.157-20.359-33.706-30.5-15.818-16.6-30.781-32.414-61.451-42.547a173.431,173.431,0,0,0-64.38-9.05c-10.575.551-21.288,1.611-31.684,2.487-16.793,1.8-32.7,3.293-48.242,2.427-45.054-2.431-76.079-18.16-115.057-38.083l-2.343-1.218c-33.478-17.528-55.257-25.946-78.138-35.228-14.225-5.711-28.7-11.493-46.864-19.429-1.916-.822-4.011-1.97-5.927-2.792l-.923-.538c-18.7-8.913-36.522-23.067-47.695-38.069-6.034-8.316-9.159-15.526-12.354-22.481-2.658-5.978-5.136-11.63-9.351-17.778a67.657,67.657,0,0,0-11.9-13.289C19.819,13.233,9.978,7.127,0,1.53L.414,0C10.572,5.923,20.729,11.845,28.667,19.057A90.949,90.949,0,0,1,40.75,32.671c4.463,6.219,6.942,11.871,9.53,18.1,2.946,6.885,6.072,14.095,12.175,22.156,10.994,14.676,28.564,28.759,47.019,37.6l.923.539c2.164.892,4.011,1.969,5.927,2.792,17.849,8.119,32.57,13.972,46.616,19.357,23.2,9.1,44.908,17.771,78.951,35.186l2.343,1.219c38.73,19.852,69.507,35.509,114.313,37.87,15.289.8,31.2-.7,47.994-2.5,10.465-1.131,21.178-2.191,31.684-2.486a177.49,177.49,0,0,1,65.124,9.262c31.1,10.53,46.061,26.34,62.127,43.015,9.548,10.144,19.593,20.429,33.526,30.177a83.223,83.223,0,0,0,9.661,5.781c16.65,8.6,33.274,13.349,47.913,17.531,11.911,3.4,23.077,6.591,32.023,11.069,12.638,6.631,24.036,12.908,37.033,20.191,13.989,7.567,29.509,16.394,50.773,27.687,26.136,14.056,56.031,25.068,90.8,33.9a275.978,275.978,0,0,0,30.038,5.559c20.856,2.936,42.39,6.34,67.71,20.438a151.04,151.04,0,0,1,21.787,15.288c16.893,13.615,39.386,28.28,64.525,20.353,9.072-2.9,15.581-8.184,22.41-13.65,2.673-1.982,5.17-4.291,8.163-6.457,12.925-9.218,28.341-15.8,45.372-19.452Z" transform="translate(46.933 329.449)" fill="#34ca00"/>
        <path id="Path_3120" data-name="Path 3120" d="M1127.554,421.925a137.173,137.173,0,0,0-61.719,18.627c-2.607,1.728-5.148,3.2-7.755,4.927-7.749,4.928-14.865,9.487-24.615,11.922-25.784,6.369-45.41-8.026-63.13-23.526-7.578-6.559-13.834-11.093-20.613-14.678-23.656-13.348-42.8-14.7-63.51-16.217-9.982-.654-20.211-1.378-31.086-3.661-34.685-7.16-63.411-17.562-88.026-32.284-25.359-14.934-41.425-26.665-57.315-38.071-7.364-5.4-14.54-10.47-22.217-15.684-9.028-6.149-21.115-9.877-33.88-14.072-13.082-4.011-28.079-8.844-42.248-16.737a95.267,95.267,0,0,1-9.344-5.965c-12.871-9.719-21.468-20.415-29.955-30.53-13.874-16.873-26.645-32.88-57.812-43.156-20.138-6.577-40.321-9.045-62.284-7.9-11.954.706-23.866,2.247-35.531,3.859C402.091,200.7,388.8,202.4,375.6,202.751c-44.891.911-77.932-9.35-116.994-26-38.318-16.438-59.833-27.8-84.545-41.179-10.3-5.413-21.019-11.222-33.727-17.6a29.647,29.647,0,0,1-4.19-2.3l-2.095-1.148C116.3,105.065,99.021,91.889,86.938,78.275A158.656,158.656,0,0,1,72.693,58.824C68.9,53.073,65.544,47.718,60.446,41.867a85.185,85.185,0,0,0-12.567-11.83C38.453,22.4,26.49,16.237,15.091,9.96,9.978,7.126,4.8,4.548,0,1.53L.414,0C5.28,2.763,10.641,5.667,16,8.572c11.715,6.094,23.61,12.512,33.284,20.219A110.606,110.606,0,0,1,62.032,40.947c5.346,5.921,8.707,11.276,12.426,17.283A136.494,136.494,0,0,0,88.524,77.354c11.9,13.289,28.937,26.394,46.441,35.788l2.095,1.148c1.42.68,2.77,1.615,4.19,2.3,12.708,6.376,23.431,12.186,33.726,17.6,24.781,13.121,46.227,24.74,84.545,41.179,38.566,16.509,71.608,26.77,116.25,25.788,13.194-.351,26.486-2.048,40.908-3.971,11.665-1.613,23.826-3.083,35.779-3.789a166.936,166.936,0,0,1,63.1,7.86c31.663,10.417,44.682,26.5,58.735,43.694,8.239,10.045,16.588,20.669,29.459,30.388a77.967,77.967,0,0,0,9.1,5.894c13.92,7.822,28.67,12.584,41.75,16.595s25.1,7.994,34.376,14.214c7.678,5.214,14.859,10.286,22.217,15.684,15.642,11.335,31.708,23.066,57.067,38,24.438,14.4,53.165,24.8,87.6,31.887,10.627,2.212,20.856,2.936,30.838,3.59,19.891,1.562,40.422,2.756,64.249,16.429a128.78,128.78,0,0,1,20.8,15c17.367,14.848,36.492,29.1,61.394,23.029,9.436-2.25,16.551-6.809,24.053-11.808,2.607-1.728,5.142-3.2,7.749-4.928a139.159,139.159,0,0,1,63.351-18.712L1127.8,422Z" transform="translate(50.456 316.448)" fill="#34ca00"/>
        <path id="Path_3121" data-name="Path 3121" d="M1127.375,421.6a59.81,59.81,0,0,0-6.8-.568c-23.4-1.464-47.527,3.73-72,15.141-2.469,1.218-4.619,2.251-7.088,3.469-8.356,4.205-16.4,8.226-26.505,10.009-26.362,4.555-43.272-10.986-59.751-26.131-7.083-6.418-13.09-10.881-19.373-14.324-22.3-12.412-40.8-12.2-60.121-11.953-10.185.111-20.625.152-31.885-1.692-34.6-5.489-61.664-15.14-85.077-30.343-23.165-15.132-37.87-28.945-51.649-42.22-6.338-6.205-12.567-11.83-19.291-17.6-8.929-7.494-21.628-11.945-35.065-16.607-12.2-4.309-24.894-8.759-36.829-16.013a76.433,76.433,0,0,1-8.779-6.078c-11.989-10.017-19.028-20.542-26.136-30.813-11.682-17.07-22.509-33.347-53.992-43.438a158.394,158.394,0,0,0-60.19-6.754c-13.65,1.045-27.645,3.365-40.826,5.643-11.237,2.009-21.84,3.65-32.305,4.781-43.982,4.467-77.758.862-116.588-12.7-35.673-12.387-55.753-26.087-76.866-40.907-10.377-7.084-21.182-14.565-34.358-22.174-.923-.539-1.846-1.077-3.018-1.686-.923-.539-2.095-1.148-3.266-1.757-17.3-10.159-33.793-22.287-46.36-34.117A206.185,206.185,0,0,1,98.043,66.889c-5.167-5.6-10.086-11.121-16.314-16.745a156.353,156.353,0,0,0-13.409-10.7c-9.7-6.616-21.418-12.709-32.527-18.08C28.516,17.64,21.666,14.31,15.45,10.612,9.909,7.381,4.8,4.548,0,1.53L.414,0C5.528,2.834,10.82,5.994,16.361,9.225c6.216,3.7,13.066,7.028,20.343,10.755,11.288,5.7,23.073,11.534,32.706,18.406A138.483,138.483,0,0,1,83.066,49.152,214.993,214.993,0,0,1,99.629,65.969c4.561,4.873,9.052,10,14.964,15.81a252.09,252.09,0,0,0,45.933,33.72c1.171.609,2.1,1.148,3.266,1.757.924.539,2.1,1.148,3.019,1.686,13.176,7.609,23.98,15.089,34.289,22.429,21.182,14.565,41.014,28.195,76.439,40.511C315.871,195.3,349.4,198.837,393.382,194.37c10.465-1.131,20.82-2.843,32.057-4.852,13.43-2.207,27.176-4.6,41.074-5.572,21.536-1.539,41.539.6,61,6.712,32.228,10.3,43.3,26.652,55.164,44.048,6.86,10.2,13.9,20.725,25.709,30.416a62.556,62.556,0,0,0,8.53,6.007c11.687,7.183,24.452,11.378,36.4,15.616,13.691,4.734,26.632,9.255,35.743,17.075,6.724,5.766,12.881,11.646,19.291,17.6,14.027,13.345,28.231,27.017,51.4,42.149s49.974,24.712,84.328,30.13c11.018,1.773,21.451,1.732,31.394,1.55,19.561-.18,38.311-.318,61.107,12.236,6.537,3.514,12.721,8.3,19.8,14.72,16.91,15.542,32.783,29.964,58.015,25.635,9.789-1.6,17.582-5.69,25.938-9.9,2.469-1.218,4.624-2.251,7.093-3.469,24.791-11.6,49.169-16.718,72.814-15.183a58.339,58.339,0,0,1,7.292.71l-.413,1.53Z" transform="translate(53.881 304.791)" fill="#34ca00"/>
        <path id="Path_3122" data-name="Path 3122" d="M1126.3,424.587a150.337,150.337,0,0,0-23.943-4.367c-27.051-2.782-52.3,4.564-70.968,11.317-1.769.594-3.847,1.373-5.616,1.968-9.524,3.6-18.42,6.823-29.134,7.883-24.747,2.544-38.46-10.985-52.774-25.237-1.284-1.19-2.315-2.309-3.6-3.5a90.3,90.3,0,0,0-18.381-14.04c-21.446-11.619-38.736-9.965-57.089-8.34-10.147.947-20.608,2.078-32.26.673-34.023-3.675-60.159-12.788-82.057-28.657-20.547-14.933-32.959-30.29-44.947-45.249-5.815-7.154-11.2-13.911-17.4-20.627-8.516-9.024-21.567-14.126-35.616-19.511-10.885-4.209-22.274-8.56-32.293-14.992a61.677,61.677,0,0,1-8.145-6.447c-10.858-10.243-16.767-20.994-22.5-31.42-9.489-17.268-18.372-33.813-50.242-43.466a146.724,146.724,0,0,0-57.915-5.281c-16.476,1.611-32.94,5.149-48.59,8.645-7.418,1.727-14.2,3.085-21.234,4.372-42.578,8.164-76.771,11.033-116.182.6-34.7-9.086-53.024-25.308-72.523-42.139-9.467-8.472-19.43-17.086-31.406-25.176l-1.1-.864c-1.351-.935-2.949-1.941-4.548-2.947-18.619-12.185-33.475-22.471-45.6-31.978-4.837-3.854-9.247-7.311-13.339-10.952a252.683,252.683,0,0,0-22.973-17.823c-5.154-3.67-9.7-6.617-14.319-9.309-9.909-5.852-21.088-10.967-31.949-16.267-7.1-3.4-14.018-6.476-20.551-9.99C24.643,15.161,13.92,9.351,4.19,3.825,2.77,3.145,1.419,2.21,0,1.53L.414,0c1.6,1.006,3.018,1.686,4.617,2.692,9.73,5.526,20.453,11.336,32.913,17.641,6.6,3.259,13.2,6.518,20.3,9.919C69.177,35.3,80.355,40.412,90.2,46.519a164.991,164.991,0,0,1,14.567,9.38c8.531,6.007,15.5,11.844,23.221,17.894,4.162,3.386,8.5,7.1,13.339,10.952,12.127,9.506,26.984,19.793,45.6,31.978,1.6,1.006,2.949,1.941,4.548,2.947l1.1.864c12.224,8.161,22.188,16.775,31.654,25.247,19.25,16.76,37.33,32.911,71.53,41.855,38.915,10.291,72.859,7.352,115.19-.883,6.784-1.359,13.885-2.9,21.234-4.373,15.9-3.425,32.362-6.962,48.907-8.828,21.108-1.936,40.437-.261,58.66,5.494,32.545,10.12,41.676,26.736,51.345,44.33,5.481,10.355,11.459,20.852,22.138,30.769a54.967,54.967,0,0,0,7.717,6.05c10.02,6.432,21.155,10.712,32.046,14.921,14.292,5.456,27.6,10.629,36.289,19.979,6.2,6.715,11.833,13.543,17.648,20.7,11.988,14.96,24.152,30.245,44.7,45.179,21.65,15.8,47.361,24.514,81.136,28.118,11.4,1.334,21.865.2,32.012-.744,18.668-1.809,36.206-3.392,58.148,8.369A81.277,81.277,0,0,1,941.74,411.15c1.284,1.19,2.563,2.38,3.6,3.5,14.137,13.926,27.349,27.314,51.286,24.812,10.467-1.131,19.357-4.359,28.82-7.7,1.764-.595,3.847-1.373,5.611-1.968,18.988-6.937,44.236-14.283,71.778-11.359a187.187,187.187,0,0,1,24.2,4.438l-.485,1.785Z" transform="translate(57.307 293.135)" fill="#34ca00"/>
        <path id="Path_3123" data-name="Path 3123" d="M1125.328,428.156l-11.409-3.26c-9.43-2.693-19.285-5.783-29.063-7.2-23.408-3.39-45.592,1.535-70,7.748l-1.764.595c-11.448,2.774-22.08,5.505-34.211,5.885-23.7.647-35.247-11.99-47.4-25.349-1.819-2.168-3.952-4.151-5.771-6.318-6.024-6.389-11.536-10.71-17.389-13.757-20.277-11.01-36.6-7.982-54.058-4.728-10.174,2.038-20.85,3.933-32.706,3.294-33.764-1.678-58.726-10.182-79.108-26.716-18-14.479-28.3-31.705-38.311-48.025-4.8-7.961-10.015-16.319-15.62-24.238-7.854-10.483-21.264-16.236-35.423-22.2-9.827-4.181-19.9-8.432-28.432-14.439a40.835,40.835,0,0,1-7.579-6.56c-10.045-10.285-14.505-21.447-18.925-31.774-7.3-17.466-14.057-33.954-46.175-43.677-17.3-5.216-35.635-6.608-55.821-4.133-21,2.517-41.338,8.519-60.794,14.223l-5.543,1.712c-38.03,11.111-74.227,21.373-115.845,14.155-34.147-6.183-50.86-24.415-68.289-43.951-8.446-9.279-17.25-19.21-28.344-27.6l-5.333-4c-13.864-10-29.534-20.246-45.094-29.909-13.892-8.912-26.682-16.96-41.346-24.994-5.61-2.975-10.544-5.483-15.23-7.921-10.117-5.087-20.689-9.48-30.944-14.057C72.237,37.819,65.248,35,58.646,31.74c-13.094-5.937-23.459-11.1-32.583-15.9C17.863,11.576,8.738,6.772,0,1.53L.414,0C9.332,5.568,18.456,10.372,26.9,14.707c9.124,4.8,19.31,9.636,32.583,15.9q10.007,4.506,20.758,9.225c10.324,4.322,21.075,9.041,30.944,14.057,4.686,2.437,9.869,5.016,15.23,7.921,14.665,8.034,27.454,16.082,41.346,24.994,15.243,9.847,31.23,19.907,45.094,29.909l5.333,4c11.342,8.458,20.146,18.389,28.523,27.923,17.5,19.281,33.963,37.443,67.365,43.413,41.053,7.331,77-3,114.783-14.183l5.544-1.713c19.773-5.888,40.113-11.889,61.359-14.336,20.434-2.4,39.017-.941,56.565,4.346,33.179,9.751,40.05,26.821,47.526,44.612,4.42,10.327,8.7,21.163,18.5,31.377a42.974,42.974,0,0,0,7.152,6.163c8.53,6.007,18.358,10.188,28.257,14.113,14.4,6.037,28.131,11.606,36.344,22.741,5.919,7.735,10.825,16.277,15.868,24.309,10.015,16.319,20.134,33.219,37.887,47.628,19.952,16.137,44.666,24.57,77.863,26.361,11.861.64,22.283-1.327,32.144-3.18,17.7-3.183,34.343-6.4,55.364,4.827A74.315,74.315,0,0,1,927.3,399.335c2.067,2.238,3.952,4.151,5.771,6.318,11.723,12.963,23.022,25.528,45.73,24.6,11.889-.451,22.449-2.927,33.715-6.027l1.764-.595c24.654-6.142,47.091-11,70.813-7.79,10.02,1.489,19.7,4.253,29.305,7.272l11.415,3.26Z" transform="translate(60.001 283.192)" fill="#34ca00"/>
        <path id="Path_3124" data-name="Path 3124" d="M1123.851,434.856c-10.268-1.56-20.233-5.231-29.774-8.5-8.8-3.061-17.835-6.193-26.974-7.98-20.338-3.885-40.477-.575-60.06,2.622-15.058,2.292-30.5,5.022-46.1,4.41-23.038-.812-32.777-13.208-42.946-26-6.349-8.132-13.129-16.66-23.424-22.072-19.418-10.216-34.778-5.814-51.269-1.186-10.136,2.873-20.591,5.931-32.9,5.985-33.753.248-57.051-7.5-76.094-25.029-15.444-14.026-23.6-32.285-31.323-50.147a256.072,256.072,0,0,0-14.016-28.176c-7.121-12.2-21.209-18.418-34.729-24.752-11.927-5.328-24.026-10.982-32.155-20.446C612.921,223,609.77,211.935,606.55,201.127c-5.463-18.316-9.921-34.421-42.425-43.705l-.248-.071c-39.7-11.339-81.15,1.541-116.507,15.613-2.717,1.147-5.365,2.039-7.833,3.256-33.909,13.662-69.019,27.8-107.358,24.27-33.418-2.953-48.626-23.777-64.3-45.834-7.6-10.412-15.388-21.15-25.282-30.019-32.81-28.873-87.614-50.57-135.926-69.588-21.282-8.276-41.572-16.269-59.1-24.573C28.79,21.818,12.14,13.218,0,1.784L.484,0c12,11.942,28.968,20.359,47.672,29.273,17.6,8.049,37.643,15.971,58.856,24.5C155.572,72.864,210.376,94.56,243.435,123.5c10.143,8.94,17.925,19.678,25.461,30.345,15.5,21.731,30.28,42.159,62.884,45.154,38.091,3.464,72.883-10.495,106.544-24.227,2.717-1.146,5.364-2.038,7.833-3.256C481.831,157.264,523.6,144.2,563.8,155.68l.248.071c33.5,9.567,38.423,26.906,43.707,44.9,3.041,10.482,6.192,21.544,15.175,31.8,7.7,9.067,19.871,14.466,31.545,19.723,13.84,6.15,28.1,12.7,35.655,25.291,5.578,9.009,9.822,19.01,13.95,28.43,7.793,17.608,16.011,35.612,30.964,49.5,18.618,17.128,41.486,24.484,74.672,24.349,12.059-.125,22.443-2.927,32.331-5.872,16.81-4.812,32.733-9.328,52.829,1.356,10.726,5.81,17.505,14.338,24.1,22.54,9.987,12.466,19.3,24.465,41.525,25.32,15.361.541,30.733-1.934,45.79-4.226,19.825-3.126,40.218-6.366,60.87-2.665,9.386,1.857,18.431,4.99,27.47,8.122,9.789,3.345,19.506,6.944,29.779,8.5Z" transform="translate(63.137 270.374)" fill="#34ca00"/>
        <path id="Path_3125" data-name="Path 3125" d="M1122.179,439.558c-10.654-1.121-21.214-3.588-31.455-6.239-9.248-2.367-17.758-4.522-26.538-5.657-18.872-2.369-37.033,1.508-56.323,5.612-15.333,3.311-31.477,6.665-47.786,6.676-23.744-.189-34.795-12.684-46.38-26.157-6.311-7.3-13.046-14.988-21.964-20.557a70.037,70.037,0,0,0-10.367-5.158c-12.307-4.889-22.416-3.107-33.968-.913-2.508.382-5.087,1.019-7.843,1.33-6.967,1.033-15.554,2.15-25.221,1.312-19.467-1.165-34.448-4.072-46.8-9.8A83.587,83.587,0,0,1,740.659,360.8c-6.2-6.715-11.31-14.492-16.292-24.706-3.086-6.374-5.853-12.933-8.372-19.421-5-12.139-10.174-24.6-17.643-35.527-8.433-12.3-23.54-17.71-37.9-22.911-11.459-4.1-22.168-7.979-29.856-15.119-9.218-8.4-13.349-17.822-17.053-26.845-6.719-15.653-12.9-30.328-44.494-41-3.156-1.176-6.382-2.1-9.608-3.019-37.357-10.12-75.29-.355-107.378,10.531-4.1,1.3-8.26,2.859-12.672,4.346l-6.495,2.265c-29.192,10.065-62.549,21.687-98.945,17.884-31.97-3.364-46.78-22.7-62.554-43.412-7.316-9.506-14.989-19.663-24.594-27.625-32.59-27.712-85.727-48.657-132.619-67-19.545-7.78-38.167-15.021-54.349-22.39C40.816,38.124,16.971,27.468,4.256,9.278,3.471,8.23,2.934,7.252,2.148,6.2L0,2.295.622,0c.826,1.884,1.9,3.839,2.975,5.794A28.058,28.058,0,0,0,5.7,8.868C18.309,26.476,41.589,37.246,60.431,45.649c16.182,7.369,34.8,14.611,54.349,22.39,47.141,18.409,100.277,39.354,133.364,67.208,9.784,8.288,17.457,18.446,24.773,27.951,15.416,20.06,30.226,39.4,61.2,42.477,35.9,3.662,68.939-7.776,98.131-17.841l6.495-2.265c4.165-1.557,8.26-2.859,12.672-4.345,32.336-10.815,70.587-20.765,108.44-10.5,3.225.921,6.7,1.914,9.856,3.09,32.338,10.885,38.988,26.793,45.6,41.864,3.773,8.768,7.655,18.117,16.693,26.193,7.264,6.744,17.973,10.627,29.179,14.651,14.859,5.343,30.215,10.828,38.758,23.7,7.4,11.177,12.572,23.643,17.571,35.782,2.519,6.488,5.534,13.117,8.372,19.421A102.626,102.626,0,0,0,742,359.807a79.233,79.233,0,0,0,26.445,18.815c12.17,5.4,26.842,8.49,46.061,9.584a120.663,120.663,0,0,0,24.72-1.454c2.756-.311,5.335-.948,7.843-1.33,11.806-2.122,22.157-3.834,35.214,1.268a55.831,55.831,0,0,1,10.792,5.555c9.166,5.639,15.9,13.332,22.388,20.953,11.161,13.076,21.782,25.174,44.71,25.405,16.243.244,32.138-3.18,47.472-6.492,18.48-4.061,37.7-7.91,56.891-5.725,9.028,1.206,18.028,3.5,26.781,5.728,10.246,2.651,20.735,5.372,31.46,6.239l-.347,1.275Z" transform="translate(71.163 242.217)" fill="#34ca00"/>
        <path id="Path_3126" data-name="Path 3126" d="M1118.047,458.31c-10.863-.356-21.628-2.058-32.149-3.689-9.524-1.347-18.486-2.808-26.908-3.291-17.659-.924-34.4,3.633-52.272,8.417-15.857,4.26-32.276,8.634-49.538,9.2-25.012.547-37.479-12.628-50.487-26.78-6.024-6.389-12.225-13.1-19.9-18.318a106.53,106.53,0,0,0-9.6-6.036c-10.968-5.88-18.855-5.386-29.112-5.02-2.442.127-4.883.254-7.567.31a174.4,174.4,0,0,1-24.35-.911c-15.014-1.816-32.122-4.78-46.424-12.162a78.032,78.032,0,0,1-25.083-20.9c-5.385-6.757-9.86-14.9-14.215-25.484-1.94-4.674-3.632-9.278-5.258-14.137C720,325.115,714.635,310.4,705.139,298.072,695.223,285.351,679.025,281,663.57,276.86c-10.241-2.651-19.737-5.089-26.737-9.836-9.706-6.616-14.385-14-19.428-22.029-8.045-12.735-16.268-25.8-46.207-37.644l-9.469-3.529c-38.085-13.35-75.893-6.021-107.994,2.939l-15.678,4.586-6.991,2.123c-31.109,9.243-63.417,18.967-98.364,14.753-30.274-3.7-44.933-21.624-60.626-40.664-7.205-8.925-14.907-17.991-24.085-25.557-32.619-26.621-84.088-46.815-129.808-64.544C100.554,90.5,83.848,84.081,68.769,77.577,50.354,69.57,27.749,59.268,15.047,43.005c-.785-1.049-1.391-1.771-2.177-2.819C4.977,28.867,2.309,16.02,0,3.824L1.036,0a.945.945,0,0,0,.11.581C3.5,13.612,5.957,27.224,14.139,39.45c.537.977,1.391,1.771,1.929,2.748C28.591,58.135,51.017,68.111,69.183,76.047c15.079,6.5,31.716,13.179,49.415,19.882,45.721,17.729,97.686,38.065,130.235,64.941,9.425,7.637,17.058,16.958,24.264,25.883,15.514,18.714,29.994,36.309,59.206,39.983,34.451,4.072,66.69-5.4,97.55-14.711l6.991-2.123c5.544-1.712,10.452-3.057,15.678-4.586,32.349-8.888,70.474-16.4,109.056-2.91,3.4,1.247,6.561,2.424,9.717,3.6,30.683,12.06,39.443,26.1,47.129,38.182,4.861,7.706,9.546,15.087,18.822,21.307,6.752,4.675,16.248,7.114,26.246,9.694,15.2,4.068,32.463,8.449,42.737,21.822,9.425,12.58,15.041,27.368,20.233,41.76,1.868,4.929,3.56,9.534,5.258,14.137a99.3,99.3,0,0,0,13.785,25.087,74.179,74.179,0,0,0,24.405,20.43c14.06,7.312,30.915,10.2,45.68,11.95a163.969,163.969,0,0,0,24.031,1.1c2.69-.056,5.131-.183,7.567-.31,10.015-.437,18.712-.974,30.182,5.049a67.283,67.283,0,0,1,9.838,6.107c7.678,5.214,14.126,12,20.079,18.644,12.826,13.827,24.868,26.605,49.064,26.1,16.943-.379,33.367-4.752,49.224-9.013,17.869-4.784,34.927-9.525,52.834-8.53,8.741.3,17.7,1.76,27.161,3.362,10.516,1.631,21.28,3.333,32.4,3.76l-.419,1.53Z" transform="translate(81.65 200.01)" fill="#34ca00"/>
        <path id="Path_3127" data-name="Path 3127" d="M1114.4,467.276c-10.439.04-20.487-.358-30.468-1.012-10.549-.54-20.531-1.194-29.724-.8-16.447.521-32.017,5.687-48.469,11.151-16.38,5.209-33.147,10.857-51.363,11.973-26.594,1.468-41.447-13.762-55.7-28.269a184.146,184.146,0,0,0-16.662-15.471c-3.125-2.267-6.184-4.789-8.885-6.659-9.882-6.942-16.364-7.694-25.712-8.716-1.8-.241-3.858-.553-5.914-.865-1.554-.17-3.362-.411-5.164-.652q-8.127-1.086-18.492-2.809c-16.044-2.935-32.695-6.593-46.049-14.527a69.932,69.932,0,0,1-23.039-22.512c-5.9-8.826-9.392-18.614-11.883-26.192-1.047-3.045-1.846-6.02-2.893-9.066-5.131-16.573-10.373-33.727-21.716-47.128-11.585-13.473-30.071-16.281-46.259-18.707-8.46-1.319-16.678-2.567-22.675-5.1-11-4.79-16.524-11.037-23.149-18.149-8.874-9.676-19.209-20.868-46.638-33.1-3.088-1.431-6.175-2.862-9.332-4.039-39.063-16.651-78.51-11.163-108.362-4.583-6.219,1.245-12.258,2.816-18.615,4.571l-1.448.411c-2.9.821-5.722,1.387-8.37,2.279-30.2,7.854-61.208,15.752-95.025,11.312C303.757,236.83,289.07,220,273.459,202.631c-7.165-8.089-14.508-16.5-23.576-23.489-32.4-25.46-82.448-44.974-126.5-61.952-15.962-6.207-31-11.876-44.591-17.955C61.3,91.768,39.73,82.585,26.93,67.668a22.817,22.817,0,0,1-2-2.493C16.226,53.9,12.924,41.419,9.732,29.52A150.69,150.69,0,0,0,4.2,11.459,92.836,92.836,0,0,0,0,2.295L.622,0A87.577,87.577,0,0,1,5.648,11.049a186.687,186.687,0,0,1,5.463,18.316c3.3,12.479,6.494,24.378,15.021,35.328.606.723,1.392,1.771,2,2.493,12.69,14.337,34.013,23.449,51.256,30.846,13.659,5.824,28.629,11.748,44.59,17.955,44.3,17.048,94.6,36.633,127.245,62.164,9.068,6.985,16.411,15.4,23.755,23.815,15.363,17.3,29.692,33.476,57.525,37.306,33.251,4.553,62.884-3.189,94.212-11.27,2.9-.821,5.722-1.387,8.37-2.279l1.448-.411c6.6-1.684,12.644-3.255,18.863-4.5,30.169-6.765,70.113-12.111,109.671,4.682,3.088,1.431,6.244,2.608,9.58,4.109,27.925,12.371,38.614,24.214,47.064,33.494,6.377,7.041,11.723,12.963,22.476,17.681,6,2.537,13.961,3.714,22.179,4.962,16.684,2.567,35.666,5.517,47.433,19.315,11.586,13.472,17.009,30.952,22.14,47.525,1.047,3.046,1.775,6.275,2.888,9.066,2.491,7.578,5.809,17.041,11.707,25.866A67.585,67.585,0,0,0,772.964,409.3c13.107,7.864,29.509,11.451,45.311,14.315,6.835,1.4,12.82,2.014,18.238,2.738,1.8.241,3.61.482,5.17.652,2.05.312,4.106.624,5.914.865,9.6,1.093,16.32,1.916,26.627,9.255,2.706,1.87,6.013,4.463,8.89,6.659a184.159,184.159,0,0,1,16.662,15.471c14.672,14.9,28.5,29.014,54.279,27.589,17.891-.931,34.662-6.579,50.8-11.859,16.7-5.393,32.265-10.56,48.965-11.01,9.193-.395,19.423.33,29.972.87,9.982.654,20.277,1.123,30.964,1.154Z" transform="translate(91.72 167.335)" fill="#34ca00"/>
        <path id="Path_3128" data-name="Path 3128" d="M1116.78,461.951c-5.7.3-11.321.338-17.014.634-16.2.592-31.588,1.141-44.248,2.47-15.162,1.711-29.493,7.232-44.523,13.376-16.728,6.484-34.089,13.336-53.005,15.074-29,2.43-46.3-14.6-62.932-31.16-3.776-3.825-7.551-7.65-11.464-10.965a69.619,69.619,0,0,1-5.126-4.76c-1.1-.864-1.89-1.913-2.993-2.777-10.07-9.195-14.716-10.8-25.817-14.24l-.992-.284c-4.145-1.46-9.425-2.693-15.449-4.139-2.232-.638-4.784-1.092-7.512-1.871l-.5-.142c-16.022-4.026-32.535-8.193-45.118-17.006a67.4,67.4,0,0,1-21.065-23.871c-4.834-8.8-7.408-18.047-9.552-26.9L748.527,351c-4.222-17.961-9.133-38.316-22.708-52.355-13.5-14.294-34.982-14.936-52.146-15.719-6.619-.242-12.737-.342-17.769-1.505-13.922-2.878-20.536-8.063-30.711-15.912-9.315-7.056-20.768-16.1-42.916-27.091-3.087-1.431-6.106-3.117-9.193-4.549-30.957-15.984-64.732-19.588-108.978-12.175-6.467,1.174-13,2.6-20.917,4.189-4.523.905-9.115,2.066-13.389,3.042-30.735,6.878-59.457,13.232-92.321,8.239-26.951-4.127-41.557-19.285-56.947-35.492-7.124-7.254-14.427-14.833-22.819-21.35-32.675-24.44-81.552-43.345-124.93-59.855-13.55-5.244-26.6-10.346-38.664-15.164-17.56-7.213-37.533-15.39-50.32-28.381a22.983,22.983,0,0,1-2.067-2.239C32.75,64.425,28.537,53.334,24.256,42.5a123.76,123.76,0,0,0-6.471-15.582A90.087,90.087,0,0,0,0,1.785L.484,0A100.26,100.26,0,0,1,19.55,26.321,156.648,156.648,0,0,1,26.021,41.9C30.233,52.994,34.267,63.76,43.14,73.436c.606.723,1.461,1.516,2.067,2.239C57.814,88.34,77.539,96.445,94.851,103.588c11.992,5.073,24.866,9.849,38.415,15.092,43.309,16.765,92.5,35.486,125.357,60.252,8.641,6.588,15.943,14.168,23.067,21.421,15.212,15.881,29.569,30.969,55.776,34.883,32.369,4.851,61.09-1.5,91.508-8.2,4.523-.905,9.114-2.066,13.637-2.972,7.667-1.655,14.2-3.085,20.917-4.188,44.811-7.526,78.835-3.851,110.288,12.275,3.019,1.686,6.106,3.117,9.193,4.549a251.7,251.7,0,0,1,43.165,27.161c9.921,7.778,16.358,12.637,30.033,15.445,4.784,1.092,10.908,1.192,17.273,1.363,17.483.6,39.21,1.311,53.319,16.328,13.928,14.691,18.839,35.046,23.243,53.333l.948,4.391c2.216,8.6,4.79,17.848,9.375,26.574A66.829,66.829,0,0,0,781,404.773c12.407,8.487,28.92,12.654,44.622,16.864l.5.142c2.48.709,5.032,1.162,7.264,1.8,6.024,1.446,11.3,2.68,15.455,4.139l.992.283c11.023,3.7,15.989,5.117,26.489,14.708.854.793,1.957,1.658,2.987,2.777,1.461,1.516,3.417,3.174,5.126,4.76,3.847,3.57,7.871,7.466,11.712,11.036,16.458,16.235,33.334,32.868,61.2,30.664,18.844-1.483,35.958-8.406,52.686-14.89,15.278-6.073,29.608-11.594,45.091-13.489,12.974-1.513,28.363-2.062,44.562-2.654,5.941-.225,11.635-.522,17.577-.747Z" transform="translate(95.771 148.951)" fill="#34ca00"/>
        <path id="Path_3129" data-name="Path 3129" d="M1119.806,448.552a504.708,504.708,0,0,0-62.143,8.344c-13.884,2.9-26.974,8.776-40.764,15.275-17.07,7.759-34.778,15.885-54.962,18.36-32.844,3.8-54.218-17.957-73.023-37.338l-3.346-3.428c-2.921-3.031-5.17-5.6-7.413-8.16l-1.571-2.1c-7.705-9.067-10.059-12.211-19.858-17.483-5.363-2.9-13.162-5.683-22.024-8.489l-4.4-1.531c-14.5-4.691-29.5-9.524-40.775-18.237-8.389-6.517-14.5-14.578-19.269-25.556-3.952-9.094-5.826-18.967-7.226-27.607-3.2-18.768-7.215-42.438-23.2-57.44-16.16-15.329-40.913-12.785-58.765-11.017a91.3,91.3,0,0,1-11.459.847c-19.952.619-28.192-4.481-48.3-17.092-7.567-4.633-16.91-10.6-29.481-17.485a94.262,94.262,0,0,1-8.986-5.313c-31.506-18.888-65.4-25-109.663-19.512-6.646.848-13.361,1.952-21.455,3.211-6.149.99-12.12,2.307-18.021,3.368-29.893,5.744-58.021,10.894-89.755,5.675-25.324-4.212-39.958-18.28-55.267-32.815a205.734,205.734,0,0,0-22.062-19.211C233.245,150,184.794,131.5,142.092,115.452c-10.889-4.209-21.1-7.95-31-11.876C94.455,96.9,75.406,89.264,62.632,78.2c-.606-.723-1.53-1.261-2.136-1.983C51.167,67.234,45.865,57.2,40.99,47.571c-2.328-4.235-4.338-8.655-7.231-12.777C26.39,22.526,16.524,12.567,3.625,3.939,2.522,3.074,1.1,2.394,0,1.53L.414,0c1.351.935,2.77,1.615,4.121,2.55,13.079,8.955,23.123,19.24,30.492,31.507,2.576,4.306,4.834,8.8,7.162,13.032,5.054,9.959,10,19.336,19.4,28.063a24.138,24.138,0,0,0,2.136,1.983c12.526,10.994,30.4,18.023,47.785,24.91,9.9,3.926,20.042,7.922,31,11.876,42.882,16.368,91.649,34.693,124.958,58.765a194.051,194.051,0,0,1,22.31,19.281c15.061,14.465,29.515,28.207,54.343,32.277,31.417,5.4,59.615,0,89.191-5.563,5.9-1.061,12.119-2.306,18.021-3.367,8.094-1.259,14.809-2.363,21.455-3.211,44.507-5.416,78.654.766,110.9,19.867,3.018,1.686,5.789,3.3,8.986,5.313,12.5,7.142,21.915,12.851,29.483,17.485,20.106,12.61,27.674,17.243,47.058,16.737q4.878-.254,11.453-.848c18.42-1.88,43.421-4.353,60.435,11.769,16.414,15.4,20.354,39.324,23.491,58.347,1.472,8.385,3.34,18.258,7.044,27.281,4.6,10.652,10.45,18.642,18.668,24.833,11.023,8.643,25.838,13.15,40.339,17.841l4.4,1.53c8.863,2.807,16.667,5.584,22.278,8.56,10.048,5.342,12.831,8.883,20.531,17.95l1.571,2.1a92.565,92.565,0,0,0,7.165,8.089l3.346,3.428c18.381,18.984,39.325,40.348,71.353,36.586,19.869-2.291,37.33-10.488,54.4-18.247,14.038-6.427,27.195-12.558,41.084-15.459a465.566,465.566,0,0,1,62.386-8.273c.248.071.568-.113,1.064.028Z" transform="translate(98.989 138.314)" fill="#34ca00"/>
        <path id="Path_3130" data-name="Path 3130" d="M1125.068,431.1a3.568,3.568,0,0,1-1.626.085c-17.609,1.837-38.592,6.281-62.215,13.542-12.533,3.836-24.383,10.066-36.614,16.734-17.489,9.288-35.611,18.945-56.748,21.971-35.379,5.276-61.725-19.828-78.408-39.151a53.925,53.925,0,0,1-6.642-9.038c-2.4-3.98-4.189-7.239-5.55-10.1-2.794-5.468-4.878-9.633-11-14.676-5.264-4.25-13.421-7.68-21.154-10.713q-3.621-1.445-7.237-2.891c-13.548-5.244-27.6-10.629-37.81-19.314-8-6.956-13.4-15.64-17.229-27.17-2.96-8.811-3.908-18.145-4.894-28.315-2.056-22.012-6.41-44.406-22.493-58.064-19.748-16.9-49.131-9.089-66.685-4.49-1.45.411-3.142.75-4.343,1.231-28.434,7.261-37.595,1.621-81.688-26.078l-8.846-5.824C561.9,206.8,527.814,198.434,483.86,201.81c-7.639.565-15.415,1.64-22.061,2.488-7.528,1.146-15.056,2.291-22.336,3.508-29.052,4.612-56.724,9.068-87.824,3.481-23.7-4.3-38.18-16.948-53.586-30.138-6.725-5.766-13.628-11.858-21.3-17.072-35.074-23.477-84.09-41.872-127.289-58.056-7.058-2.565-13.867-5.06-20.359-7.738l-.744-.213C111.9,91.721,95.123,85.557,82.5,75.908c-.675-.467-1.53-1.261-2.2-1.728-9.853-8.033-15.887-16.349-22.1-24.99-2.287-3.4-4.891-6.616-7.425-10.086A114.816,114.816,0,0,0,20.1,12.214C13.879,8.516,7.1,4.931,0,1.53L.414,0A205.608,205.608,0,0,1,20.937,11.081c12.859,7.793,23,16.732,31.1,27.286,2.783,3.541,5.139,6.687,7.425,10.086,6.213,8.641,12,16.886,21.921,24.664a26.774,26.774,0,0,0,2.2,1.728c12.2,9.252,29.15,15.742,45.429,21.766l.744.212c6.561,2.424,13.371,4.918,20.359,7.738,43.447,16.255,92.532,34.4,127.785,58.2,7.924,5.285,14.828,11.377,21.553,17.143,15.158,13.119,29.462,25.445,52.594,29.855,30.783,5.771,58.208,1.244,87.259-3.368,7.28-1.217,14.809-2.362,22.337-3.508,6.645-.848,14.422-1.924,22.06-2.488,44.451-3.235,78.789,5.2,111.272,27.388l8.847,5.823c43.415,27.232,52.333,32.8,80.128,25.909l4.343-1.231c17.874-4.784,48.067-12.639,68.421,4.986,16.507,14.054,20.8,36.7,22.967,59.3.987,10.17,2,19.249,4.96,28.06,3.643,11.2,9.116,19.633,16.623,26.448,9.965,8.613,23.761,13.928,37.06,19.1q3.621,1.446,7.237,2.891c7.981,3.1,16.32,6.859,21.837,11.18,6.366,5.115,8.692,9.35,11.42,15.073a74.909,74.909,0,0,0,5.368,9.774,63.337,63.337,0,0,0,6.46,8.712c16.259,18.927,42.18,43.634,76.678,38.655,20.889-3.1,38.692-12.57,56.18-21.858,12.478-6.6,24.395-13.083,36.928-16.918,23.623-7.261,44.611-11.7,62.463-13.472l2.441-.127Z" transform="translate(100.468 131.87)" fill="#34ca00"/>
        <path id="Path_3131" data-name="Path 3131" d="M1129.972,413c-1.064-.029-1.946.269-3,.24-21.881,2.814-44.539,11.45-61.973,18.557-11.111,4.516-21.473,11.171-32.64,17.868-17.974,11.073-36.261,22.33-58.737,26.348-33.709,6.027-63.643-15.707-80.382-37.792a48.268,48.268,0,0,1-5.87-9.916,72.35,72.35,0,0,1-4.332-13.6c-1.168-5.552-2.227-10.524-7.149-16.05s-13.118-9.79-20.464-13.262c-3.087-1.431-6.173-2.862-9.508-4.365-12.671-5.541-26.009-11.549-35.093-20.46-7.617-7.395-12.633-16.518-15.262-28.53-2.006-9.363-2.315-19.065-2.7-28.513l.066-.255c-.4-18.244-3.158-44.576-21.721-58.942-16.359-12.638-39.877-11.665-71.761,3.4-29.735,14.031-44.154,11.011-85.6-17.58-2.949-1.942-5.826-4.137-8.708-6.333-32.468-25.2-66.432-36-110.647-34.626-6.439.084-13.581.791-22.6,1.511-8.769.792-17.676,2.093-26.018,3.281-28.6,3.918-55.5,7.5-86.141,1.214-22.319-4.452-36.9-15.758-52.085-27.786-6.367-5.114-13.05-10.045-20.3-14.863-38.8-24.54-93.339-44.239-137.173-60.055l-5.141-1.744c-14.859-5.343-30.215-10.828-42.329-18.408-.675-.467-1.35-.935-2.274-1.474-10.625-7.155-18-14.479-25.617-21.875l-6.945-6.928A152.015,152.015,0,0,0,36.594,19.4c-8.628-4.662-18.317-9.352-27.58-13.646C5.927,4.321,3.087,2.961,0,1.53L.414,0,9.677,4.293c9.511,4.365,19.2,9.055,27.828,13.717A145.566,145.566,0,0,1,69.215,41.076L76.16,48c7.551,7.65,14.744,14.649,25.369,21.8l2.026,1.4c11.867,7.509,27.222,12.994,41.833,18.266l5.142,1.743c43.833,15.816,98.376,35.516,137.421,60.127A234.456,234.456,0,0,1,308.5,166.279c15.255,11.773,29.339,22.938,51.409,27.319,30.4,6.21,57.049,2.561,85.645-1.356,8.59-1.117,17.249-2.489,26.266-3.21,9.086-.975,16.159-1.427,22.6-1.511,44.463-1.308,78.993,9.379,111.887,34.98,2.883,2.2,5.76,4.392,8.708,6.333,43.222,29.924,55.893,30.521,83.788,17.34,32.519-15.432,56.6-16.518,73.641-3.413,18.988,14.763,21.677,41.349,22.256,59.919l-.066.255c.132,9.376.441,19.079,2.7,28.513,2.7,11.757,7.529,20.554,14.9,27.878,9.149,8.656,22,14.523,34.663,20.064,3.086,1.431,6.427,2.934,9.513,4.365,7.6,3.542,16.044,7.878,21.143,13.729s6.156,10.823,7.5,16.7a59.414,59.414,0,0,0,4.156,13.272,45.924,45.924,0,0,0,5.688,9.59c16.315,21.689,45.57,42.955,78.469,36.971,22.157-3.834,40.444-15.091,58.17-26.235,11.172-6.7,21.528-13.352,32.959-18.052,17.5-7.362,40.406-15.926,62.287-18.741,1.378-.155,2.508-.381,3.886-.537Z" transform="translate(102.057 126.006)" fill="#34ca00"/>
        <path id="Path_3132" data-name="Path 3132" d="M1134.6,395.921a27.986,27.986,0,0,0-4.453.651c-21.771,3.4-44.556,14.467-61.725,23.571-9.695,5.2-18.673,11.7-28.467,18.237-18.2,12.928-37.044,26.225-60.854,31.234-33.742,7.118-66.851-12.775-82.36-36.433a48.4,48.4,0,0,1-4.916-10.468,52.781,52.781,0,0,1-2.017-16.233c-.077-6.615-.182-12.139-4.332-18.542-3.362-5.354-9.3-10.073-19.776-15.811-3.511-1.828-7.276-3.727-11.04-5.625-12.28-5.98-24.736-12.285-33.185-21.565-7.231-7.834-11.541-17.58-13.465-30.215-1.262-9.15-.832-18.64-.535-27.62l-.017-1.926c1.119-28.8-5.8-48.627-21.016-59.565-26.45-18.815-62.072,3.146-72.318,10.382-28.633,19.838-47.4,22.993-89.5-9.083-2.883-2.2-5.693-4.647-8.5-7.1-33.307-29.015-66.54-41.528-111.016-42.147-6.687.013-14.256.323-23.2.789-10.079.692-19.978,1.71-29.629,2.8-28.141,3.224-54.834,6.037-84.844-.612-20.939-4.607-36.292-15.035-50.9-25.25-6.078-4.208-12.4-8.487-19.115-12.327-41.554-24.23-95.1-43.645-131.77-56.315l-5.39-1.814c-13.012-4.266-26.2-8.858-37.492-14.554-.676-.467-1.42-.68-2.095-1.148C108.027,62.6,98.572,56.054,88.691,49.111L85.067,46.7a219.184,219.184,0,0,0-32.14-18.519c-4.686-2.437-9.441-4.62-14.693-6.943C25.208,15.048,11.935,8.784,0,1.53L.414,0C12.35,7.255,25.623,13.518,38.9,19.781c5.251,2.324,9.938,4.761,14.693,6.943a262.614,262.614,0,0,1,32.389,18.59L89.6,47.723c10.308,7.339,19.335,13.489,31.726,20.049.675.467,1.42.68,2.095,1.147,11.04,5.626,24.3,9.963,37.313,14.229l5.39,1.814c36.983,12.486,90.782,31.973,132.267,56.456,6.712,3.84,12.969,8.374,19.046,12.582,15.353,10.428,29.782,20.318,50.156,25.038,29.762,6.578,56.207,3.694,84.348.47q14.477-1.633,29.7-3.054c8.7-.536,16.517-.775,23.2-.788,45.289.576,78.771,13.16,112.506,42.572a82.844,82.844,0,0,0,8.571,6.843c40.5,31.071,58.109,29.233,87.376,9.026,10.566-7.42,47.069-29.679,74.688-10.254,15.466,11.009,22.747,31.492,21.738,60.867l.011,1.927c-.3,8.979-.727,18.469.358,27.294,1.742,12.309,5.875,21.73,12.925,29.238,8.267,8.954,20.729,15.259,32.761,21.168,3.764,1.9,7.529,3.8,11.04,5.625,10.726,5.81,16.662,10.528,20.454,16.279,4.321,6.729,4.293,12.763,4.442,19.122a51.29,51.29,0,0,0,2.083,15.978,45.352,45.352,0,0,0,4.74,10.142c14.793,22.354,47.83,42.5,80.189,35.54,23.568-5.08,42.087-18.192,60.225-30.866,9.612-6.868,18.839-13.3,28.534-18.493,17.489-9.288,40.34-20.615,62.358-23.939,1.946-.269,3.572-.353,5.269-.693l-.761,2.8Z" transform="translate(103.922 119.123)" fill="#34ca00"/>
        <path id="Path_3133" data-name="Path 3133" d="M1137.211,384.561a47.407,47.407,0,0,0-5.831.806c-16.821,2.886-37.633,12.6-61.548,28.84-8.135,5.366-15.736,11.711-23.9,18.167-18.508,15.039-37.9,30.375-63.119,36.63-33.842,8.463-71.012-11.218-84.4-34.819a37.985,37.985,0,0,1-4.145-11.346c-1.389-6.714-.612-12.536.413-18.286.871-7.167,1.924-14.008-1.45-21.289-3.087-6.375-8.818-11.858-19.153-18.106-3.875-2.479-8.063-4.775-12.252-7.07C850.177,351.742,838.1,345,830.219,335.6c-7.094-8.344-10.77-18.458-11.426-31.829-.518-8.938.59-17.96,1.631-26.727l.469-3.711c2.2-19.971.4-46.855-20.316-60.188-23.413-15.2-54.234-.11-73.123,17.294-28.732,26.127-52.239,33.969-93.334-.841-2.811-2.451-5.622-4.9-8.367-7.608-33.4-32.613-66.823-47.378-111.7-49.484-7.114-.384-14.862-.4-23.741-.188-11.319.337-22.28,1.327-32.993,2.387-27.934,2.459-53.992,4.9-83.864-2.255-19.809-4.834-35.438-14.242-50.392-23.183-5.54-3.231-11.26-6.787-17.117-9.833-35.683-19.257-79.64-37.58-123.956-51.611-3.969-1.134-7.871-2.523-12.089-3.728-9.856-3.09-19.96-6.251-29-9.383l-2.164-.892c-13.549-5.244-25.045-10.175-38.318-16.438-10.434-4.9-21.433-9.692-32.749-14.3C41.523,32.047,14.907,19.776,0,1.785L.484,0C14.756,18.36,41.62,30.7,68.015,41.812c11.247,4.86,22.564,9.466,32.75,14.3,13.273,6.263,24.52,11.124,38.318,16.438l2.164.893c9.221,3.458,19.077,6.548,29,9.383,3.969,1.134,8.119,2.594,12.089,3.727,44.565,14.1,88.769,32.5,124.452,51.753,5.857,3.046,11.577,6.6,17.117,9.833,15.629,9.408,30.4,18.023,49.965,22.786,29.624,7.088,55.613,4.9,83.3,2.368,10.713-1.06,21.674-2.05,32.993-2.387,8.879-.211,16.627-.195,23.81-.066,45.371,2.247,79.295,17.155,113.12,50.164,2.745,2.705,5.556,5.157,8.367,7.608,40.307,33.761,62.932,26.217,90.964.713,19.517-17.772,50.905-32.978,75.493-17.166,21.391,13.8,23.127,40.939,21.032,61.49l-.474,3.711c-1.036,8.767-1.9,17.861-1.56,26.473.794,12.861,4.294,22.649,11.139,30.922,7.634,9.322,19.528,15.74,31.174,22.088,4.189,2.3,8.378,4.591,12.252,7.07,7.137,4.237,15.6,10.5,19.759,18.828,3.555,7.607,2.679,14.774,1.736,22.2-.705,5.566-1.477,11.388-.336,18.031a29.615,29.615,0,0,0,4.029,10.766c13.03,22.948,49.279,42.092,82.233,33.926,24.9-6.071,44.049-21.478,62.557-36.517,7.849-6.273,15.769-12.8,23.9-18.168,24.163-16.171,45.046-26.138,62.116-28.953a61.4,61.4,0,0,1,6.642-.849l-.413,1.53Z" transform="translate(107.803 106.518)" fill="#34ca00"/>
        <path id="Path_3134" data-name="Path 3134" d="M1127.712,455.509c-2.188.2-4.7.58-7.209.961-24.312,4.868-50.955,25.273-61.3,33.854-6.515,5.282-12.98,11.4-19.065,17.078-18.954,17.659-38.791,35.615-65.731,43.3-31.786,8.775-73.674-7.31-86.373-33.459a38.207,38.207,0,0,1-3.439-11.969c-.755-7.082,1.042-13.711,2.772-20.084,2.21-8.158,4.1-16.132,1.251-24.362-2.629-7.068-8.086-13.571-18.216-20.584-4.051-2.805-8.664-5.5-12.969-8.373-11.255-6.787-22.945-13.971-30.441-23.8-6.636-9.038-9.678-19.52-9.452-33.188.16-8.47,1.692-17.1,3.23-25.722.232-1.855.717-3.64.953-5.5,2.282-13.356,5.071-46.344-19.61-60.811-25.612-15.005-55.772,3.572-73.927,24.206-18.4,20.563-34.651,30.205-51.208,30.145-14.435,0-29.553-7.343-46.033-22.488-2.563-2.38-5.556-5.157-8.229-8.118C589.221,270.386,555.6,253.368,510.4,249.521c-7.541-.78-15.537-.867-24.347-.911-12.312.054-24.334,1.015-36.04,1.792-27.547,2.02-53.716,3.884-83.132-3.969-19.422-5.273-36.141-13.619-52.364-21.823-4.259-2.041-8.449-4.336-12.708-6.377-28.572-13.929-71.548-33.9-116.141-46.907-12.9-3.685-26.439-7-39.232-10.107l-2.233-.638c-4.536-1.021-9.07-2.041-13.289-3.246-9.567-2.183-18.569-4.48-27.818-6.847-9.925-2.835-21.587-6.166-33.289-10.333-23.9-8.475-54.638-23.3-65.447-47.534C-3.324,75.591.7,57.789,4.651,40.24,6.7,28.741,9.448,16.614,8.7,4.589L9.94,0c1.895,13.728-1.022,27.451-4.118,40.851C1.731,58.909-2.014,75.693,5.49,92.394c10.7,23.656,40.939,38.337,64.413,46.415,11.7,4.167,23.364,7.5,33.359,10.077,9.429,2.693,18.251,4.663,27.818,6.847,4.287.95,8.822,1.971,13.289,3.246l2.233.638c12.792,3.1,26.33,6.422,39.232,10.107,44.593,13.011,87.817,33.048,116.389,46.978,4.259,2.041,8.518,4.081,12.708,6.376,16.967,8.417,32.693,16.479,52.116,21.753,29.169,7.782,55.089,5.847,82.388,3.756,11.706-.776,23.729-1.737,36.04-1.792,8.81.045,16.806.131,24.347.912,45.7,3.989,79.813,21.149,113.489,57.685a96.9,96.9,0,0,0,8.223,8.118c16.055,14.748,30.678,21.946,44.865,21.878,16.061-.082,31.923-9.285,50.007-29.663,18.547-21.072,49.836-39.876,76.369-24.333,25.359,14.934,22.68,48.5,20.255,62.369-.232,1.856-.717,3.64-.954,5.5-1.466,8.371-3,17-3.158,25.467-.408,13.343,2.706,23.57,9.166,32.282,7.314,9.506,18.756,16.618,30.016,23.406,4.365,2.621,8.918,5.568,13.217,8.444,7,4.747,15.5,11.845,19.065,21.378,2.96,8.81,1.069,16.784-1.213,25.2-1.725,6.374-3.2,12.818-2.7,19.829a30.967,30.967,0,0,0,3.263,11.644c12.34,25.5,53.237,41.3,83.958,32.5,26.627-7.5,46.215-25.528,65.1-42.932,6.085-5.679,12.8-11.726,19.313-17.007,13.09-10.819,38.438-29.4,62.182-34.151a56.207,56.207,0,0,1,8.025-1l-.347,1.275Z" transform="translate(123.795 11.607)" fill="#34ca00"/>
        <path id="Path_3135" data-name="Path 3135" d="M1107.4,443.406c-23.771.9-53.093,23.289-69.893,39.914-4.745,4.687-9.629,9.885-14.126,14.643-19.467,20.534-39.634,41.691-68.62,50.992-21.043,6.624-49.3,2.4-69.094-10.4-14.071-9.238-21.76-21.321-21.738-34.225-.05-7.705,2.447-14.956,5.126-21.882,3.373-9.475,6.283-18.256,4.029-27.69-3.632-14.222-17.273-23.063-31.526-32.627-10.875-7.226-22.173-14.848-29.1-24.793-12.649-18.444-7.408-39.746-2.7-60.1a56.612,56.612,0,0,0,1.477-6.444c2.4-10.849,8.394-46.768-18.91-61.434s-57.37,7.51-74.9,30.792c-19.677,26.242-38.807,38.632-58.478,38.231-16.739-.385-33.72-10.729-50.69-30.959C568.71,260.975,530.2,242.284,470.616,241.2c-13.3-.229-26.32.448-38.838,1.267-27.161,1.58-52.943,3.006-81.726-5.215l-.744-.212c-28.961-8.547-55.963-20.379-82.221-32-39.6-17.629-80.688-35.682-128.167-41-7.789-.852-15.647-1.448-23.257-1.974-18.336-1.392-37.168-2.925-55.1-7.773-23.145-6.336-50.985-21.979-58.471-46.64C-3.153,90.491,2.468,73.7,7.951,57.4c5.621-16.8,11.7-34.287,4.827-51.354A41.009,41.009,0,0,0,9.872,0l2.233.64a53.27,53.27,0,0,1,2.369,5.07c6.732,17.577.835,35.4-4.855,52.447-5.414,16.031-11.034,32.833-5.9,49.4,7.266,23.5,33.618,38.718,56.2,45.166l.992.284c17.934,4.848,36.518,6.311,54.854,7.7,7.61.526,15.468,1.122,23.257,1.974,47.727,5.392,89.064,23.517,128.911,41.215,26.009,11.549,53.011,23.382,81.973,31.929l.744.213c28.534,8.151,54.068,6.654,81.229,5.073,12.519-.819,25.534-1.5,38.838-1.267,59.586,1.089,99.766,20.53,139.059,66.912,16.618,19.578,33.1,29.78,49.268,30.279,19.109.514,37.672-11.763,56.963-37.566,17.99-23.977,48.7-46.519,77.168-31.245,28.225,15.2,22.212,52.214,19.8,63.063-.551,2.04-.926,4.4-1.477,6.444-4.961,20.282-9.811,41.145,2.475,58.938,6.68,9.874,17.8,17.17,28.677,24.4,14.749,9.706,28.572,18.873,32.309,33.675,2.436,9.76-.684,19.306-3.985,28.526-2.431,7-4.928,14.248-4.988,21.373.049,12.649,7.623,24.152,21.021,32.922,19.114,12.327,46.81,16.667,67.286,10.155,28.666-9.116,48.519-30.089,67.986-50.623,4.564-5.013,9.381-9.956,14.126-14.643,4.812-4.942,41.337-40.1,71.656-40.509l-.413,1.53Z" transform="translate(150.534 0)" fill="#34ca00"/>
      </g>
      <path id="Path_3136" data-name="Path 3136" d="M1129.306,420.21a96.613,96.613,0,0,1-27.068-11.577C867.78,263.657,794.927,268.118,730.458,272.227c-34.552,2.217-67.159,4.164-120.5-16.016-30.572-11.48-57.132-25.932-82.768-39.847-46.158-24.995-89.973-48.771-147.407-50.893-6.618-.242-13.553-.3-20.239-.287-26.677-.2-54.347-.691-79.64-10.937C241.8,138.97,218.782,108.5,196.615,78.82c-11.421-15.073-23.2-30.8-36.979-44.072C121.288-2.3,91.135,1.448,56.279,5.775,38.672,7.613,20.679,9.89,0,7.279L.829,4.22c19.934,2.4,37.611.306,54.721-1.674C90.089-1.6,122.434-5.543,162.064,32.694,176.091,46.04,187.8,62.019,199.4,77.418c21.808,29.027,44.4,59.1,81.507,74.095,24.618,9.778,52.04,10.195,78.152,10.512,6.687-.013,13.621.045,20.487.358,58.5,2.151,102.56,26,149.145,51.39,25.636,13.914,52.195,28.367,82.271,39.7,52.6,19.968,84.71,17.878,118.7,15.775,64.965-3.967,138.452-8.8,374.013,137.044a96.655,96.655,0,0,0,25.9,10.968l-.76,2.8Z" transform="translate(0 499.526)" fill="#34ca00"/>
      <path id="Path_3137" data-name="Path 3137" d="M1123.992,435.876c-10.274-1.56-20.239-5.231-30.027-8.575-8.791-3.061-17.835-6.193-26.974-7.98-20.084-3.814-40.229-.5-59.807,2.693-15.058,2.292-30.5,5.022-46.358,4.339-23.529-.954-33.7-13.746-43.619-26.468-6.349-8.132-12.952-16.334-22.995-21.676-18.927-10.075-33.654-6.041-50.464-1.228-10.13,2.873-20.834,5.86-33.147,5.914-34,.177-57.541-7.646-76.584-25.171-15.377-14.281-23.777-32.611-31.819-50.289-4.128-9.42-8.438-19.166-14.016-28.176-7.193-11.942-20.288-17.879-34.3-24.355-11.922-5.328-24.273-11.053-32.4-20.516-9.342-10.908-12.492-21.971-15.713-32.779-5.215-18.244-9.811-33.84-41.819-42.983-39.7-11.339-80.833,1.358-116.19,15.43l-7.833,3.256c-33.909,13.662-69.019,27.8-107.675,24.454-33.914-3.094-49.908-24.967-64.979-46.3-7.6-10.412-15.14-21.079-25.1-29.693C209.355,96.9,154.73,75.526,106.418,56.508c-21.53-8.347-41.572-16.269-59.1-24.572C28.789,23.349,12.07,15,0,3.314L.9,0c12,11.943,28.9,20.615,47.92,29.344,17.353,7.978,37.643,15.97,58.856,24.5,48.561,19.089,103.613,40.856,136.85,70.126,10.142,8.94,18.1,20,25.709,30.416,15.567,21.476,30.1,41.833,62.209,44.686,37.843,3.393,72.387-10.637,105.979-24.114l7.833-3.256c35.675-14.256,77.69-27.25,118.382-15.628l.248.071c33.993,9.709,38.919,27.047,44.313,45.618,3.041,10.482,6.261,21.29,15,31.476,7.771,8.811,19.626,14.395,31.051,19.581,14.016,6.476,28.352,12.768,36.079,25.687,5.512,9.264,9.816,19.01,14.2,28.5,7.865,17.353,16.011,35.612,30.788,49.17,18.436,16.8,41.232,24.413,73.922,24.137,11.817-.2,22.2-3,32.089-5.942,17.053-4.742,33.048-9.512,53.573,1.569,10.968,5.88,17.747,14.409,24.279,22.866,9.739,12.4,19.125,24.14,40.852,24.852,15.355.541,30.733-1.934,45.537-4.3,19.831-3.126,40.29-6.621,61.118-2.594,9.392,1.857,18.679,5.06,27.475,8.122,9.783,3.345,19.506,6.944,29.774,8.5l-.689,2.549Z" transform="translate(62.999 270.984)" fill="#34ca00"/>
      <path id="Path_3138" data-name="Path 3138" d="M1108.417,444.781c-23.276,1.043-52.278,23.247-69.083,39.872-4.745,4.687-9.629,9.884-14.126,14.642-19.462,20.534-39.7,41.947-68.934,51.176-21.357,6.809-49.869,2.511-69.838-10.609-14.319-9.308-22.184-21.718-22.344-34.947-.05-7.706,2.447-14.957,5.2-22.138,3.3-9.22,6.212-18,3.957-27.435-3.45-13.9-17.1-22.737-31.345-32.3-11.122-7.3-22.427-14.919-29.531-25.19-12.826-18.77-7.59-40.072-2.806-60.68a56.588,56.588,0,0,0,1.477-6.444c2.337-10.595,8.256-46.259-18.37-60.457s-56.312,7.538-73.6,30.891c-19.748,26.5-39.193,39.071-59.112,38.6-16.987-.457-34.464-10.942-51.434-31.172-39.3-46.381-77.627-64.746-136.9-66.019-13.3-.229-26.319.448-38.59,1.338-27.409,1.51-53.439,2.865-82.966-5.569-28.961-8.547-56.211-20.451-82.22-32-41.516-18.45-80.689-35.681-127.919-40.932-7.789-.852-15.647-1.448-23.257-1.974-18.336-1.391-37.168-2.925-55.35-7.844C37.69,149.113,9.918,133.215,2.184,108.483c-5.491-17.222.447-34.2,6-50.751,5.828-17.56,11.38-34.1,5.006-51.032A50.873,50.873,0,0,0,9.924,0l4.466,1.279c.647,1.556,1.542,3.186,2.189,4.742,6.911,17.9.766,35.651-4.924,52.707C6.242,74.76.691,91.3,5.824,107.875c7.266,23.5,34.183,38.6,56.583,44.728,17.934,4.848,36.518,6.31,54.536,7.886,7.61.526,15.468,1.122,23.257,1.974,47.975,5.463,89.311,23.587,129.159,41.286,26.009,11.549,53.011,23.382,81.724,31.858,28.465,8.405,54.5,7.051,81.656,5.47,12.519-.819,25.534-1.5,39.086-1.2,59.834,1.159,100.259,20.671,139.733,67.379,16.436,19.253,32.673,29.383,48.6,29.812,18.541.627,37.49-12.088,56.323-37.2,18.062-24.231,49.329-46.887,78.3-31.471,28.721,15.346,22.565,52.865,20.09,63.97-.551,2.039-.926,4.4-1.477,6.444-4.894,20.027-9.744,40.89,2.365,58.357,6.5,9.548,17.555,17.1,28.5,24.071,14.248,9.564,29,19.269,32.739,34.071,2.613,10.085-.76,19.561-4.056,28.781-2.431,7-4.861,13.993-4.994,21.372-.127,12.323,7.2,23.755,20.663,32.27,18.866,12.255,46.314,16.524,66.548,9.943,28.346-8.932,48.271-30.16,67.666-50.439,4.564-5.013,9.381-9.955,14.126-14.643,5.06-4.871,41.729-40.543,72.539-40.806l-.827,3.059Z" transform="translate(149.586 0)" fill="#34ca00"/>
    </g>
  </g>
</svg>
