<svg xmlns="http://www.w3.org/2000/svg" width="62.719" height="26.098" viewBox="0 0 62.719 26.098">
  <g id="Stripe_Logo__revised_2016" data-name="Stripe_Logo,_revised_2016" transform="translate(-54 -36)">
    <path id="Path_15268" data-name="Path 15268" d="M352.645,75.579c0-4.46-2.16-7.979-6.289-7.979-4.146,0-6.655,3.519-6.655,7.944,0,5.244,2.962,7.892,7.213,7.892a9.714,9.714,0,0,0,4.826-1.132V78.82a9.251,9.251,0,0,1-4.268.958c-1.69,0-3.188-.592-3.38-2.648h8.519C352.61,76.9,352.645,76,352.645,75.579Zm-8.607-1.655c0-1.969,1.2-2.788,2.3-2.788,1.063,0,2.2.819,2.2,2.788Z" transform="translate(-235.925 -26.095)" fill="#635bff" fill-rule="evenodd"/>
    <path id="Path_15269" data-name="Path 15269" d="M265.674,67.6a4.922,4.922,0,0,0-3.415,1.359l-.226-1.08H258.2V88.193l4.356-.923.017-4.93a4.906,4.906,0,0,0,3.084,1.1c3.119,0,5.958-2.509,5.958-8.032C271.6,70.353,268.723,67.6,265.674,67.6Zm-1.045,12a2.6,2.6,0,0,1-2.056-.819l-.017-6.464a2.593,2.593,0,0,1,2.073-.854c1.585,0,2.683,1.777,2.683,4.059C267.312,77.862,266.232,79.6,264.629,79.6Z" transform="translate(-168.624 -26.095)" fill="#635bff" fill-rule="evenodd"/>
    <path id="Path_15270" data-name="Path 15270" d="M223.8,40.477l4.373-.941V36l-4.373.923Z" transform="translate(-140.217)" fill="#635bff" fill-rule="evenodd"/>
    <rect id="Rectangle_3635" data-name="Rectangle 3635" width="4.373" height="15.244" transform="translate(83.583 41.802)" fill="#635bff"/>
    <path id="Path_15271" data-name="Path 15271" d="M177.742,69.736l-.279-1.289H173.7V83.691h4.356V73.359a3.073,3.073,0,0,1,3.31-.906V68.446A2.957,2.957,0,0,0,177.742,69.736Z" transform="translate(-98.846 -26.645)" fill="#635bff" fill-rule="evenodd"/>
    <path id="Path_15272" data-name="Path 15272" d="M126.668,47.6l-4.251.906L122.4,62.461a4.378,4.378,0,0,0,4.512,4.477,6.729,6.729,0,0,0,3.049-.575V62.827c-.558.226-3.31,1.028-3.31-1.551V55.091h3.31V51.381h-3.31Z" transform="translate(-56.483 -9.579)" fill="#635bff" fill-rule="evenodd"/>
    <path id="Path_15273" data-name="Path 15273" d="M58.408,72.321c0-.679.558-.941,1.481-.941A9.717,9.717,0,0,1,64.209,72.5V68.4a11.489,11.489,0,0,0-4.321-.8C56.352,67.6,54,69.447,54,72.53c0,4.808,6.62,4.042,6.62,6.115,0,.8-.7,1.063-1.673,1.063a10.844,10.844,0,0,1-4.756-1.394v4.146a12.077,12.077,0,0,0,4.756.993c3.624,0,6.115-1.794,6.115-4.913C65.046,73.349,58.408,74.273,58.408,72.321Z" transform="translate(0 -26.095)" fill="#635bff" fill-rule="evenodd"/>
  </g>
</svg>
