<svg xmlns="http://www.w3.org/2000/svg" width="16.707" height="19" viewBox="0 0 16.707 19">
  <g id="Group_60419" data-name="Group 60419" transform="translate(0 -0.327)">
    <path id="Path_15189" data-name="Path 15189" d="M19.174,2.5,20.426.327l3.551,2.051L22.725,4.546a.513.513,0,0,0,.541.76l2.4-.463.777,4.027-2.4.463A4.613,4.613,0,0,1,19.174,2.5Z" transform="translate(-9.735)" fill="#fff" fill-rule="evenodd"/>
    <path id="Path_15190" data-name="Path 15190" d="M7.268,28.107,6.016,30.276l-3.552-2.05,1.253-2.169a.513.513,0,0,0-.541-.76l-2.4.463L0,21.733l2.4-.463A4.613,4.613,0,0,1,7.268,28.107Z" transform="translate(0 -10.949)" fill="#fff" fill-rule="evenodd"/>
    <path id="Path_15191" data-name="Path 15191" d="M7.5,2.5,6.245.327,2.694,2.378,3.946,4.546a.513.513,0,0,1-.541.76l-2.4-.463L.23,8.87l2.4.463A4.613,4.613,0,0,0,7.5,2.5Z" transform="translate(-0.121)" fill="#fff" fill-rule="evenodd"/>
    <path id="Path_15192" data-name="Path 15192" d="M18.953,28.107,20.2,30.276l3.552-2.05L22.5,26.057a.513.513,0,0,1,.541-.76l2.4.463.777-4.026-2.4-.463a4.613,4.613,0,0,0-4.869,6.836Z" transform="translate(-9.619 -10.949)" fill="#fff" fill-rule="evenodd"/>
  </g>
</svg>
