<svg xmlns="http://www.w3.org/2000/svg" width="94.482" height="25.049" viewBox="0 0 94.482 25.049">
  <g id="PayPal" transform="translate(936.898 -21.779)">
    <path id="Path_15274" data-name="Path 15274" d="M-835.441,39.734a.4.4,0,0,0-.39.333l-2.251,14.274a.365.365,0,0,0,.083.294.365.365,0,0,0,.278.128h2.669a.4.4,0,0,0,.39-.333l.661-4.192a.4.4,0,0,1,.39-.333h2.427a5.756,5.756,0,0,0,5.682-4.872,4.67,4.67,0,0,0-4.9-5.3Zm2.595,3.187h1.942c1.6,0,2.119.943,1.955,1.986s-.973,1.815-2.519,1.815h-1.976Zm12.774.97a6.071,6.071,0,0,0-2.32.5,6.063,6.063,0,0,0-3.364,3.807s-1.3,3.827,1.633,5.929a5,5,0,0,0,5.774-.125l-.053.336a.366.366,0,0,0,.083.294.365.365,0,0,0,.277.128h2.534a.4.4,0,0,0,.39-.333l1.541-9.775a.365.365,0,0,0-.083-.294.365.365,0,0,0-.277-.128h-2.534a.4.4,0,0,0-.39.333l-.083.526a4.4,4.4,0,0,0-3.129-1.2Zm.083,3.088a2.6,2.6,0,0,1,.8.117,2.241,2.241,0,0,1,1.534,2.54,2.839,2.839,0,0,1-2.845,2.434,2.6,2.6,0,0,1-.8-.117,2.244,2.244,0,0,1-1.537-2.54,2.843,2.843,0,0,1,2.849-2.435Z" transform="translate(-71.245 -12.946)" fill="#003087"/>
    <path id="Path_15275" data-name="Path 15275" d="M-704.641,39.734a.4.4,0,0,0-.39.333l-2.251,14.274a.365.365,0,0,0,.083.294.365.365,0,0,0,.278.128h2.669a.4.4,0,0,0,.39-.333l.661-4.192a.4.4,0,0,1,.39-.333h2.427a5.755,5.755,0,0,0,5.682-4.872,4.669,4.669,0,0,0-4.9-5.3Zm2.595,3.187h1.942c1.6,0,2.119.943,1.955,1.986s-.973,1.815-2.519,1.815h-1.976Zm12.774.97a6.071,6.071,0,0,0-2.32.5,6.062,6.062,0,0,0-3.364,3.807s-1.3,3.827,1.633,5.929a5,5,0,0,0,5.774-.125l-.053.336a.365.365,0,0,0,.083.294.365.365,0,0,0,.278.128h2.534a.4.4,0,0,0,.39-.333l1.542-9.775a.366.366,0,0,0-.083-.295.366.366,0,0,0-.278-.128h-2.534a.4.4,0,0,0-.39.333l-.083.526a4.4,4.4,0,0,0-3.129-1.2Zm.083,3.088a2.6,2.6,0,0,1,.8.117,2.241,2.241,0,0,1,1.534,2.54,2.838,2.838,0,0,1-2.845,2.434,2.6,2.6,0,0,1-.8-.117,2.244,2.244,0,0,1-1.537-2.54,2.843,2.843,0,0,1,2.849-2.435Z" transform="translate(-165.554 -12.946)" fill="#0070e0"/>
    <path id="Path_15276" data-name="Path 15276" d="M-746.687,55.858a.3.3,0,0,0-.282.387l2.778,8.621-2.512,4.063a.3.3,0,0,0,.252.452h2.969a.494.494,0,0,0,.422-.238l7.759-12.835a.3.3,0,0,0-.254-.449h-2.969a.494.494,0,0,0-.425.242L-742,61.257l-1.55-5.118a.4.4,0,0,0-.378-.281Z" transform="translate(-136.931 -24.572)" fill="#003087"/>
    <path id="Path_15277" data-name="Path 15277" d="M-615.945,39.734a.4.4,0,0,0-.39.333l-2.251,14.274a.366.366,0,0,0,.083.295.366.366,0,0,0,.278.128h2.669a.4.4,0,0,0,.39-.333l2.251-14.274a.365.365,0,0,0-.083-.294.365.365,0,0,0-.277-.128Z" transform="translate(-229.504 -12.946)" fill="#0070e0"/>
    <path id="Path_15278" data-name="Path 15278" d="M-913.275,39.734a.723.723,0,0,0-.713.61l-1.185,7.515a.722.722,0,0,1,.713-.61h3.472a7.091,7.091,0,0,0,7-6,5.805,5.805,0,0,0,.068-.779,6.59,6.59,0,0,0-3.074-.732Z" transform="translate(-15.664 -12.946)" fill="#001c64"/>
    <path id="Path_15279" data-name="Path 15279" d="M-908.516,42.359a5.805,5.805,0,0,1-.068.779,7.092,7.092,0,0,1-7,6h-3.472a.722.722,0,0,0-.713.61l-1.089,6.905-.682,4.332a.586.586,0,0,0,.133.473.586.586,0,0,0,.446.205h3.769a.722.722,0,0,0,.713-.61l.993-6.3a.723.723,0,0,1,.714-.61h2.219a7.091,7.091,0,0,0,7-6,5.5,5.5,0,0,0-2.96-5.789Z" transform="translate(-11.066 -14.839)" fill="#0070e0"/>
    <path id="Path_15280" data-name="Path 15280" d="M-933.22,21.779a.722.722,0,0,0-.713.609l-2.957,18.752a.587.587,0,0,0,.579.678h4.385l1.089-6.905,1.185-7.515a.723.723,0,0,1,.713-.61h6.282a6.593,6.593,0,0,1,3.074.732,5.788,5.788,0,0,0-6.1-5.741Z" transform="translate(0)" fill="#003087"/>
  </g>
</svg>
