<svg xmlns="http://www.w3.org/2000/svg" width="10.959" height="12.463" viewBox="0 0 10.959 12.463">
  <g id="Group_60449" data-name="Group 60449" transform="translate(4210.169 -1551.285)">
    <path id="Path_15264" data-name="Path 15264" d="M227.356,465.77l.822-1.423,2.329,1.345-.821,1.422a.336.336,0,0,0,.354.5l1.574-.3.51,2.641-1.574.3A3.026,3.026,0,0,1,227.356,465.77Z" transform="translate(-4431.334 1086.938)" fill="#34ca00" fill-rule="evenodd"/>
    <path id="Path_15265" data-name="Path 15265" d="M225.933,475.387l-.822,1.423-2.33-1.345.822-1.423a.336.336,0,0,0-.355-.5l-1.574.3-.509-2.641,1.574-.3A3.026,3.026,0,0,1,225.933,475.387Z" transform="translate(-4431.334 1086.938)" fill="#34ca00" fill-rule="evenodd"/>
    <path id="Path_15266" data-name="Path 15266" d="M226,465.77l-.822-1.423-2.329,1.345.821,1.422a.337.337,0,0,1-.355.5l-1.574-.3-.508,2.641,1.573.3A3.026,3.026,0,0,0,226,465.77Z" transform="translate(-4431.334 1086.938)" fill="#34ca00" fill-rule="evenodd"/>
    <path id="Path_15267" data-name="Path 15267" d="M227.287,475.387l.821,1.423,2.33-1.345-.821-1.423a.336.336,0,0,1,.354-.5l1.574.3.51-2.641-1.574-.3a3.026,3.026,0,0,0-3.194,4.484Z" transform="translate(-4431.334 1086.938)" fill="#34ca00" fill-rule="evenodd"/>
  </g>
</svg>
