<svg xmlns="http://www.w3.org/2000/svg" xmlns:xlink="http://www.w3.org/1999/xlink" width="302.054" height="222.039" viewBox="0 0 302.054 222.039">
  <defs>
    <linearGradient id="linear-gradient" x1="0.5" x2="0.5" y2="1" gradientUnits="objectBoundingBox">
      <stop offset="0" stop-color="#eeffe9"/>
      <stop offset="1" stop-color="#e7ffdf" stop-opacity="0"/>
    </linearGradient>
  </defs>
  <g id="Group_60263" data-name="Group 60263" transform="translate(2057.546 1305.532)">
    <path id="Path_14300" data-name="Path 14300" d="M-460.742,2088.482v-2.636h.537v2.188h1.334v.448Z" transform="translate(-1494.38 -3173.378)"/>
    <path id="Path_14301" data-name="Path 14301" d="M-427.5,2097.226a1.041,1.041,0,0,1,.125-.491.857.857,0,0,1,.354-.363,1.051,1.051,0,0,1,.512-.125.961.961,0,0,1,.716.284.981.981,0,0,1,.279.717.991.991,0,0,1-.282.724.952.952,0,0,1-.71.288,1.121,1.121,0,0,1-.5-.12.821.821,0,0,1-.365-.351,1.169,1.169,0,0,1-.125-.563Zm.522.027a.637.637,0,0,0,.136.439.431.431,0,0,0,.335.152.428.428,0,0,0,.334-.152.646.646,0,0,0,.135-.442.634.634,0,0,0-.135-.435.429.429,0,0,0-.334-.153.431.431,0,0,0-.335.153.638.638,0,0,0-.136.438Z" transform="translate(-1525.487 -3183.112)"/>
    <path id="Path_14302" data-name="Path 14302" d="M-390.138,2098.216h-.509v-1.925h.473v.274a.823.823,0,0,1,.218-.255.4.4,0,0,1,.22-.062.645.645,0,0,1,.335.1l-.158.444a.449.449,0,0,0-.239-.083.283.283,0,0,0-.181.059.4.4,0,0,0-.117.213,3.03,3.03,0,0,0-.043.646v.594Z" transform="translate(-1559.979 -3183.112)"/>
    <path id="Path_14303" data-name="Path 14303" d="M-368.835,2097.6l.508.085a.832.832,0,0,1-.309.425.907.907,0,0,1-.528.146.861.861,0,0,1-.743-.328,1.1,1.1,0,0,1-.19-.663,1.064,1.064,0,0,1,.25-.75.824.824,0,0,1,.633-.271.855.855,0,0,1,.678.284,1.256,1.256,0,0,1,.237.869h-1.276a.515.515,0,0,0,.123.353.386.386,0,0,0,.294.126.312.312,0,0,0,.2-.065.4.4,0,0,0,.123-.21Zm.029-.515a.491.491,0,0,0-.114-.336.351.351,0,0,0-.265-.115.354.354,0,0,0-.276.121.471.471,0,0,0-.107.33Z" transform="translate(-1579.209 -3183.112)"/>
    <path id="Path_14304" data-name="Path 14304" d="M-336.182,2096.291h.47v.263a.755.755,0,0,1,.6-.306.646.646,0,0,1,.321.076.587.587,0,0,1,.223.23.893.893,0,0,1,.274-.23.672.672,0,0,1,.314-.076.7.7,0,0,1,.359.086.528.528,0,0,1,.219.253,1.1,1.1,0,0,1,.053.4v1.231h-.509v-1.1a.818.818,0,0,0-.053-.37.241.241,0,0,0-.217-.109.348.348,0,0,0-.2.065.363.363,0,0,0-.136.191,1.378,1.378,0,0,0-.042.4v.925h-.509v-1.055a1.46,1.46,0,0,0-.027-.363.232.232,0,0,0-.084-.122.266.266,0,0,0-.155-.04.371.371,0,0,0-.212.063.349.349,0,0,0-.135.183,1.361,1.361,0,0,0-.041.4v.935h-.509v-1.925Z" transform="translate(-1610.951 -3183.112)"/>
    <path id="Path_14305" data-name="Path 14305" d="M-268.037,2085.978v-.471h.509v.471Zm0,2.187v-1.926h.509v1.926Z" transform="translate(-1674.725 -3173.061)"/>
    <path id="Path_14306" data-name="Path 14306" d="M-252.18,2096.291h.475v.283a.71.71,0,0,1,.25-.236.691.691,0,0,1,.35-.091.734.734,0,0,1,.569.263,1.065,1.065,0,0,1,.234.733,1.1,1.1,0,0,1-.236.75.734.734,0,0,1-.571.268.65.65,0,0,1-.289-.063.976.976,0,0,1-.273-.218v.97h-.509v-2.658Zm.5.93a.741.741,0,0,0,.129.479.394.394,0,0,0,.314.155.369.369,0,0,0,.3-.142.734.734,0,0,0,.118-.467.7.7,0,0,0-.121-.45.376.376,0,0,0-.3-.147.391.391,0,0,0-.31.144.641.641,0,0,0-.123.427Z" transform="translate(-1689.565 -3183.112)"/>
    <path id="Path_14307" data-name="Path 14307" d="M-219.394,2097.667l.511-.078a.375.375,0,0,0,.132.226.448.448,0,0,0,.279.077.5.5,0,0,0,.3-.073.161.161,0,0,0,.067-.136.133.133,0,0,0-.036-.1.4.4,0,0,0-.17-.067,2.745,2.745,0,0,1-.781-.248.5.5,0,0,1-.228-.433.533.533,0,0,1,.2-.42.922.922,0,0,1,.613-.171,1.068,1.068,0,0,1,.587.129.657.657,0,0,1,.265.381l-.48.089a.3.3,0,0,0-.117-.172.426.426,0,0,0-.246-.06.552.552,0,0,0-.288.056.12.12,0,0,0-.058.1.112.112,0,0,0,.051.092,1.9,1.9,0,0,0,.476.143,1.42,1.42,0,0,1,.568.227.471.471,0,0,1,.16.379.581.581,0,0,1-.221.455.979.979,0,0,1-.654.19,1.073,1.073,0,0,1-.623-.16.734.734,0,0,1-.3-.433Z" transform="translate(-1720.248 -3183.112)"/>
    <path id="Path_14308" data-name="Path 14308" d="M-184.4,2088.165v-2.658h.509v2.658Z" transform="translate(-1752.994 -3173.061)"/>
    <path id="Path_14309" data-name="Path 14309" d="M-167.212,2098.85v-.288a.744.744,0,0,1-.276.243.777.777,0,0,1-.362.089.706.706,0,0,1-.348-.085.5.5,0,0,1-.223-.239,1.068,1.068,0,0,1-.069-.426v-1.218h.509v.885a2.455,2.455,0,0,0,.028.5.272.272,0,0,0,.1.145.313.313,0,0,0,.189.053.4.4,0,0,0,.234-.072.366.366,0,0,0,.141-.177,2.063,2.063,0,0,0,.038-.52v-.812h.509v1.925Z" transform="translate(-1767.887 -3183.747)"/>
    <path id="Path_14310" data-name="Path 14310" d="M-133.556,2096.291h.47v.263a.755.755,0,0,1,.6-.306.646.646,0,0,1,.321.076.587.587,0,0,1,.223.23.892.892,0,0,1,.274-.23.672.672,0,0,1,.314-.076.7.7,0,0,1,.359.086.528.528,0,0,1,.219.253,1.1,1.1,0,0,1,.053.4v1.231h-.509v-1.1a.819.819,0,0,0-.053-.37.241.241,0,0,0-.218-.109.348.348,0,0,0-.2.065.363.363,0,0,0-.136.191,1.377,1.377,0,0,0-.042.4v.925h-.509v-1.055a1.46,1.46,0,0,0-.027-.363.232.232,0,0,0-.084-.122.266.266,0,0,0-.155-.04.372.372,0,0,0-.212.063.349.349,0,0,0-.135.183,1.361,1.361,0,0,0-.041.4v.935h-.509v-1.925Z" transform="translate(-1800.58 -3183.112)"/>
    <path id="Path_14311" data-name="Path 14311" d="M-65.311,2088.165h-.473v-.283a.764.764,0,0,1-.278.245.712.712,0,0,1-.324.081.733.733,0,0,1-.568-.268,1.087,1.087,0,0,1-.237-.746,1.075,1.075,0,0,1,.23-.744.75.75,0,0,1,.582-.255.721.721,0,0,1,.558.268v-.957h.509v2.658Zm-1.36-1a.88.88,0,0,0,.085.446.385.385,0,0,0,.344.2.375.375,0,0,0,.3-.15.691.691,0,0,0,.123-.447.755.755,0,0,0-.12-.478.379.379,0,0,0-.306-.146.383.383,0,0,0-.3.144.651.651,0,0,0-.122.43Z" transform="translate(-1862.688 -3173.061)"/>
    <path id="Path_14312" data-name="Path 14312" d="M-31.889,2097.226a1.042,1.042,0,0,1,.125-.491.857.857,0,0,1,.354-.363,1.051,1.051,0,0,1,.512-.125.961.961,0,0,1,.716.284.981.981,0,0,1,.279.717.991.991,0,0,1-.282.724.952.952,0,0,1-.71.288,1.121,1.121,0,0,1-.5-.12.822.822,0,0,1-.365-.351,1.169,1.169,0,0,1-.125-.563Zm.522.027a.637.637,0,0,0,.136.439.431.431,0,0,0,.335.152.428.428,0,0,0,.334-.152.646.646,0,0,0,.135-.442.634.634,0,0,0-.135-.435.429.429,0,0,0-.334-.153.431.431,0,0,0-.335.153.637.637,0,0,0-.136.438Z" transform="translate(-1895.726 -3183.112)"/>
    <path id="Path_14313" data-name="Path 14313" d="M5.306,2088.165v-2.658h.51v2.658Z" transform="translate(-1930.535 -3173.061)"/>
    <path id="Path_14314" data-name="Path 14314" d="M19.552,2097.226a1.042,1.042,0,0,1,.125-.491.857.857,0,0,1,.354-.363,1.051,1.051,0,0,1,.512-.125.961.961,0,0,1,.716.284.981.981,0,0,1,.279.717.991.991,0,0,1-.282.724.952.952,0,0,1-.71.288,1.121,1.121,0,0,1-.5-.12.821.821,0,0,1-.365-.351,1.169,1.169,0,0,1-.125-.563Zm.522.027a.637.637,0,0,0,.136.439.444.444,0,0,0,.67,0,.646.646,0,0,0,.135-.442.634.634,0,0,0-.135-.435.444.444,0,0,0-.67,0,.637.637,0,0,0-.136.438Z" transform="translate(-1943.867 -3183.112)"/>
    <path id="Path_14315" data-name="Path 14315" d="M56.917,2098.216h-.509v-1.925h.473v.274a.823.823,0,0,1,.218-.255.4.4,0,0,1,.22-.062.645.645,0,0,1,.335.1l-.158.444a.449.449,0,0,0-.239-.083.283.283,0,0,0-.181.059.4.4,0,0,0-.117.213,3.028,3.028,0,0,0-.043.646v.594Z" transform="translate(-1978.359 -3183.112)"/>
    <path id="Path_14316" data-name="Path 14316" d="M92.558,2097.667l.511-.078a.375.375,0,0,0,.132.226.448.448,0,0,0,.279.077.5.5,0,0,0,.3-.073.161.161,0,0,0,.067-.136.133.133,0,0,0-.036-.1.4.4,0,0,0-.17-.067,2.745,2.745,0,0,1-.781-.248.5.5,0,0,1-.228-.433.533.533,0,0,1,.2-.42.922.922,0,0,1,.613-.171,1.068,1.068,0,0,1,.587.129.657.657,0,0,1,.265.381l-.48.089a.3.3,0,0,0-.117-.172.426.426,0,0,0-.246-.06.552.552,0,0,0-.288.056.12.12,0,0,0-.058.1.112.112,0,0,0,.051.092,1.9,1.9,0,0,0,.476.143,1.42,1.42,0,0,1,.568.227.471.471,0,0,1,.16.379.581.581,0,0,1-.221.455.979.979,0,0,1-.655.19,1.073,1.073,0,0,1-.623-.16.734.734,0,0,1-.3-.433Z" transform="translate(-2012.19 -3183.112)"/>
    <path id="Path_14317" data-name="Path 14317" d="M127.549,2085.978v-.471h.509v.471Zm0,2.187v-1.926h.509v1.926Z" transform="translate(-2044.937 -3173.061)"/>
    <path id="Path_14318" data-name="Path 14318" d="M141.446,2087.006v.406H141.1v.776a1.925,1.925,0,0,0,.01.275.111.111,0,0,0,.045.064.144.144,0,0,0,.086.025.663.663,0,0,0,.2-.049l.043.4a1.012,1.012,0,0,1-.4.076.64.64,0,0,1-.248-.046.365.365,0,0,1-.162-.12.472.472,0,0,1-.072-.2,2.476,2.476,0,0,1-.016-.359v-.84h-.234v-.406h.234v-.382l.511-.3v.68Z" transform="translate(-2056.92 -3173.827)"/>
    <path id="Path_14319" data-name="Path 14319" d="M177.413,2096.878l-.462-.083a.721.721,0,0,1,.268-.413.983.983,0,0,1,.566-.134,1.221,1.221,0,0,1,.508.081.507.507,0,0,1,.235.205,1.05,1.05,0,0,1,.068.456l-.005.595a2.066,2.066,0,0,0,.024.374,1.094,1.094,0,0,0,.092.258h-.5c-.013-.034-.03-.084-.049-.15-.008-.03-.014-.05-.018-.06a.92.92,0,0,1-.279.19.8.8,0,0,1-.317.063.656.656,0,0,1-.469-.161.536.536,0,0,1-.171-.408.548.548,0,0,1,.078-.291.51.51,0,0,1,.218-.2,1.708,1.708,0,0,1,.405-.119,2.756,2.756,0,0,0,.495-.125v-.051a.264.264,0,0,0-.073-.21.438.438,0,0,0-.274-.062.365.365,0,0,0-.212.053.372.372,0,0,0-.123.188Zm.682.413a3.077,3.077,0,0,1-.31.078.939.939,0,0,0-.277.089.212.212,0,0,0-.1.179.25.25,0,0,0,.08.185.279.279,0,0,0,.2.078.442.442,0,0,0,.263-.091.321.321,0,0,0,.121-.169,1,1,0,0,0,.02-.248v-.1Z" transform="translate(-2091.121 -3183.112)"/>
    <path id="Path_14320" data-name="Path 14320" d="M210.589,2096.291h.47v.263a.755.755,0,0,1,.6-.306.646.646,0,0,1,.321.076.586.586,0,0,1,.223.23.893.893,0,0,1,.274-.23.672.672,0,0,1,.314-.076.7.7,0,0,1,.359.086.528.528,0,0,1,.219.253,1.1,1.1,0,0,1,.053.4v1.231h-.509v-1.1a.818.818,0,0,0-.053-.37.241.241,0,0,0-.218-.109.348.348,0,0,0-.2.065.363.363,0,0,0-.136.191,1.378,1.378,0,0,0-.042.4v.925h-.509v-1.055a1.461,1.461,0,0,0-.027-.363.232.232,0,0,0-.084-.122.266.266,0,0,0-.155-.04.372.372,0,0,0-.212.063.349.349,0,0,0-.135.183,1.364,1.364,0,0,0-.041.4v.935h-.51v-1.925Z" transform="translate(-2122.651 -3183.112)"/>
    <path id="Path_14321" data-name="Path 14321" d="M261.075,2096.878l-.462-.083a.721.721,0,0,1,.268-.413.983.983,0,0,1,.566-.134,1.221,1.221,0,0,1,.508.081.507.507,0,0,1,.235.205,1.05,1.05,0,0,1,.068.456l-.005.595a2.066,2.066,0,0,0,.024.374,1.1,1.1,0,0,0,.092.258h-.5c-.013-.034-.03-.084-.049-.15-.008-.03-.015-.05-.018-.06a.92.92,0,0,1-.279.19.8.8,0,0,1-.317.063.656.656,0,0,1-.469-.161.536.536,0,0,1-.171-.408.548.548,0,0,1,.078-.291.51.51,0,0,1,.218-.2,1.708,1.708,0,0,1,.405-.119,2.756,2.756,0,0,0,.495-.125v-.051a.264.264,0,0,0-.073-.21.438.438,0,0,0-.274-.062.365.365,0,0,0-.212.053.371.371,0,0,0-.123.188Zm.682.413a3.076,3.076,0,0,1-.31.078.939.939,0,0,0-.277.089.212.212,0,0,0-.1.179.25.25,0,0,0,.08.185.278.278,0,0,0,.2.078.442.442,0,0,0,.263-.091.321.321,0,0,0,.121-.169,1,1,0,0,0,.02-.248v-.1Z" transform="translate(-2169.416 -3183.112)"/>
    <path id="Path_14322" data-name="Path 14322" d="M292.659,2087.006v.406h-.348v.776a1.943,1.943,0,0,0,.01.275.112.112,0,0,0,.045.064.144.144,0,0,0,.086.025.663.663,0,0,0,.2-.049l.044.4a1.013,1.013,0,0,1-.4.076.639.639,0,0,1-.248-.046.364.364,0,0,1-.162-.12.471.471,0,0,1-.072-.2,2.468,2.468,0,0,1-.016-.359v-.84h-.234v-.406h.234v-.382l.511-.3v.68Z" transform="translate(-2198.433 -3173.827)"/>
    <path id="Path_14323" data-name="Path 14323" d="M313.315,2119h.509v.364a1.271,1.271,0,0,1-.038.349.522.522,0,0,1-.144.229.746.746,0,0,1-.269.16l-.1-.21a.429.429,0,0,0,.219-.14.42.42,0,0,0,.069-.243h-.247V2119Z" transform="translate(-2218.748 -3204.406)"/>
    <path id="Path_14324" data-name="Path 14324" d="M346.324,2096.86l-.5.091a.364.364,0,0,0-.115-.227.348.348,0,0,0-.233-.076.381.381,0,0,0-.3.131.674.674,0,0,0-.113.44.779.779,0,0,0,.115.484.377.377,0,0,0,.309.141.342.342,0,0,0,.238-.083.5.5,0,0,0,.131-.284l.5.085a.887.887,0,0,1-.3.52.925.925,0,0,1-.593.176.881.881,0,0,1-.674-.267,1.214,1.214,0,0,1,0-1.48.9.9,0,0,1,.682-.266.931.931,0,0,1,.559.151.84.84,0,0,1,.3.461Z" transform="translate(-2248.003 -3183.112)"/>
    <path id="Path_14325" data-name="Path 14325" d="M376.641,2097.226a1.042,1.042,0,0,1,.125-.491.857.857,0,0,1,.354-.363,1.051,1.051,0,0,1,.512-.125.961.961,0,0,1,.716.284.981.981,0,0,1,.279.717.991.991,0,0,1-.282.724.952.952,0,0,1-.71.288,1.12,1.12,0,0,1-.5-.12.821.821,0,0,1-.365-.351,1.169,1.169,0,0,1-.125-.563Zm.522.027a.637.637,0,0,0,.136.439.444.444,0,0,0,.67,0,.646.646,0,0,0,.135-.442.634.634,0,0,0-.135-.435.444.444,0,0,0-.67,0,.638.638,0,0,0-.136.438Z" transform="translate(-2278.052 -3183.112)"/>
    <path id="Path_14326" data-name="Path 14326" d="M415.536,2098.216h-.509v-.982a1.514,1.514,0,0,0-.033-.4.284.284,0,0,0-.106-.143.3.3,0,0,0-.177-.051.408.408,0,0,0-.237.073.364.364,0,0,0-.144.192,1.655,1.655,0,0,0-.039.442v.872h-.509v-1.925h.473v.283a.789.789,0,0,1,.943-.266.516.516,0,0,1,.211.155.56.56,0,0,1,.1.214,1.591,1.591,0,0,1,.028.343v1.2Z" transform="translate(-2312.809 -3183.112)" fill="#34ca00"/>
    <path id="Path_14327" data-name="Path 14327" d="M446.4,2097.667l.511-.078a.375.375,0,0,0,.132.226.448.448,0,0,0,.279.077.5.5,0,0,0,.3-.073.161.161,0,0,0,.067-.136.133.133,0,0,0-.036-.1.4.4,0,0,0-.17-.067,2.746,2.746,0,0,1-.781-.248.5.5,0,0,1-.228-.433.533.533,0,0,1,.2-.42.922.922,0,0,1,.613-.171,1.067,1.067,0,0,1,.587.129.657.657,0,0,1,.265.381l-.48.089a.3.3,0,0,0-.117-.172.427.427,0,0,0-.246-.06.552.552,0,0,0-.288.056.12.12,0,0,0-.058.1.112.112,0,0,0,.051.092,1.9,1.9,0,0,0,.476.143,1.419,1.419,0,0,1,.568.227.471.471,0,0,1,.16.379.581.581,0,0,1-.221.455.979.979,0,0,1-.654.19,1.073,1.073,0,0,1-.623-.16.734.734,0,0,1-.3-.433Z" transform="translate(-2343.333 -3183.112)" fill="#34ca00"/>
    <path id="Path_14328" data-name="Path 14328" d="M479.2,2087.006v.406h-.348v.776a1.926,1.926,0,0,0,.01.275.112.112,0,0,0,.045.064.144.144,0,0,0,.086.025.663.663,0,0,0,.2-.049l.044.4a1.012,1.012,0,0,1-.4.076.64.64,0,0,1-.248-.046.364.364,0,0,1-.162-.12.473.473,0,0,1-.072-.2,2.478,2.478,0,0,1-.016-.359v-.84h-.234v-.406h.234v-.382l.511-.3v.68Z" transform="translate(-2373.012 -3173.827)" fill="#34ca00"/>
    <path id="Path_14329" data-name="Path 14329" d="M499.611,2097.6l.508.085a.832.832,0,0,1-.309.425.907.907,0,0,1-.529.146.861.861,0,0,1-.743-.328,1.1,1.1,0,0,1-.19-.663,1.064,1.064,0,0,1,.25-.75.824.824,0,0,1,.633-.271.854.854,0,0,1,.678.284,1.256,1.256,0,0,1,.237.869h-1.276a.515.515,0,0,0,.123.353.386.386,0,0,0,.294.126.312.312,0,0,0,.2-.065.4.4,0,0,0,.123-.21Zm.029-.515a.49.49,0,0,0-.114-.336.351.351,0,0,0-.265-.115.354.354,0,0,0-.276.121.47.47,0,0,0-.107.33Z" transform="translate(-2391.951 -3183.112)" fill="#34ca00"/>
    <path id="Path_14330" data-name="Path 14330" d="M532.9,2096.86l-.5.091a.364.364,0,0,0-.115-.227.348.348,0,0,0-.233-.076.381.381,0,0,0-.3.131.675.675,0,0,0-.113.44.779.779,0,0,0,.115.484.377.377,0,0,0,.309.141.342.342,0,0,0,.237-.083.5.5,0,0,0,.131-.284l.5.085a.886.886,0,0,1-.3.52.925.925,0,0,1-.593.176.881.881,0,0,1-.673-.267,1.215,1.215,0,0,1,0-1.48.9.9,0,0,1,.682-.266.931.931,0,0,1,.559.151.84.84,0,0,1,.3.461Z" transform="translate(-2422.608 -3183.112)" fill="#34ca00"/>
    <path id="Path_14331" data-name="Path 14331" d="M562.865,2087.006v.406h-.348v.776a1.931,1.931,0,0,0,.01.275.112.112,0,0,0,.045.064.144.144,0,0,0,.086.025.663.663,0,0,0,.2-.049l.043.4a1.012,1.012,0,0,1-.4.076.64.64,0,0,1-.248-.046.364.364,0,0,1-.162-.12.472.472,0,0,1-.072-.2,2.483,2.483,0,0,1-.016-.359v-.84h-.234v-.406h.234v-.382l.511-.3v.68Z" transform="translate(-2451.308 -3173.827)" fill="#34ca00"/>
    <path id="Path_14332" data-name="Path 14332" d="M585.435,2098.85v-.288a.743.743,0,0,1-.276.243.777.777,0,0,1-.362.089.706.706,0,0,1-.348-.085.5.5,0,0,1-.223-.239,1.068,1.068,0,0,1-.069-.426v-1.218h.509v.885a2.454,2.454,0,0,0,.028.5.272.272,0,0,0,.1.145.313.313,0,0,0,.189.053.4.4,0,0,0,.234-.072.367.367,0,0,0,.141-.177,2.071,2.071,0,0,0,.038-.52v-.812h.509v1.925Z" transform="translate(-2472.257 -3183.747)" fill="#34ca00"/>
    <path id="Path_14333" data-name="Path 14333" d="M619.855,2098.216h-.509v-1.925h.473v.274a.821.821,0,0,1,.218-.255.4.4,0,0,1,.22-.062.646.646,0,0,1,.335.1l-.158.444a.449.449,0,0,0-.239-.083.282.282,0,0,0-.181.059.4.4,0,0,0-.117.213,3.029,3.029,0,0,0-.043.646v.594Z" transform="translate(-2505.189 -3183.112)" fill="#34ca00"/>
    <path id="Path_14334" data-name="Path 14334" d="M656.718,2096.878l-.462-.083a.721.721,0,0,1,.268-.413.983.983,0,0,1,.566-.134,1.221,1.221,0,0,1,.508.081.507.507,0,0,1,.235.205,1.049,1.049,0,0,1,.068.456l-.005.595a2.058,2.058,0,0,0,.025.374,1.09,1.09,0,0,0,.091.258h-.5c-.013-.034-.03-.084-.049-.15-.008-.03-.014-.05-.018-.06a.921.921,0,0,1-.279.19.8.8,0,0,1-.317.063.655.655,0,0,1-.469-.161.536.536,0,0,1-.171-.408.549.549,0,0,1,.078-.291.51.51,0,0,1,.219-.2,1.707,1.707,0,0,1,.405-.119,2.755,2.755,0,0,0,.495-.125v-.051a.264.264,0,0,0-.073-.21.438.438,0,0,0-.274-.062.364.364,0,0,0-.212.053.372.372,0,0,0-.123.188Zm.682.413a3.08,3.08,0,0,1-.31.078.94.94,0,0,0-.277.089.212.212,0,0,0-.1.179.25.25,0,0,0,.08.185.279.279,0,0,0,.2.078.442.442,0,0,0,.263-.091.321.321,0,0,0,.121-.169,1,1,0,0,0,.02-.248v-.1Z" transform="translate(-2539.682 -3183.112)" fill="#34ca00"/>
    <path id="Path_14335" data-name="Path 14335" d="M690.586,2088.165h-.473v-.283a.765.765,0,0,1-.278.245.713.713,0,0,1-.324.081.733.733,0,0,1-.568-.268,1.087,1.087,0,0,1-.237-.746,1.075,1.075,0,0,1,.23-.744.75.75,0,0,1,.582-.255.721.721,0,0,1,.558.268v-.957h.509v2.658Zm-1.36-1a.88.88,0,0,0,.085.446.385.385,0,0,0,.344.2.375.375,0,0,0,.3-.15.69.69,0,0,0,.123-.447.755.755,0,0,0-.12-.478.393.393,0,0,0-.61,0,.651.651,0,0,0-.122.43Z" transform="translate(-2570.1 -3173.061)" fill="#34ca00"/>
    <path id="Path_14336" data-name="Path 14336" d="M725.846,2085.978v-.471h.509v.471Zm0,2.187v-1.926h.509v1.926Z" transform="translate(-2604.857 -3173.061)" fill="#34ca00"/>
    <path id="Path_14337" data-name="Path 14337" d="M741.7,2096.291h.475v.283a.711.711,0,0,1,.25-.236.691.691,0,0,1,.35-.091.735.735,0,0,1,.569.263,1.065,1.065,0,0,1,.234.733,1.1,1.1,0,0,1-.236.75.734.734,0,0,1-.571.268.65.65,0,0,1-.289-.063.977.977,0,0,1-.273-.218v.97H741.7v-2.658Zm.5.93a.741.741,0,0,0,.129.479.394.394,0,0,0,.314.155.369.369,0,0,0,.3-.142.733.733,0,0,0,.118-.467.7.7,0,0,0-.122-.45.376.376,0,0,0-.3-.147.391.391,0,0,0-.31.144.641.641,0,0,0-.123.427Z" transform="translate(-2619.696 -3183.112)" fill="#34ca00"/>
    <path id="Path_14338" data-name="Path 14338" d="M777.286,2085.978v-.471h.51v.471Zm0,2.187v-1.926h.51v1.926Z" transform="translate(-2652.998 -3173.061)" fill="#34ca00"/>
    <path id="Path_14339" data-name="Path 14339" d="M790.571,2097.667l.511-.078a.375.375,0,0,0,.132.226.448.448,0,0,0,.279.077.5.5,0,0,0,.3-.073.161.161,0,0,0,.067-.136.133.133,0,0,0-.036-.1.4.4,0,0,0-.17-.067,2.746,2.746,0,0,1-.781-.248.5.5,0,0,1-.228-.433.533.533,0,0,1,.2-.42.922.922,0,0,1,.613-.171,1.068,1.068,0,0,1,.587.129.657.657,0,0,1,.265.381l-.48.089a.3.3,0,0,0-.117-.172.426.426,0,0,0-.246-.06.552.552,0,0,0-.288.056.12.12,0,0,0-.058.1.112.112,0,0,0,.051.092,1.9,1.9,0,0,0,.476.143,1.419,1.419,0,0,1,.568.227.471.471,0,0,1,.16.379.581.581,0,0,1-.221.455.979.979,0,0,1-.654.19,1.074,1.074,0,0,1-.623-.16.734.734,0,0,1-.3-.433Z" transform="translate(-2665.431 -3183.112)" fill="#34ca00"/>
    <path id="Path_14340" data-name="Path 14340" d="M825.6,2096.86l-.5.091a.364.364,0,0,0-.115-.227.347.347,0,0,0-.233-.076.38.38,0,0,0-.3.131.674.674,0,0,0-.113.44.779.779,0,0,0,.115.484.377.377,0,0,0,.309.141.342.342,0,0,0,.237-.083.5.5,0,0,0,.131-.284l.5.085a.886.886,0,0,1-.3.52.925.925,0,0,1-.593.176.881.881,0,0,1-.673-.267,1.215,1.215,0,0,1,0-1.48.9.9,0,0,1,.682-.266.931.931,0,0,1,.559.151.839.839,0,0,1,.3.461Z" transform="translate(-2696.537 -3183.112)" fill="#34ca00"/>
    <path id="Path_14341" data-name="Path 14341" d="M857.755,2085.978v-.471h.509v.471Zm0,2.187v-1.926h.509v1.926Z" transform="translate(-2728.306 -3173.061)" fill="#34ca00"/>
    <path id="Path_14342" data-name="Path 14342" d="M875.535,2098.216h-.509v-.982a1.518,1.518,0,0,0-.033-.4.284.284,0,0,0-.106-.143.3.3,0,0,0-.177-.051.409.409,0,0,0-.237.073.364.364,0,0,0-.144.192,1.658,1.658,0,0,0-.039.442v.872h-.51v-1.925h.473v.283a.789.789,0,0,1,.943-.266.515.515,0,0,1,.211.155.559.559,0,0,1,.1.214,1.591,1.591,0,0,1,.028.343v1.2Z" transform="translate(-2743.303 -3183.112)" fill="#34ca00"/>
    <path id="Path_14343" data-name="Path 14343" d="M907.482,2098.343l.582.071a.2.2,0,0,0,.067.14.384.384,0,0,0,.228.054.592.592,0,0,0,.3-.06.246.246,0,0,0,.1-.129.775.775,0,0,0,.023-.234v-.281a.69.69,0,0,1-.577.312.709.709,0,0,1-.615-.328,1.115,1.115,0,0,1-.178-.646,1.061,1.061,0,0,1,.233-.74.752.752,0,0,1,.579-.256.706.706,0,0,1,.589.314v-.27h.477v1.728a1.722,1.722,0,0,1-.056.51.632.632,0,0,1-.158.265.7.7,0,0,1-.271.15,1.43,1.43,0,0,1-.429.054,1.11,1.11,0,0,1-.694-.168.526.526,0,0,1-.2-.425c0-.017,0-.037,0-.062Zm.455-1.13a.694.694,0,0,0,.119.449.368.368,0,0,0,.293.142.4.4,0,0,0,.315-.146.635.635,0,0,0,.129-.432.675.675,0,0,0-.123-.444.392.392,0,0,0-.312-.145.376.376,0,0,0-.3.142.668.668,0,0,0-.119.434Z" transform="translate(-2774.78 -3183.112)" fill="#34ca00"/>
    <path id="Path_14344" data-name="Path 14344" d="M959.583,2097.6l.508.085a.832.832,0,0,1-.309.425.908.908,0,0,1-.529.146.861.861,0,0,1-.743-.328,1.1,1.1,0,0,1-.19-.663,1.064,1.064,0,0,1,.25-.75.824.824,0,0,1,.633-.271.854.854,0,0,1,.678.284,1.256,1.256,0,0,1,.237.869h-1.276a.515.515,0,0,0,.123.353.386.386,0,0,0,.294.126.312.312,0,0,0,.2-.065.4.4,0,0,0,.123-.21Zm.029-.515a.491.491,0,0,0-.114-.336.368.368,0,0,0-.54.006.47.47,0,0,0-.107.33Z" transform="translate(-2822.419 -3183.112)" fill="#34ca00"/>
    <path id="Path_14345" data-name="Path 14345" d="M992.829,2088.165v-2.658h.509v2.658Z" transform="translate(-2854.716 -3173.061)" fill="#34ca00"/>
    <path id="Path_14346" data-name="Path 14346" d="M1008.911,2085.978v-.471h.509v.471Zm0,2.187v-1.926h.509v1.926Z" transform="translate(-2869.766 -3173.061)" fill="#34ca00"/>
    <path id="Path_14347" data-name="Path 14347" d="M1022.808,2087.006v.406h-.348v.776a1.946,1.946,0,0,0,.01.275.112.112,0,0,0,.045.064.144.144,0,0,0,.086.025.662.662,0,0,0,.2-.049l.044.4a1.012,1.012,0,0,1-.4.076.639.639,0,0,1-.248-.046.364.364,0,0,1-.162-.12.471.471,0,0,1-.072-.2,2.471,2.471,0,0,1-.016-.359v-.84h-.234v-.406h.234v-.382l.511-.3v.68Z" transform="translate(-2881.749 -3173.827)" fill="#34ca00"/>
    <path id="Path_14348" data-name="Path 14348" d="M1044.27,2119.509V2119h.509v.509Z" transform="translate(-2902.857 -3204.406)" fill="#34ca00"/>
    <path id="Path_14496" data-name="Path 14496" d="M-460.742,2088.482v-2.636h.537v2.188h1.334v.448Z" transform="translate(-1494.38 -3173.378)"/>
    <path id="Path_14497" data-name="Path 14497" d="M-427.5,2097.226a1.041,1.041,0,0,1,.125-.491.857.857,0,0,1,.354-.363,1.051,1.051,0,0,1,.512-.125.961.961,0,0,1,.716.284.981.981,0,0,1,.279.717.991.991,0,0,1-.282.724.952.952,0,0,1-.71.288,1.121,1.121,0,0,1-.5-.12.821.821,0,0,1-.365-.351,1.169,1.169,0,0,1-.125-.563Zm.522.027a.637.637,0,0,0,.136.439.431.431,0,0,0,.335.152.428.428,0,0,0,.334-.152.646.646,0,0,0,.135-.442.634.634,0,0,0-.135-.435.429.429,0,0,0-.334-.153.431.431,0,0,0-.335.153.638.638,0,0,0-.136.438Z" transform="translate(-1525.487 -3183.112)"/>
    <path id="Path_14498" data-name="Path 14498" d="M-390.138,2098.216h-.509v-1.925h.473v.274a.823.823,0,0,1,.218-.255.4.4,0,0,1,.22-.062.645.645,0,0,1,.335.1l-.158.444a.449.449,0,0,0-.239-.083.283.283,0,0,0-.181.059.4.4,0,0,0-.117.213,3.03,3.03,0,0,0-.043.646v.594Z" transform="translate(-1559.979 -3183.112)"/>
    <path id="Path_14499" data-name="Path 14499" d="M-368.835,2097.6l.508.085a.832.832,0,0,1-.309.425.907.907,0,0,1-.528.146.861.861,0,0,1-.743-.328,1.1,1.1,0,0,1-.19-.663,1.064,1.064,0,0,1,.25-.75.824.824,0,0,1,.633-.271.855.855,0,0,1,.678.284,1.256,1.256,0,0,1,.237.869h-1.276a.515.515,0,0,0,.123.353.386.386,0,0,0,.294.126.312.312,0,0,0,.2-.065.4.4,0,0,0,.123-.21Zm.029-.515a.491.491,0,0,0-.114-.336.351.351,0,0,0-.265-.115.354.354,0,0,0-.276.121.471.471,0,0,0-.107.33Z" transform="translate(-1579.209 -3183.112)"/>
    <path id="Path_14500" data-name="Path 14500" d="M-336.182,2096.291h.47v.263a.755.755,0,0,1,.6-.306.646.646,0,0,1,.321.076.587.587,0,0,1,.223.23.893.893,0,0,1,.274-.23.672.672,0,0,1,.314-.076.7.7,0,0,1,.359.086.528.528,0,0,1,.219.253,1.1,1.1,0,0,1,.053.4v1.231h-.509v-1.1a.818.818,0,0,0-.053-.37.241.241,0,0,0-.217-.109.348.348,0,0,0-.2.065.363.363,0,0,0-.136.191,1.378,1.378,0,0,0-.042.4v.925h-.509v-1.055a1.46,1.46,0,0,0-.027-.363.232.232,0,0,0-.084-.122.266.266,0,0,0-.155-.04.371.371,0,0,0-.212.063.349.349,0,0,0-.135.183,1.361,1.361,0,0,0-.041.4v.935h-.509v-1.925Z" transform="translate(-1610.951 -3183.112)"/>
    <path id="Path_14501" data-name="Path 14501" d="M-268.037,2085.978v-.471h.509v.471Zm0,2.187v-1.926h.509v1.926Z" transform="translate(-1674.725 -3173.061)"/>
    <path id="Path_14502" data-name="Path 14502" d="M-252.18,2096.291h.475v.283a.71.71,0,0,1,.25-.236.691.691,0,0,1,.35-.091.734.734,0,0,1,.569.263,1.065,1.065,0,0,1,.234.733,1.1,1.1,0,0,1-.236.75.734.734,0,0,1-.571.268.65.65,0,0,1-.289-.063.976.976,0,0,1-.273-.218v.97h-.509v-2.658Zm.5.93a.741.741,0,0,0,.129.479.394.394,0,0,0,.314.155.369.369,0,0,0,.3-.142.734.734,0,0,0,.118-.467.7.7,0,0,0-.121-.45.376.376,0,0,0-.3-.147.391.391,0,0,0-.31.144.641.641,0,0,0-.123.427Z" transform="translate(-1689.565 -3183.112)"/>
    <path id="Path_14503" data-name="Path 14503" d="M-219.394,2097.667l.511-.078a.375.375,0,0,0,.132.226.448.448,0,0,0,.279.077.5.5,0,0,0,.3-.073.161.161,0,0,0,.067-.136.133.133,0,0,0-.036-.1.4.4,0,0,0-.17-.067,2.745,2.745,0,0,1-.781-.248.5.5,0,0,1-.228-.433.533.533,0,0,1,.2-.42.922.922,0,0,1,.613-.171,1.068,1.068,0,0,1,.587.129.657.657,0,0,1,.265.381l-.48.089a.3.3,0,0,0-.117-.172.426.426,0,0,0-.246-.06.552.552,0,0,0-.288.056.12.12,0,0,0-.058.1.112.112,0,0,0,.051.092,1.9,1.9,0,0,0,.476.143,1.42,1.42,0,0,1,.568.227.471.471,0,0,1,.16.379.581.581,0,0,1-.221.455.979.979,0,0,1-.654.19,1.073,1.073,0,0,1-.623-.16.734.734,0,0,1-.3-.433Z" transform="translate(-1720.248 -3183.112)"/>
    <path id="Path_14504" data-name="Path 14504" d="M-184.4,2088.165v-2.658h.509v2.658Z" transform="translate(-1752.994 -3173.061)"/>
    <path id="Path_14505" data-name="Path 14505" d="M-167.212,2098.85v-.288a.744.744,0,0,1-.276.243.777.777,0,0,1-.362.089.706.706,0,0,1-.348-.085.5.5,0,0,1-.223-.239,1.068,1.068,0,0,1-.069-.426v-1.218h.509v.885a2.455,2.455,0,0,0,.028.5.272.272,0,0,0,.1.145.313.313,0,0,0,.189.053.4.4,0,0,0,.234-.072.366.366,0,0,0,.141-.177,2.063,2.063,0,0,0,.038-.52v-.812h.509v1.925Z" transform="translate(-1767.887 -3183.747)"/>
    <path id="Path_14506" data-name="Path 14506" d="M-133.556,2096.291h.47v.263a.755.755,0,0,1,.6-.306.646.646,0,0,1,.321.076.587.587,0,0,1,.223.23.892.892,0,0,1,.274-.23.672.672,0,0,1,.314-.076.7.7,0,0,1,.359.086.528.528,0,0,1,.219.253,1.1,1.1,0,0,1,.053.4v1.231h-.509v-1.1a.819.819,0,0,0-.053-.37.241.241,0,0,0-.218-.109.348.348,0,0,0-.2.065.363.363,0,0,0-.136.191,1.377,1.377,0,0,0-.042.4v.925h-.509v-1.055a1.46,1.46,0,0,0-.027-.363.232.232,0,0,0-.084-.122.266.266,0,0,0-.155-.04.372.372,0,0,0-.212.063.349.349,0,0,0-.135.183,1.361,1.361,0,0,0-.041.4v.935h-.509v-1.925Z" transform="translate(-1800.58 -3183.112)"/>
    <path id="Path_14507" data-name="Path 14507" d="M-65.311,2088.165h-.473v-.283a.764.764,0,0,1-.278.245.712.712,0,0,1-.324.081.733.733,0,0,1-.568-.268,1.087,1.087,0,0,1-.237-.746,1.075,1.075,0,0,1,.23-.744.75.75,0,0,1,.582-.255.721.721,0,0,1,.558.268v-.957h.509v2.658Zm-1.36-1a.88.88,0,0,0,.085.446.385.385,0,0,0,.344.2.375.375,0,0,0,.3-.15.691.691,0,0,0,.123-.447.755.755,0,0,0-.12-.478.379.379,0,0,0-.306-.146.383.383,0,0,0-.3.144.651.651,0,0,0-.122.43Z" transform="translate(-1862.688 -3173.061)"/>
    <path id="Path_14508" data-name="Path 14508" d="M-31.889,2097.226a1.042,1.042,0,0,1,.125-.491.857.857,0,0,1,.354-.363,1.051,1.051,0,0,1,.512-.125.961.961,0,0,1,.716.284.981.981,0,0,1,.279.717.991.991,0,0,1-.282.724.952.952,0,0,1-.71.288,1.121,1.121,0,0,1-.5-.12.822.822,0,0,1-.365-.351,1.169,1.169,0,0,1-.125-.563Zm.522.027a.637.637,0,0,0,.136.439.431.431,0,0,0,.335.152.428.428,0,0,0,.334-.152.646.646,0,0,0,.135-.442.634.634,0,0,0-.135-.435.429.429,0,0,0-.334-.153.431.431,0,0,0-.335.153.637.637,0,0,0-.136.438Z" transform="translate(-1895.726 -3183.112)"/>
    <path id="Path_14509" data-name="Path 14509" d="M5.306,2088.165v-2.658h.51v2.658Z" transform="translate(-1930.535 -3173.061)"/>
    <path id="Path_14510" data-name="Path 14510" d="M19.552,2097.226a1.042,1.042,0,0,1,.125-.491.857.857,0,0,1,.354-.363,1.051,1.051,0,0,1,.512-.125.961.961,0,0,1,.716.284.981.981,0,0,1,.279.717.991.991,0,0,1-.282.724.952.952,0,0,1-.71.288,1.121,1.121,0,0,1-.5-.12.821.821,0,0,1-.365-.351,1.169,1.169,0,0,1-.125-.563Zm.522.027a.637.637,0,0,0,.136.439.444.444,0,0,0,.67,0,.646.646,0,0,0,.135-.442.634.634,0,0,0-.135-.435.444.444,0,0,0-.67,0,.637.637,0,0,0-.136.438Z" transform="translate(-1943.867 -3183.112)"/>
    <path id="Path_14511" data-name="Path 14511" d="M56.917,2098.216h-.509v-1.925h.473v.274a.823.823,0,0,1,.218-.255.4.4,0,0,1,.22-.062.645.645,0,0,1,.335.1l-.158.444a.449.449,0,0,0-.239-.083.283.283,0,0,0-.181.059.4.4,0,0,0-.117.213,3.028,3.028,0,0,0-.043.646v.594Z" transform="translate(-1978.359 -3183.112)"/>
    <path id="Path_14512" data-name="Path 14512" d="M92.558,2097.667l.511-.078a.375.375,0,0,0,.132.226.448.448,0,0,0,.279.077.5.5,0,0,0,.3-.073.161.161,0,0,0,.067-.136.133.133,0,0,0-.036-.1.4.4,0,0,0-.17-.067,2.745,2.745,0,0,1-.781-.248.5.5,0,0,1-.228-.433.533.533,0,0,1,.2-.42.922.922,0,0,1,.613-.171,1.068,1.068,0,0,1,.587.129.657.657,0,0,1,.265.381l-.48.089a.3.3,0,0,0-.117-.172.426.426,0,0,0-.246-.06.552.552,0,0,0-.288.056.12.12,0,0,0-.058.1.112.112,0,0,0,.051.092,1.9,1.9,0,0,0,.476.143,1.42,1.42,0,0,1,.568.227.471.471,0,0,1,.16.379.581.581,0,0,1-.221.455.979.979,0,0,1-.655.19,1.073,1.073,0,0,1-.623-.16.734.734,0,0,1-.3-.433Z" transform="translate(-2012.19 -3183.112)"/>
    <path id="Path_14513" data-name="Path 14513" d="M127.549,2085.978v-.471h.509v.471Zm0,2.187v-1.926h.509v1.926Z" transform="translate(-2044.937 -3173.061)"/>
    <path id="Path_14514" data-name="Path 14514" d="M141.446,2087.006v.406H141.1v.776a1.925,1.925,0,0,0,.01.275.111.111,0,0,0,.045.064.144.144,0,0,0,.086.025.663.663,0,0,0,.2-.049l.043.4a1.012,1.012,0,0,1-.4.076.64.64,0,0,1-.248-.046.365.365,0,0,1-.162-.12.472.472,0,0,1-.072-.2,2.476,2.476,0,0,1-.016-.359v-.84h-.234v-.406h.234v-.382l.511-.3v.68Z" transform="translate(-2056.92 -3173.827)"/>
    <path id="Path_14515" data-name="Path 14515" d="M177.413,2096.878l-.462-.083a.721.721,0,0,1,.268-.413.983.983,0,0,1,.566-.134,1.221,1.221,0,0,1,.508.081.507.507,0,0,1,.235.205,1.05,1.05,0,0,1,.068.456l-.005.595a2.066,2.066,0,0,0,.024.374,1.094,1.094,0,0,0,.092.258h-.5c-.013-.034-.03-.084-.049-.15-.008-.03-.014-.05-.018-.06a.92.92,0,0,1-.279.19.8.8,0,0,1-.317.063.656.656,0,0,1-.469-.161.536.536,0,0,1-.171-.408.548.548,0,0,1,.078-.291.51.51,0,0,1,.218-.2,1.708,1.708,0,0,1,.405-.119,2.756,2.756,0,0,0,.495-.125v-.051a.264.264,0,0,0-.073-.21.438.438,0,0,0-.274-.062.365.365,0,0,0-.212.053.372.372,0,0,0-.123.188Zm.682.413a3.077,3.077,0,0,1-.31.078.939.939,0,0,0-.277.089.212.212,0,0,0-.1.179.25.25,0,0,0,.08.185.279.279,0,0,0,.2.078.442.442,0,0,0,.263-.091.321.321,0,0,0,.121-.169,1,1,0,0,0,.02-.248v-.1Z" transform="translate(-2091.121 -3183.112)"/>
    <path id="Path_14516" data-name="Path 14516" d="M210.589,2096.291h.47v.263a.755.755,0,0,1,.6-.306.646.646,0,0,1,.321.076.586.586,0,0,1,.223.23.893.893,0,0,1,.274-.23.672.672,0,0,1,.314-.076.7.7,0,0,1,.359.086.528.528,0,0,1,.219.253,1.1,1.1,0,0,1,.053.4v1.231h-.509v-1.1a.818.818,0,0,0-.053-.37.241.241,0,0,0-.218-.109.348.348,0,0,0-.2.065.363.363,0,0,0-.136.191,1.378,1.378,0,0,0-.042.4v.925h-.509v-1.055a1.461,1.461,0,0,0-.027-.363.232.232,0,0,0-.084-.122.266.266,0,0,0-.155-.04.372.372,0,0,0-.212.063.349.349,0,0,0-.135.183,1.364,1.364,0,0,0-.041.4v.935h-.51v-1.925Z" transform="translate(-2122.651 -3183.112)"/>
    <path id="Path_14517" data-name="Path 14517" d="M261.075,2096.878l-.462-.083a.721.721,0,0,1,.268-.413.983.983,0,0,1,.566-.134,1.221,1.221,0,0,1,.508.081.507.507,0,0,1,.235.205,1.05,1.05,0,0,1,.068.456l-.005.595a2.066,2.066,0,0,0,.024.374,1.1,1.1,0,0,0,.092.258h-.5c-.013-.034-.03-.084-.049-.15-.008-.03-.015-.05-.018-.06a.92.92,0,0,1-.279.19.8.8,0,0,1-.317.063.656.656,0,0,1-.469-.161.536.536,0,0,1-.171-.408.548.548,0,0,1,.078-.291.51.51,0,0,1,.218-.2,1.708,1.708,0,0,1,.405-.119,2.756,2.756,0,0,0,.495-.125v-.051a.264.264,0,0,0-.073-.21.438.438,0,0,0-.274-.062.365.365,0,0,0-.212.053.371.371,0,0,0-.123.188Zm.682.413a3.076,3.076,0,0,1-.31.078.939.939,0,0,0-.277.089.212.212,0,0,0-.1.179.25.25,0,0,0,.08.185.278.278,0,0,0,.2.078.442.442,0,0,0,.263-.091.321.321,0,0,0,.121-.169,1,1,0,0,0,.02-.248v-.1Z" transform="translate(-2169.416 -3183.112)"/>
    <path id="Path_14518" data-name="Path 14518" d="M292.659,2087.006v.406h-.348v.776a1.943,1.943,0,0,0,.01.275.112.112,0,0,0,.045.064.144.144,0,0,0,.086.025.663.663,0,0,0,.2-.049l.044.4a1.013,1.013,0,0,1-.4.076.639.639,0,0,1-.248-.046.364.364,0,0,1-.162-.12.471.471,0,0,1-.072-.2,2.468,2.468,0,0,1-.016-.359v-.84h-.234v-.406h.234v-.382l.511-.3v.68Z" transform="translate(-2198.433 -3173.827)"/>
    <path id="Path_14519" data-name="Path 14519" d="M313.315,2119h.509v.364a1.271,1.271,0,0,1-.038.349.522.522,0,0,1-.144.229.746.746,0,0,1-.269.16l-.1-.21a.429.429,0,0,0,.219-.14.42.42,0,0,0,.069-.243h-.247V2119Z" transform="translate(-2218.748 -3204.406)"/>
    <path id="Path_14520" data-name="Path 14520" d="M346.324,2096.86l-.5.091a.364.364,0,0,0-.115-.227.348.348,0,0,0-.233-.076.381.381,0,0,0-.3.131.674.674,0,0,0-.113.44.779.779,0,0,0,.115.484.377.377,0,0,0,.309.141.342.342,0,0,0,.238-.083.5.5,0,0,0,.131-.284l.5.085a.887.887,0,0,1-.3.52.925.925,0,0,1-.593.176.881.881,0,0,1-.674-.267,1.214,1.214,0,0,1,0-1.48.9.9,0,0,1,.682-.266.931.931,0,0,1,.559.151.84.84,0,0,1,.3.461Z" transform="translate(-2248.003 -3183.112)"/>
    <path id="Path_14521" data-name="Path 14521" d="M376.641,2097.226a1.042,1.042,0,0,1,.125-.491.857.857,0,0,1,.354-.363,1.051,1.051,0,0,1,.512-.125.961.961,0,0,1,.716.284.981.981,0,0,1,.279.717.991.991,0,0,1-.282.724.952.952,0,0,1-.71.288,1.12,1.12,0,0,1-.5-.12.821.821,0,0,1-.365-.351,1.169,1.169,0,0,1-.125-.563Zm.522.027a.637.637,0,0,0,.136.439.444.444,0,0,0,.67,0,.646.646,0,0,0,.135-.442.634.634,0,0,0-.135-.435.444.444,0,0,0-.67,0,.638.638,0,0,0-.136.438Z" transform="translate(-2278.052 -3183.112)"/>
    <path id="Path_14522" data-name="Path 14522" d="M415.536,2098.216h-.509v-.982a1.514,1.514,0,0,0-.033-.4.284.284,0,0,0-.106-.143.3.3,0,0,0-.177-.051.408.408,0,0,0-.237.073.364.364,0,0,0-.144.192,1.655,1.655,0,0,0-.039.442v.872h-.509v-1.925h.473v.283a.789.789,0,0,1,.943-.266.516.516,0,0,1,.211.155.56.56,0,0,1,.1.214,1.591,1.591,0,0,1,.028.343v1.2Z" transform="translate(-2312.809 -3183.112)" fill="#34ca00"/>
    <path id="Path_14523" data-name="Path 14523" d="M446.4,2097.667l.511-.078a.375.375,0,0,0,.132.226.448.448,0,0,0,.279.077.5.5,0,0,0,.3-.073.161.161,0,0,0,.067-.136.133.133,0,0,0-.036-.1.4.4,0,0,0-.17-.067,2.746,2.746,0,0,1-.781-.248.5.5,0,0,1-.228-.433.533.533,0,0,1,.2-.42.922.922,0,0,1,.613-.171,1.067,1.067,0,0,1,.587.129.657.657,0,0,1,.265.381l-.48.089a.3.3,0,0,0-.117-.172.427.427,0,0,0-.246-.06.552.552,0,0,0-.288.056.12.12,0,0,0-.058.1.112.112,0,0,0,.051.092,1.9,1.9,0,0,0,.476.143,1.419,1.419,0,0,1,.568.227.471.471,0,0,1,.16.379.581.581,0,0,1-.221.455.979.979,0,0,1-.654.19,1.073,1.073,0,0,1-.623-.16.734.734,0,0,1-.3-.433Z" transform="translate(-2343.333 -3183.112)" fill="#34ca00"/>
    <path id="Path_14524" data-name="Path 14524" d="M479.2,2087.006v.406h-.348v.776a1.926,1.926,0,0,0,.01.275.112.112,0,0,0,.045.064.144.144,0,0,0,.086.025.663.663,0,0,0,.2-.049l.044.4a1.012,1.012,0,0,1-.4.076.64.64,0,0,1-.248-.046.364.364,0,0,1-.162-.12.473.473,0,0,1-.072-.2,2.478,2.478,0,0,1-.016-.359v-.84h-.234v-.406h.234v-.382l.511-.3v.68Z" transform="translate(-2373.012 -3173.827)" fill="#34ca00"/>
    <path id="Path_14525" data-name="Path 14525" d="M499.611,2097.6l.508.085a.832.832,0,0,1-.309.425.907.907,0,0,1-.529.146.861.861,0,0,1-.743-.328,1.1,1.1,0,0,1-.19-.663,1.064,1.064,0,0,1,.25-.75.824.824,0,0,1,.633-.271.854.854,0,0,1,.678.284,1.256,1.256,0,0,1,.237.869h-1.276a.515.515,0,0,0,.123.353.386.386,0,0,0,.294.126.312.312,0,0,0,.2-.065.4.4,0,0,0,.123-.21Zm.029-.515a.49.49,0,0,0-.114-.336.351.351,0,0,0-.265-.115.354.354,0,0,0-.276.121.47.47,0,0,0-.107.33Z" transform="translate(-2391.951 -3183.112)" fill="#34ca00"/>
    <path id="Path_14526" data-name="Path 14526" d="M532.9,2096.86l-.5.091a.364.364,0,0,0-.115-.227.348.348,0,0,0-.233-.076.381.381,0,0,0-.3.131.675.675,0,0,0-.113.44.779.779,0,0,0,.115.484.377.377,0,0,0,.309.141.342.342,0,0,0,.237-.083.5.5,0,0,0,.131-.284l.5.085a.886.886,0,0,1-.3.52.925.925,0,0,1-.593.176.881.881,0,0,1-.673-.267,1.215,1.215,0,0,1,0-1.48.9.9,0,0,1,.682-.266.931.931,0,0,1,.559.151.84.84,0,0,1,.3.461Z" transform="translate(-2422.608 -3183.112)" fill="#34ca00"/>
    <path id="Path_14527" data-name="Path 14527" d="M562.865,2087.006v.406h-.348v.776a1.931,1.931,0,0,0,.01.275.112.112,0,0,0,.045.064.144.144,0,0,0,.086.025.663.663,0,0,0,.2-.049l.043.4a1.012,1.012,0,0,1-.4.076.64.64,0,0,1-.248-.046.364.364,0,0,1-.162-.12.472.472,0,0,1-.072-.2,2.483,2.483,0,0,1-.016-.359v-.84h-.234v-.406h.234v-.382l.511-.3v.68Z" transform="translate(-2451.308 -3173.827)" fill="#34ca00"/>
    <path id="Path_14528" data-name="Path 14528" d="M585.435,2098.85v-.288a.743.743,0,0,1-.276.243.777.777,0,0,1-.362.089.706.706,0,0,1-.348-.085.5.5,0,0,1-.223-.239,1.068,1.068,0,0,1-.069-.426v-1.218h.509v.885a2.454,2.454,0,0,0,.028.5.272.272,0,0,0,.1.145.313.313,0,0,0,.189.053.4.4,0,0,0,.234-.072.367.367,0,0,0,.141-.177,2.071,2.071,0,0,0,.038-.52v-.812h.509v1.925Z" transform="translate(-2472.257 -3183.747)" fill="#34ca00"/>
    <path id="Path_14529" data-name="Path 14529" d="M619.855,2098.216h-.509v-1.925h.473v.274a.821.821,0,0,1,.218-.255.4.4,0,0,1,.22-.062.646.646,0,0,1,.335.1l-.158.444a.449.449,0,0,0-.239-.083.282.282,0,0,0-.181.059.4.4,0,0,0-.117.213,3.029,3.029,0,0,0-.043.646v.594Z" transform="translate(-2505.189 -3183.112)" fill="#34ca00"/>
    <path id="Path_14530" data-name="Path 14530" d="M656.718,2096.878l-.462-.083a.721.721,0,0,1,.268-.413.983.983,0,0,1,.566-.134,1.221,1.221,0,0,1,.508.081.507.507,0,0,1,.235.205,1.049,1.049,0,0,1,.068.456l-.005.595a2.058,2.058,0,0,0,.025.374,1.09,1.09,0,0,0,.091.258h-.5c-.013-.034-.03-.084-.049-.15-.008-.03-.014-.05-.018-.06a.921.921,0,0,1-.279.19.8.8,0,0,1-.317.063.655.655,0,0,1-.469-.161.536.536,0,0,1-.171-.408.549.549,0,0,1,.078-.291.51.51,0,0,1,.219-.2,1.707,1.707,0,0,1,.405-.119,2.755,2.755,0,0,0,.495-.125v-.051a.264.264,0,0,0-.073-.21.438.438,0,0,0-.274-.062.364.364,0,0,0-.212.053.372.372,0,0,0-.123.188Zm.682.413a3.08,3.08,0,0,1-.31.078.94.94,0,0,0-.277.089.212.212,0,0,0-.1.179.25.25,0,0,0,.08.185.279.279,0,0,0,.2.078.442.442,0,0,0,.263-.091.321.321,0,0,0,.121-.169,1,1,0,0,0,.02-.248v-.1Z" transform="translate(-2539.682 -3183.112)" fill="#34ca00"/>
    <path id="Path_14531" data-name="Path 14531" d="M690.586,2088.165h-.473v-.283a.765.765,0,0,1-.278.245.713.713,0,0,1-.324.081.733.733,0,0,1-.568-.268,1.087,1.087,0,0,1-.237-.746,1.075,1.075,0,0,1,.23-.744.75.75,0,0,1,.582-.255.721.721,0,0,1,.558.268v-.957h.509v2.658Zm-1.36-1a.88.88,0,0,0,.085.446.385.385,0,0,0,.344.2.375.375,0,0,0,.3-.15.69.69,0,0,0,.123-.447.755.755,0,0,0-.12-.478.393.393,0,0,0-.61,0,.651.651,0,0,0-.122.43Z" transform="translate(-2570.1 -3173.061)" fill="#34ca00"/>
    <path id="Path_14532" data-name="Path 14532" d="M725.846,2085.978v-.471h.509v.471Zm0,2.187v-1.926h.509v1.926Z" transform="translate(-2604.857 -3173.061)" fill="#34ca00"/>
    <path id="Path_14533" data-name="Path 14533" d="M741.7,2096.291h.475v.283a.711.711,0,0,1,.25-.236.691.691,0,0,1,.35-.091.735.735,0,0,1,.569.263,1.065,1.065,0,0,1,.234.733,1.1,1.1,0,0,1-.236.75.734.734,0,0,1-.571.268.65.65,0,0,1-.289-.063.977.977,0,0,1-.273-.218v.97H741.7v-2.658Zm.5.93a.741.741,0,0,0,.129.479.394.394,0,0,0,.314.155.369.369,0,0,0,.3-.142.733.733,0,0,0,.118-.467.7.7,0,0,0-.122-.45.376.376,0,0,0-.3-.147.391.391,0,0,0-.31.144.641.641,0,0,0-.123.427Z" transform="translate(-2619.696 -3183.112)" fill="#34ca00"/>
    <path id="Path_14534" data-name="Path 14534" d="M777.286,2085.978v-.471h.51v.471Zm0,2.187v-1.926h.51v1.926Z" transform="translate(-2652.998 -3173.061)" fill="#34ca00"/>
    <path id="Path_14535" data-name="Path 14535" d="M790.571,2097.667l.511-.078a.375.375,0,0,0,.132.226.448.448,0,0,0,.279.077.5.5,0,0,0,.3-.073.161.161,0,0,0,.067-.136.133.133,0,0,0-.036-.1.4.4,0,0,0-.17-.067,2.746,2.746,0,0,1-.781-.248.5.5,0,0,1-.228-.433.533.533,0,0,1,.2-.42.922.922,0,0,1,.613-.171,1.068,1.068,0,0,1,.587.129.657.657,0,0,1,.265.381l-.48.089a.3.3,0,0,0-.117-.172.426.426,0,0,0-.246-.06.552.552,0,0,0-.288.056.12.12,0,0,0-.058.1.112.112,0,0,0,.051.092,1.9,1.9,0,0,0,.476.143,1.419,1.419,0,0,1,.568.227.471.471,0,0,1,.16.379.581.581,0,0,1-.221.455.979.979,0,0,1-.654.19,1.074,1.074,0,0,1-.623-.16.734.734,0,0,1-.3-.433Z" transform="translate(-2665.431 -3183.112)" fill="#34ca00"/>
    <path id="Path_14536" data-name="Path 14536" d="M825.6,2096.86l-.5.091a.364.364,0,0,0-.115-.227.347.347,0,0,0-.233-.076.38.38,0,0,0-.3.131.674.674,0,0,0-.113.44.779.779,0,0,0,.115.484.377.377,0,0,0,.309.141.342.342,0,0,0,.237-.083.5.5,0,0,0,.131-.284l.5.085a.886.886,0,0,1-.3.52.925.925,0,0,1-.593.176.881.881,0,0,1-.673-.267,1.215,1.215,0,0,1,0-1.48.9.9,0,0,1,.682-.266.931.931,0,0,1,.559.151.839.839,0,0,1,.3.461Z" transform="translate(-2696.537 -3183.112)" fill="#34ca00"/>
    <path id="Path_14537" data-name="Path 14537" d="M857.755,2085.978v-.471h.509v.471Zm0,2.187v-1.926h.509v1.926Z" transform="translate(-2728.306 -3173.061)" fill="#34ca00"/>
    <path id="Path_14538" data-name="Path 14538" d="M875.535,2098.216h-.509v-.982a1.518,1.518,0,0,0-.033-.4.284.284,0,0,0-.106-.143.3.3,0,0,0-.177-.051.409.409,0,0,0-.237.073.364.364,0,0,0-.144.192,1.658,1.658,0,0,0-.039.442v.872h-.51v-1.925h.473v.283a.789.789,0,0,1,.943-.266.515.515,0,0,1,.211.155.559.559,0,0,1,.1.214,1.591,1.591,0,0,1,.028.343v1.2Z" transform="translate(-2743.303 -3183.112)" fill="#34ca00"/>
    <path id="Path_14539" data-name="Path 14539" d="M907.482,2098.343l.582.071a.2.2,0,0,0,.067.14.384.384,0,0,0,.228.054.592.592,0,0,0,.3-.06.246.246,0,0,0,.1-.129.775.775,0,0,0,.023-.234v-.281a.69.69,0,0,1-.577.312.709.709,0,0,1-.615-.328,1.115,1.115,0,0,1-.178-.646,1.061,1.061,0,0,1,.233-.74.752.752,0,0,1,.579-.256.706.706,0,0,1,.589.314v-.27h.477v1.728a1.722,1.722,0,0,1-.056.51.632.632,0,0,1-.158.265.7.7,0,0,1-.271.15,1.43,1.43,0,0,1-.429.054,1.11,1.11,0,0,1-.694-.168.526.526,0,0,1-.2-.425c0-.017,0-.037,0-.062Zm.455-1.13a.694.694,0,0,0,.119.449.368.368,0,0,0,.293.142.4.4,0,0,0,.315-.146.635.635,0,0,0,.129-.432.675.675,0,0,0-.123-.444.392.392,0,0,0-.312-.145.376.376,0,0,0-.3.142.668.668,0,0,0-.119.434Z" transform="translate(-2774.78 -3183.112)" fill="#34ca00"/>
    <path id="Path_14540" data-name="Path 14540" d="M959.583,2097.6l.508.085a.832.832,0,0,1-.309.425.908.908,0,0,1-.529.146.861.861,0,0,1-.743-.328,1.1,1.1,0,0,1-.19-.663,1.064,1.064,0,0,1,.25-.75.824.824,0,0,1,.633-.271.854.854,0,0,1,.678.284,1.256,1.256,0,0,1,.237.869h-1.276a.515.515,0,0,0,.123.353.386.386,0,0,0,.294.126.312.312,0,0,0,.2-.065.4.4,0,0,0,.123-.21Zm.029-.515a.491.491,0,0,0-.114-.336.368.368,0,0,0-.54.006.47.47,0,0,0-.107.33Z" transform="translate(-2822.419 -3183.112)" fill="#34ca00"/>
    <path id="Path_14541" data-name="Path 14541" d="M992.829,2088.165v-2.658h.509v2.658Z" transform="translate(-2854.716 -3173.061)" fill="#34ca00"/>
    <path id="Path_14542" data-name="Path 14542" d="M1008.911,2085.978v-.471h.509v.471Zm0,2.187v-1.926h.509v1.926Z" transform="translate(-2869.766 -3173.061)" fill="#34ca00"/>
    <path id="Path_14543" data-name="Path 14543" d="M1022.808,2087.006v.406h-.348v.776a1.946,1.946,0,0,0,.01.275.112.112,0,0,0,.045.064.144.144,0,0,0,.086.025.662.662,0,0,0,.2-.049l.044.4a1.012,1.012,0,0,1-.4.076.639.639,0,0,1-.248-.046.364.364,0,0,1-.162-.12.471.471,0,0,1-.072-.2,2.471,2.471,0,0,1-.016-.359v-.84h-.234v-.406h.234v-.382l.511-.3v.68Z" transform="translate(-2881.749 -3173.827)" fill="#34ca00"/>
    <path id="Path_14544" data-name="Path 14544" d="M1044.27,2119.509V2119h.509v.509Z" transform="translate(-2902.857 -3204.406)" fill="#34ca00"/>
    <path id="Path_14692" data-name="Path 14692" d="M-460.742,2088.482v-2.636h.537v2.188h1.334v.448Z" transform="translate(-1494.38 -3173.378)"/>
    <path id="Path_14693" data-name="Path 14693" d="M-427.5,2097.226a1.041,1.041,0,0,1,.125-.491.857.857,0,0,1,.354-.363,1.051,1.051,0,0,1,.512-.125.961.961,0,0,1,.716.284.981.981,0,0,1,.279.717.991.991,0,0,1-.282.724.952.952,0,0,1-.71.288,1.121,1.121,0,0,1-.5-.12.821.821,0,0,1-.365-.351,1.169,1.169,0,0,1-.125-.563Zm.522.027a.637.637,0,0,0,.136.439.431.431,0,0,0,.335.152.428.428,0,0,0,.334-.152.646.646,0,0,0,.135-.442.634.634,0,0,0-.135-.435.429.429,0,0,0-.334-.153.431.431,0,0,0-.335.153.638.638,0,0,0-.136.438Z" transform="translate(-1525.487 -3183.112)"/>
    <path id="Path_14694" data-name="Path 14694" d="M-390.138,2098.216h-.509v-1.925h.473v.274a.823.823,0,0,1,.218-.255.4.4,0,0,1,.22-.062.645.645,0,0,1,.335.1l-.158.444a.449.449,0,0,0-.239-.083.283.283,0,0,0-.181.059.4.4,0,0,0-.117.213,3.03,3.03,0,0,0-.043.646v.594Z" transform="translate(-1559.979 -3183.112)"/>
    <path id="Path_14695" data-name="Path 14695" d="M-368.835,2097.6l.508.085a.832.832,0,0,1-.309.425.907.907,0,0,1-.528.146.861.861,0,0,1-.743-.328,1.1,1.1,0,0,1-.19-.663,1.064,1.064,0,0,1,.25-.75.824.824,0,0,1,.633-.271.855.855,0,0,1,.678.284,1.256,1.256,0,0,1,.237.869h-1.276a.515.515,0,0,0,.123.353.386.386,0,0,0,.294.126.312.312,0,0,0,.2-.065.4.4,0,0,0,.123-.21Zm.029-.515a.491.491,0,0,0-.114-.336.351.351,0,0,0-.265-.115.354.354,0,0,0-.276.121.471.471,0,0,0-.107.33Z" transform="translate(-1579.209 -3183.112)"/>
    <path id="Path_14696" data-name="Path 14696" d="M-336.182,2096.291h.47v.263a.755.755,0,0,1,.6-.306.646.646,0,0,1,.321.076.587.587,0,0,1,.223.23.893.893,0,0,1,.274-.23.672.672,0,0,1,.314-.076.7.7,0,0,1,.359.086.528.528,0,0,1,.219.253,1.1,1.1,0,0,1,.053.4v1.231h-.509v-1.1a.818.818,0,0,0-.053-.37.241.241,0,0,0-.217-.109.348.348,0,0,0-.2.065.363.363,0,0,0-.136.191,1.378,1.378,0,0,0-.042.4v.925h-.509v-1.055a1.46,1.46,0,0,0-.027-.363.232.232,0,0,0-.084-.122.266.266,0,0,0-.155-.04.371.371,0,0,0-.212.063.349.349,0,0,0-.135.183,1.361,1.361,0,0,0-.041.4v.935h-.509v-1.925Z" transform="translate(-1610.951 -3183.112)"/>
    <path id="Path_14697" data-name="Path 14697" d="M-268.037,2085.978v-.471h.509v.471Zm0,2.187v-1.926h.509v1.926Z" transform="translate(-1674.725 -3173.061)"/>
    <path id="Path_14698" data-name="Path 14698" d="M-252.18,2096.291h.475v.283a.71.71,0,0,1,.25-.236.691.691,0,0,1,.35-.091.734.734,0,0,1,.569.263,1.065,1.065,0,0,1,.234.733,1.1,1.1,0,0,1-.236.75.734.734,0,0,1-.571.268.65.65,0,0,1-.289-.063.976.976,0,0,1-.273-.218v.97h-.509v-2.658Zm.5.93a.741.741,0,0,0,.129.479.394.394,0,0,0,.314.155.369.369,0,0,0,.3-.142.734.734,0,0,0,.118-.467.7.7,0,0,0-.121-.45.376.376,0,0,0-.3-.147.391.391,0,0,0-.31.144.641.641,0,0,0-.123.427Z" transform="translate(-1689.565 -3183.112)"/>
    <path id="Path_14699" data-name="Path 14699" d="M-219.394,2097.667l.511-.078a.375.375,0,0,0,.132.226.448.448,0,0,0,.279.077.5.5,0,0,0,.3-.073.161.161,0,0,0,.067-.136.133.133,0,0,0-.036-.1.4.4,0,0,0-.17-.067,2.745,2.745,0,0,1-.781-.248.5.5,0,0,1-.228-.433.533.533,0,0,1,.2-.42.922.922,0,0,1,.613-.171,1.068,1.068,0,0,1,.587.129.657.657,0,0,1,.265.381l-.48.089a.3.3,0,0,0-.117-.172.426.426,0,0,0-.246-.06.552.552,0,0,0-.288.056.12.12,0,0,0-.058.1.112.112,0,0,0,.051.092,1.9,1.9,0,0,0,.476.143,1.42,1.42,0,0,1,.568.227.471.471,0,0,1,.16.379.581.581,0,0,1-.221.455.979.979,0,0,1-.654.19,1.073,1.073,0,0,1-.623-.16.734.734,0,0,1-.3-.433Z" transform="translate(-1720.248 -3183.112)"/>
    <path id="Path_14700" data-name="Path 14700" d="M-184.4,2088.165v-2.658h.509v2.658Z" transform="translate(-1752.994 -3173.061)"/>
    <path id="Path_14701" data-name="Path 14701" d="M-167.212,2098.85v-.288a.744.744,0,0,1-.276.243.777.777,0,0,1-.362.089.706.706,0,0,1-.348-.085.5.5,0,0,1-.223-.239,1.068,1.068,0,0,1-.069-.426v-1.218h.509v.885a2.455,2.455,0,0,0,.028.5.272.272,0,0,0,.1.145.313.313,0,0,0,.189.053.4.4,0,0,0,.234-.072.366.366,0,0,0,.141-.177,2.063,2.063,0,0,0,.038-.52v-.812h.509v1.925Z" transform="translate(-1767.887 -3183.747)"/>
    <path id="Path_14702" data-name="Path 14702" d="M-133.556,2096.291h.47v.263a.755.755,0,0,1,.6-.306.646.646,0,0,1,.321.076.587.587,0,0,1,.223.23.892.892,0,0,1,.274-.23.672.672,0,0,1,.314-.076.7.7,0,0,1,.359.086.528.528,0,0,1,.219.253,1.1,1.1,0,0,1,.053.4v1.231h-.509v-1.1a.819.819,0,0,0-.053-.37.241.241,0,0,0-.218-.109.348.348,0,0,0-.2.065.363.363,0,0,0-.136.191,1.377,1.377,0,0,0-.042.4v.925h-.509v-1.055a1.46,1.46,0,0,0-.027-.363.232.232,0,0,0-.084-.122.266.266,0,0,0-.155-.04.372.372,0,0,0-.212.063.349.349,0,0,0-.135.183,1.361,1.361,0,0,0-.041.4v.935h-.509v-1.925Z" transform="translate(-1800.58 -3183.112)"/>
    <path id="Path_14703" data-name="Path 14703" d="M-65.311,2088.165h-.473v-.283a.764.764,0,0,1-.278.245.712.712,0,0,1-.324.081.733.733,0,0,1-.568-.268,1.087,1.087,0,0,1-.237-.746,1.075,1.075,0,0,1,.23-.744.75.75,0,0,1,.582-.255.721.721,0,0,1,.558.268v-.957h.509v2.658Zm-1.36-1a.88.88,0,0,0,.085.446.385.385,0,0,0,.344.2.375.375,0,0,0,.3-.15.691.691,0,0,0,.123-.447.755.755,0,0,0-.12-.478.379.379,0,0,0-.306-.146.383.383,0,0,0-.3.144.651.651,0,0,0-.122.43Z" transform="translate(-1862.688 -3173.061)"/>
    <path id="Path_14704" data-name="Path 14704" d="M-31.889,2097.226a1.042,1.042,0,0,1,.125-.491.857.857,0,0,1,.354-.363,1.051,1.051,0,0,1,.512-.125.961.961,0,0,1,.716.284.981.981,0,0,1,.279.717.991.991,0,0,1-.282.724.952.952,0,0,1-.71.288,1.121,1.121,0,0,1-.5-.12.822.822,0,0,1-.365-.351,1.169,1.169,0,0,1-.125-.563Zm.522.027a.637.637,0,0,0,.136.439.431.431,0,0,0,.335.152.428.428,0,0,0,.334-.152.646.646,0,0,0,.135-.442.634.634,0,0,0-.135-.435.429.429,0,0,0-.334-.153.431.431,0,0,0-.335.153.637.637,0,0,0-.136.438Z" transform="translate(-1895.726 -3183.112)"/>
    <path id="Path_14705" data-name="Path 14705" d="M5.306,2088.165v-2.658h.51v2.658Z" transform="translate(-1930.535 -3173.061)"/>
    <path id="Path_14706" data-name="Path 14706" d="M19.552,2097.226a1.042,1.042,0,0,1,.125-.491.857.857,0,0,1,.354-.363,1.051,1.051,0,0,1,.512-.125.961.961,0,0,1,.716.284.981.981,0,0,1,.279.717.991.991,0,0,1-.282.724.952.952,0,0,1-.71.288,1.121,1.121,0,0,1-.5-.12.821.821,0,0,1-.365-.351,1.169,1.169,0,0,1-.125-.563Zm.522.027a.637.637,0,0,0,.136.439.444.444,0,0,0,.67,0,.646.646,0,0,0,.135-.442.634.634,0,0,0-.135-.435.444.444,0,0,0-.67,0,.637.637,0,0,0-.136.438Z" transform="translate(-1943.867 -3183.112)"/>
    <path id="Path_14707" data-name="Path 14707" d="M56.917,2098.216h-.509v-1.925h.473v.274a.823.823,0,0,1,.218-.255.4.4,0,0,1,.22-.062.645.645,0,0,1,.335.1l-.158.444a.449.449,0,0,0-.239-.083.283.283,0,0,0-.181.059.4.4,0,0,0-.117.213,3.028,3.028,0,0,0-.043.646v.594Z" transform="translate(-1978.359 -3183.112)"/>
    <path id="Path_14708" data-name="Path 14708" d="M92.558,2097.667l.511-.078a.375.375,0,0,0,.132.226.448.448,0,0,0,.279.077.5.5,0,0,0,.3-.073.161.161,0,0,0,.067-.136.133.133,0,0,0-.036-.1.4.4,0,0,0-.17-.067,2.745,2.745,0,0,1-.781-.248.5.5,0,0,1-.228-.433.533.533,0,0,1,.2-.42.922.922,0,0,1,.613-.171,1.068,1.068,0,0,1,.587.129.657.657,0,0,1,.265.381l-.48.089a.3.3,0,0,0-.117-.172.426.426,0,0,0-.246-.06.552.552,0,0,0-.288.056.12.12,0,0,0-.058.1.112.112,0,0,0,.051.092,1.9,1.9,0,0,0,.476.143,1.42,1.42,0,0,1,.568.227.471.471,0,0,1,.16.379.581.581,0,0,1-.221.455.979.979,0,0,1-.655.19,1.073,1.073,0,0,1-.623-.16.734.734,0,0,1-.3-.433Z" transform="translate(-2012.19 -3183.112)"/>
    <path id="Path_14709" data-name="Path 14709" d="M127.549,2085.978v-.471h.509v.471Zm0,2.187v-1.926h.509v1.926Z" transform="translate(-2044.937 -3173.061)"/>
    <path id="Path_14710" data-name="Path 14710" d="M141.446,2087.006v.406H141.1v.776a1.925,1.925,0,0,0,.01.275.111.111,0,0,0,.045.064.144.144,0,0,0,.086.025.663.663,0,0,0,.2-.049l.043.4a1.012,1.012,0,0,1-.4.076.64.64,0,0,1-.248-.046.365.365,0,0,1-.162-.12.472.472,0,0,1-.072-.2,2.476,2.476,0,0,1-.016-.359v-.84h-.234v-.406h.234v-.382l.511-.3v.68Z" transform="translate(-2056.92 -3173.827)"/>
    <path id="Path_14711" data-name="Path 14711" d="M177.413,2096.878l-.462-.083a.721.721,0,0,1,.268-.413.983.983,0,0,1,.566-.134,1.221,1.221,0,0,1,.508.081.507.507,0,0,1,.235.205,1.05,1.05,0,0,1,.068.456l-.005.595a2.066,2.066,0,0,0,.024.374,1.094,1.094,0,0,0,.092.258h-.5c-.013-.034-.03-.084-.049-.15-.008-.03-.014-.05-.018-.06a.92.92,0,0,1-.279.19.8.8,0,0,1-.317.063.656.656,0,0,1-.469-.161.536.536,0,0,1-.171-.408.548.548,0,0,1,.078-.291.51.51,0,0,1,.218-.2,1.708,1.708,0,0,1,.405-.119,2.756,2.756,0,0,0,.495-.125v-.051a.264.264,0,0,0-.073-.21.438.438,0,0,0-.274-.062.365.365,0,0,0-.212.053.372.372,0,0,0-.123.188Zm.682.413a3.077,3.077,0,0,1-.31.078.939.939,0,0,0-.277.089.212.212,0,0,0-.1.179.25.25,0,0,0,.08.185.279.279,0,0,0,.2.078.442.442,0,0,0,.263-.091.321.321,0,0,0,.121-.169,1,1,0,0,0,.02-.248v-.1Z" transform="translate(-2091.121 -3183.112)"/>
    <path id="Path_14712" data-name="Path 14712" d="M210.589,2096.291h.47v.263a.755.755,0,0,1,.6-.306.646.646,0,0,1,.321.076.586.586,0,0,1,.223.23.893.893,0,0,1,.274-.23.672.672,0,0,1,.314-.076.7.7,0,0,1,.359.086.528.528,0,0,1,.219.253,1.1,1.1,0,0,1,.053.4v1.231h-.509v-1.1a.818.818,0,0,0-.053-.37.241.241,0,0,0-.218-.109.348.348,0,0,0-.2.065.363.363,0,0,0-.136.191,1.378,1.378,0,0,0-.042.4v.925h-.509v-1.055a1.461,1.461,0,0,0-.027-.363.232.232,0,0,0-.084-.122.266.266,0,0,0-.155-.04.372.372,0,0,0-.212.063.349.349,0,0,0-.135.183,1.364,1.364,0,0,0-.041.4v.935h-.51v-1.925Z" transform="translate(-2122.651 -3183.112)"/>
    <path id="Path_14713" data-name="Path 14713" d="M261.075,2096.878l-.462-.083a.721.721,0,0,1,.268-.413.983.983,0,0,1,.566-.134,1.221,1.221,0,0,1,.508.081.507.507,0,0,1,.235.205,1.05,1.05,0,0,1,.068.456l-.005.595a2.066,2.066,0,0,0,.024.374,1.1,1.1,0,0,0,.092.258h-.5c-.013-.034-.03-.084-.049-.15-.008-.03-.015-.05-.018-.06a.92.92,0,0,1-.279.19.8.8,0,0,1-.317.063.656.656,0,0,1-.469-.161.536.536,0,0,1-.171-.408.548.548,0,0,1,.078-.291.51.51,0,0,1,.218-.2,1.708,1.708,0,0,1,.405-.119,2.756,2.756,0,0,0,.495-.125v-.051a.264.264,0,0,0-.073-.21.438.438,0,0,0-.274-.062.365.365,0,0,0-.212.053.371.371,0,0,0-.123.188Zm.682.413a3.076,3.076,0,0,1-.31.078.939.939,0,0,0-.277.089.212.212,0,0,0-.1.179.25.25,0,0,0,.08.185.278.278,0,0,0,.2.078.442.442,0,0,0,.263-.091.321.321,0,0,0,.121-.169,1,1,0,0,0,.02-.248v-.1Z" transform="translate(-2169.416 -3183.112)"/>
    <path id="Path_14714" data-name="Path 14714" d="M292.659,2087.006v.406h-.348v.776a1.943,1.943,0,0,0,.01.275.112.112,0,0,0,.045.064.144.144,0,0,0,.086.025.663.663,0,0,0,.2-.049l.044.4a1.013,1.013,0,0,1-.4.076.639.639,0,0,1-.248-.046.364.364,0,0,1-.162-.12.471.471,0,0,1-.072-.2,2.468,2.468,0,0,1-.016-.359v-.84h-.234v-.406h.234v-.382l.511-.3v.68Z" transform="translate(-2198.433 -3173.827)"/>
    <path id="Path_14715" data-name="Path 14715" d="M313.315,2119h.509v.364a1.271,1.271,0,0,1-.038.349.522.522,0,0,1-.144.229.746.746,0,0,1-.269.16l-.1-.21a.429.429,0,0,0,.219-.14.42.42,0,0,0,.069-.243h-.247V2119Z" transform="translate(-2218.748 -3204.406)"/>
    <path id="Path_14716" data-name="Path 14716" d="M346.324,2096.86l-.5.091a.364.364,0,0,0-.115-.227.348.348,0,0,0-.233-.076.381.381,0,0,0-.3.131.674.674,0,0,0-.113.44.779.779,0,0,0,.115.484.377.377,0,0,0,.309.141.342.342,0,0,0,.238-.083.5.5,0,0,0,.131-.284l.5.085a.887.887,0,0,1-.3.52.925.925,0,0,1-.593.176.881.881,0,0,1-.674-.267,1.214,1.214,0,0,1,0-1.48.9.9,0,0,1,.682-.266.931.931,0,0,1,.559.151.84.84,0,0,1,.3.461Z" transform="translate(-2248.003 -3183.112)"/>
    <path id="Path_14717" data-name="Path 14717" d="M376.641,2097.226a1.042,1.042,0,0,1,.125-.491.857.857,0,0,1,.354-.363,1.051,1.051,0,0,1,.512-.125.961.961,0,0,1,.716.284.981.981,0,0,1,.279.717.991.991,0,0,1-.282.724.952.952,0,0,1-.71.288,1.12,1.12,0,0,1-.5-.12.821.821,0,0,1-.365-.351,1.169,1.169,0,0,1-.125-.563Zm.522.027a.637.637,0,0,0,.136.439.444.444,0,0,0,.67,0,.646.646,0,0,0,.135-.442.634.634,0,0,0-.135-.435.444.444,0,0,0-.67,0,.638.638,0,0,0-.136.438Z" transform="translate(-2278.052 -3183.112)"/>
    <path id="Path_14718" data-name="Path 14718" d="M415.536,2098.216h-.509v-.982a1.514,1.514,0,0,0-.033-.4.284.284,0,0,0-.106-.143.3.3,0,0,0-.177-.051.408.408,0,0,0-.237.073.364.364,0,0,0-.144.192,1.655,1.655,0,0,0-.039.442v.872h-.509v-1.925h.473v.283a.789.789,0,0,1,.943-.266.516.516,0,0,1,.211.155.56.56,0,0,1,.1.214,1.591,1.591,0,0,1,.028.343v1.2Z" transform="translate(-2312.809 -3183.112)" fill="#34ca00"/>
    <path id="Path_14719" data-name="Path 14719" d="M446.4,2097.667l.511-.078a.375.375,0,0,0,.132.226.448.448,0,0,0,.279.077.5.5,0,0,0,.3-.073.161.161,0,0,0,.067-.136.133.133,0,0,0-.036-.1.4.4,0,0,0-.17-.067,2.746,2.746,0,0,1-.781-.248.5.5,0,0,1-.228-.433.533.533,0,0,1,.2-.42.922.922,0,0,1,.613-.171,1.067,1.067,0,0,1,.587.129.657.657,0,0,1,.265.381l-.48.089a.3.3,0,0,0-.117-.172.427.427,0,0,0-.246-.06.552.552,0,0,0-.288.056.12.12,0,0,0-.058.1.112.112,0,0,0,.051.092,1.9,1.9,0,0,0,.476.143,1.419,1.419,0,0,1,.568.227.471.471,0,0,1,.16.379.581.581,0,0,1-.221.455.979.979,0,0,1-.654.19,1.073,1.073,0,0,1-.623-.16.734.734,0,0,1-.3-.433Z" transform="translate(-2343.333 -3183.112)" fill="#34ca00"/>
    <path id="Path_14720" data-name="Path 14720" d="M479.2,2087.006v.406h-.348v.776a1.926,1.926,0,0,0,.01.275.112.112,0,0,0,.045.064.144.144,0,0,0,.086.025.663.663,0,0,0,.2-.049l.044.4a1.012,1.012,0,0,1-.4.076.64.64,0,0,1-.248-.046.364.364,0,0,1-.162-.12.473.473,0,0,1-.072-.2,2.478,2.478,0,0,1-.016-.359v-.84h-.234v-.406h.234v-.382l.511-.3v.68Z" transform="translate(-2373.012 -3173.827)" fill="#34ca00"/>
    <path id="Path_14721" data-name="Path 14721" d="M499.611,2097.6l.508.085a.832.832,0,0,1-.309.425.907.907,0,0,1-.529.146.861.861,0,0,1-.743-.328,1.1,1.1,0,0,1-.19-.663,1.064,1.064,0,0,1,.25-.75.824.824,0,0,1,.633-.271.854.854,0,0,1,.678.284,1.256,1.256,0,0,1,.237.869h-1.276a.515.515,0,0,0,.123.353.386.386,0,0,0,.294.126.312.312,0,0,0,.2-.065.4.4,0,0,0,.123-.21Zm.029-.515a.49.49,0,0,0-.114-.336.351.351,0,0,0-.265-.115.354.354,0,0,0-.276.121.47.47,0,0,0-.107.33Z" transform="translate(-2391.951 -3183.112)" fill="#34ca00"/>
    <path id="Path_14722" data-name="Path 14722" d="M532.9,2096.86l-.5.091a.364.364,0,0,0-.115-.227.348.348,0,0,0-.233-.076.381.381,0,0,0-.3.131.675.675,0,0,0-.113.44.779.779,0,0,0,.115.484.377.377,0,0,0,.309.141.342.342,0,0,0,.237-.083.5.5,0,0,0,.131-.284l.5.085a.886.886,0,0,1-.3.52.925.925,0,0,1-.593.176.881.881,0,0,1-.673-.267,1.215,1.215,0,0,1,0-1.48.9.9,0,0,1,.682-.266.931.931,0,0,1,.559.151.84.84,0,0,1,.3.461Z" transform="translate(-2422.608 -3183.112)" fill="#34ca00"/>
    <path id="Path_14723" data-name="Path 14723" d="M562.865,2087.006v.406h-.348v.776a1.931,1.931,0,0,0,.01.275.112.112,0,0,0,.045.064.144.144,0,0,0,.086.025.663.663,0,0,0,.2-.049l.043.4a1.012,1.012,0,0,1-.4.076.64.64,0,0,1-.248-.046.364.364,0,0,1-.162-.12.472.472,0,0,1-.072-.2,2.483,2.483,0,0,1-.016-.359v-.84h-.234v-.406h.234v-.382l.511-.3v.68Z" transform="translate(-2451.308 -3173.827)" fill="#34ca00"/>
    <path id="Path_14724" data-name="Path 14724" d="M585.435,2098.85v-.288a.743.743,0,0,1-.276.243.777.777,0,0,1-.362.089.706.706,0,0,1-.348-.085.5.5,0,0,1-.223-.239,1.068,1.068,0,0,1-.069-.426v-1.218h.509v.885a2.454,2.454,0,0,0,.028.5.272.272,0,0,0,.1.145.313.313,0,0,0,.189.053.4.4,0,0,0,.234-.072.367.367,0,0,0,.141-.177,2.071,2.071,0,0,0,.038-.52v-.812h.509v1.925Z" transform="translate(-2472.257 -3183.747)" fill="#34ca00"/>
    <path id="Path_14725" data-name="Path 14725" d="M619.855,2098.216h-.509v-1.925h.473v.274a.821.821,0,0,1,.218-.255.4.4,0,0,1,.22-.062.646.646,0,0,1,.335.1l-.158.444a.449.449,0,0,0-.239-.083.282.282,0,0,0-.181.059.4.4,0,0,0-.117.213,3.029,3.029,0,0,0-.043.646v.594Z" transform="translate(-2505.189 -3183.112)" fill="#34ca00"/>
    <path id="Path_14726" data-name="Path 14726" d="M656.718,2096.878l-.462-.083a.721.721,0,0,1,.268-.413.983.983,0,0,1,.566-.134,1.221,1.221,0,0,1,.508.081.507.507,0,0,1,.235.205,1.049,1.049,0,0,1,.068.456l-.005.595a2.058,2.058,0,0,0,.025.374,1.09,1.09,0,0,0,.091.258h-.5c-.013-.034-.03-.084-.049-.15-.008-.03-.014-.05-.018-.06a.921.921,0,0,1-.279.19.8.8,0,0,1-.317.063.655.655,0,0,1-.469-.161.536.536,0,0,1-.171-.408.549.549,0,0,1,.078-.291.51.51,0,0,1,.219-.2,1.707,1.707,0,0,1,.405-.119,2.755,2.755,0,0,0,.495-.125v-.051a.264.264,0,0,0-.073-.21.438.438,0,0,0-.274-.062.364.364,0,0,0-.212.053.372.372,0,0,0-.123.188Zm.682.413a3.08,3.08,0,0,1-.31.078.94.94,0,0,0-.277.089.212.212,0,0,0-.1.179.25.25,0,0,0,.08.185.279.279,0,0,0,.2.078.442.442,0,0,0,.263-.091.321.321,0,0,0,.121-.169,1,1,0,0,0,.02-.248v-.1Z" transform="translate(-2539.682 -3183.112)" fill="#34ca00"/>
    <path id="Path_14727" data-name="Path 14727" d="M690.586,2088.165h-.473v-.283a.765.765,0,0,1-.278.245.713.713,0,0,1-.324.081.733.733,0,0,1-.568-.268,1.087,1.087,0,0,1-.237-.746,1.075,1.075,0,0,1,.23-.744.75.75,0,0,1,.582-.255.721.721,0,0,1,.558.268v-.957h.509v2.658Zm-1.36-1a.88.88,0,0,0,.085.446.385.385,0,0,0,.344.2.375.375,0,0,0,.3-.15.69.69,0,0,0,.123-.447.755.755,0,0,0-.12-.478.393.393,0,0,0-.61,0,.651.651,0,0,0-.122.43Z" transform="translate(-2570.1 -3173.061)" fill="#34ca00"/>
    <path id="Path_14728" data-name="Path 14728" d="M725.846,2085.978v-.471h.509v.471Zm0,2.187v-1.926h.509v1.926Z" transform="translate(-2604.857 -3173.061)" fill="#34ca00"/>
    <path id="Path_14729" data-name="Path 14729" d="M741.7,2096.291h.475v.283a.711.711,0,0,1,.25-.236.691.691,0,0,1,.35-.091.735.735,0,0,1,.569.263,1.065,1.065,0,0,1,.234.733,1.1,1.1,0,0,1-.236.75.734.734,0,0,1-.571.268.65.65,0,0,1-.289-.063.977.977,0,0,1-.273-.218v.97H741.7v-2.658Zm.5.93a.741.741,0,0,0,.129.479.394.394,0,0,0,.314.155.369.369,0,0,0,.3-.142.733.733,0,0,0,.118-.467.7.7,0,0,0-.122-.45.376.376,0,0,0-.3-.147.391.391,0,0,0-.31.144.641.641,0,0,0-.123.427Z" transform="translate(-2619.696 -3183.112)" fill="#34ca00"/>
    <path id="Path_14730" data-name="Path 14730" d="M777.286,2085.978v-.471h.51v.471Zm0,2.187v-1.926h.51v1.926Z" transform="translate(-2652.998 -3173.061)" fill="#34ca00"/>
    <path id="Path_14731" data-name="Path 14731" d="M790.571,2097.667l.511-.078a.375.375,0,0,0,.132.226.448.448,0,0,0,.279.077.5.5,0,0,0,.3-.073.161.161,0,0,0,.067-.136.133.133,0,0,0-.036-.1.4.4,0,0,0-.17-.067,2.746,2.746,0,0,1-.781-.248.5.5,0,0,1-.228-.433.533.533,0,0,1,.2-.42.922.922,0,0,1,.613-.171,1.068,1.068,0,0,1,.587.129.657.657,0,0,1,.265.381l-.48.089a.3.3,0,0,0-.117-.172.426.426,0,0,0-.246-.06.552.552,0,0,0-.288.056.12.12,0,0,0-.058.1.112.112,0,0,0,.051.092,1.9,1.9,0,0,0,.476.143,1.419,1.419,0,0,1,.568.227.471.471,0,0,1,.16.379.581.581,0,0,1-.221.455.979.979,0,0,1-.654.19,1.074,1.074,0,0,1-.623-.16.734.734,0,0,1-.3-.433Z" transform="translate(-2665.431 -3183.112)" fill="#34ca00"/>
    <path id="Path_14732" data-name="Path 14732" d="M825.6,2096.86l-.5.091a.364.364,0,0,0-.115-.227.347.347,0,0,0-.233-.076.38.38,0,0,0-.3.131.674.674,0,0,0-.113.44.779.779,0,0,0,.115.484.377.377,0,0,0,.309.141.342.342,0,0,0,.237-.083.5.5,0,0,0,.131-.284l.5.085a.886.886,0,0,1-.3.52.925.925,0,0,1-.593.176.881.881,0,0,1-.673-.267,1.215,1.215,0,0,1,0-1.48.9.9,0,0,1,.682-.266.931.931,0,0,1,.559.151.839.839,0,0,1,.3.461Z" transform="translate(-2696.537 -3183.112)" fill="#34ca00"/>
    <path id="Path_14733" data-name="Path 14733" d="M857.755,2085.978v-.471h.509v.471Zm0,2.187v-1.926h.509v1.926Z" transform="translate(-2728.306 -3173.061)" fill="#34ca00"/>
    <path id="Path_14734" data-name="Path 14734" d="M875.535,2098.216h-.509v-.982a1.518,1.518,0,0,0-.033-.4.284.284,0,0,0-.106-.143.3.3,0,0,0-.177-.051.409.409,0,0,0-.237.073.364.364,0,0,0-.144.192,1.658,1.658,0,0,0-.039.442v.872h-.51v-1.925h.473v.283a.789.789,0,0,1,.943-.266.515.515,0,0,1,.211.155.559.559,0,0,1,.1.214,1.591,1.591,0,0,1,.028.343v1.2Z" transform="translate(-2743.303 -3183.112)" fill="#34ca00"/>
    <path id="Path_14735" data-name="Path 14735" d="M907.482,2098.343l.582.071a.2.2,0,0,0,.067.14.384.384,0,0,0,.228.054.592.592,0,0,0,.3-.06.246.246,0,0,0,.1-.129.775.775,0,0,0,.023-.234v-.281a.69.69,0,0,1-.577.312.709.709,0,0,1-.615-.328,1.115,1.115,0,0,1-.178-.646,1.061,1.061,0,0,1,.233-.74.752.752,0,0,1,.579-.256.706.706,0,0,1,.589.314v-.27h.477v1.728a1.722,1.722,0,0,1-.056.51.632.632,0,0,1-.158.265.7.7,0,0,1-.271.15,1.43,1.43,0,0,1-.429.054,1.11,1.11,0,0,1-.694-.168.526.526,0,0,1-.2-.425c0-.017,0-.037,0-.062Zm.455-1.13a.694.694,0,0,0,.119.449.368.368,0,0,0,.293.142.4.4,0,0,0,.315-.146.635.635,0,0,0,.129-.432.675.675,0,0,0-.123-.444.392.392,0,0,0-.312-.145.376.376,0,0,0-.3.142.668.668,0,0,0-.119.434Z" transform="translate(-2774.78 -3183.112)" fill="#34ca00"/>
    <path id="Path_14736" data-name="Path 14736" d="M959.583,2097.6l.508.085a.832.832,0,0,1-.309.425.908.908,0,0,1-.529.146.861.861,0,0,1-.743-.328,1.1,1.1,0,0,1-.19-.663,1.064,1.064,0,0,1,.25-.75.824.824,0,0,1,.633-.271.854.854,0,0,1,.678.284,1.256,1.256,0,0,1,.237.869h-1.276a.515.515,0,0,0,.123.353.386.386,0,0,0,.294.126.312.312,0,0,0,.2-.065.4.4,0,0,0,.123-.21Zm.029-.515a.491.491,0,0,0-.114-.336.368.368,0,0,0-.54.006.47.47,0,0,0-.107.33Z" transform="translate(-2822.419 -3183.112)" fill="#34ca00"/>
    <path id="Path_14737" data-name="Path 14737" d="M992.829,2088.165v-2.658h.509v2.658Z" transform="translate(-2854.716 -3173.061)" fill="#34ca00"/>
    <path id="Path_14738" data-name="Path 14738" d="M1008.911,2085.978v-.471h.509v.471Zm0,2.187v-1.926h.509v1.926Z" transform="translate(-2869.766 -3173.061)" fill="#34ca00"/>
    <path id="Path_14739" data-name="Path 14739" d="M1022.808,2087.006v.406h-.348v.776a1.946,1.946,0,0,0,.01.275.112.112,0,0,0,.045.064.144.144,0,0,0,.086.025.662.662,0,0,0,.2-.049l.044.4a1.012,1.012,0,0,1-.4.076.639.639,0,0,1-.248-.046.364.364,0,0,1-.162-.12.471.471,0,0,1-.072-.2,2.471,2.471,0,0,1-.016-.359v-.84h-.234v-.406h.234v-.382l.511-.3v.68Z" transform="translate(-2881.749 -3173.827)" fill="#34ca00"/>
    <path id="Path_14740" data-name="Path 14740" d="M1044.27,2119.509V2119h.509v.509Z" transform="translate(-2902.857 -3204.406)" fill="#34ca00"/>
    <path id="Union_1" data-name="Union 1" d="M120.143,219.862H25.226S.255,197.87,0,147.924c-.2-39.773,26.443-72.2,59.465-72.37A51.9,51.9,0,0,1,88.8,84.622C98.062,36.33,133.911.22,176.858,0c50.2-.256,88.053,48.755,91.505,109.078,2.73,47.7-13.133,110.783-13.133,110.783Z" transform="translate(-2040.858 -1305.033)" stroke="rgba(0,0,0,0)" stroke-width="1" fill="url(#linear-gradient)"/>
    <path id="Path_14890" data-name="Path 14890" d="M-1906.519,2096.508c83.354,0,151.027.752,151.027,1.677s-67.673,1.677-151.027,1.677-151.027-.752-151.027-1.677,67.673-1.677,151.027-1.677Z" transform="translate(0 -3183.356)" fill="#9bd888" fill-rule="evenodd"/>
    <path id="Path_14891" data-name="Path 14891" d="M505.365,939.369v75.5H391.929v-75.5Z" transform="translate(-2292.359 -2100.439)" fill="#fff" fill-rule="evenodd"/>
    <path id="Path_14892" data-name="Path 14892" d="M499.9,933.5v75.5a.4.4,0,0,1-.4.4H386.057a.4.4,0,0,1-.4-.4V933.5a.4.4,0,0,1,.4-.4H499.494a.4.4,0,0,1,.4.4Zm-.8.4H386.46v74.692H499.091V933.9Z" transform="translate(-2286.487 -2094.568)" fill="#84a5cb" fill-rule="evenodd"/>
    <path id="Path_14893" data-name="Path 14893" d="M448.982,997.815v2.545H440.4v-2.545Z" transform="translate(-2337.725 -2155.137)" fill="#34ca00" fill-rule="evenodd"/>
    <path id="Path_14894" data-name="Path 14894" d="M695.716,991.883a1.667,1.667,0,0,1,1.667,1.667h0a1.667,1.667,0,0,1-1.667,1.667H645.9a1.667,1.667,0,0,1-1.667-1.667h0a1.667,1.667,0,0,1,1.667-1.667Z" transform="translate(-2528.479 -2149.585)" fill="#d2e5cb" fill-rule="evenodd"/>
    <path id="Path_14895" data-name="Path 14895" d="M1269.481,991.883h9.818a1.667,1.667,0,0,1,1.667,1.667h0a1.667,1.667,0,0,1-1.667,1.667h-9.818a1.667,1.667,0,0,1-1.667-1.667h0a1.667,1.667,0,0,1,1.667-1.667Z" transform="translate(-3112.062 -2149.585)" fill="#4a5b44" fill-rule="evenodd"/>
    <path id="Path_14896" data-name="Path 14896" d="M1407.939,998.728a.752.752,0,1,1-.752.752.752.752,0,0,1,.752-.752Zm0,.293a.459.459,0,1,0,.459.459.46.46,0,0,0-.459-.459Z" transform="translate(-3242.495 -2155.991)" fill="#fff" fill-rule="evenodd"/>
    <path id="Path_14897" data-name="Path 14897" d="M1427.1,1019.734l.874.87-.237.238-.873-.87.237-.238Z" transform="translate(-3260.914 -2175.65)" fill="#fff" fill-rule="evenodd"/>
    <path id="Path_14898" data-name="Path 14898" d="M1424.51,1017.273l.322.321-.118.119-.322-.321.118-.119Z" transform="translate(-3258.596 -2173.347)" fill="#fff" fill-rule="evenodd"/>
    <path id="Path_14899" data-name="Path 14899" d="M514.588,1092.266v1.181H505.7v-1.181Z" transform="translate(-2398.835 -2243.529)" fill="#34ca00" fill-rule="evenodd"/>
    <path id="Path_14900" data-name="Path 14900" d="M514.588,1701.723v1.181H505.7v-1.181Z" transform="translate(-2398.835 -2813.894)" fill="#34ca00" fill-rule="evenodd"/>
    <path id="Path_14901" data-name="Path 14901" d="M507.351,1946.578v1.181h-8.886v-1.181Z" transform="translate(-2392.062 -3043.043)" fill="#34ca00" fill-rule="evenodd"/>
    <path id="Path_14902" data-name="Path 14902" d="M514.588,1368.4v1.181H505.7V1368.4Z" transform="translate(-2398.835 -2501.948)" fill="#34ca00" fill-rule="evenodd"/>
    <path id="Path_14903" data-name="Path 14903" d="M449.29,1153.045v1.977H440.4v-1.977Z" transform="translate(-2337.725 -2300.41)" fill="#34ca00" fill-rule="evenodd"/>
    <path id="Path_14904" data-name="Path 14904" d="M449.29,1762.5v1.977H440.4V1762.5Z" transform="translate(-2337.725 -2870.774)" fill="#34ca00" fill-rule="evenodd"/>
    <path id="Path_14905" data-name="Path 14905" d="M442.051,2007.357v1.977h-8.886v-1.977Z" transform="translate(-2330.95 -3099.924)" fill="#34ca00" fill-rule="evenodd"/>
    <path id="Path_14906" data-name="Path 14906" d="M449.29,1431.8v1.977H440.4V1431.8Z" transform="translate(-2337.725 -2561.284)" fill="#34ca00" fill-rule="evenodd"/>
    <path id="Path_14907" data-name="Path 14907" d="M593.892,1153.045v1.977h-4.636v-1.977Z" transform="translate(-2477.029 -2300.41)" fill="#34ca00" fill-rule="evenodd"/>
    <path id="Path_14908" data-name="Path 14908" d="M593.892,1762.5v1.977h-4.636V1762.5Z" transform="translate(-2477.029 -2870.774)" fill="#34ca00" fill-rule="evenodd"/>
    <path id="Path_14909" data-name="Path 14909" d="M586.654,2007.357v1.977h-4.636v-1.977Z" transform="translate(-2470.255 -3099.924)" fill="#34ca00" fill-rule="evenodd"/>
    <path id="Path_14910" data-name="Path 14910" d="M593.892,1431.8v1.977h-4.636V1431.8Z" transform="translate(-2477.029 -2561.284)" fill="#34ca00" fill-rule="evenodd"/>
    <path id="Path_14911" data-name="Path 14911" d="M675.484,1153.045v1.977h-2.318v-1.977Z" transform="translate(-2555.556 -2300.41)" fill="#34ca00" fill-rule="evenodd"/>
    <path id="Path_14912" data-name="Path 14912" d="M675.484,1762.5v1.977h-2.318V1762.5Z" transform="translate(-2555.556 -2870.774)" fill="#34ca00" fill-rule="evenodd"/>
    <path id="Path_14913" data-name="Path 14913" d="M668.246,2007.357v1.977h-2.318v-1.977Z" transform="translate(-2548.783 -3099.924)" fill="#34ca00" fill-rule="evenodd"/>
    <path id="Path_14914" data-name="Path 14914" d="M675.484,1431.8v1.977h-2.318V1431.8Z" transform="translate(-2555.556 -2561.284)" fill="#34ca00" fill-rule="evenodd"/>
    <path id="Path_14915" data-name="Path 14915" d="M721.521,1153.045v1.977H715.17v-1.977Z" transform="translate(-2594.866 -2300.41)" fill="#34ca00" fill-rule="evenodd"/>
    <path id="Path_14916" data-name="Path 14916" d="M721.521,1762.5v1.977H715.17V1762.5Z" transform="translate(-2594.866 -2870.774)" fill="#34ca00" fill-rule="evenodd"/>
    <path id="Path_14917" data-name="Path 14917" d="M714.284,2007.357v1.977h-6.352v-1.977Z" transform="translate(-2588.093 -3099.924)" fill="#34ca00" fill-rule="evenodd"/>
    <path id="Path_14918" data-name="Path 14918" d="M721.521,1431.8v1.977H715.17V1431.8Z" transform="translate(-2594.866 -2561.284)" fill="#34ca00" fill-rule="evenodd"/>
    <path id="Path_14919" data-name="Path 14919" d="M829.594,1153.045v1.977h-3.766v-1.977Z" transform="translate(-2698.426 -2300.41)" fill="#34ca00" fill-rule="evenodd"/>
    <path id="Path_14920" data-name="Path 14920" d="M829.594,1762.5v1.977h-3.766V1762.5Z" transform="translate(-2698.426 -2870.774)" fill="#34ca00" fill-rule="evenodd"/>
    <path id="Path_14921" data-name="Path 14921" d="M822.355,2007.357v1.977H818.59v-1.977Z" transform="translate(-2691.653 -3099.924)" fill="#34ca00" fill-rule="evenodd"/>
    <path id="Path_14922" data-name="Path 14922" d="M917.759,1762.5v1.977H906.679V1762.5Z" transform="translate(-2774.091 -2870.774)" fill="#34ca00" fill-rule="evenodd"/>
    <path id="Path_14923" data-name="Path 14923" d="M1101.607,1762.5v1.977h-8.421V1762.5Z" transform="translate(-2948.635 -2870.774)" fill="#34ca00" fill-rule="evenodd"/>
    <path id="Path_14924" data-name="Path 14924" d="M829.594,1431.8v1.977h-3.766V1431.8Z" transform="translate(-2698.426 -2561.284)" fill="#34ca00" fill-rule="evenodd"/>
    <path id="Path_14925" data-name="Path 14925" d="M1179.179,1431.8v1.977h-6.352V1431.8Z" transform="translate(-3023.169 -2561.284)" fill="#34ca00" fill-rule="evenodd"/>
    <path id="Path_14926" data-name="Path 14926" d="M911.941,1432.465v1.977H894.857v-1.977Z" transform="translate(-2763.028 -2561.907)" fill="#34ca00" fill-rule="evenodd"/>
    <path id="Path_14927" data-name="Path 14927" d="M508.075,1128.436v.44H505.7v-.44Z" transform="translate(-2398.835 -2277.379)" fill="#34ca00" fill-rule="evenodd"/>
    <path id="Path_14928" data-name="Path 14928" d="M508.075,1737.893v.44H505.7v-.44Z" transform="translate(-2398.835 -2847.744)" fill="#34ca00" fill-rule="evenodd"/>
    <path id="Path_14929" data-name="Path 14929" d="M500.838,1982.749v.44h-2.373v-.44Z" transform="translate(-2392.062 -3076.894)" fill="#34ca00" fill-rule="evenodd"/>
    <path id="Path_14930" data-name="Path 14930" d="M508.075,1404.567v.44H505.7v-.44Z" transform="translate(-2398.835 -2535.798)" fill="#34ca00" fill-rule="evenodd"/>
    <path id="Path_14931" data-name="Path 14931" d="M552.939,1128.436v.44H545.7v-.44Z" transform="translate(-2436.269 -2277.379)" fill="#34ca00" fill-rule="evenodd"/>
    <path id="Path_14932" data-name="Path 14932" d="M552.939,1737.893v.44H545.7v-.44Z" transform="translate(-2436.269 -2847.744)" fill="#34ca00" fill-rule="evenodd"/>
    <path id="Path_14933" data-name="Path 14933" d="M545.7,1982.749v.44h-7.236v-.44Z" transform="translate(-2429.496 -3076.894)" fill="#34ca00" fill-rule="evenodd"/>
    <path id="Path_14934" data-name="Path 14934" d="M552.939,1404.567v.44H545.7v-.44Z" transform="translate(-2436.269 -2535.798)" fill="#34ca00" fill-rule="evenodd"/>
    <path id="Path_14935" data-name="Path 14935" d="M667.66,1128.436v.44h-6.128v-.44Z" transform="translate(-2544.669 -2277.379)" fill="#34ca00" fill-rule="evenodd"/>
    <path id="Path_14936" data-name="Path 14936" d="M665.626,1737.893v.44h-4.094v-.44Z" transform="translate(-2544.669 -2847.744)" fill="#34ca00" fill-rule="evenodd"/>
    <path id="Path_14937" data-name="Path 14937" d="M658.388,1982.749v.44h-4.094v-.44Z" transform="translate(-2537.895 -3076.894)" fill="#34ca00" fill-rule="evenodd"/>
    <path id="Path_14938" data-name="Path 14938" d="M740.067,1737.893v.44h-5.611v-.44Z" transform="translate(-2612.915 -2847.744)" fill="#34ca00" fill-rule="evenodd"/>
    <path id="Path_14939" data-name="Path 14939" d="M732.829,1982.749v.44h-5.611v-.44Z" transform="translate(-2606.141 -3076.894)" fill="#34ca00" fill-rule="evenodd"/>
    <path id="Path_14940" data-name="Path 14940" d="M836.327,1737.893v.44H831.04v-.44Z" transform="translate(-2703.304 -2847.744)" fill="#34ca00" fill-rule="evenodd"/>
    <path id="Path_14941" data-name="Path 14941" d="M834.658,1982.749v.44H823.8v-.44Z" transform="translate(-2696.53 -3076.894)" fill="#34ca00" fill-rule="evenodd"/>
    <path id="Path_14942" data-name="Path 14942" d="M667.66,1404.567v.44h-6.128v-.44Z" transform="translate(-2544.669 -2535.798)" fill="#34ca00" fill-rule="evenodd"/>
    <path id="Path_14943" data-name="Path 14943" d="M764.906,1404.567v.44h-4.819v-.44Z" transform="translate(-2636.902 -2535.798)" fill="#34ca00" fill-rule="evenodd"/>
    <path id="Path_14944" data-name="Path 14944" d="M449.29,1206.03v.85H440.4v-.85Z" transform="translate(-2337.725 -2349.996)" fill="#34ca00" fill-rule="evenodd"/>
    <path id="Path_14945" data-name="Path 14945" d="M449.29,1815.487v.85H440.4v-.85Z" transform="translate(-2337.725 -2920.361)" fill="#34ca00" fill-rule="evenodd"/>
    <path id="Path_14946" data-name="Path 14946" d="M442.051,2060.342v.85h-8.886v-.85Z" transform="translate(-2330.95 -3149.51)" fill="#34ca00" fill-rule="evenodd"/>
    <path id="Path_14947" data-name="Path 14947" d="M449.29,1484.785v.85H440.4v-.85Z" transform="translate(-2337.725 -2610.871)" fill="#34ca00" fill-rule="evenodd"/>
    <path id="Path_14948" data-name="Path 14948" d="M453.222,1241.179v.85H440.4v-.85Z" transform="translate(-2337.725 -2382.89)" fill="#34ca00" fill-rule="evenodd"/>
    <path id="Path_14949" data-name="Path 14949" d="M453.222,1850.636v.85H440.4v-.85Z" transform="translate(-2337.725 -2953.255)" fill="#34ca00" fill-rule="evenodd"/>
    <path id="Path_14950" data-name="Path 14950" d="M453.222,1519.935v.85H440.4v-.85Z" transform="translate(-2337.725 -2643.766)" fill="#34ca00" fill-rule="evenodd"/>
    <path id="Path_14951" data-name="Path 14951" d="M659.309,1241.179v.85h-2.9v-.85Z" transform="translate(-2539.879 -2382.89)" fill="#34ca00" fill-rule="evenodd"/>
    <path id="Path_14952" data-name="Path 14952" d="M659.309,1850.636v.85h-2.9v-.85Z" transform="translate(-2539.879 -2953.255)" fill="#34ca00" fill-rule="evenodd"/>
    <path id="Path_14953" data-name="Path 14953" d="M659.309,1519.935v.85h-2.9v-.85Z" transform="translate(-2539.879 -2643.766)" fill="#34ca00" fill-rule="evenodd"/>
    <path id="Path_14954" data-name="Path 14954" d="M561.03,1275.774v.85H555.6v-.85Z" transform="translate(-2445.533 -2415.266)" fill="#34ca00" fill-rule="evenodd"/>
    <path id="Path_14955" data-name="Path 14955" d="M445.833,1563.514v.85H440.4v-.85Z" transform="translate(-2337.725 -2684.55)" fill="#34ca00" fill-rule="evenodd"/>
    <path id="Path_14956" data-name="Path 14956" d="M443.782,1599.648v.85H440.4v-.85Z" transform="translate(-2337.725 -2718.366)" fill="#34ca00" fill-rule="evenodd"/>
    <path id="Path_14957" data-name="Path 14957" d="M502.1,1599.648v.85h-3.378v-.85Z" transform="translate(-2392.299 -2718.366)" fill="#34ca00" fill-rule="evenodd"/>
    <path id="Path_14958" data-name="Path 14958" d="M568.543,1599.648v.85H557.035v-.85Z" transform="translate(-2446.875 -2718.366)" fill="#34ca00" fill-rule="evenodd"/>
    <path id="Path_14959" data-name="Path 14959" d="M664.2,1275.774v.85h-7.787v-.85Z" transform="translate(-2539.879 -2415.266)" fill="#34ca00" fill-rule="evenodd"/>
    <path id="Path_14960" data-name="Path 14960" d="M553.373,1563.514v.85h-7.787v-.85Z" transform="translate(-2436.16 -2684.55)" fill="#34ca00" fill-rule="evenodd"/>
    <path id="Path_14961" data-name="Path 14961" d="M789.817,1275.774v.85h-4.036v-.85Z" transform="translate(-2660.949 -2415.266)" fill="#34ca00" fill-rule="evenodd"/>
    <path id="Path_14962" data-name="Path 14962" d="M691.56,1563.514v.85h-4.036v-.85Z" transform="translate(-2568.993 -2684.55)" fill="#34ca00" fill-rule="evenodd"/>
    <path id="Path_14963" data-name="Path 14963" d="M860.7,1275.774v.85h-4.036v-.85Z" transform="translate(-2727.286 -2415.266)" fill="#34ca00" fill-rule="evenodd"/>
    <path id="Path_14964" data-name="Path 14964" d="M775.013,1563.514v.85h-4.036v-.85Z" transform="translate(-2647.094 -2684.55)" fill="#34ca00" fill-rule="evenodd"/>
    <path id="Path_14965" data-name="Path 14965" d="M940.674,1275.774v.85h-4.925v-.85Z" transform="translate(-2801.297 -2415.266)" fill="#34ca00" fill-rule="evenodd"/>
    <path id="Path_14966" data-name="Path 14966" d="M847.646,1563.514v.85h-4.925v-.85Z" transform="translate(-2714.236 -2684.55)" fill="#34ca00" fill-rule="evenodd"/>
    <path id="Path_14967" data-name="Path 14967" d="M1026.721,1275.774v.85h-6.231v-.85Z" transform="translate(-2880.603 -2415.266)" fill="#34ca00" fill-rule="evenodd"/>
    <path id="Path_14968" data-name="Path 14968" d="M934.556,1563.514v.85h-6.231v-.85Z" transform="translate(-2794.35 -2684.55)" fill="#34ca00" fill-rule="evenodd"/>
    <path id="Path_14969" data-name="Path 14969" d="M943.3,1599.648v.85H928.739v-.85Z" transform="translate(-2794.736 -2718.366)" fill="#34ca00" fill-rule="evenodd"/>
    <path id="Path_14970" data-name="Path 14970" d="M1053.928,1563.514v.85h-19.635v-.85Z" transform="translate(-2893.52 -2684.55)" fill="#34ca00" fill-rule="evenodd"/>
    <path id="Path_14971" data-name="Path 14971" d="M1165.155,1599.648v.85h-3.741v-.85Z" transform="translate(-3012.488 -2718.366)" fill="#34ca00" fill-rule="evenodd"/>
    <path id="Path_14972" data-name="Path 14972" d="M1234.857,1599.648v.85h-9.469v-.85Z" transform="translate(-3072.357 -2718.366)" fill="#34ca00" fill-rule="evenodd"/>
    <path id="Path_14973" data-name="Path 14973" d="M726.956,1241.179v.85h-9.231v-.85Z" transform="translate(-2597.258 -2382.89)" fill="#34ca00" fill-rule="evenodd"/>
    <path id="Path_14974" data-name="Path 14974" d="M726.956,1850.636v.85h-9.231v-.85Z" transform="translate(-2597.258 -2953.255)" fill="#34ca00" fill-rule="evenodd"/>
    <path id="Path_14975" data-name="Path 14975" d="M726.956,1519.935v.85h-9.231v-.85Z" transform="translate(-2597.258 -2643.766)" fill="#34ca00" fill-rule="evenodd"/>
    <path id="Path_14976" data-name="Path 14976" d="M885.587,1241.179v.85H877.8v-.85Z" transform="translate(-2747.065 -2382.89)" fill="#34ca00" fill-rule="evenodd"/>
    <path id="Path_14977" data-name="Path 14977" d="M885.193,1850.636v.85H877.8v-.85Z" transform="translate(-2747.065 -2953.255)" fill="#34ca00" fill-rule="evenodd"/>
    <path id="Path_14978" data-name="Path 14978" d="M1007.317,1850.636v.85h-4.942v-.85Z" transform="translate(-2863.649 -2953.255)" fill="#34ca00" fill-rule="evenodd"/>
    <path id="Path_14979" data-name="Path 14979" d="M885.587,1519.935v.85H877.8v-.85Z" transform="translate(-2747.065 -2643.766)" fill="#34ca00" fill-rule="evenodd"/>
    <path id="Path_14980" data-name="Path 14980" d="M595.8,1206.03v.85h-6.541v-.85Z" transform="translate(-2477.029 -2349.996)" fill="#34ca00" fill-rule="evenodd"/>
    <path id="Path_14981" data-name="Path 14981" d="M595.8,1815.487v.85h-6.541v-.85Z" transform="translate(-2477.029 -2920.361)" fill="#34ca00" fill-rule="evenodd"/>
    <path id="Path_14982" data-name="Path 14982" d="M588.559,2060.342v.85h-6.541v-.85Z" transform="translate(-2470.255 -3149.51)" fill="#34ca00" fill-rule="evenodd"/>
    <path id="Path_14983" data-name="Path 14983" d="M595.8,1484.785v.85h-6.541v-.85Z" transform="translate(-2477.029 -2610.871)" fill="#34ca00" fill-rule="evenodd"/>
    <path id="Path_14984" data-name="Path 14984" d="M713.294,1206.03v.85H701.557v-.85Z" transform="translate(-2582.126 -2349.996)" fill="#34ca00" fill-rule="evenodd"/>
    <path id="Path_14985" data-name="Path 14985" d="M713.294,1815.487v.85H701.557v-.85Z" transform="translate(-2582.126 -2920.361)" fill="#34ca00" fill-rule="evenodd"/>
    <path id="Path_14986" data-name="Path 14986" d="M708.676,2060.342v.85H694.319v-.85Z" transform="translate(-2575.353 -3149.51)" fill="#34ca00" fill-rule="evenodd"/>
    <path id="Path_14987" data-name="Path 14987" d="M713.294,1484.785v.85H701.557v-.85Z" transform="translate(-2582.126 -2610.871)" fill="#34ca00" fill-rule="evenodd"/>
    <path id="Path_14988" data-name="Path 14988" d="M922.035,1206.03v.85H894.857v-.85Z" transform="translate(-2763.028 -2349.996)" fill="#34ca00" fill-rule="evenodd"/>
    <path id="Path_14989" data-name="Path 14989" d="M922.035,1815.487v.85H894.857v-.85Z" transform="translate(-2763.028 -2920.361)" fill="#34ca00" fill-rule="evenodd"/>
    <path id="Path_14990" data-name="Path 14990" d="M922.035,1484.785v.85H894.857v-.85Z" transform="translate(-2763.028 -2610.871)" fill="#34ca00" fill-rule="evenodd"/>
    <path id="Path_14991" data-name="Path 14991" d="M1927.028,991.77l.045.221a1.214,1.214,0,0,1,.256.069l.15-.168a1.428,1.428,0,0,1,.238.138l-.071.214a1.21,1.21,0,0,1,.188.188l.214-.071a1.423,1.423,0,0,1,.138.238l-.168.15a1.21,1.21,0,0,1,.069.256l.221.045a1.421,1.421,0,0,1,0,.275l-.221.045a1.21,1.21,0,0,1-.069.256l.168.15a1.426,1.426,0,0,1-.138.238l-.214-.071a1.213,1.213,0,0,1-.188.188l.071.214a1.428,1.428,0,0,1-.238.138l-.15-.168a1.214,1.214,0,0,1-.256.069l-.045.221a1.421,1.421,0,0,1-.275,0l-.045-.221a1.215,1.215,0,0,1-.256-.069l-.15.168a1.424,1.424,0,0,1-.238-.138l.071-.214a1.207,1.207,0,0,1-.188-.188l-.214.071a1.435,1.435,0,0,1-.138-.238l.168-.15a1.2,1.2,0,0,1-.069-.256l-.221-.045a1.4,1.4,0,0,1,0-.275l.221-.045a1.2,1.2,0,0,1,.069-.256l-.168-.15a1.432,1.432,0,0,1,.138-.238l.214.071a1.2,1.2,0,0,1,.188-.188l-.071-.214a1.425,1.425,0,0,1,.238-.138l.15.168a1.215,1.215,0,0,1,.256-.069l.045-.221a1.421,1.421,0,0,1,.275,0Zm-.138,1.132a.285.285,0,1,1-.285.285.285.285,0,0,1,.285-.285Z" transform="translate(-3727.532 -2149.473)" fill="#4a5b44" fill-rule="evenodd"/>
    <path id="Path_14992" data-name="Path 14992" d="M2005.695,998.536v1.977h-1.977v-1.977Z" transform="translate(-3800.763 -2155.811)" fill="#4a5b44" fill-rule="evenodd"/>
    <path id="Path_14993" data-name="Path 14993" d="M2056.235,977.628a2.33,2.33,0,1,1-2.33,2.33,2.331,2.331,0,0,1,2.33-2.33Z" transform="translate(-3847.731 -2136.244)" fill="#4a5b44" fill-rule="evenodd"/>
    <path id="Path_14994" data-name="Path 14994" d="M-264.665-241.447l-2.9-2.248-5.495-.735a1.369,1.369,0,0,0,.552,1.3,13.908,13.908,0,0,0,3.143.847l1.5,2.071" transform="translate(-1670.013 -992.573)" fill="#ecc9a4"/>
    <path id="Path_14995" data-name="Path 14995" d="M-373.79-199.575a1.74,1.74,0,0,1,2.088-.7,6.711,6.711,0,0,0,2.682.262l4.62-.821,5.478.187,1.723.477-7.884,2.165-4.49-.586-4.217-.98Z" transform="translate(-1575.755 -1033.369)" fill="#ecc9a4"/>
    <path id="Path_14996" data-name="Path 14996" d="M-389.526-188.814s-.118-1.476,1.856-.976c1.279.325,3.783.682,3.783.682l3.831-.054,8.129-1.324-7.081,2.265-4.159.527-6.36-1.119Z" transform="translate(-1561.027 -1043.055)" fill="#fcd8b3"/>
    <path id="Path_14997" data-name="Path 14997" d="M-355.834-188.4l-4.649.262a15.943,15.943,0,0,0-3.421-.352c-1.852.019-1.4.822-1.4.822l5.007,1.3,3.915-.07,5.817-.233,11.513,9.038,2.533-6.059-12.783-6.8-6.528,2.089Z" transform="translate(-1583.648 -1043.055)" fill="#ffe1c2"/>
    <path id="Path_14998" data-name="Path 14998" d="M-73.494-160.444l-23.5,7.187-19.624-9.253-3.707,5.72s19.041,13.614,20.9,13.435l18.021-1.736,7.91-15.353Z" transform="translate(-1812.965 -1069.237)" fill="#4a5b44"/>
    <path id="Path_14999" data-name="Path 14999" d="M-138.487-178.888l1.975,1.05-3.36,5.184-1.711-.852,3.1-5.382Z" transform="translate(-1793.068 -1053.911)" fill="#fff" fill-rule="evenodd"/>
    <path id="Path_15000" data-name="Path 15000" d="M194.072-41.513l3.165,1.492,4.67-1.428s-2.064.18-2.142,3.915-4.68,3.434-4.68,3.434,3.492-.463,2.73-3.521a5.686,5.686,0,0,0-3.742-3.892Z" transform="translate(-2107.193 -1182.474)"/>
    <path id="Path_15001" data-name="Path 15001" d="M142.58,1326.18l3.654,8.553s-3.252,3.765-1.016,5.391,2.285.521,2.285.521l8.182-20.866-7.706-2.9s-.632.535-.144.909c1.24.947.22,3.882-.626,5.086-1.228,1.75-4.629,3.308-4.629,3.308Z" transform="translate(-2059.004 -2453.733)" fill="#264919"/>
    <path id="Path_15002" data-name="Path 15002" d="M219.679,1361.284l1.592.59-7.892,21.482-2.083-.788,7.031-17.6,1.353-3.682Z" transform="translate(-2123.312 -2495.292)"/>
    <path id="Path_15003" data-name="Path 15003" d="M-394.1,515.558s-47.039,13.706-46.343,25.245c.494,8.2,32.362,29.37,32.362,29.37l4.489-4.239-17.087-23.519,53.1-13.84L-394.1,515.558Z" transform="translate(-1513.368 -1703.813)"/>
    <path id="Path_15004" data-name="Path 15004" d="M37.09,567.059s-20.713,35.919-23.376,45.315c-1.672,5.9-.316,44.128-.316,44.128l4.583,2.963,4.75-1.165,4.681-43.242s9.542-11.348,18.92-21.666c6.593-7.253,14-13.96,14.077-16.012.469-12.232-23.318-10.321-23.318-10.321Z" transform="translate(-1937.622 -1751.909)"/>
    <path id="Path_15005" data-name="Path 15005" d="M213.95,686.255,199,684.675l1.627,8.3-25.434,30.543-1,43.463,4.185-41.754s7.477-9.1,16.369-18.84,19.2-20.136,19.2-20.136Z" transform="translate(-2088.593 -1862.082)" fill="#4a5b44"/>
    <path id="Path_15006" data-name="Path 15006" d="M928.263,477.3l1.715,25.67,6.925,1.417s5.8,1.19,5.339,2.028-5.041.623-5.041.623l-11.14.024-6.679-27.984,8.88-1.777Z" transform="translate(-2785.98 -1668.012)" fill="#ffe1c2"/>
    <path id="Path_15007" data-name="Path 15007" d="M314.99-244.43l2.111,4.109s10.913,1.74,11.029,10.713-7.981,15.23-10.631,28.051a160.407,160.407,0,0,1-5.08,19.6s-11.331-1.829-18.9-5.261a31.355,31.355,0,0,1-11.361-8.465,87.866,87.866,0,0,0,7.048-14.611c3.325-8.766,2.712-11.834,5.485-18.436a13.931,13.931,0,0,1,8.389-8.1l1.352-4.178,10.554-3.42Z" transform="translate(-2189.633 -992.573)" fill="#fff"/>
    <path id="Path_15008" data-name="Path 15008" d="M481.566-244.43s-1.09,8.518-5.755,22.654L460.155-174.35s13.542,1.729,24.452-4.472c2.325-1.323,1.792-5.178,3.426-10.751,4.5-15.383,7.631-25.186,6.542-37.873s-10.9-12.874-10.9-12.874l-2.111-4.109Z" transform="translate(-2356.209 -992.573)" fill="#4a5b44"/>
    <path id="Path_15009" data-name="Path 15009" d="M812.086-133.787c3,14.668,10.791,52.295,10.791,52.295l6.59-1.2s-3.9-48.768-5.759-53.588c-4.805-12.463-12.72-2.869-11.622,2.492Z" transform="translate(-2685.469 -1088.067)" fill="#4a5b44"/>
    <path id="Path_15010" data-name="Path 15010" d="M161.708-78.319s-2.473.935-6.069,6.344c-3.21,4.826-3.471,6.677-6.922,12.856-.415.743-.877,1.55-1.4,2.432-4.826,8.208-10.986,17.543-10.986,17.543l9.354-1.082s6.721-18.116,10.726-27.638,5.293-10.454,5.293-10.454Z" transform="translate(-2053.159 -1148.029)" fill="#5e7556"/>
    <path id="Path_15011" data-name="Path 15011" d="M103.28-129.357c.406-2.123,2.623-3.645,5.2-5.833a56.858,56.858,0,0,1,6.017-4.443l-.622,2.245s-9.509,9.731-10.658,15.632a249.4,249.4,0,0,1-7.1,26.446l-15.723,1s20.072-20.341,22.893-35.046Z" transform="translate(-2000.8 -1090.648)" fill="#4a5b44"/>
    <path id="Path_15012" data-name="Path 15012" d="M-118.431,227.05-110.752,244l1.746,3.854h-15.773l-10.463-20.206,16.811-.6Z" transform="translate(-1799.002 -1433.811)"/>
    <path id="Path_15013" data-name="Path 15013" d="M27.885,551.361H60.214v.38a1.836,1.836,0,0,1-1.835,1.835H27.885v-2.215Z" transform="translate(-1951.666 -1737.319)" fill="#293425"/>
    <path id="Path_15014" data-name="Path 15014" d="M27.885,551.361H43.658v2.215H27.885v-2.215Z" transform="translate(-1951.666 -1737.319)" fill="#4a5b44"/>
    <path id="Path_15015" data-name="Path 15015" d="M556.977-509.744l-1.211,1.535-.055,5.047,9.274-7.91-1.228-1.955s4.882-3,4.839-8.728-2.831-9.33-8.786-9.628a14.552,14.552,0,0,0-9.91,3.372l7.076,18.267Z" transform="translate(-2440.198 -724.009)" fill="#ffe1c2"/>
    <path id="Path_15016" data-name="Path 15016" d="M636.4-296.952l.3,2.087a30.367,30.367,0,0,0,4.621-4.767c1.107-1.8.509-5,.509-5l-.561-.656-4.867,8.33Z" transform="translate(-2521.151 -935.624)" fill="#ecc7a3"/>
    <path id="Path_15017" data-name="Path 15017" d="M525.126-499.95c-.138-1.918-2.345-.42-3.093-1.46-1.57-2.176-2.567-5.58-5.629-5.348-4.523.343-8.428,6.182-5.741,12.585,2.3,5.489,5.381,8.918,9.582,7.209,2.307-.938,2.66-8.008,3.169-9.514s1.805-2.148,1.712-3.472Z" transform="translate(-2402.653 -747.061)" fill="#ffe1c2"/>
    <path id="Path_15018" data-name="Path 15018" d="M443.023-570.412l2.225,4.055.921-3.041s2.808-1.3,2.5.8c-.117.8-1.224,1.263-1.644,2.4a5.958,5.958,0,0,0-.309,3.276l3.571,4s10.5-8.526,1.939-19.006a4.54,4.54,0,0,0-.623-.743c-4.532-3.595-7.608-1.814-14.107-.177-7.608,1.918-9.118,1.313-9.118,1.313s.107,8.155,5.388,8.1a53.982,53.982,0,0,0,9.253-.978Z" transform="translate(-2326.474 -677.815)"/>
    <path id="Path_15019" data-name="Path 15019" d="M594.018-366.855a14.873,14.873,0,0,1-.329,5.186,11.793,11.793,0,0,1-2.161,3.755l-3.9.8,1.3,4.606,4.175-3.728A10.585,10.585,0,0,0,595-360.89a20.891,20.891,0,0,0-.409-6.192" transform="translate(-2475.501 -877.788)"/>
    <path id="Path_15020" data-name="Path 15020" d="M568.57-244.43l2.111,4.109.874,6.951-3.461.038,2.714,2.261-17.686,38.657L568.57-244.43Z" transform="translate(-2443.213 -992.573)" fill="#5e7556"/>
    <path id="Path_15021" data-name="Path 15021" d="M650.339-244.43,640.5-234.6l2.786,1.8,5.206-5.341,1.851-6.295Z" transform="translate(-2524.982 -992.573)" fill="#d8ebd1"/>
    <path id="Path_15022" data-name="Path 15022" d="M596.926-166.972l.15,4.863-2.976,1.061,1.553-5.6,1.273-.323Z" transform="translate(-2481.562 -1065.062)" fill="#d8ebd1"/>
    <path id="Path_15023" data-name="Path 15023" d="M-171.26,1941.122l-6.68,6.47s-4.679-1.69-5.4.979.331,2.32.331,2.32l22.412.182-.045-8.234s-.727-.4-.9.19c-.441,1.5-3.547,1.593-4.974,1.233-2.074-.522-4.744-3.141-4.744-3.141Z" transform="translate(-1753.755 -3037.937)" fill="#264919"/>
    <path id="Path_15024" data-name="Path 15024" d="M-159.828,2088.167l.018,1.7-22.884.307-.009-2.227,18.951.274,3.924-.052Z" transform="translate(-1754.585 -3175.342)"/>
    <path id="Path_15025" data-name="Path 15025" d="M-177.385,720.294l-4.322,7.826-23.689,5.9,12.04,16.921-.586,1.36-16.47-19.4,26.189-7.047,6.838-5.563Z" transform="translate(-1728.655 -1895.417)" fill="#4a5b44"/>
    <path id="Path_15026" data-name="Path 15026" d="M825.85,51.479l6.229,30.206-2.8,10.058.4-11.721L825.85,51.479Z" transform="translate(-2698.447 -1269.501)"/>
    <path id="Path_15027" data-name="Path 15027" d="M993.529,788.339l.267,3.148-5.766,1.242-.74-3.255,6.24-1.135Z" transform="translate(-2849.531 -1959.097)" fill="#fff"/>
    <path id="Union_2" data-name="Union 2" d="M81.761,27.889V0h3.012V27.889Zm-4.77,0V7.554H80V27.889Zm-4.462,0V11.3h3.013V27.889Zm-4.3,0V20.065h3.012v7.824Zm-4.459,0V11.3h3.012V27.889Zm-4.086,0V22.895H62.7v4.994Zm-4.244,0v-11h3.012v11Zm-4.368,0V14.377h3.012V27.889Zm-4.268,0V20.065h3.012v7.824Zm-4.419,0H39.374V15.841h3.013v7.054H45.4v4.994Zm-7.782,0V19.1h3.012v8.784Zm-4.461,0V20.723h3.012v7.166Zm-4.3,0V24.507h3.012v3.381Zm-4.458,0V20.723H24.4v7.166Zm-4.084,0V25.73h3.012v2.158Zm-4.246,0V23.134h3.013v4.755Zm-4.366,0V22.051H11.7v5.838Zm-4.268,0V24.507H7.431v3.381Zm-4.42,0V25.73H3.012v2.158Z" transform="translate(-2023.388 -1265.682)" fill="#34ca00" stroke="rgba(0,0,0,0)" stroke-width="1"/>
    <path id="Path_15090" data-name="Path 15090" d="M-1290.193,419.943v25.606h-25.61a25.608,25.608,0,0,0,25.61,25.606,25.606,25.606,0,0,0,25.607-25.606,25.606,25.606,0,0,0-25.607-25.606Z" transform="translate(-694.165 -1614.331)" fill="#34ca00"/>
    <path id="Path_15091" data-name="Path 15091" d="M-1486,210.759a39.026,39.026,0,0,0-39.028,39.024H-1486V210.759Z" transform="translate(-498.364 -1418.565)" fill="#4a5b44"/>
    <path id="Path_15092" data-name="Path 15092" d="M-1315.788,819.151a25.716,25.716,0,0,0,.533,5.222l25.077-5.222Z" transform="translate(-694.18 -1987.933)" fill="#207a00"/>
    <path id="Path_15093" data-name="Path 15093" d="M-861.679,334.376a.413.413,0,0,0-.413.412.413.413,0,0,0,.413.414H-828.4a.413.413,0,0,0,.413-.414.413.413,0,0,0-.413-.412Z" transform="translate(-1118.774 -1534.252)" fill="#4a5b44"/>
    <path id="Path_15094" data-name="Path 15094" d="M-295.708,202.812a.836.836,0,0,1,.837-.836h10.365a.836.836,0,0,1,.837.836v.121a.837.837,0,0,1-.837.837h-10.365a.837.837,0,0,1-.837-.837v-.121Z" transform="translate(-1648.829 -1410.345)" fill="#4a5b44"/>
    <path id="Path_15095" data-name="Path 15095" d="M-850.053,129.832a.837.837,0,0,0-.837-.836h-10.365a.837.837,0,0,0-.837.836v.121a.836.836,0,0,0,.837.837h10.365a.836.836,0,0,0,.837-.837v-.121Z" transform="translate(-1118.774 -1342.046)" fill="#34ca00"/>
    <path id="Path_15096" data-name="Path 15096" d="M-683.307,275a.9.9,0,0,1,.9-.9h10.245a.9.9,0,0,1,.9.9.9.9,0,0,1-.9.9H-682.41a.9.9,0,0,1-.9-.9Z" transform="translate(-1286.091 -1477.85)" fill="#4a5b44"/>
    <path id="Path_15097" data-name="Path 15097" d="M-412.854,202.8a.82.82,0,0,1,.82-.819h5.1a.82.82,0,0,1,.819.819v.155a.82.82,0,0,1-.819.819h-5.1a.82.82,0,0,1-.82-.819V202.8Z" transform="translate(-1539.197 -1410.345)" fill="#4a5b44"/>
    <path id="Path_15098" data-name="Path 15098" d="M-655.643,129.815a.82.82,0,0,0-.819-.819h-5.1a.82.82,0,0,0-.819.819v.155a.819.819,0,0,0,.819.819h5.1a.819.819,0,0,0,.819-.819v-.155Z" transform="translate(-1305.67 -1342.046)" fill="#34ca00"/>
    <path id="Path_15099" data-name="Path 15099" d="M-800.453,275a.9.9,0,0,1,.9-.9h4.95a.9.9,0,0,1,.9.9.9.9,0,0,1-.9.9h-4.95a.9.9,0,0,1-.9-.9Z" transform="translate(-1176.46 -1477.85)" fill="#4a5b44"/>
    <path id="Path_15100" data-name="Path 15100" d="M-468.119,275a.9.9,0,0,1,.9-.9h4.95a.9.9,0,0,1,.9.9.9.9,0,0,1-.9.9h-4.95a.9.9,0,0,1-.9-.9Z" transform="translate(-1487.477 -1477.85)" fill="#4a5b44"/>
    <path id="Path_15101" data-name="Path 15101" d="M-862.092,202.85a.873.873,0,0,1,.873-.874h2.767a.873.873,0,0,1,.873.874v.046a.873.873,0,0,1-.873.874h-2.767a.873.873,0,0,1-.873-.874v-.046Z" transform="translate(-1118.774 -1410.345)" fill="#4a5b44"/>
    <path id="Path_15102" data-name="Path 15102" d="M-474.495,202.774a.8.8,0,0,1,.8-.8h1.622a.8.8,0,0,1,.8.8v.2a.8.8,0,0,1-.8.8H-473.7a.8.8,0,0,1-.8-.8v-.2Z" transform="translate(-1481.51 -1410.345)" fill="#4a5b44"/>
    <path id="Path_15103" data-name="Path 15103" d="M-542.58,129.8a.8.8,0,0,0-.8-.8H-545a.8.8,0,0,0-.8.8v.2a.8.8,0,0,0,.8.8h1.622a.8.8,0,0,0,.8-.8v-.2Z" transform="translate(-1414.779 -1342.046)" fill="#34ca00"/>
    <path id="Path_15104" data-name="Path 15104" d="M-862.092,275a.9.9,0,0,1,.9-.9h1.425a.9.9,0,0,1,.9.9.9.9,0,0,1-.9.9h-1.425a.9.9,0,0,1-.9-.9Z" transform="translate(-1118.774 -1477.85)" fill="#4a5b44"/>
    <path id="Path_15105" data-name="Path 15105" d="M-351.531,275a.9.9,0,0,1,.9-.9h1.425a.9.9,0,0,1,.9.9.9.9,0,0,1-.9.9h-1.425a.9.9,0,0,1-.9-.9Z" transform="translate(-1596.586 -1477.85)" fill="#4a5b44"/>
    <path id="Path_15106" data-name="Path 15106" d="M-771.72,202.819a.844.844,0,0,1,.844-.843h2.012a.844.844,0,0,1,.844.843v.106a.844.844,0,0,1-.844.845h-2.012a.844.844,0,0,1-.844-.845v-.106Z" transform="translate(-1203.349 -1410.345)" fill="#4a5b44"/>
    <path id="Path_15107" data-name="Path 15107" d="M-287.1,275a.9.9,0,0,1,.9-.9h1.425a.9.9,0,0,1,.9.9.9.9,0,0,1-.9.9H-286.2a.9.9,0,0,1-.9-.9Z" transform="translate(-1656.885 -1477.85)" fill="#4a5b44"/>
    <path id="Path_15108" data-name="Path 15108" d="M-703.585,202.809a.833.833,0,0,1,.833-.833h1.217a.833.833,0,0,1,.833.833v.127a.833.833,0,0,1-.833.834h-1.217a.833.833,0,0,1-.833-.834v-.127Z" transform="translate(-1267.114 -1410.345)" fill="#4a5b44"/>
    <path id="Path_15109" data-name="Path 15109" d="M-649.6,202.852a.877.877,0,0,1,.877-.876h8.124a.877.877,0,0,1,.877.876v.041a.877.877,0,0,1-.877.876h-8.124a.877.877,0,0,1-.877-.876v-.041Z" transform="translate(-1317.632 -1410.345)" fill="#4a5b44"/>
  </g>
</svg>
