<svg xmlns="http://www.w3.org/2000/svg" width="24" height="24" viewBox="0 0 24 24">
  <g id="vuesax_bold_keyboard" data-name="vuesax/bold/keyboard" transform="translate(-296 -318)">
    <g id="keyboard">
      <path id="Vector" d="M0,0H24V24H0Z" transform="translate(320 342) rotate(180)" fill="none" opacity="0"/>
      <path id="User_circle" data-name="User circle" d="M11.181,2A9.3,9.3,0,0,0,2,11.181a9.3,9.3,0,0,0,9.181,9.181,9.3,9.3,0,0,0,9.181-9.181A9.3,9.3,0,0,0,11.181,2Zm0,4.591a2.675,2.675,0,0,1,2.754,2.754A2.675,2.675,0,0,1,11.181,12.1,2.676,2.676,0,0,1,8.427,9.345,2.676,2.676,0,0,1,11.181,6.591ZM6.493,15.563a4.553,4.553,0,0,1,3.77-2.02H12.1a4.552,4.552,0,0,1,3.77,2.02,6.395,6.395,0,0,1-9.376,0Z" transform="translate(296.819 318.819)" fill="#656565"/>
    </g>
  </g>
</svg>
