<svg xmlns="http://www.w3.org/2000/svg" width="37" height="37" viewBox="0 0 37 37">
  <g id="Group_60596" data-name="Group 60596" transform="translate(-1012 -581)">
    <circle id="Ellipse_66" data-name="Ellipse 66" cx="18.5" cy="18.5" r="18.5" transform="translate(1012 581)" fill="#e8ffdf"/>
    <g id="vuesax_bold_call" data-name="vuesax/bold/call" transform="translate(913.981 402)">
      <g id="call" transform="translate(108 188)">
        <path id="Vector" d="M6.8,9.733l-1.39,1.39a.755.755,0,0,1-1.06.008c-.083-.083-.165-.158-.248-.24a21.354,21.354,0,0,1-2.1-2.458A13.4,13.4,0,0,1,.534,5.87,6.452,6.452,0,0,1,0,3.412a3.888,3.888,0,0,1,.271-1.45A3.459,3.459,0,0,1,1.135.706,2.2,2.2,0,0,1,2.7,0a1.412,1.412,0,0,1,.609.135,1.225,1.225,0,0,1,.5.421L5.554,3.014a2.572,2.572,0,0,1,.3.526A1.188,1.188,0,0,1,5.96,4a1.02,1.02,0,0,1-.158.534,2.556,2.556,0,0,1-.421.534l-.571.594a.4.4,0,0,0-.12.3.682.682,0,0,0,.023.173c.023.06.045.105.06.15a6.236,6.236,0,0,0,.7.962c.338.391.7.789,1.09,1.187.075.075.158.15.233.225A.753.753,0,0,1,6.8,9.733Z" transform="translate(1.503 1.503)" fill="#34ca00"/>
        <path id="Vector-2" data-name="Vector" d="M9.3,3.224a1.909,1.909,0,0,1-.113.639,1.836,1.836,0,0,1-.075.18A3.1,3.1,0,0,1,8.6,4.81,3.388,3.388,0,0,1,7.365,5.7c-.008,0-.015.008-.023.008A3.8,3.8,0,0,1,5.9,5.982a6.263,6.263,0,0,1-2.45-.549A13.2,13.2,0,0,1,.864,3.946C.571,3.728.278,3.51,0,3.277L2.458.819a4.222,4.222,0,0,0,.556.361c.038.015.083.038.135.06a.519.519,0,0,0,.188.03.413.413,0,0,0,.308-.128L4.216.579A2.306,2.306,0,0,1,4.757.158,1,1,0,0,1,5.291,0a1.2,1.2,0,0,1,.458.1,2.907,2.907,0,0,1,.526.293L8.763,2.157a1.14,1.14,0,0,1,.413.481A1.542,1.542,0,0,1,9.3,3.224Z" transform="translate(7.215 10.552)" fill="#34ca00"/>
        <path id="Vector-3" data-name="Vector" d="M0,0H18.037V18.037H0Z" transform="translate(18.037 18.037) rotate(180)" fill="none" opacity="0"/>
      </g>
    </g>
  </g>
</svg>
