<svg xmlns="http://www.w3.org/2000/svg" xmlns:xlink="http://www.w3.org/1999/xlink" width="67.367" height="67.367" viewBox="0 0 67.367 67.367">
  <defs>
    <linearGradient id="linear-gradient" x1="0.5" x2="0.5" y2="1" gradientUnits="objectBoundingBox">
      <stop offset="0" stop-color="#dcffcf"/>
      <stop offset="1" stop-color="#9fff7d"/>
    </linearGradient>
  </defs>
  <g id="Group_60512" data-name="Group 60512" transform="translate(-1224.302 -454.739)">
    <ellipse id="Ellipse_107" data-name="Ellipse 107" cx="33.683" cy="33.683" rx="33.683" ry="33.683" transform="translate(1224.302 454.739)" fill="url(#linear-gradient)"/>
    <ellipse id="Ellipse_109" data-name="Ellipse 109" cx="26.835" cy="26.835" rx="26.835" ry="26.835" transform="translate(1231.151 461.589)" fill="#fff"/>
    <g id="Group_60494" data-name="Group 60494" transform="translate(1244.983 476.003)">
      <path id="Path_15232" data-name="Path 15232" d="M500.678,311.251h-7.046l3.523,5.284Z" transform="translate(-479.82 -309.08)" fill="#34ca00"/>
      <path id="Path_15233" data-name="Path 15233" d="M495.011,316.991l-3.523-5.284-3.523,5.284Z" transform="translate(-478.486 -309.187)" fill="#34ca00"/>
      <path id="Path_15234" data-name="Path 15234" d="M489.344,311.251H482.3l3.524,5.284Z" transform="translate(-477.151 -309.08)" fill="#34ca00"/>
      <path id="Path_15235" data-name="Path 15235" d="M483.742,316.966l-3.576-5.364-3.26,5.364Z" transform="translate(-475.881 -309.162)" fill="#34ca00"/>
      <path id="Path_15236" data-name="Path 15236" d="M505.04,319.751h-7.188l-2.628,8.665h2.546Z" transform="translate(-480.195 -311.082)" fill="#34ca00"/>
      <path id="Path_15237" data-name="Path 15237" d="M506.135,316.966l-3.261-5.364-3.576,5.364Z" transform="translate(-481.155 -309.162)" fill="#34ca00"/>
      <path id="Path_15238" data-name="Path 15238" d="M492.54,328.416l2.627-8.665h-7.5l2.627,8.665Z" transform="translate(-478.416 -311.082)" fill="#34ca00"/>
      <path id="Path_15239" data-name="Path 15239" d="M477.084,319.751l7.27,8.665H486.9l-2.628-8.665Z" transform="translate(-475.923 -311.082)" fill="#34ca00"/>
      <path id="Path_15240" data-name="Path 15240" d="M479.406,334.485h-.434v.866h.434a.433.433,0,1,0,0-.866Z" transform="translate(-476.368 -314.551)" fill="#34ca00"/>
      <path id="Path_15241" data-name="Path 15241" d="M500.534,332.218H477.14a.433.433,0,0,0-.433.434v5.2a.433.433,0,0,0,.433.434h23.394a.433.433,0,0,0,.434-.434v-5.2a.433.433,0,0,0-.434-.434Zm-21.661,3.466h-.434v1.3a.433.433,0,0,1-.866,0v-3.466a.433.433,0,0,1,.433-.433h.866a1.3,1.3,0,0,1,0,2.6Zm4.245,1.04a.433.433,0,0,1-.407.689.435.435,0,0,1-.285-.169l-.953-1.271v1.011a.433.433,0,0,1-.866,0v-3.466a.433.433,0,0,1,.433-.433h.867a1.3,1.3,0,0,1,.385,2.534Zm2.253-1.907a.433.433,0,1,1,0,.867H484.5v.866h1.3a.433.433,0,0,1,0,.866h-1.733a.433.433,0,0,1-.433-.433v-3.466a.433.433,0,0,1,.433-.433H485.8a.433.433,0,0,1,0,.866h-1.3v.866Zm4.332,2.167a.433.433,0,0,1-.867,0v-2.037l-.073.109a.45.45,0,0,1-.721,0l-.073-.109v2.037a.433.433,0,0,1-.866,0v-3.466a.433.433,0,0,1,.794-.24l.506.76.506-.759a.433.433,0,0,1,.707-.018.437.437,0,0,1,.086.258Zm3.032-.433a.433.433,0,1,1,0,.866H491a.433.433,0,1,1,0-.866h.433v-2.6H491a.433.433,0,1,1,0-.866h1.732a.433.433,0,1,1,0,.866H492.3v2.6Zm3.9-.65a1.516,1.516,0,0,1-3.032,0v-2.383a.433.433,0,0,1,.866,0V335.9a.65.65,0,0,0,1.3,0v-2.383a.433.433,0,0,1,.866,0Zm3.466,1.083a.433.433,0,0,1-.867,0v-2.037l-.073.109a.45.45,0,0,1-.721,0l-.073-.109v2.037a.433.433,0,0,1-.866,0v-3.466a.433.433,0,0,1,.794-.24l.506.76.506-.759a.433.433,0,0,1,.707-.018.437.437,0,0,1,.086.258Z" transform="translate(-475.835 -314.017)" fill="#34ca00"/>
      <path id="Path_15242" data-name="Path 15242" d="M483.373,334.485h-.433v.866h.433a.433.433,0,0,0,0-.866Z" transform="translate(-477.302 -314.551)" fill="#34ca00"/>
      <path id="Path_15243" data-name="Path 15243" d="M476.565,312.856a.433.433,0,0,0,.475.1.433.433,0,0,0,.137-.713l-.127-.127.127-.127a.434.434,0,0,0,.132-.308.431.431,0,0,0-.032-.167.437.437,0,0,0-.095-.142.431.431,0,0,0-.31-.127.433.433,0,0,0-.307.132l-.127.127-.127-.127a.434.434,0,0,0-.141-.1.433.433,0,0,0-.478.092.437.437,0,0,0-.095.142.434.434,0,0,0,0,.335.437.437,0,0,0,.1.141l.127.127-.127.127a.438.438,0,0,0-.1.141.434.434,0,0,0,0,.335.436.436,0,0,0,.237.237.435.435,0,0,0,.336,0,.433.433,0,0,0,.141-.1l.127-.127Z" transform="translate(-475.566 -309.078)" fill="#34ca00"/>
      <path id="Path_15244" data-name="Path 15244" d="M477.4,310.026a.434.434,0,0,0,.613,0l.127-.127.127.127a.433.433,0,0,0,.612-.612l-.127-.127.127-.127a.433.433,0,0,0-.612-.613l-.127.127-.127-.127a.434.434,0,0,0-.613.613l.128.127-.128.127a.435.435,0,0,0,0,.612Z" transform="translate(-475.968 -308.414)" fill="#34ca00"/>
      <path id="Path_15245" data-name="Path 15245" d="M508.784,312.117l.127-.127a.434.434,0,0,0,.132-.308.419.419,0,0,0-.032-.167.436.436,0,0,0-.237-.237.434.434,0,0,0-.335,0,.426.426,0,0,0-.141.1l-.127.127-.127-.127a.426.426,0,0,0-.141-.1.432.432,0,0,0-.477.092.414.414,0,0,0-.095.142.433.433,0,0,0,0,.335.426.426,0,0,0,.1.141l.127.127-.127.127a.427.427,0,0,0-.1.141.433.433,0,0,0,0,.335.414.414,0,0,0,.095.142.426.426,0,0,0,.142.095.434.434,0,0,0,.335,0,.425.425,0,0,0,.141-.1l.127-.127.127.127a.433.433,0,0,0,.612-.612Z" transform="translate(-483.039 -309.078)" fill="#34ca00"/>
      <path id="Path_15246" data-name="Path 15246" d="M505.734,310.023a.433.433,0,0,0,.612,0l.127-.127.127.127a.433.433,0,0,0,.734-.308.428.428,0,0,0-.122-.3l-.127-.127.127-.127a.433.433,0,0,0,.1-.141.436.436,0,0,0,0-.336.43.43,0,0,0-.095-.142.424.424,0,0,0-.142-.094.433.433,0,0,0-.167-.033.447.447,0,0,0-.167.035.438.438,0,0,0-.141.1l-.127.127-.127-.127a.433.433,0,0,0-.612.613l.127.127-.127.127a.433.433,0,0,0,0,.612Z" transform="translate(-482.641 -308.411)" fill="#34ca00"/>
    </g>
  </g>
</svg>
