<svg xmlns="http://www.w3.org/2000/svg" xmlns:xlink="http://www.w3.org/1999/xlink" width="301" height="132" viewBox="0 0 301 132">
  <defs>
    <clipPath id="clip-path">
      <rect id="Rectangle_3719" data-name="Rectangle 3719" width="301" height="132" rx="10" transform="translate(-9987 -2233)" fill="#fff"/>
    </clipPath>
  </defs>
  <g id="Group_60587" data-name="Group 60587" transform="translate(-1034 -362)">
    <rect id="Rectangle_3712" data-name="Rectangle 3712" width="301" height="132" rx="10" transform="translate(1034 362)" fill="#fff"/>
    <g id="Mask_Group_15" data-name="Mask Group 15" transform="translate(11021 2595)" opacity="0.27" clip-path="url(#clip-path)">
      <g id="Group" transform="matrix(0.978, -0.208, 0.208, 0.978, -10121.78, -2328.856)" opacity="0.59">
        <g id="Group_60335" data-name="Group 60335" transform="translate(0.062 0.23)" opacity="0.7">
          <path id="Path_15133" data-name="Path 15133" d="M74.081-451.506A31.228,31.228,0,0,0,66-448.124c-70.523,43.671-92.513,42.275-111.89,41.04-10.31-.688-20.111-1.273-36.069,4.771-9.114,3.429-17.1,7.773-24.876,11.976-13.948,7.534-27.116,14.68-44.453,15.339-1.989.073-4.073.09-6.158.108-8,.138-16.26.186-23.862,3.266-11.376,4.57-18.22,13.707-24.9,22.551A105.807,105.807,0,0,1-217.38-335.73C-228.96-324.5-238.1-325.6-248.648-326.881a63.637,63.637,0,0,0-16.691-.516l.125.46c6.066-.742,11.379-.113,16.617.537,10.306,1.267,19.953,2.474,31.79-9a113.507,113.507,0,0,0,11.168-13.344c6.608-8.822,13.4-17.861,24.626-22.389,7.474-2.96,15.715-3.085,23.638-3.2,2.01,0,4.094-.014,6.158-.108,17.507-.625,30.75-7.792,44.677-15.4,7.7-4.182,15.687-8.526,24.8-11.955,15.883-6.023,25.535-5.395,35.824-4.784,19.451,1.214,41.516,2.589,112.263-41.147a29.93,29.93,0,0,1,7.859-3.318Z" transform="translate(265.339 451.506)" fill="#34ca00"/>
          <path id="Path_15134" data-name="Path 15134" d="M81.684-419.069a30.029,30.029,0,0,0-13.045,4.635c-3.012,1.933-5.563,3.488-7.986,4.923a318.869,318.869,0,0,1-33.086,16.963A303.329,303.329,0,0,1-4.44-379.609c-15.57,5.108-25.034,5.169-34.274,5.167-1.6.043-3.212.009-4.807.052-9.178.227-17.784.787-30.035,5.689-1.226.515-2.453,1.031-3.807,1.665a197.377,197.377,0,0,0-18.227,9.829c-7.067,4.165-13.781,8.147-21.574,11.116a66.856,66.856,0,0,1-22.626,4.564c-2.159.039-4.318.077-6.423.018-7.55.01-15.344.007-22.549,2.478-11.223,3.949-18.221,12.222-25.058,20.2a109.373,109.373,0,0,1-10.891,11.7c-11.456,10.207-20.183,9.727-30.227,9.129-5.644-.369-11.512-.675-18.476.9-.841.158-1.736.413-2.706.69a17.275,17.275,0,0,0-1.9.707l.125.46a18.751,18.751,0,0,1,1.9-.707c.895-.256,1.79-.511,2.631-.669,6.816-1.534,12.683-1.229,18.253-.838,9.726.607,18.941,1.112,30.654-9.334a113.316,113.316,0,0,0,10.891-11.7c6.762-7.958,13.706-16.133,24.78-20.039,7.035-2.5,14.829-2.5,22.3-2.491,2.084-.017,4.339,0,6.5-.04a68.208,68.208,0,0,0,22.85-4.628c7.867-2.99,14.507-6.951,21.649-11.137a180.711,180.711,0,0,1,18.152-9.808,36.378,36.378,0,0,1,3.828-1.589c12.175-4.881,20.707-5.419,29.811-5.625,1.6-.043,3.212-.009,4.807-.052,9.24,0,18.853-.1,34.423-5.209a322.129,322.129,0,0,0,32.081-12.961,319.814,319.814,0,0,0,33.161-16.984c2.349-1.414,4.9-2.968,7.986-4.923A29.358,29.358,0,0,1,81.68-418.49l-.146-.536Z" transform="translate(259.231 424.586)" fill="#34ca00"/>
          <path id="Path_15135" data-name="Path 15135" d="M93.842-382.288c-6.129-.974-13.11,1.433-18.278,4.891-2.992,2.01-5.394,3.522-7.688,4.838-10.12,5.945-18.724,9.476-27.106,12.943-1.726.741-3.55,1.427-5.278,2.168-13.488,5.669-23.137,9.5-31.1,12.433A105.232,105.232,0,0,1-27.4-338.411c-1.575.119-3.149.239-4.7.435-.712.038-1.4.154-2.192.213-7.363.7-15.737,1.523-26.72,6.063-1.152.494-2.378,1.009-3.658,1.623a151.823,151.823,0,0,0-16.13,9.56c-6.76,4.408-13.189,8.555-21.429,11.652a65.081,65.081,0,0,1-22,4.219c-2.234.06-4.583-.012-6.837-.028-7.1-.118-14.375-.27-21.14,1.745-11.07,3.327-17.986,10.421-25.341,17.97a130.256,130.256,0,0,1-10.412,9.909c-11.311,9.257-19.553,9.382-29.092,9.465-5.37.048-10.815.117-17.345,1.817l-2.536.724a25.992,25.992,0,0,0-8.6,5.017l.125.46a23.315,23.315,0,0,1,8.678-5.038c.895-.256,1.694-.567,2.535-.724,6.455-1.678,11.9-1.748,17.27-1.8,9.22-.074,17.95-.174,29.465-9.572a140.683,140.683,0,0,0,10.486-9.93c7.3-7.451,14.143-14.524,25.064-17.808,6.616-1.972,13.868-1.9,20.97-1.78,2.254.017,4.6.088,6.837.028a64.159,64.159,0,0,0,22.22-4.283c8.261-3.02,14.669-7.244,21.5-11.673A154.659,154.659,0,0,1-64.305-329.6a38.048,38.048,0,0,1,3.583-1.6c10.833-4.5,19.207-5.321,26.495-6,.714-.038,1.479-.175,2.193-.213,1.574-.12,3.224-.26,4.7-.435,8.564-.713,17.448-1.434,31.943-6.648,8.057-2.879,17.611-6.764,31.1-12.433,1.728-.741,3.475-1.406,5.2-2.147,8.38-3.467,16.986-7,27.179-12.964,2.3-1.316,4.678-2.9,7.668-4.914,5.094-3.437,12.1-5.767,18.151-4.772l-.146-.536Z" transform="translate(248.816 394.242)" fill="#34ca00"/>
          <path id="Path_15136" data-name="Path 15136" d="M110.138-342.99a6.618,6.618,0,0,0-1.259-.8c-7.353-4.009-16.658-.691-22.93,3.742-2.916,1.989-5.168,3.458-7.39,4.752-9.083,5.319-16.864,8.037-24.421,10.69-2.419.856-4.764,1.691-7.088,2.6-10.638,4.029-19.339,7.5-27.015,10.606l-3.124,1.222a128.072,128.072,0,0,1-29.391,8.065l-4.6.818c-1.534.273-3.141.567-4.844.806-6.472,1.023-13.88,2.148-22.849,6.114-1.152.494-2.283,1.065-3.488,1.657a118.335,118.335,0,0,0-14.353,9.3c-6.379,4.629-12.447,8.921-20.931,12.005a61.472,61.472,0,0,1-21.367,3.874c-2.4.026-4.923-.08-7.272-.152-6.58-.267-13.384-.47-19.711,1.09-11.066,2.748-18.264,9.1-25.922,15.825-3.048,2.687-6.225,5.493-9.708,8.056-11.167,8.308-19.317,9.067-27.956,9.8a77.123,77.123,0,0,0-16.362,2.775c-.746.213-1.545.524-2.44.78a26.749,26.749,0,0,0-14.533,12.489l.187.69a26.027,26.027,0,0,1,14.45-12.8c.874-.332,1.694-.567,2.44-.78a75.608,75.608,0,0,1,16.213-2.732c8.714-.755,16.939-1.536,28.255-9.886,3.483-2.563,6.66-5.37,9.708-8.056,7.6-6.63,14.728-12.957,25.72-15.684,6.177-1.517,12.981-1.314,19.487-1.026,2.424.051,4.869.178,7.347.13a62.161,62.161,0,0,0,21.516-3.917c8.634-3.126,14.681-7.5,21.134-12.146a120.511,120.511,0,0,1,14.278-9.279,36.688,36.688,0,0,1,3.413-1.635c8.894-3.944,16.228-5.048,22.7-6.071,1.7-.239,3.31-.533,4.842-.806l4.6-.818a129.362,129.362,0,0,0,29.54-8.107l3.124-1.222c7.676-3.1,16.377-6.576,27.015-10.606,2.324-.912,4.668-1.746,7.108-2.526,7.557-2.654,15.413-5.393,24.572-10.733,2.22-1.294,4.473-2.764,7.368-4.829,6.142-4.314,15.224-7.568,22.312-3.649a8.7,8.7,0,0,1,1.758,1.149l-.209-.766Z" transform="translate(234.866 363.602)" fill="#34ca00"/>
          <path id="Path_15137" data-name="Path 15137" d="M138.846-297.817q-.492-.479-.982-.958c-.868-.826-1.627-1.847-2.419-2.694-1.688-2.077-3.47-4.21-6.227-5.486-8.725-4.03-18.227,1.821-21.913,4.525a64.348,64.348,0,0,1-7.092,4.667c-8.4,4.876-15.635,6.942-22.645,8.945-2.684.767-5.369,1.534-8.087,2.475-10.368,3.54-19.963,7.271-29.231,11.321a175.1,175.1,0,0,1-27.379,9.554l-4.1,1.172c-2.089.6-4.441,1.1-6.891,1.555a80.854,80.854,0,0,0-19.529,5.909,36.772,36.772,0,0,0-3.318,1.691,101.485,101.485,0,0,0-12.778,9.181c-5.944,4.752-11.481,9.223-20.264,12.392a59.217,59.217,0,0,1-20.663,3.508c-2.573-.008-5.263-.148-7.877-.309-6.038-.339-12.32-.691-18.133.391-11.307,2.156-19.011,7.824-27.1,13.85-2.672,2-5.418,4.024-8.408,6.034-11.022,7.359-18.687,8.722-26.821,10.138a97,97,0,0,0-15.3,3.711c-.8.311-1.6.622-2.345.835-6.173,2.423-11.851,7.265-14.715,12.706a20.8,20.8,0,0,0-2.225,8.4,18.186,18.186,0,0,1-1.273,5.977l-.161.294.208.766a7.24,7.24,0,0,0,.464-.958,22.194,22.194,0,0,0,1.327-6.075,20.458,20.458,0,0,1,2.192-8.221c2.757-5.245,8.435-10.087,14.459-12.468a23.033,23.033,0,0,1,2.27-.813,96.417,96.417,0,0,1,15.23-3.69c8.208-1.436,15.948-2.821,27.024-10.278,2.991-2.01,5.737-4.033,8.408-6.034,8.11-5.949,15.74-11.6,26.9-13.709,5.738-1.061,11.925-.765,17.963-.425,2.615.161,5.3.3,7.877.309a60.556,60.556,0,0,0,20.907-3.5c8.878-3.114,14.47-7.683,20.413-12.435a103.73,103.73,0,0,1,12.7-9.16,31.661,31.661,0,0,1,3.244-1.669c7.274-3.4,13.684-4.652,19.382-5.866,2.5-.55,4.8-.959,6.964-1.577l4.1-1.172a176.352,176.352,0,0,0,27.456-9.576c9.267-4.05,18.861-7.782,29.231-11.321,2.717-.941,5.327-1.687,8.087-2.475,7.083-2.024,14.392-4.111,22.773-9.064a83.639,83.639,0,0,0,7.07-4.744c3.611-2.683,12.911-8.393,21.371-4.453,2.66,1.221,4.327,3.222,6.036,5.376a32.432,32.432,0,0,0,2.437,2.771c.54.506,1.078,1.013,1.6,1.443Z" transform="translate(210.021 332.681)" fill="#34ca00"/>
          <path id="Path_15138" data-name="Path 15138" d="M151.272-258.79a26.659,26.659,0,0,1-7.423-4.566c-.847-.749-1.617-1.52-2.463-2.269-1.965-1.915-3.739-3.72-6.528-4.822-6.184-2.361-13.181-.61-20.952,5.407a54.543,54.543,0,0,1-6.794,4.582c-8.828,5.081-16.057,6.568-23.735,8.183-2.054.422-4.184.865-6.293,1.385-11.236,2.714-20.164,6.832-28.345,10.738-12.427,6.026-19.474,8.782-26.947,11.742l-2.026.826a64.507,64.507,0,0,1-8.427,2.407C6.3-223.9.57-222.514-5.458-219.554c-1.056.549-2.038,1.077-3.148,1.725A80.514,80.514,0,0,0-20.033-208.7c-5.339,4.91-10.441,9.5-19.394,12.639a55.918,55.918,0,0,1-20.054,3.086c-2.839-.1-5.793-.327-8.578-.522-5.495-.412-11.16-.858-16.364-.2-11.962,1.518-20.023,6.462-29.4,12.194-1.922,1.209-3.919,2.44-6.01,3.616-10.559,6.4-17.739,8.369-25.345,10.542a129.929,129.929,0,0,0-14.4,4.69,20.753,20.753,0,0,0-2.154.945,33.844,33.844,0,0,0-14.563,12.085,23.259,23.259,0,0,0-3.016,7.549,20.015,20.015,0,0,1-2.015,5.611,21.643,21.643,0,0,1-3.3,4.411,29.459,29.459,0,0,1-2.257,2.048l.125.46a18.091,18.091,0,0,0,2.535-2.21,22.49,22.49,0,0,0,3.358-4.509,25.373,25.373,0,0,0,2.069-5.709,24.144,24.144,0,0,1,2.963-7.451,33.271,33.271,0,0,1,14.306-11.846,21.089,21.089,0,0,1,2.175-.869,148.831,148.831,0,0,1,14.322-4.669c7.607-2.173,14.861-4.162,25.664-10.55,2.071-1.252,4.068-2.483,6.01-3.615,9.3-5.711,17.36-10.655,29.173-12.13,5.2-.661,10.55-.206,16.289.218,2.785.2,5.739.425,8.652.5a56.753,56.753,0,0,0,20.277-3.15c9.123-3.1,14.2-7.772,19.618-12.7a79.572,79.572,0,0,1,11.353-9.1,30.121,30.121,0,0,1,3.074-1.7,80.123,80.123,0,0,1,16.647-5.58,65.574,65.574,0,0,0,8.5-2.428l2.026-.826c7.473-2.96,14.445-5.695,26.949-11.742,8.16-3.982,17.034-8,28.271-10.717,2.109-.52,4.237-.963,6.293-1.385,7.676-1.615,14.982-3.124,23.863-8.3a60.018,60.018,0,0,0,6.847-4.68c7.589-5.8,14.417-7.585,20.356-5.236,2.694,1.047,4.468,2.851,6.434,4.767a28.925,28.925,0,0,0,2.483,2.345,32.361,32.361,0,0,0,7.975,4.822l-.229-.843Z" transform="translate(199.878 302.082)" fill="#34ca00"/>
          <path id="Path_15139" data-name="Path 15139" d="M158.477-222.819a35.258,35.258,0,0,1-13.2-5.723c-.805-.6-1.63-1.268-2.433-1.864a20.747,20.747,0,0,0-6.926-4.213c-7.9-2.451-14.8,2-19.937,6.19a46.274,46.274,0,0,1-6.5,4.5c-7.44,4.271-13.932,5.218-20.125,6.079a82.6,82.6,0,0,0-9.1,1.692,120.36,120.36,0,0,0-27.439,10.231c-6.391,3.394-11.077,5.971-15.26,8.322-3.981,2.21-7.406,4.1-11.13,6.069-2.594,1.4-5.821,2.24-9.475,3.284A76.853,76.853,0,0,0,2.4-182.945c-.982.528-1.943,1.133-2.978,1.759a64.014,64.014,0,0,0-10.13,9.168c-4.754,4.99-9.252,9.742-18.47,12.788a52.125,52.125,0,0,1-19.35,2.72c-3.178-.165-6.4-.484-9.523-.747a90.144,90.144,0,0,0-14.5-.729c-13.541.731-22.866,5.458-34.581,11.446l-.7.366a229.927,229.927,0,0,1-23.485,10.588c-4.275,1.716-8.625,3.454-14.085,5.839-.576.247-1.205.592-1.781.839l-.278.162A39.96,39.96,0,0,0-161.8-117.305a35.864,35.864,0,0,0-3.713,6.757,31.132,31.132,0,0,1-2.811,5.343,20.336,20.336,0,0,1-3.578,3.994,48.09,48.09,0,0,1-8.288,5.587l.125.46a50.463,50.463,0,0,0,8.491-5.728,27.335,27.335,0,0,0,3.632-4.092,25.246,25.246,0,0,0,2.864-5.441,29.066,29.066,0,0,1,3.659-6.659,39.89,39.89,0,0,1,14.132-11.3l.278-.162c.65-.268,1.205-.592,1.781-.839,5.365-2.44,9.789-4.2,14.011-5.818a232.352,232.352,0,0,0,23.729-10.575l.7-.366c11.64-5.967,20.891-10.673,34.357-11.382A92.262,92.262,0,0,1-58-156.777c3.145.34,6.365.659,9.523.747A53.346,53.346,0,0,0-28.9-158.814c9.346-3.165,13.844-7.917,18.673-12.928a63.184,63.184,0,0,1,10.076-9.07,25.016,25.016,0,0,1,2.9-1.737,75.386,75.386,0,0,1,14.4-5.269,57.864,57.864,0,0,0,9.625-3.327c3.8-1.993,7.224-3.88,11.13-6.069,4.2-2.274,8.869-4.927,15.26-8.322a119.087,119.087,0,0,1,27.29-10.189,82.94,82.94,0,0,1,9.028-1.671c6.268-.883,12.741-1.906,20.351-6.143a45.4,45.4,0,0,0,6.548-4.595c5.077-4.092,11.838-8.5,19.393-6.117a20.734,20.734,0,0,1,6.736,4.1c.8.6,1.554,1.29,2.453,1.941a36.611,36.611,0,0,0,13.637,5.847Z" transform="translate(194.293 272.089)" fill="#34ca00"/>
          <path id="Path_15140" data-name="Path 15140" d="M165.1-188.187a41.228,41.228,0,0,1-18.55-5.6c-.784-.519-1.547-.962-2.331-1.481a24.217,24.217,0,0,0-7.4-3.583c-7.749-1.914-13.648,2.412-18.974,7.071a32.7,32.7,0,0,1-6.2,4.412c-7.11,4.012-12.865,4.417-19.088,4.874a64.894,64.894,0,0,0-9.343,1.1c-10.425,2.152-19.059,5.278-26.457,9.7a204.009,204.009,0,0,0-17.226,11.442c-2.213,1.622-4.37,3.147-6.678,4.714-2.713,1.848-6.346,2.969-10.183,4.229a64.563,64.563,0,0,0-12.7,5.03,28.634,28.634,0,0,0-2.808,1.793,53.864,53.864,0,0,0-9,9.176c-4.17,5.071-8.008,9.882-17.376,12.971a50.5,50.5,0,0,1-18.72,2.375c-3.593-.212-7.173-.675-10.679-1.16a117.047,117.047,0,0,0-12.3-1.194c-13.492-.274-23.423,2.81-35.163,7.815a273.433,273.433,0,0,0-25.41,12.376c-3.094,1.627-6.317,3.373-10.137,5.289a8.91,8.91,0,0,0-1.259.69l-.63.345a52.845,52.845,0,0,0-14.161,10.9,47.686,47.686,0,0,0-4.281,5.846,43.7,43.7,0,0,1-3.681,5.1A25.6,25.6,0,0,1-159.4-70.4a67.731,67.731,0,0,1-9.855,6.034c-1.537.852-3.094,1.627-4.536,2.534l.125.46c1.462-.83,3.074-1.7,4.685-2.576a62.416,62.416,0,0,0,10-6.077,33.246,33.246,0,0,0,3.831-3.654,33.168,33.168,0,0,0,3.735-5.194,41.025,41.025,0,0,1,4.227-5.748A53.3,53.3,0,0,1-133.23-95.381l.63-.345c.427-.2.833-.485,1.259-.69,3.819-1.916,7.042-3.663,10.137-5.289,7.448-3.944,13.894-7.436,25.41-12.376,11.591-4.962,21.522-8.046,34.94-7.751a117.041,117.041,0,0,1,12.3,1.194c3.506.485,7.161.927,10.754,1.139a50.173,50.173,0,0,0,18.964-2.362c9.516-3.131,13.429-7.964,17.653-13.132a50.575,50.575,0,0,1,8.854-9.133A23.434,23.434,0,0,1,10.4-145.9a62.69,62.69,0,0,1,12.548-4.988c3.933-1.206,7.544-2.4,10.332-4.272,2.308-1.567,4.466-3.092,6.678-4.714a194.84,194.84,0,0,1,17.152-11.421c7.345-4.327,15.979-7.453,26.329-9.584a65.6,65.6,0,0,1,9.268-1.079c5.978-.47,12.149-.828,19.31-4.938a38.7,38.7,0,0,0,6.25-4.51c5.22-4.463,10.968-8.746,18.452-6.922a21.85,21.85,0,0,1,7.229,3.549c.784.519,1.546.962,2.329,1.481a41.825,41.825,0,0,0,19.04,5.624l-.146-.536Z" transform="translate(188.96 242.207)" fill="#34ca00"/>
          <path id="Path_15141" data-name="Path 15141" d="M171.259-155.041a17.984,17.984,0,0,1-2.042.171,44.458,44.458,0,0,1-21.641-4.551c-.742-.366-1.388-.677-2.13-1.043a28.027,28.027,0,0,0-7.966-3.008c-7.923-1.369-13.006,3.3-17.959,7.854a30.281,30.281,0,0,1-5.823,4.305c-6.7,3.731-12.263,3.668-18.07,3.592a53.963,53.963,0,0,0-9.583.509c-10.4,1.65-18.533,4.55-25.57,9.12A98.389,98.389,0,0,0,44.95-125.4c-1.905,1.865-3.777,3.555-5.8,5.289-2.684,2.253-6.5,3.59-10.539,4.991a57.713,57.713,0,0,0-11.069,4.813,22.971,22.971,0,0,0-2.639,1.827A42.177,42.177,0,0,0,7.05-99.222C3.539-94.092.285-89.2-9.177-86.167a47.606,47.606,0,0,1-18.09,2.03c-4.1-.314-8.309-1.011-12.271-1.7-3.377-.6-6.564-1.1-9.71-1.437-13.219-1.342-23.371-.259-35.041,3.817-10.722,3.723-16.757,7.841-23.1,12.295-3.119,2.129-6.366,4.378-10.327,6.664-.277.162-.555.324-.907.507-.277.162-.63.345-.982.528A80.129,80.129,0,0,0-133.541-53.2a61.966,61.966,0,0,0-4.572,4.773c-1.553,1.682-3.031,3.342-4.9,5.033a46.992,46.992,0,0,1-4.03,3.215,78.373,78.373,0,0,1-9.776,5.434c-2.187,1.12-4.246,2.121-6.114,3.232-1.665.971-3.2,1.823-4.644,2.73l.125.46c1.537-.852,3.128-1.8,4.793-2.772,1.868-1.111,3.927-2.112,6.114-3.232a76.938,76.938,0,0,0,9.83-5.532,41.618,41.618,0,0,0,4.1-3.236,64.621,64.621,0,0,0,4.978-5.054c1.371-1.465,2.721-3.006,4.5-4.752a75.767,75.767,0,0,1,13.805-10.135c.352-.183.63-.345.982-.528.278-.162.63-.345.907-.507,3.96-2.287,7.207-4.535,10.306-6.741,6.366-4.378,12.327-8.474,22.974-12.176,11.521-4.034,21.6-5.1,34.818-3.753,3.145.34,6.257.854,9.635,1.458,4.036.663,8.168,1.382,12.345,1.675A48.63,48.63,0,0,0-9.032-85.63c9.686-3.1,13.015-8.01,16.58-13.239a38.8,38.8,0,0,1,7.727-9.142,18.8,18.8,0,0,1,2.564-1.806,56.076,56.076,0,0,1,10.941-4.694c4.115-1.423,8-2.782,10.743-5.132,2.021-1.733,3.871-3.5,5.8-5.289A99.632,99.632,0,0,1,60.769-137.6c6.962-4.548,15.02-7.427,25.345-9.056a52.176,52.176,0,0,1,9.436-.466c5.879.054,11.515.1,18.366-3.678a30.407,30.407,0,0,0,5.952-4.424c5.082-4.671,9.853-9.006,17.437-7.7a26.366,26.366,0,0,1,7.8,2.974c.742.366,1.39.677,2.132,1.043a44.569,44.569,0,0,0,21.885,4.563,17.539,17.539,0,0,0,2.192-.213l-.124-.46Z" transform="translate(183.774 212.662)" fill="#34ca00"/>
          <path id="Path_15142" data-name="Path 15142" d="M177.151-122.5a45.187,45.187,0,0,1-7.2,1.313c-8.13.836-15.719-1.372-21.33-3.4-.532-.179-1.156-.413-1.688-.591a33.235,33.235,0,0,0-8.757-2.369c-7.438-.765-11.559,3.3-15.861,7.585-.386.358-.7.694-1.082,1.052a27.14,27.14,0,0,1-5.525,4.22c-6.446,3.492-11.642,3-17.159,2.507a43.866,43.866,0,0,0-9.7-.2c-10.226,1.1-18.081,3.844-24.663,8.613-6.176,4.488-9.906,9.1-13.509,13.6-1.748,2.15-3.366,4.181-5.23,6.2-2.559,2.712-6.482,4.246-10.7,5.864A53.458,53.458,0,0,0,25.047-73.6,18.538,18.538,0,0,0,22.6-71.664a35.116,35.116,0,0,0-6.761,9.444c-2.852,5.19-5.522,10.163-15.1,13.064A44.1,44.1,0,0,1-16.67-47.569a122.124,122.124,0,0,1-14.6-2.6c-2.23-.519-4.268-.927-6.382-1.314-12.8-2.454-23.074-3.316-34.919-.18C-83-48.93-88.512-44.055-94.372-39a86.905,86.905,0,0,1-9.439,7.567l-.331.26c-.406.281-.886.583-1.367.886-5.6,3.662-10.061,6.754-13.706,9.611-1.454,1.158-2.779,2.2-4.009,3.292a75.942,75.942,0,0,1-6.9,5.357c-1.549,1.1-2.916,1.989-4.3,2.8-2.978,1.759-6.338,3.3-9.6,4.889-2.133,1.022-4.213,1.946-6.177,3-3.745,1.9-6.968,3.641-9.892,5.3-.427.2-.833.485-1.259.69l.125.46c.48-.3.907-.507,1.388-.809,2.924-1.661,6.147-3.407,9.892-5.3,1.984-.98,3.969-1.959,6.1-2.981a89.4,89.4,0,0,0,9.6-4.889,49.588,49.588,0,0,0,4.378-2.819c2.564-1.805,4.66-3.56,6.979-5.378,1.251-1.018,2.555-2.133,4.009-3.292,3.645-2.857,8.11-5.949,13.706-9.611.481-.3.886-.583,1.367-.886l.331-.26A83.7,83.7,0,0,0-93.97-38.7c5.786-5.037,11.22-9.892,21.5-12.58,11.7-3.093,21.9-2.21,34.621.265,2.039.408,4.173.872,6.382,1.314,4.778,1.029,9.727,2.093,14.7,2.653A44.287,44.287,0,0,0,.861-48.7c9.782-3.042,12.526-8.036,15.432-13.324a32.331,32.331,0,0,1,6.654-9.248,16.521,16.521,0,0,1,2.319-1.818A52.66,52.66,0,0,1,34.9-77.571c4.3-1.64,8.294-3.194,10.907-6,1.864-2.018,3.557-4.071,5.3-6.221,3.6-4.5,7.259-9.09,13.435-13.579,6.507-4.748,14.235-7.368,24.386-8.451a44.579,44.579,0,0,1,9.621.224c5.611.544,10.882,1.02,17.477-2.515a24.428,24.428,0,0,0,5.654-4.339c.386-.358.77-.715,1.082-1.052,4.249-4.186,8.22-8.209,15.414-7.457a37.375,37.375,0,0,1,8.662,2.314c.53.179,1.156.413,1.686.591,5.707,2.085,13.3,4.293,21.573,3.414a56.261,56.261,0,0,0,7.272-1.334l-.146-.536Z" transform="translate(178.588 182.722)" fill="#34ca00"/>
          <path id="Path_15143" data-name="Path 15143" d="M181.747-91.7l-3.429.98a68.077,68.077,0,0,1-8.735,2.164c-7.035,1.019-13.7-.461-21.038-2.329l-.53-.179a48.914,48.914,0,0,0-10.282-1.769c-7.123-.194-10.594,3.6-14.246,7.619-.547.651-1.188,1.248-1.734,1.9a19.613,19.613,0,0,1-5.226,4.135c-6.094,3.309-11,2.4-16.247,1.421a38.341,38.341,0,0,0-9.83-.99c-10.148.5-17.651,3.06-23.776,8.03-5.409,4.352-8.5,9.529-11.515,14.434-1.441,2.393-3.01,4.9-4.695,7.285-2.361,3.151-6.391,4.88-10.647,6.673a46.1,46.1,0,0,0-8.545,4.34,12.273,12.273,0,0,0-2.278,1.972c-3.019,3.091-4.36,6.446-5.688,9.55-2.193,5.249-4.225,10.205-13.878,13.128A40.227,40.227,0,0,1-7.351-12.092c-6.311-.757-12.424-2.56-18.272-4.275l-1.666-.515c-11.43-3.34-22.309-6.424-34.818-4.254C-72.37-19.278-77.393-13.8-82.632-7.926A63.17,63.17,0,0,1-91.151.368l-1.6,1.2c-4.167,3.006-8.877,6.085-13.553,8.989-4.175,2.679-8.019,5.1-12.427,7.512-1.686.894-3.169,1.648-4.577,2.381-3.041,1.529-6.218,2.849-9.3,4.225-2.154.945-4.255,1.793-6.239,2.773-3.936,1.784-7.051,3.335-9.793,4.778-2.465,1.282-5.207,2.726-7.833,4.3l.125.46c2.68-1.674,5.422-3.117,7.962-4.42,2.742-1.444,5.8-2.9,9.793-4.779q3.008-1.354,6.239-2.773c3.1-1.3,6.334-2.717,9.3-4.225,1.408-.732,2.966-1.508,4.577-2.381,4.408-2.415,8.252-4.834,12.427-7.512,4.581-2.96,9.386-5.983,13.553-8.989l1.6-1.2a56.267,56.267,0,0,0,8.573-8.392c5.259-5.8,10.208-11.254,20.247-13.048,12.339-2.2,23.143.9,34.5,4.263l1.666.515c5.943,1.77,12.056,3.573,18.442,4.309a41.279,41.279,0,0,0,17-1.306C19.5-15.882,21.567-21.013,23.814-26.36c1.328-3.1,2.615-6.361,5.56-9.431a12.915,12.915,0,0,1,2.15-1.852,40.537,40.537,0,0,1,8.493-4.242c4.329-1.814,8.455-3.488,10.923-6.835,1.779-2.325,3.253-4.892,4.769-7.306,3.01-4.9,6.051-9.984,11.387-14.315,6-4.85,13.425-7.385,23.4-7.923a39.117,39.117,0,0,1,9.661.956c5.321.957,10.322,1.922,16.64-1.451a22.336,22.336,0,0,0,5.43-4.275c.621-.673,1.188-1.248,1.734-1.9,3.523-3.9,6.919-7.673,13.744-7.393a43.4,43.4,0,0,1,10.133,1.811l.53.179c7.41,1.846,14.154,3.3,21.283,2.341a57.745,57.745,0,0,0,8.808-2.186l3.431-.98Z" transform="translate(174.511 153.838)" fill="#34ca00"/>
          <path id="Path_15144" data-name="Path 15144" d="M186.994-75.326a52.089,52.089,0,0,0-8.949,2.556,60.163,60.163,0,0,1-8.107,2.4c-6.113,1.168-12.166.173-18.051-.788-4.526-.689-9.166-1.509-13.857-1.325-6.924.244-9.851,3.97-12.908,7.814-1.908,2.444-3.946,5.007-7.04,6.634-5.836,3.071-10.453,1.748-15.409.356a35.556,35.556,0,0,0-9.888-1.8c-10.145-.075-17.147,2.256-22.87,7.523-4.642,4.215-7.092,9.7-9.414,15.072a76.966,76.966,0,0,1-4.213,8.468c-2.14,3.666-6.374,5.536-10.438,7.439-3.585,1.6-7.221,3.3-9.664,6.145-2.754,3.181-3.7,6.506-4.669,9.754C29.874.428,28.534,5.268,18.765,8.059l-.075.021C6.759,11.488-5.7,7.617-16.327,3.387c-.817-.345-1.612-.613-2.354-.979C-28.872-1.7-39.425-5.948-50.948-4.886-60.992-4-65.563,2.261-70.275,8.89a56.356,56.356,0,0,1-7.6,9.022c-9.861,8.678-26.333,15.2-40.853,20.915-6.4,2.487-12.495,4.89-17.764,7.385-5.642,2.6-10.646,5.187-14.3,8.624l.145.536c3.607-3.589,8.707-6.119,14.328-8.8,5.29-2.419,11.314-4.8,17.69-7.364,14.6-5.737,31.067-12.258,41-20.958a50.764,50.764,0,0,0,7.652-9.12c4.658-6.531,9.1-12.671,18.9-13.571C-39.619-5.48-29.162-1.284-19.045,2.843c.817.345,1.612.613,2.354.979C-5.969,8.106,6.585,12.033,18.666,8.582l.075-.021C28.808,5.686,30.289.474,31.877-4.932c.914-3.15,1.861-6.475,4.561-9.558,2.315-2.725,5.972-4.348,9.481-5.928,4.16-1.848,8.447-3.816,10.716-7.6a67.875,67.875,0,0,0,4.193-8.545c2.342-5.292,4.812-10.7,9.306-14.876,5.6-5.148,12.469-7.359,22.443-7.318a34.345,34.345,0,0,1,9.717,1.765c5.052,1.446,9.838,2.8,15.878-.408,3.224-1.746,5.261-4.309,7.244-6.775,3-3.747,5.8-7.353,12.48-7.61a74.527,74.527,0,0,1,13.763,1.27c5.959.94,12.088,1.913,18.295.8a62.31,62.31,0,0,0,8.256-2.441,52.07,52.07,0,0,1,8.95-2.556Z" transform="translate(169.762 139.307)" fill="#34ca00"/>
          <path id="Path_15145" data-name="Path 15145" d="M201.053-34.453a65.262,65.262,0,0,0-9.454,1.875,66.633,66.633,0,0,1-7.976,1.7c-5.672.712-11.13-.453-16.928-1.687a68.711,68.711,0,0,0-14.362-2.006c-7.136.057-10.458,3.812-13.94,7.861a29.96,29.96,0,0,1-6.6,6.178,21.05,21.05,0,0,1-3.116,1.55c-3.7,1.469-6.737.934-10.209.275-.754-.115-1.529-.306-2.357-.4a31.749,31.749,0,0,0-7.58-.394c-5.851.35-10.353,1.224-14.066,2.945a25.122,25.122,0,0,0-8.077,5.774,29.887,29.887,0,0,0-4.9,7.426C80.561-1.44,79.729.531,78.972,2.481a57.413,57.413,0,0,1-5.3,10.678c-2.535,3.7-7.075,5.323-11.39,6.886-3.444,1.231-6.663,2.4-8.974,4.544a20.531,20.531,0,0,0-5.125,8.068c-2.019,4.7-3.878,9.115-13.373,12.323-.949.353-1.918.63-2.888.907-11.228,3.042-22.629.107-32.273-3.165-1.231-.391-2.483-.859-3.809-1.306l-1.952-.681c-8.774-3.025-18.8-6.518-29.738-5.375-9.609,1.011-14.06,6.823-18.8,13.048a50.241,50.241,0,0,1-7.392,8.3c-9.8,8.329-25.766,14.624-39.86,20.136-5.874,2.338-11.471,4.515-16.335,6.729-5.717,2.624-12.884,5.826-16.705,11.293-.236.315-.4.609-.633.924l-.646,1.175.187.69c.248-.566.571-1.154.894-1.741a8.431,8.431,0,0,1,.633-.924c3.789-5.292,10.785-8.529,16.448-11.055,4.863-2.215,10.46-4.391,16.335-6.73,14.168-5.533,30.139-11.828,40.083-20.2a52.78,52.78,0,0,0,7.446-8.4c4.633-6.029,9.085-11.841,18.395-12.767,10.79-1.1,20.72,2.337,29.494,5.362l1.952.681c1.252.468,2.483.859,3.809,1.306,9.719,3.251,21.215,6.241,32.592,3.157.969-.277,2.014-.575,2.962-.929,9.719-3.272,11.718-8.053,13.7-12.583,1.134-2.635,2.3-5.445,5.017-7.873,2.183-2.027,5.4-3.194,8.77-4.4,4.466-1.606,9.081-3.254,11.649-7.125A61.944,61.944,0,0,0,79.428,2.681c.757-1.95,1.663-3.942,2.516-5.837a30.845,30.845,0,0,1,4.844-7.327,23.814,23.814,0,0,1,7.948-5.655c3.658-1.623,8.067-2.552,13.844-2.881a36.267,36.267,0,0,1,7.43.437c.828.093,1.6.285,2.357.4,3.548.638,6.659,1.152,10.584-.381a16.78,16.78,0,0,0,3.244-1.669,28.918,28.918,0,0,0,6.729-6.3c3.355-3.93,6.547-7.566,13.438-7.636,4.882-.073,9.659.956,14.268,1.951,5.554,1.221,11.331,2.377,17.1,1.721a71.3,71.3,0,0,0,8.049-1.722,56,56,0,0,1,9.456-1.875l-.1-.383Z" transform="translate(157.613 105.484)" fill="#34ca00"/>
          <path id="Path_15146" data-name="Path 15146" d="M218.839-8.049a80.439,80.439,0,0,0-9.663,1.109c-2.863.4-5.556.844-8.087.989-5.308.278-10.339-1.092-15.711-2.53-4.766-1.28-9.7-2.595-14.889-2.764-7.517-.165-11.265,3.8-15.174,8.049a37.1,37.1,0,0,1-5.98,5.506,32.014,32.014,0,0,1-2.884,1.814c-3.3,1.767-5.667,1.619-8.75,1.509-.734-.038-1.468-.076-2.274-.093a52.415,52.415,0,0,0-7.319.274c-4.512.546-9.654,1.437-13.953,3.655a23.453,23.453,0,0,0-7.539,6.281,30.868,30.868,0,0,0-4.272,7.659c-.583,1.4-1.092,2.789-1.58,4.249-1.559,4.325-3.172,8.749-6.027,12.453-2.98,3.823-7.849,5.131-12.494,6.375-3.078.8-5.932,1.53-8.036,2.956a19.7,19.7,0,0,0-5.839,6.621c-2.418,3.828-4.889,7.753-13.888,11.314l-2.846,1.061c-11.447,4.012-22.81,1.81-32.458-.883l-4.712-1.378-2.1-.638C3.012,62.761-6.7,59.838-17.2,61.1c-9.1,1.113-13.5,6.5-18.221,12.222a52.328,52.328,0,0,1-7.239,7.681c-9.8,8-25.273,14.071-39.015,19.4-5.3,2.091-10.32,4.021-14.852,5.976-5.535,2.406-12.329,5.5-16.146,10.391-.236.315-.418.532-.654.847-2.372,3.4-3.174,7.263-3.868,10.929l.311,1.149a.284.284,0,0,1,.033-.174c.706-3.917,1.446-8.008,3.905-11.682.161-.294.418-.532.58-.826,3.764-4.79,10.5-7.789,15.964-10.174,4.532-1.955,9.532-3.961,14.852-5.976,13.742-5.328,29.36-11.441,39.143-19.518a50.555,50.555,0,0,0,7.293-7.779c4.663-5.625,9.015-10.913,17.795-12.017C-6.967,60.328,2.723,63.174,12,65.973l2.1.638c1.666.515,3.141.919,4.712,1.378,9.723,2.671,21.181,4.93,32.777.875,1.023-.375,1.972-.728,2.921-1.082,9.222-3.625,11.855-7.844,14.165-11.476a19.062,19.062,0,0,1,5.657-6.4c2.029-1.405,4.883-2.138,7.888-2.913,4.569-1.223,9.757-2.539,12.845-6.559,2.833-3.781,4.521-8.226,6.081-12.551.562-1.482,1.07-2.865,1.58-4.249a29.844,29.844,0,0,1,4.143-7.54A22.3,22.3,0,0,1,114.2,9.95c4.226-2.2,9.292-3.067,13.729-3.592a49.282,49.282,0,0,1,7.223-.329c.808.017,1.542.055,2.274.093,3.01.131,5.624.293,9.071-1.517a20.225,20.225,0,0,0,2.957-1.835,33.973,33.973,0,0,0,6.035-5.6c3.855-4.156,7.474-8,14.747-7.845,5.092.114,10.029,1.428,14.795,2.709,5.371,1.438,10.5,2.863,15.88,2.564a62.291,62.291,0,0,0,8.163-1.011,84.307,84.307,0,0,1,9.737-1.13l-.126-.46Z" transform="translate(141.737 86.129)" fill="#34ca00"/>
          <path id="Path_15147" data-name="Path 15147" d="M236.014,18.066c-3.137-.012-6.157.108-9.157.3-3.171.162-6.171.359-8.934.24-4.943-.157-9.623-1.709-14.568-3.352-4.923-1.566-9.962-3.263-15.437-3.6-7.993-.441-12.457,4.136-16.739,8.5a55.345,55.345,0,0,1-5.008,4.65c-.939.681-1.859,1.439-2.67,2-2.97,2.087-4.918,2.313-7.728,2.62-.542.072-1.16.166-1.777.26-.467.051-1.01.124-1.552.2q-2.443.326-5.558.844c-4.822.882-9.827,1.981-13.84,4.366a21.019,21.019,0,0,0-6.924,6.766,32.047,32.047,0,0,0-3.572,7.872c-.315.915-.555,1.809-.87,2.725-1.542,4.981-3.118,10.137-6.527,14.165-3.482,4.049-9.038,4.893-13.9,5.622a31.24,31.24,0,0,0-6.815,1.534c-3.3,1.44-4.966,3.317-6.958,5.455C84.809,82.141,81.7,85.5,73.459,89.18c-.928.43-1.856.86-2.8,1.214-11.74,5-23.6,3.355-32.569,1.377-1.869-.374-3.684-.846-5.595-1.374l-.435-.123c-.87-.247-1.72-.417-2.516-.685-9.076-2.361-18.4-4.734-28.56-3.4-8.61,1.138-13.024,6.2-17.716,11.417a52.308,52.308,0,0,1-7.086,7.06c-9.738,7.652-24.78,13.517-38.02,18.62-4.8,1.866-9.317,3.569-13.4,5.4-5.257,2.245-11.74,5-15.587,9.488a6.856,6.856,0,0,0-.6.749c-2.617,3.389-3.609,7.14-4.569,10.716a45.292,45.292,0,0,1-1.663,5.428,27.907,27.907,0,0,1-1.262,2.754l.187.69a26.318,26.318,0,0,0,1.511-3.321,56.106,56.106,0,0,0,1.642-5.5c.992-3.751,1.952-7.327,4.515-10.618.182-.217.418-.532.6-.749,3.814-4.309,10.223-7.048,15.405-9.271,4.105-1.75,8.6-3.531,13.4-5.4,13.315-5.124,28.432-11.01,38.244-18.684a50.944,50.944,0,0,0,7.14-7.158c4.617-5.2,8.924-10.061,17.29-11.213,9.994-1.368,18.9.958,28.316,3.387.87.247,1.72.417,2.516.685l.435.123c1.985.506,3.8.978,5.669,1.352,9.068,2.033,21.073,3.64,32.962-1.407.928-.43,1.877-.784,2.879-1.235,8.393-3.718,11.606-7.278,14.145-10.067a18.289,18.289,0,0,1,6.755-5.314,29.682,29.682,0,0,1,6.666-1.491c5.014-.771,10.72-1.658,14.256-5.805,3.482-4.049,5.112-9.3,6.654-14.284.315-.915.533-1.886.868-2.725a31.2,31.2,0,0,1,3.519-7.774,20.313,20.313,0,0,1,6.742-6.549c3.939-2.363,8.869-3.442,13.618-4.3,2.054-.422,3.853-.605,5.482-.823.542-.072,1.085-.145,1.554-.2.616-.094,1.234-.188,1.777-.26,2.884-.328,4.905-.576,8-2.782.813-.562,1.807-1.341,2.672-2a55.346,55.346,0,0,0,5.008-4.65c4.41-4.479,8.564-8.72,16.314-8.292,5.377.28,10.418,1.977,15.267,3.564,5.019,1.621,9.7,3.174,14.717,3.309,2.763.119,5.838-.1,9.008-.262,3-.2,6.094-.338,9.307-.347Z" transform="translate(126.493 67.14)" fill="#34ca00"/>
          <path id="Path_15148" data-name="Path 15148" d="M244.077,44.747c-1.713-.089-3.4-.1-5.114-.191-4.869-.178-9.494-.343-13.3-.742-4.557-.514-8.864-2.174-13.382-4.02-5.028-1.949-10.246-4.008-15.931-4.531-8.715-.73-13.917,4.388-18.915,9.365-1.135,1.15-2.269,2.3-3.446,3.3a20.926,20.926,0,0,0-1.541,1.431c-.331.26-.568.575-.9.835-3.027,2.763-4.423,3.245-7.759,4.28l-.3.085c-1.246.439-2.833.809-4.643,1.244-.671.192-1.438.328-2.258.562l-.149.043c-4.816,1.21-9.779,2.463-13.561,5.111a20.256,20.256,0,0,0-6.331,7.175,32.1,32.1,0,0,0-2.871,8.085l-.285,1.32c-1.269,5.4-2.745,11.516-6.825,15.736-4.059,4.3-10.514,4.489-15.673,4.724a30.242,30.242,0,0,0-5.341.452c-4.184.865-6.172,2.423-9.23,4.783a70.855,70.855,0,0,1-12.9,8.142c-.928.43-1.835.937-2.763,1.367-9.3,4.8-19.456,5.887-32.754,3.659-1.944-.353-3.908-.783-6.287-1.259-1.359-.272-2.739-.621-4.024-.914-9.238-2.067-17.87-3.977-27.748-2.476-8.1,1.24-12.49,5.8-17.116,10.667a69.714,69.714,0,0,1-6.858,6.417c-9.821,7.346-24.511,13.028-37.548,17.99-4.072,1.576-8,3.109-11.621,4.557-5.278,2.168-11.281,4.626-15.124,8.53a6.908,6.908,0,0,0-.621.673c-2.7,3.083-3.966,6.416-5.253,9.673a37.2,37.2,0,0,1-1.945,4.683,27.076,27.076,0,0,1-5.345,7.553l.145.536a30.134,30.134,0,0,0,5.73-7.911A47.087,47.087,0,0,0-83.757,171c1.266-3.334,2.478-6.569,5.145-9.477.182-.217.439-.456.621-.673,3.789-3.807,9.718-6.243,14.921-8.39,3.6-1.525,7.474-2.96,11.546-4.536,13.017-5.039,27.8-10.666,37.677-18.109a65.375,65.375,0,0,0,6.933-6.438c4.572-4.773,8.887-9.308,16.764-10.484,9.729-1.458,18.361.452,27.5,2.463,1.359.272,2.739.621,4.1.893,2.3.5,4.269.927,6.287,1.259,13.468,2.262,23.694,1.157,33.148-3.689.907-.507,1.835-.937,2.763-1.367a75.647,75.647,0,0,0,12.973-8.164c2.982-2.338,4.917-3.8,9.027-4.642a28.794,28.794,0,0,1,5.192-.41c5.255-.18,11.785-.394,16.025-4.908,4.186-4.415,5.662-10.533,6.986-16.029l.285-1.32a36.387,36.387,0,0,1,2.818-7.987,20.086,20.086,0,0,1,6.2-7.055c3.729-2.551,8.692-3.8,13.411-5.069l.149-.043c.745-.213,1.512-.349,2.183-.541,1.811-.435,3.4-.805,4.645-1.244l.3-.085c3.313-1.112,4.806-1.538,7.961-4.421.257-.238.588-.5.9-.835.439-.456,1.027-.954,1.541-1.431,1.156-1.073,2.366-2.244,3.52-3.317,4.946-4.88,10.019-9.879,18.394-9.216,5.664.446,10.807,2.527,15.835,4.475,4.592,1.825,8.9,3.485,13.552,4.054,3.9.455,8.525.62,13.393.8,1.786.068,3.5.157,5.283.225Z" transform="translate(120.362 47.585)" fill="#34ca00"/>
          <path id="Path_15149" data-name="Path 15149" d="M250.826,71.633a151.7,151.7,0,0,1-18.678-2.508A55.978,55.978,0,0,1,219.9,64.534c-5.13-2.332-10.453-4.774-16.519-5.518-9.871-1.143-16.3,5.4-21.948,11.222l-1.006,1.03c-.878.911-1.554,1.682-2.228,2.453l-.472.63c-2.316,2.725-3.023,3.67-5.969,5.254a40.971,40.971,0,0,1-6.62,2.551l-1.322.46c-4.358,1.41-8.866,2.863-12.255,5.481a18.712,18.712,0,0,0-5.791,7.681,34.768,34.768,0,0,0-2.172,8.3c-.962,5.641-2.168,12.755-6.972,17.264-4.857,4.607-12.3,3.842-17.662,3.311a27.44,27.44,0,0,0-3.444-.255c-6-.186-8.473,1.347-14.516,5.137-2.274,1.393-5.082,3.185-8.861,5.255a28.333,28.333,0,0,0-2.7,1.6c-9.469,5.677-19.658,7.514-32.96,5.865-2-.255-4.016-.587-6.448-.965-1.848-.3-3.643-.693-5.416-1.012-8.984-1.727-17.438-3.274-26.976-1.706-7.611,1.266-12.01,5.494-16.611,9.863A61.835,61.835,0,0,1-5.6,154.2c-10.032,7.158-24.594,12.721-37.429,17.543-3.273,1.265-6.343,2.389-9.317,3.569-5,2.006-10.726,4.3-14.565,7.627-.182.217-.46.379-.642.6a29.9,29.9,0,0,0-5.863,8.609,39.451,39.451,0,0,1-2.173,3.84,29.024,29.024,0,0,1-9.057,9.274c-.331.26-.758.464-1.089.724l.125.46c.406-.281.833-.485,1.239-.767a30.4,30.4,0,0,0,9.165-9.47c.774-1.294,1.453-2.644,2.153-3.917a27.5,27.5,0,0,1,5.83-8.434,7.258,7.258,0,0,1,.642-.6c3.765-3.3,9.138-5.417,14.362-7.487,2.975-1.18,6.024-2.381,9.317-3.569,12.888-4.92,27.546-10.427,37.557-17.662a58.324,58.324,0,0,0,6.705-5.8c4.527-4.347,8.871-8.478,16.333-9.7,9.443-1.624,17.918,0,26.807,1.672,1.774.319,3.643.693,5.416,1.012,2.433.378,4.451.71,6.448.965,13.377,1.628,23.64-.23,33.333-5.971.907-.507,1.74-.992,2.7-1.6,3.757-2.146,6.587-3.863,8.861-5.255,6.043-3.79,8.318-5.183,14.144-5.03q1.466.076,3.442.255c5.536.565,13.05,1.308,18.164-3.537,4.933-4.628,6.118-11.819,7.06-17.537a39.806,39.806,0,0,1,2.117-8.2,17.64,17.64,0,0,1,5.611-7.464c3.313-2.6,7.766-3.952,12.124-5.362l1.322-.46a42.787,42.787,0,0,0,6.7-2.573c3.02-1.606,3.856-2.67,6.171-5.395l.472-.63a27.816,27.816,0,0,1,2.154-2.431l1.006-1.03c5.525-5.706,11.819-12.127,21.446-11,5.972.688,11.22,3.152,16.35,5.484,4.219,1.932,8.173,3.774,12.348,4.646A139.929,139.929,0,0,0,250.631,72.1c.074-.021.171.034.32-.008Z" transform="translate(115.49 27.923)" fill="#34ca00"/>
          <path id="Path_15150" data-name="Path 15150" d="M255.091,98.266a1.072,1.072,0,0,0-.489-.026,100.549,100.549,0,0,1-18.7-4.07,60.226,60.226,0,0,1-11-5.03c-5.256-2.792-10.7-5.694-17.056-6.6-10.633-1.586-18.552,5.96-23.566,11.767a16.207,16.207,0,0,0-2,2.717c-.721,1.2-1.259,2.176-1.668,3.036a11.674,11.674,0,0,1-3.3,4.411,25.641,25.641,0,0,1-6.358,3.22l-2.175.869c-4.072,1.576-8.294,3.195-11.364,5.8a17.66,17.66,0,0,0-5.178,8.166,38.115,38.115,0,0,0-1.471,8.51c-.618,6.616-1.927,13.346-6.76,17.451-5.935,5.08-14.767,2.732-20.043,1.349-.436-.123-.944-.226-1.305-.37-8.546-2.182-11.3-.487-24.552,7.838l-2.659,1.75c-9.614,6.626-19.86,9.14-33.071,8.125-2.3-.17-4.633-.493-6.631-.748-2.263-.344-4.525-.689-6.713-1.054-8.732-1.386-17.049-2.725-26.4-1.046-7.122,1.291-11.475,5.094-16.106,9.058a72.851,72.851,0,0,1-6.4,5.131c-10.542,7.056-25.274,12.585-38.257,17.449-2.121.771-4.168,1.521-6.119,2.326l-.224.064c-4.947,1.908-9.988,3.761-13.782,6.661-.2.14-.46.379-.663.519a35.737,35.737,0,0,0-6.642,7.511c-.687,1.022-1.47,1.988-2.232,3.032a34.508,34.508,0,0,1-9.219,8.082c-1.868,1.111-3.906,2.189-6.04,3.211l.125.46a61.8,61.8,0,0,0,6.168-3.33,33.155,33.155,0,0,0,9.348-8.2c.836-1.064,1.544-2.01,2.232-3.032a32.739,32.739,0,0,1,6.588-7.413,8.048,8.048,0,0,1,.663-.519c3.666-2.781,8.761-4.731,13.654-6.542l.224-.064c1.972-.728,4.019-1.478,6.119-2.326,13.058-4.886,27.811-10.338,38.407-17.492a67.7,67.7,0,0,0,6.478-5.152c4.556-3.943,8.855-7.648,15.807-8.973,9.252-1.734,17.495-.374,26.226,1.012,2.188.366,4.451.71,6.713,1.054,2,.255,4.335.578,6.63.748,13.36.972,23.68-1.563,33.443-8.232l2.659-1.75c13.049-8.185,15.729-9.858,24.083-7.787l1.305.37c5.372,1.438,14.447,3.8,20.564-1.5,4.961-4.224,6.252-11.031,6.9-17.822a37.419,37.419,0,0,1,1.491-8.434,17.725,17.725,0,0,1,5-7.949c3-2.589,7.141-4.186,11.139-5.741l2.175-.869a27.38,27.38,0,0,0,6.563-3.36,11.1,11.1,0,0,0,3.432-4.53,22.516,22.516,0,0,1,1.613-2.938,19.036,19.036,0,0,1,1.941-2.619c4.887-5.689,12.678-13.115,23.046-11.618,6.278.931,11.629,3.778,16.885,6.57a65.348,65.348,0,0,0,11.1,5.085,98.072,98.072,0,0,0,18.774,4.049l.734.038Z" transform="translate(113.251 8.471)" fill="#34ca00"/>
          <path id="Path_15151" data-name="Path 15151" d="M259.447,124.5c-.32.009-.585-.081-.9-.072-6.576-.846-13.387-3.441-18.626-5.577a73.6,73.6,0,0,1-9.81-5.37c-5.4-3.328-10.9-6.711-17.654-7.919-10.131-1.812-19.128,4.721-24.159,11.359a14.509,14.509,0,0,0-1.764,2.98,21.744,21.744,0,0,0-1.3,4.087,9.149,9.149,0,0,1-2.149,4.824,19.724,19.724,0,0,1-6.151,3.986c-.928.43-1.855.86-2.858,1.312-3.808,1.665-7.817,3.471-10.547,6.149a16.3,16.3,0,0,0-4.587,8.575,50.611,50.611,0,0,0-.81,8.57l.02.077c-.121,5.483-.949,13.4-6.528,17.715-4.917,3.8-11.985,3.506-21.568-1.022-8.937-4.217-13.271-3.309-25.726,5.284-.886.584-1.751,1.243-2.617,1.9-9.758,7.575-19.967,10.821-33.256,10.407-1.935-.025-4.082-.238-6.792-.454-2.636-.238-5.313-.629-7.82-.986-8.595-1.177-16.68-2.253-25.89-.365-6.708,1.338-11.09,4.736-15.654,8.351-1.914,1.537-3.922,3.019-6.1,4.467-11.66,7.376-28.054,13.3-41.228,18.05l-1.545.524c-4.466,1.606-9.081,3.254-12.722,5.533-.2.14-.406.281-.683.443a53.262,53.262,0,0,0-7.7,6.575l-2.087,2.082a45.687,45.687,0,0,1-9.4,6.813c-2.593,1.4-5.505,2.811-8.289,4.1-.928.43-1.781.839-2.709,1.269l.125.46,2.784-1.29c2.858-1.312,5.771-2.722,8.364-4.123a43.751,43.751,0,0,0,9.531-6.932l2.087-2.082a47.151,47.151,0,0,1,7.625-6.553l.609-.422c3.567-2.257,8.182-3.905,12.573-5.49l1.545-.524c13.174-4.754,29.568-10.674,41.3-18.071a70.471,70.471,0,0,0,6.176-4.488c4.585-3.539,8.818-6.894,15.451-8.211,9.136-1.866,17.146-.77,25.741.408,2.582.336,5.184.748,7.894.965,2.731.293,4.857.429,6.792.454,13.364.393,23.742-2.819,33.628-10.514.866-.66,1.731-1.32,2.617-1.9,12.991-8.994,16.8-9.173,25.183-5.212,9.774,4.638,17.013,4.965,22.133,1.026,5.707-4.437,6.515-12.428,6.689-18.009l-.02-.077a39.016,39.016,0,0,1,.812-8.57,16.44,16.44,0,0,1,4.478-8.379c2.75-2.6,6.611-4.365,10.418-6.03.928-.43,1.932-.882,2.859-1.312,2.283-1.065,4.822-2.368,6.355-4.126a9.934,9.934,0,0,0,2.255-5.02,17.855,17.855,0,0,1,1.249-3.989,13.8,13.8,0,0,1,1.71-2.882c4.9-6.519,13.7-12.91,23.584-11.112,6.659,1.152,12.156,4.536,17.483,7.885a75.512,75.512,0,0,0,9.906,5.426c5.26,2.213,12.144,4.787,18.721,5.633.414.047.754.115,1.168.161Z" transform="translate(110.846 -10.562)" fill="#34ca00"/>
          <path id="Path_15152" data-name="Path 15152" d="M264.222,150.533a8.411,8.411,0,0,1-1.339-.2c-6.543-1.02-13.392-4.348-18.552-7.084-2.914-1.562-5.612-3.515-8.556-5.481-5.472-3.886-11.134-7.882-18.29-9.388-10.141-2.139-20.092,3.84-24.754,10.95a14.546,14.546,0,0,0-1.478,3.146,15.863,15.863,0,0,0-.606,4.879,9.267,9.267,0,0,1-1.3,5.573c-1.01,1.609-2.795,3.027-5.944,4.752-1.055.55-2.187,1.12-3.318,1.691-3.691,1.8-7.435,3.692-9.974,6.481a16.461,16.461,0,0,0-4.047,9.081,49.219,49.219,0,0,0-.161,8.3l0,.579c.336,8.655-1.744,14.615-6.316,17.9-7.95,5.655-18.656-.945-21.736-3.12-8.606-5.963-14.246-6.911-26.9,2.73-.866.66-1.711,1.4-2.556,2.133-10.011,8.721-20,12.482-33.366,12.667-2.01,0-4.285-.1-6.974-.237-3.029-.208-6-.514-8.905-.841-8.458-.969-16.481-1.814-25.5.184-6.293,1.385-10.908,4.519-15.3,7.589-1.827,1.265-3.728,2.551-5.745,3.7C.111,233.814-15.984,239.649-27,243.457l-1.62.545a82.845,82.845,0,0,0-11.268,4.374c-.2.14-.427.2-.63.345a82.5,82.5,0,0,0-9.61,6.047l-1.089.724a65.881,65.881,0,0,1-9.66,5.566c-1.408.733-2.838,1.389-4.416,2.087a128.5,128.5,0,0,0-11.491,5.924l.125.46A125.651,125.651,0,0,1-65.1,263.584c1.578-.7,2.987-1.431,4.416-2.087a78.932,78.932,0,0,0,9.735-5.587l1.089-.724a79.749,79.749,0,0,1,9.535-6.026c.2-.14.427-.2.63-.345a81.033,81.033,0,0,1,11.215-4.277l1.62-.545c11.115-3.753,27.285-9.61,39.754-16.968,2.017-1.154,3.9-2.517,5.724-3.782,4.614-3.134,8.951-6.107,15.075-7.525,8.945-1.977,16.893-1.11,25.351-.141q4.351.491,8.926.918c2.615.161,4.964.233,6.974.237,13.612-.173,23.675-3.955,33.814-12.8a24.9,24.9,0,0,1,2.576-2.057c12.172-9.338,17.465-8.786,26.261-2.713,3.176,2.23,14.147,8.92,22.448,3.082,4.648-3.309,6.837-9.465,6.533-18.294l0-.579a53.964,53.964,0,0,1,.108-8.2,15.409,15.409,0,0,1,3.885-8.788c2.485-2.691,6.23-4.586,9.847-6.362,1.131-.571,2.263-1.141,3.318-1.691,3.224-1.746,5.008-3.164,6.147-4.893,1.3-2.022,1.29-3.836,1.335-5.747a15.415,15.415,0,0,1,.626-4.8,13.631,13.631,0,0,1,1.425-3.048c4.446-6.719,14.376-12.774,24.1-10.682,7.083,1.527,12.649,5.468,18.1,9.277a80.086,80.086,0,0,0,8.576,5.558c5.256,2.792,12.124,6.2,18.742,7.195.585.081,1.073.106,1.584.208l-.229-.843Z" transform="translate(108.023 -29.391)" fill="#34ca00"/>
          <path id="Path_15153" data-name="Path 15153" d="M272.048,176.33a14.253,14.253,0,0,1-1.753-.242c-5.056-.867-11.311-3.786-18.5-8.668-2.445-1.613-4.729-3.52-7.184-5.46-5.563-4.52-11.392-9.129-18.971-11.009-10.171-2.544-21.343,3.372-25.367,10.465a11.416,11.416,0,0,0-1.246,3.41,13.881,13.881,0,0,0,.124,5.5c.262,2.154.578,4.21-.436,6.4-.928,1.916-2.65,3.564-5.757,5.442-1.165.745-2.424,1.435-3.682,2.125-3.5,1.908-7.13,3.935-9.5,6.758a15.162,15.162,0,0,0-3.434,9.566,45.923,45.923,0,0,0,.49,8.033l.141,1.115c.663,6,.119,14.083-6.106,18.09-7.037,4.569-16.3.033-21.977-5.2-8.636-7.853-15.7-10.21-28.052.253-.845.737-1.69,1.473-2.515,2.287-10.039,9.8-20.084,14.24-33.572,14.873-2.138.115-4.467.12-7.135.057-3.4-.1-6.7-.4-9.916-.717-8.4-.739-16.228-1.474-25.206.678-5.954,1.453-10.651,4.281-15.145,6.968-1.665.971-3.384,2.04-5.145,2.956a222.058,222.058,0,0,1-37.256,15.512c-1.193.341-2.366.758-3.633,1.12-2.962.929-6,1.879-8.717,2.82l-.651.268c-4.072,1.576-7.527,3.058-11.517,4.941-3.136,1.474-6.442,2.913-9.843,4.3-7.859,3.318-15.858,7.006-20.339,12.414l.145.536c4.29-5.518,12.364-9.228,20.3-12.567,3.38-1.461,6.782-2.845,9.843-4.3,3.989-1.882,7.37-3.343,11.517-4.94l.65-.268c2.772-1.039,5.734-1.968,8.717-2.82,1.193-.341,2.44-.78,3.633-1.12a222.988,222.988,0,0,0,37.4-15.555c1.76-.916,3.48-1.985,5.145-2.955,4.7-2.828,9.138-5.417,15.017-6.848,8.9-2.13,16.715-1.472,25.036-.712,3.22.319,6.514.616,9.916.718,2.669.063,5,.058,7.156.02,13.637-.675,23.832-5.156,34-15.077.825-.813,1.67-1.55,2.515-2.287,12.114-10.147,18.914-7.88,27.34-.214,5.866,5.342,15.3,9.912,22.69,5.159,6.429-4.148,6.951-12.3,6.321-18.481l-.142-1.115a51.846,51.846,0,0,1-.469-7.957,15.3,15.3,0,0,1,3.348-9.294c2.294-2.8,5.869-4.731,9.369-6.639,1.259-.69,2.518-1.38,3.683-2.125,2.145-1.273,4.688-3.156,5.939-5.659,1.068-2.286.805-4.44.522-6.671a17.534,17.534,0,0,1-.1-5.419,8.9,8.9,0,0,1,1.211-3.236c3.916-6.9,14.811-12.651,24.716-10.2,7.484,1.825,13.239,6.455,18.8,10.975,2.359,1.886,4.739,3.848,7.184,5.46,7.262,4.86,13.539,7.856,18.669,8.7a18.467,18.467,0,0,0,2,.255l-.124-.46Z" transform="translate(102.148 -47.985)" fill="#34ca00"/>
          <path id="Path_15154" data-name="Path 15154" d="M298.209,202.308c-.658-.059-1.413-.174-2.167-.289-7.307-1.463-15.315-7.6-18.424-10.175-1.958-1.588-3.9-3.426-5.73-5.133-5.7-5.308-11.659-10.7-19.756-13.014-9.553-2.637-22.143,2.2-25.96,10.056a11.482,11.482,0,0,0-1.034,3.6,16.234,16.234,0,0,0,.833,6.037c.664,2.452,1.232,4.848.376,7.322-.79,2.124-2.43,4.079-5.475,6.187-1.218.843-2.6,1.652-3.9,2.517-3.383,2.04-6.9,4.2-9.149,7.154a15.562,15.562,0,0,0-2.841,9.975,50.027,50.027,0,0,0,.971,7.731c.07.558.215,1.094.287,1.652.686,4.014,1.524,13.929-5.894,18.277-7.7,4.51-16.763-1.074-22.219-7.275-5.531-6.18-10.415-9.078-15.391-9.06-4.339,0-8.882,2.207-13.836,6.759-.77.715-1.67,1.55-2.473,2.44-10.067,10.883-20.17,16-33.757,17.155-2.266.235-4.67.261-7.318.274-3.7-.016-7.314-.305-10.832-.539-8.279-.607-16.145-1.167-24.986,1.193A82.074,82.074,0,0,0,53.8,271.707c-1.28.613-2.539,1.3-3.819,1.916-8.588,4.187-21.5,10.188-34.907,14.1-3.878,1.108-7.946,2.1-11.791,3.038l-.671.192c-1.363.307-2.726.613-3.994.976-2.875.656-5.581,1.346-8.361,2.058-2.983.852-6.488,1.853-10.005,3.105-7.184,2.547-16.422,7-19.67,14.287-2.309,5.118-1.1,10.469.088,15.743.615,3.456,1.442,7.1,1.216,10.715l.374,1.379c.57-4.126-.307-8.251-1.238-12.278-1.23-5.427-2.355-10.472-.1-15.492,3.216-7.11,12.3-11.522,19.36-13.95,3.517-1.252,7.022-2.253,10.026-3.029,2.834-.809,5.485-1.4,8.361-2.058,1.289-.286,2.652-.592,3.994-.976l.671-.192c3.845-.933,7.914-1.93,11.791-3.038,13.4-3.911,26.394-9.933,34.982-14.119,1.28-.613,2.56-1.226,3.819-1.916,5.1-2.53,9.826-4.953,15.664-6.538,8.767-2.339,16.557-1.757,24.762-1.129,3.518.233,7.132.522,10.832.538,2.648-.013,5.051-.039,7.318-.274,13.736-1.2,23.988-6.356,34.11-17.338a29.122,29.122,0,0,1,2.472-2.44c4.826-4.433,9.22-6.6,13.484-6.576,4.827.025,9.595,2.791,15.03,8.915,5.574,6.333,14.979,11.985,22.953,7.313,7.622-4.489,6.817-14.578,6.088-18.745-.07-.558-.215-1.094-.287-1.652a50.49,50.49,0,0,1-.949-7.654,14.733,14.733,0,0,1,2.755-9.7c2.2-2.857,5.637-4.995,9.022-7.035,1.312-.788,2.68-1.674,3.972-2.538,2.1-1.427,4.66-3.56,5.73-6.425.89-2.648.321-5.045-.364-7.573a17.629,17.629,0,0,1-.812-5.96,9.307,9.307,0,0,1,.981-3.5c3.709-7.664,16-12.413,25.234-9.767,8,2.255,13.89,7.673,19.566,12.9,1.829,1.707,3.846,3.524,5.8,5.112,3.934,3.252,11.553,8.836,18.689,10.264a16.89,16.89,0,0,0,2.412.3l-.1-.383Z" transform="translate(77.939 -66.76)" fill="#34ca00"/>
          <path id="Path_15155" data-name="Path 15155" d="M340.617,228.009c-7.145-.271-15.958-7-21.007-12-1.426-1.409-2.894-2.971-4.246-4.4-5.851-6.172-11.912-12.531-20.624-15.326-6.325-1.991-14.818-.721-20.767,3.125-4.229,2.777-6.54,6.408-6.533,10.287a18.014,18.014,0,0,0,1.541,6.577c1.014,2.848,1.888,5.487,1.211,8.322-1.092,4.274-5.192,6.932-9.475,9.806-3.268,2.172-6.664,4.463-8.747,7.452-3.8,5.543-2.226,11.946-.81,18.063a17.013,17.013,0,0,1,.444,1.937c.722,3.261,2.523,14.057-5.684,18.464s-17.243-2.257-22.513-9.255c-5.914-7.887-11.664-11.611-17.576-11.491-5.031.116-10.135,3.225-15.235,9.3-11.886,13.962-23.46,19.579-41.369,19.906-4,.069-7.91-.135-11.673-.381-8.163-.475-15.912-.9-24.563,1.567l-.224.064a203.061,203.061,0,0,0-24.712,9.618c-11.9,5.3-24.251,10.724-38.521,12.324-2.341.256-4.7.435-6.99.593a89.374,89.374,0,0,0-16.561,2.336c-6.956,1.9-15.324,6.606-17.574,14.018-1.576,5.156.113,10.2,1.761,15.1,1.689,5.048,3.516,10.305,1.451,15.435a12.325,12.325,0,0,1-.873,1.818l.671-.192a16.01,16.01,0,0,0,.712-1.524c2.023-5.283.251-10.639-1.459-15.763-1.627-4.818-3.316-9.868-1.774-14.849,2.184-7.063,10.1-11.637,16.89-13.575l.3-.085a88.565,88.565,0,0,1,16.487-2.315c2.287-.158,4.649-.337,6.99-.593,14.345-1.62,26.769-7.068,38.745-12.387a200.557,200.557,0,0,1,24.637-9.6l.224-.064c8.576-2.45,16.251-2,24.414-1.525,3.763.246,7.674.45,11.673.381,17.909-.327,29.985-6.171,41.795-20.111,4.995-5.884,9.948-8.951,14.808-9.1,5.743-.154,11.323,3.535,17.12,11.291,5.407,7.206,14.636,13.982,23.193,9.391,8.483-4.57,6.676-15.693,5.952-18.954-.166-.613-.278-1.324-.444-1.937-1.491-6.1-2.949-12.366.744-17.714,2.008-2.968,5.351-5.161,8.619-7.332,4.433-2.917,8.588-5.672,9.711-10.121.732-2.933-.205-5.8-1.2-8.574a20.776,20.776,0,0,1-1.5-6.424c.015-3.8,2.291-7.259,6.318-9.895,5.745-3.7,14.069-5.009,20.223-3.052,8.616,2.74,14.583,9.044,20.434,15.215,1.372,1.507,2.819,2.992,4.246,4.4,1.446,1.485,12.424,12.054,21.537,12.175l-.124-.46Z" transform="translate(37.462 -85.335)" fill="#34ca00"/>
        </g>
        <path id="Path_15156" data-name="Path 15156" d="M73.7-452.857a29.039,29.039,0,0,0-8.135,3.48C-4.9-405.8-26.795-407.145-46.172-408.38c-10.385-.666-20.185-1.252-36.218,4.814-9.189,3.45-17.171,7.794-24.876,11.976-13.873,7.512-27.042,14.659-44.3,15.3-1.989.073-4.073.09-6.083.086-8.018.061-16.334.208-23.936,3.287-11.451,4.591-18.37,13.75-25.032,22.67A112.085,112.085,0,0,1-217.735-337C-229.261-325.869-238.324-327-248.8-328.3c-5.292-.552-10.7-1.237-16.915-.452l.249.92c5.991-.721,11.3-.092,16.447.5,10.381,1.245,20.1,2.431,32.013-9.061,4.216-4.011,7.735-8.814,11.222-13.442,6.555-8.724,13.345-17.763,24.5-22.27,7.4-2.939,15.641-3.064,23.489-3.159,2.01,0,4.094-.014,6.157-.108,17.581-.646,30.825-7.814,44.826-15.445,7.7-4.182,15.687-8.526,24.727-11.933,15.809-6,25.46-5.373,35.675-4.741C-26.886-406.293-4.8-404.842,66-448.675a29.05,29.05,0,0,1,7.784-3.3l-.229-.843Z" transform="translate(265.715 452.857)" fill="#34ca00"/>
        <path id="Path_15157" data-name="Path 15157" d="M186.41-76.781a52.94,52.94,0,0,0-9.025,2.577,60.087,60.087,0,0,1-8.107,2.4c-6.036,1.146-12.091.151-17.975-.809-4.526-.689-9.167-1.509-13.933-1.3-7.072.287-10.128,4.131-13.11,7.955-1.908,2.444-3.893,4.909-6.911,6.515-5.689,3.028-10.115,1.816-15.167.369a36.089,36.089,0,0,0-9.962-1.777C82-60.911,74.924-58.559,69.2-53.292c-4.622,4.292-7.146,9.8-9.563,15.115a67.078,67.078,0,0,1-4.213,8.468c-2.162,3.589-6.1,5.374-10.31,7.32-3.583,1.6-7.3,3.322-9.738,6.166-2.808,3.278-3.755,6.6-4.722,9.852C29.087-.887,27.705,3.8,18.085,6.548,6.153,9.956-6.21,6.14-16.837,1.911L-19.191.932c-10.192-4.106-20.744-8.357-32.362-7.35-10.193.93-15,7.5-19.53,13.916a51.294,51.294,0,0,1-7.545,8.924c-9.861,8.678-26.279,15.1-40.8,20.817-6.471,2.509-12.495,4.89-17.764,7.385-5.568,2.581-10.593,5.09-14.22,8.6l.27,1c3.607-3.59,8.686-6.2,14.4-8.82,5.216-2.4,11.314-4.8,17.689-7.364,14.6-5.737,31.141-12.28,41.131-21.077a55.168,55.168,0,0,0,7.727-9.142c4.679-6.455,9.047-12.573,18.7-13.431,11.374-1.02,21.756,3.2,31.853,7.248l2.354.979c10.722,4.285,23.35,8.19,35.581,4.7l.075-.021C28.584,4.375,30.065-.836,31.686-6.418c.914-3.15,1.882-6.4,4.507-9.46,2.336-2.648,5.9-4.326,9.333-5.885,4.213-1.946,8.521-3.838,10.844-7.72a91.364,91.364,0,0,0,4.267-8.566c2.364-5.216,4.812-10.7,9.253-14.778,5.541-5.05,12.393-7.338,22.218-7.254a35.078,35.078,0,0,1,9.644,1.786c5.125,1.425,9.933,2.859,16.1-.472,3.3-1.767,5.334-4.331,7.3-6.872,2.927-3.726,5.748-7.255,12.278-7.469a71.391,71.391,0,0,1,13.686,1.291c5.96.94,12.109,1.99,18.369.78a62.224,62.224,0,0,0,8.258-2.441,52.051,52.051,0,0,1,8.949-2.556l-.207-.766Z" transform="translate(170.347 140.762)" fill="#34ca00"/>
        <path id="Path_15158" data-name="Path 15158" d="M338.827,226.756c-7-.314-15.712-6.987-20.763-11.984-1.426-1.409-2.894-2.971-4.246-4.4-5.849-6.172-11.932-12.607-20.718-15.381-6.419-2.046-14.988-.755-20.99,3.189-4.3,2.8-6.668,6.527-6.716,10.5a18.365,18.365,0,0,0,1.562,6.654c.992,2.771,1.867,5.41,1.189,8.246-1.037,4.177-5.139,6.834-9.421,9.708-3.343,2.193-6.74,4.484-8.876,7.571-3.855,5.641-2.281,12.044-.843,18.238a17.013,17.013,0,0,1,.444,1.937c.7,3.184,2.482,13.9-5.521,18.171s-16.925-2.266-22.12-9.285c-5.935-7.964-11.78-11.743-17.766-11.6-5.105.137-10.358,3.289-15.459,9.369-11.811,13.94-23.331,19.46-41.145,19.842-4,.069-7.91-.135-11.6-.4-8.238-.454-16.061-.861-24.936,1.674a201.778,201.778,0,0,0-24.712,9.618c-12.478,5.545-24.251,10.724-38.447,12.3-2.341.256-4.7.435-6.99.593a89.3,89.3,0,0,0-16.636,2.358c-7.105,1.947-15.452,6.725-17.777,14.159-1.65,5.176.134,10.28,1.8,15.254,1.752,5.278,3.42,10.249,1.5,15.338a15.29,15.29,0,0,1-.981,2.014l1.342-.384c.194-.468.464-.958.658-1.425,2.077-5.381.23-10.715-1.48-15.841-1.627-4.818-3.3-9.79-1.753-14.771,2.184-7.063,10.274-11.6,17.006-13.443,5.39-1.457,10.976-1.9,16.391-2.37,2.287-.158,4.649-.337,6.99-.593,14.419-1.642,26.843-7.089,38.82-12.409a200.634,200.634,0,0,1,24.563-9.575c8.555-2.526,16.379-2.119,24.542-1.644,3.763.246,7.674.45,11.748.359,17.984-.348,30.133-6.213,42-20.251,4.94-5.787,9.82-8.831,14.606-8.96,5.573-.188,11.268,3.633,16.928,11.18,5.429,7.283,14.826,14.092,23.535,9.459,8.632-4.612,6.782-15.889,6.038-19.226-.166-.613-.278-1.324-.444-1.937-1.471-6.019-2.929-12.29.711-17.539,1.955-2.87,5.276-5.14,8.566-7.235,4.282-2.875,8.715-5.791,9.84-10.24.785-3.031-.229-5.879-1.219-8.65a20.885,20.885,0,0,1-1.5-6.424c-.038-3.7,2.163-7.14,6.21-9.7,5.67-3.683,13.92-4.967,20-2.988,8.52,2.685,14.508,9.065,20.337,15.16,1.372,1.507,2.819,2.992,4.246,4.4,1.521,1.464,12.542,12.185,21.8,12.265l-.249-.919Z" transform="translate(39.273 -84.006)" fill="#34ca00"/>
      </g>
    </g>
  </g>
</svg>
