<svg xmlns="http://www.w3.org/2000/svg" width="17.652" height="21.19" viewBox="0 0 17.652 21.19">
  <g id="reset-password-svgrepo-com" transform="translate(-6 -1.984)">
    <path id="Path_15174" data-name="Path 15174" d="M21.887,23H7.765A1.77,1.77,0,0,0,6,24.765V33.15a1.77,1.77,0,0,0,1.765,1.765H21.887a1.77,1.77,0,0,0,1.765-1.765V24.765A1.77,1.77,0,0,0,21.887,23Zm-4.854,9.488a3.926,3.926,0,0,1-2.207.662,4.863,4.863,0,0,1-.794-.088,3.869,3.869,0,0,1-2.515-1.677l1.456-.971a2.082,2.082,0,0,0,1.412.927,2.112,2.112,0,0,0,1.677-.353,2.207,2.207,0,0,0,.618-3.045,2.082,2.082,0,0,0-1.412-.927,2.112,2.112,0,0,0-1.677.353,1.919,1.919,0,0,0-.309.265l1.545,1.545H10.854V25.207L12,26.354a5.59,5.59,0,0,1,.574-.485,4.206,4.206,0,0,1,3-.618,3.869,3.869,0,0,1,2.515,1.677A4.02,4.02,0,0,1,17.033,32.488Z" transform="translate(0 -11.741)" fill="#34ca00"/>
    <path id="Path_15175" data-name="Path 15175" d="M10,18.1v0Z" transform="translate(-2.235 -9.004)" fill="#34ca00"/>
    <path id="Path_15176" data-name="Path 15176" d="M10.441,9.493h1.765c.265,0,.441-.132.441-.4V9.052A4.445,4.445,0,0,1,17.37,4.639a4.534,4.534,0,0,1,4.1,4.59V9.1c0,.265.177.4.441.4h1.765c.265,0,.441-.132.441-.4V9.052a7.081,7.081,0,0,0-7.414-7.061A7.179,7.179,0,0,0,10,9.1.469.469,0,0,0,10.441,9.493Z" transform="translate(-2.235 0)" fill="#34ca00"/>
  </g>
</svg>
