<svg xmlns="http://www.w3.org/2000/svg" xmlns:xlink="http://www.w3.org/1999/xlink" width="320" height="252" viewBox="0 0 320 252">
  <defs>
    <clipPath id="clip-path">
      <path id="Rectangle_3549" data-name="Rectangle 3549" d="M0,0H320a0,0,0,0,1,0,0V211a41,41,0,0,1-41,41H0a0,0,0,0,1,0,0V0A0,0,0,0,1,0,0Z" transform="translate(0 828.5)" fill="#fff" stroke="#e2ecdd" stroke-width="1"/>
    </clipPath>
  </defs>
  <g id="Mask_Group_12" data-name="Mask Group 12" transform="translate(0 -828.5)" clip-path="url(#clip-path)">
    <g id="Group" transform="translate(122.809 1323.654) rotate(-131)" opacity="0.56">
      <g id="Group_8430" data-name="Group 8430" transform="translate(0.081 0.301)" opacity="0.7">
        <path id="Path_3113" data-name="Path 3113" d="M178.637-451.506a40.845,40.845,0,0,0-10.572,4.424C75.819-389.959,47.054-391.785,21.708-393.4c-13.486-.9-26.305-1.665-47.179,6.241-11.922,4.485-22.363,10.167-32.539,15.665-18.244,9.854-35.469,19.2-58.147,20.064-2.6.1-5.328.118-8.054.141-10.461.18-21.269.244-31.212,4.272-14.88,5.978-23.833,17.93-32.575,29.5-4.463,6.026-9.191,12.236-14.608,17.455-15.146,14.693-27.1,13.247-40.9,11.574-6.754-.879-13.8-1.673-21.833-.675l.163.6c7.935-.97,14.884-.148,21.735.7,13.481,1.657,26.1,3.236,41.582-11.769,5.417-5.219,10.118-11.529,14.608-17.455,8.644-11.54,17.526-23.363,32.212-29.286,9.776-3.872,20.556-4.036,30.919-4.188,2.629.005,5.355-.018,8.054-.141,22.9-.818,40.223-10.193,58.44-20.148,10.078-5.47,20.52-11.152,32.442-15.637,20.776-7.878,33.4-7.057,46.859-6.258,25.443,1.587,54.305,3.386,146.845-53.822A39.153,39.153,0,0,1,178.8-450.9Z" transform="translate(265.339 451.506)" fill="#c7dac0"/>
        <path id="Path_3114" data-name="Path 3114" d="M186.327-419.069a39.278,39.278,0,0,0-17.064,6.062c-3.939,2.529-7.276,4.562-10.446,6.439-16.548,9.91-30.75,16.45-43.278,22.188-16.364,7.482-30.074,13.125-41.866,16.926-20.366,6.681-32.745,6.761-44.832,6.758-2.087.056-4.2.012-6.288.068-12.006.3-23.263,1.029-39.287,7.442-1.6.674-3.208,1.348-4.98,2.178A258.175,258.175,0,0,0-45.555-338.15c-9.244,5.448-18.027,10.656-28.22,14.54a87.448,87.448,0,0,1-29.6,5.97c-2.824.051-5.648.1-8.4.024-9.876.013-20.071.01-29.495,3.241-14.68,5.165-23.834,15.986-32.777,26.424-4.458,5.269-8.986,10.665-14.246,15.3-14.985,13.351-26.4,12.724-39.539,11.941-7.382-.483-15.058-.882-24.168,1.18-1.1.206-2.271.541-3.539.9a22.6,22.6,0,0,0-2.482.925l.163.6a24.522,24.522,0,0,1,2.482-.925c1.171-.334,2.341-.669,3.441-.875,8.915-2.007,16.59-1.607,23.875-1.1,12.721.794,24.776,1.454,40.1-12.209a148.221,148.221,0,0,0,14.246-15.3c8.845-10.409,17.929-21.1,32.414-26.212,9.2-3.276,19.4-3.273,29.175-3.258,2.727-.023,5.675,0,8.5-.052a89.22,89.22,0,0,0,29.889-6.053c10.291-3.911,18.976-9.092,28.318-14.567a236.38,236.38,0,0,1,23.744-12.829,47.592,47.592,0,0,1,5.007-2.078c15.926-6.385,27.086-7.089,38.994-7.358,2.087-.056,4.2-.012,6.288-.068,12.087,0,24.661-.133,45.027-6.814A421.366,421.366,0,0,0,115.6-383.75c12.529-5.738,26.828-12.306,43.376-22.216,3.073-1.849,6.41-3.883,10.446-6.439a38.4,38.4,0,0,1,16.9-5.906l-.191-.7Z" transform="translate(259.604 426.285)" fill="#c7dac0"/>
        <path id="Path_3115" data-name="Path 3115" d="M198.386-382.221c-8.017-1.274-17.148,1.874-23.909,6.4-3.913,2.629-7.055,4.607-10.056,6.328-13.237,7.776-24.492,12.395-35.456,16.93-2.258.969-4.644,1.866-6.9,2.836-17.642,7.415-30.264,12.424-40.68,16.263a137.646,137.646,0,0,1-41.588,8.64c-2.061.156-4.119.313-6.152.569-.932.05-1.837.2-2.867.279-9.632.915-20.585,1.992-34.951,7.931-1.506.646-3.11,1.32-4.785,2.123a198.594,198.594,0,0,0-21.1,12.506c-8.842,5.765-17.252,11.191-28.03,15.241a85.128,85.128,0,0,1-28.772,5.519c-2.922.079-5.995-.016-8.943-.037-9.29-.154-18.8-.353-27.652,2.283-14.48,4.352-23.527,13.631-33.147,23.506a170.379,170.379,0,0,1-13.619,12.961c-14.8,12.109-25.576,12.273-38.053,12.381-7.025.063-14.146.153-22.687,2.377l-3.317.947a34,34,0,0,0-11.254,6.562l.163.6a30.5,30.5,0,0,1,11.351-6.59c1.171-.334,2.216-.741,3.317-.948,8.444-2.2,15.565-2.286,22.59-2.349,12.06-.1,23.48-.228,38.541-12.52a184.028,184.028,0,0,0,13.717-12.989c9.55-9.747,18.5-19,32.784-23.294,8.655-2.58,18.14-2.482,27.43-2.328,2.949.022,6.022.116,8.943.037a83.922,83.922,0,0,0,29.065-5.6c10.806-3.95,19.187-9.476,28.127-15.269A202.314,202.314,0,0,1-8.479-313.308,49.756,49.756,0,0,1-3.791-315.4c14.17-5.883,25.124-6.96,34.656-7.848.934-.05,1.935-.229,2.869-.279,2.058-.156,4.217-.341,6.152-.569,11.2-.932,22.823-1.876,41.783-8.7,10.539-3.766,23.036-8.847,40.68-16.263,2.26-.97,4.546-1.839,6.806-2.808,10.962-4.535,22.219-9.153,35.551-16.958,3-1.721,6.119-3.8,10.03-6.428,6.663-4.5,15.822-7.543,23.742-6.242l-.191-.7Z" transform="translate(249.827 397.857)" fill="#c7dac0"/>
        <path id="Path_3116" data-name="Path 3116" d="M214.551-342.19a8.66,8.66,0,0,0-1.647-1.041c-9.619-5.244-21.79-.9-29.993,4.9-3.814,2.6-6.761,4.523-9.666,6.216-11.881,6.957-22.058,10.512-31.944,13.983-3.164,1.12-6.232,2.212-9.272,3.4-13.915,5.271-25.3,9.817-35.337,13.873l-4.087,1.6a167.528,167.528,0,0,1-38.444,10.549l-6.015,1.07c-2.007.357-4.108.741-6.336,1.054-8.466,1.338-18.156,2.81-29.888,8-1.506.646-2.986,1.393-4.562,2.167a154.787,154.787,0,0,0-18.774,12.165c-8.344,6.055-16.281,11.669-27.379,15.7a80.409,80.409,0,0,1-27.949,5.067c-3.144.034-6.439-.1-9.513-.2-8.607-.349-17.507-.614-25.783,1.425-14.475,3.595-23.891,11.9-33.908,20.7-3.987,3.514-8.142,7.185-12.7,10.538-14.607,10.867-25.268,11.861-36.568,12.82-6.569.58-13.333,1.217-21.4,3.629-.975.279-2.021.685-3.192,1.02-8.058,2.841-15.388,9.147-19.01,16.336l.244.9c3.372-7.335,10.843-13.9,18.9-16.737,1.143-.435,2.216-.741,3.192-1.02a98.9,98.9,0,0,1,21.207-3.574c11.4-.988,22.156-2.009,36.958-12.932,4.556-3.353,8.712-7.024,12.7-10.538,9.947-8.672,19.265-16.949,33.642-20.516,8.08-1.984,16.98-1.718,25.49-1.342,3.171.066,6.369.232,9.61.171a81.311,81.311,0,0,0,28.144-5.123c11.293-4.09,19.2-9.8,27.645-15.887A157.62,157.62,0,0,1,7.594-275.95a47.981,47.981,0,0,1,4.465-2.139c11.634-5.159,21.227-6.6,29.693-7.941,2.228-.312,4.329-.7,6.334-1.054l6.017-1.07a169.209,169.209,0,0,0,38.639-10.6l4.087-1.6c10.041-4.056,21.421-8.6,35.337-13.873,3.04-1.192,6.106-2.284,9.3-3.3,9.885-3.471,20.16-7.054,32.141-14.039,2.9-1.693,5.85-3.615,9.638-6.316,8.035-5.643,19.913-9.9,29.185-4.773a11.383,11.383,0,0,1,2.3,1.5l-.273-1Z" transform="translate(236.73 369.152)" fill="#c7dac0"/>
        <path id="Path_3117" data-name="Path 3117" d="M242.93-294.578q-.644-.626-1.285-1.253c-1.135-1.08-2.128-2.416-3.164-3.524-2.208-2.717-4.54-5.506-8.145-7.176-11.413-5.271-23.842,2.382-28.663,5.92a84.166,84.166,0,0,1-9.276,6.1c-10.988,6.378-20.451,9.081-29.621,11.7-3.51,1-7.023,2.006-10.579,3.237-13.562,4.63-26.113,9.511-38.236,14.809a229.035,229.035,0,0,1-35.813,12.5l-5.365,1.532c-2.732.78-5.809,1.443-9.014,2.034-7.478,1.488-15.933,3.255-25.545,7.729a48.109,48.109,0,0,0-4.34,2.212,132.749,132.749,0,0,0-16.714,12.009c-7.774,6.216-15.018,12.064-26.506,16.21a77.458,77.458,0,0,1-27.028,4.588c-3.366-.01-6.884-.194-10.3-.4-7.9-.444-16.115-.9-23.718.512-14.79,2.82-24.867,10.234-35.448,18.116-3.494,2.618-7.087,5.264-11,7.893-14.418,9.625-24.444,11.409-35.083,13.26a126.887,126.887,0,0,0-20.019,4.854c-1.046.407-2.092.813-3.067,1.092-8.074,3.17-15.5,9.5-19.249,16.62-2.225,4.2-2.554,7.64-2.91,10.981a23.786,23.786,0,0,1-1.665,7.819l-.211.384.272,1a9.474,9.474,0,0,0,.606-1.253,29.032,29.032,0,0,0,1.735-7.947,26.76,26.76,0,0,1,2.867-10.753c3.606-6.861,11.033-13.194,18.913-16.308a30.134,30.134,0,0,1,2.97-1.064,126.117,126.117,0,0,1,19.922-4.826c10.736-1.879,20.86-3.691,35.348-13.444,3.912-2.629,7.5-5.275,11-7.893C-94.8-195.09-84.82-202.476-70.225-205.24c7.506-1.388,15.6-1,23.5-.556,3.42.211,6.938.394,10.3.4a79.21,79.21,0,0,0,27.347-4.572c11.613-4.073,18.927-10.049,26.7-16.265a135.687,135.687,0,0,1,16.617-11.981,41.423,41.423,0,0,1,4.243-2.184c9.515-4.446,17.9-6.084,25.352-7.673,3.272-.719,6.279-1.254,9.109-2.062l5.365-1.532a230.675,230.675,0,0,0,35.913-12.525c12.121-5.3,24.672-10.179,38.236-14.809,3.554-1.231,6.969-2.206,10.578-3.237,9.265-2.647,18.826-5.377,29.788-11.856a109.393,109.393,0,0,0,9.248-6.205c4.724-3.509,16.888-10.979,27.954-5.825,3.48,1.6,5.66,4.214,7.9,7.031a42.428,42.428,0,0,0,3.187,3.625c.706.662,1.411,1.325,2.089,1.887Z" transform="translate(213.404 340.182)" fill="#c7dac0"/>
        <path id="Path_3118" data-name="Path 3118" d="M255.438-254.887a34.871,34.871,0,0,1-9.71-5.973c-1.107-.98-2.115-1.988-3.222-2.967-2.57-2.505-4.891-4.866-8.54-6.307-8.089-3.089-17.242-.8-27.406,7.072a71.337,71.337,0,0,1-8.886,5.993c-11.547,6.646-21,8.591-31.046,10.7-2.687.552-5.473,1.132-8.232,1.812-14.7,3.55-26.375,8.937-37.077,14.046-16.256,7.883-25.473,11.487-35.248,15.36l-2.65,1.081A84.372,84.372,0,0,1,72.4-210.92c-6.591,1.666-14.086,3.483-21.97,7.355-1.382.719-2.666,1.409-4.118,2.256-6.02,3.771-10.554,7.982-14.947,11.936C24.38-182.95,17.706-176.941,6-172.84A73.144,73.144,0,0,1-20.236-168.8c-3.713-.127-7.578-.427-11.22-.683-7.187-.539-14.6-1.122-21.4-.257-15.647,1.986-26.191,8.453-38.452,15.95-2.514,1.582-5.126,3.192-7.862,4.729-13.811,8.372-23.2,10.947-33.153,13.789a169.955,169.955,0,0,0-18.832,6.135,27.142,27.142,0,0,0-2.818,1.237A44.269,44.269,0,0,0-173.025-112.1a30.423,30.423,0,0,0-3.946,9.874,26.179,26.179,0,0,1-2.636,7.34,28.31,28.31,0,0,1-4.322,5.77,38.535,38.535,0,0,1-2.953,2.679l.163.6a23.664,23.664,0,0,0,3.315-2.891,29.417,29.417,0,0,0,4.392-5.9,33.191,33.191,0,0,0,2.706-7.468,31.581,31.581,0,0,1,3.875-9.746,43.52,43.52,0,0,1,18.712-15.5,27.593,27.593,0,0,1,2.845-1.137,194.685,194.685,0,0,1,18.734-6.107c9.95-2.842,19.439-5.444,33.57-13.8,2.709-1.638,5.321-3.247,7.862-4.729,12.164-7.47,22.708-13.937,38.16-15.867,6.807-.865,13.8-.27,21.307.285,3.642.255,7.507.555,11.318.655A74.236,74.236,0,0,0,6.6-172.15c11.933-4.056,18.58-10.166,25.661-16.616,4.393-3.954,8.83-8.137,14.85-11.908a39.392,39.392,0,0,1,4.02-2.228c7.884-3.872,15.282-5.661,21.774-7.3a85.774,85.774,0,0,0,11.12-3.176l2.65-1.081c9.775-3.872,18.895-7.449,35.25-15.359,10.674-5.209,22.282-10.468,36.979-14.018,2.758-.68,5.543-1.26,8.232-1.811,10.041-2.113,19.6-4.086,31.213-10.859a78.5,78.5,0,0,0,8.956-6.122c9.926-7.586,18.858-9.921,26.626-6.849,3.523,1.369,5.844,3.73,8.416,6.235a37.834,37.834,0,0,0,3.248,3.068,42.328,42.328,0,0,0,10.431,6.307l-.3-1.1Z" transform="translate(203.882 311.516)" fill="#c7dac0"/>
        <path id="Path_3119" data-name="Path 3119" d="M262.8-218.969a46.12,46.12,0,0,1-17.268-7.486c-1.053-.779-2.132-1.659-3.183-2.438a27.139,27.139,0,0,0-9.06-5.511c-10.327-3.205-19.365,2.616-26.078,8.1a60.525,60.525,0,0,1-8.5,5.882c-9.731,5.587-18.223,6.825-26.325,7.952a108.044,108.044,0,0,0-11.907,2.213c-13.766,3.5-25.521,7.829-35.892,13.383-8.36,4.44-14.49,7.81-19.961,10.885-5.207,2.891-9.688,5.359-14.559,7.938-3.393,1.833-7.614,2.931-12.394,4.3-5.853,1.672-12.389,3.539-19.032,6.948-1.284.691-2.541,1.482-3.9,2.3A83.732,83.732,0,0,0,41.5-152.519c-6.219,6.528-12.1,12.743-24.159,16.727a68.183,68.183,0,0,1-25.31,3.558c-4.157-.216-8.369-.633-12.456-.978a117.914,117.914,0,0,0-18.966-.954c-17.712.956-29.91,7.139-45.234,14.972l-.921.479a300.755,300.755,0,0,1-30.719,13.85c-5.592,2.245-11.282,4.518-18.424,7.638-.753.323-1.577.774-2.33,1.1l-.363.212a52.269,52.269,0,0,0-18.751,14.966,46.913,46.913,0,0,0-4.857,8.838,40.721,40.721,0,0,1-3.676,6.989,26.6,26.6,0,0,1-4.68,5.224,62.906,62.906,0,0,1-10.842,7.308l.163.6c3.993-2.328,7.987-4.657,11.107-7.492a35.757,35.757,0,0,0,4.751-5.352,33.025,33.025,0,0,0,3.747-7.117,38.019,38.019,0,0,1,4.786-8.71,52.178,52.178,0,0,1,18.485-14.782l.363-.212c.851-.351,1.577-.774,2.33-1.1,7.017-3.192,12.8-5.493,18.327-7.61A303.929,303.929,0,0,0-85.089-118.2l.921-.479c15.226-7.8,27.326-13.96,44.941-14.888a120.685,120.685,0,0,1,18.868.982c4.114.445,8.326.861,12.456.978a69.779,69.779,0,0,0,25.6-3.641c12.226-4.14,18.108-10.355,24.425-16.911A82.646,82.646,0,0,1,55.3-164.021a32.718,32.718,0,0,1,3.8-2.273c6.546-3.381,13.081-5.248,18.836-6.892a75.69,75.69,0,0,0,12.589-4.352c4.969-2.607,9.45-5.075,14.559-7.938,5.5-2.975,11.6-6.445,19.961-10.885,10.275-5.526,22.028-9.855,35.7-13.327a108.5,108.5,0,0,1,11.809-2.185c8.2-1.154,16.665-2.493,26.62-8.035a59.378,59.378,0,0,0,8.565-6.01c6.641-5.353,15.484-11.118,25.367-8,3.567,1.141,6.126,3.217,8.81,5.366,1.051.779,2.033,1.687,3.209,2.539a47.889,47.889,0,0,0,17.837,7.648Z" transform="translate(198.638 283.415)" fill="#c7dac0"/>
        <path id="Path_3120" data-name="Path 3120" d="M269.492-184.76a53.928,53.928,0,0,1-24.264-7.323c-1.025-.679-2.024-1.258-3.049-1.937-3.047-1.937-5.844-3.73-9.677-4.687-10.137-2.5-17.853,3.155-24.819,9.249a42.765,42.765,0,0,1-8.1,5.771c-9.3,5.247-16.828,5.778-24.968,6.375a84.888,84.888,0,0,0-12.221,1.439c-13.636,2.815-24.929,6.9-34.607,12.692a266.863,266.863,0,0,0-22.533,14.967c-2.895,2.122-5.716,4.116-8.735,6.166-3.549,2.417-8.3,3.883-13.32,5.532a84.453,84.453,0,0,0-16.609,6.58,37.454,37.454,0,0,0-3.673,2.345c-5.06,3.821-8.44,8.026-11.777,12-5.454,6.633-10.475,12.927-22.728,16.966A66.061,66.061,0,0,1,3.922-95.515c-4.7-.277-9.383-.883-13.969-1.517A153.094,153.094,0,0,0-26.13-98.594c-17.648-.358-30.638,3.676-46,10.222a357.662,357.662,0,0,0-33.238,16.189c-4.048,2.128-8.263,4.412-13.259,6.919a11.655,11.655,0,0,0-1.647.9l-.824.451a69.123,69.123,0,0,0-18.523,14.253,62.374,62.374,0,0,0-5.6,7.647,57.158,57.158,0,0,1-4.815,6.666,33.489,33.489,0,0,1-4.941,4.651c-3.706,3-8.409,5.425-12.89,7.893-2.01,1.114-4.048,2.128-5.933,3.314l.163.6c1.913-1.086,4.02-2.228,6.128-3.37A81.642,81.642,0,0,0-154.419-30.2a43.485,43.485,0,0,0,5.011-4.779,43.385,43.385,0,0,0,4.885-6.795,53.663,53.663,0,0,1,5.53-7.518,69.713,69.713,0,0,1,18.258-14.07l.824-.451c.558-.267,1.089-.635,1.647-.9,5-2.507,9.212-4.791,13.259-6.919,9.743-5.158,18.174-9.726,33.238-16.189,15.162-6.49,28.152-10.525,45.7-10.138A153.093,153.093,0,0,1-9.982-96.4c4.586.634,9.367,1.212,14.066,1.49A65.629,65.629,0,0,0,28.891-98c12.448-4.1,17.566-10.417,23.091-17.178,3.239-3.949,6.521-8.126,11.582-11.947a30.653,30.653,0,0,1,3.576-2.317,82,82,0,0,1,16.414-6.524c5.144-1.577,9.868-3.143,13.515-5.588,3.018-2.05,5.842-4.044,8.735-6.166a254.849,254.849,0,0,1,22.435-14.939c9.608-5.66,20.9-9.749,34.44-12.536A85.81,85.81,0,0,1,174.8-176.61c7.82-.614,15.892-1.084,25.259-6.459a50.63,50.63,0,0,0,8.175-5.9c6.828-5.837,14.347-11.441,24.136-9.054,3.71.885,6.507,2.677,9.456,4.642,1.025.679,2.022,1.258,3.047,1.937a54.709,54.709,0,0,0,24.906,7.357l-.191-.7Z" transform="translate(193.631 255.42)" fill="#c7dac0"/>
        <path id="Path_3121" data-name="Path 3121" d="M275.636-152.369a23.518,23.518,0,0,1-2.672.223c-9.2.576-18.685-1.466-28.308-5.952-.971-.479-1.816-.885-2.787-1.364a36.659,36.659,0,0,0-10.42-3.935c-10.364-1.791-17.012,4.319-23.491,10.273a39.61,39.61,0,0,1-7.616,5.631c-8.767,4.88-16.041,4.8-23.636,4.7a70.585,70.585,0,0,0-12.535.665c-13.6,2.158-24.243,5.952-33.447,11.929a128.7,128.7,0,0,0-20.305,16.6c-2.492,2.439-4.94,4.651-7.584,6.918-3.51,2.946-8.5,4.7-13.785,6.529-4.8,1.694-9.787,3.443-14.479,6.3a30.05,30.05,0,0,0-3.451,2.39c-4.713,3.938-7.481,8.076-10.275,12.114-4.593,6.711-8.849,13.11-21.227,17.077a62.271,62.271,0,0,1-23.663,2.655C10.588-60.034,5.086-60.946-.1-61.842c-4.418-.79-8.586-1.435-12.7-1.88-17.291-1.756-30.57-.339-45.835,4.993-14.025,4.87-21.919,10.256-30.219,16.082-4.08,2.785-8.328,5.726-13.508,8.717-.363.212-.726.423-1.187.663-.363.212-.824.451-1.284.691a104.812,104.812,0,0,0-18.226,13.413,81.059,81.059,0,0,0-5.98,6.243c-2.031,2.2-3.965,4.372-6.414,6.583a61.467,61.467,0,0,1-5.271,4.205,102.515,102.515,0,0,1-12.788,7.108c-2.861,1.465-5.554,2.774-8,4.228-2.178,1.27-4.189,2.384-6.074,3.571l.163.6c2.01-1.114,4.091-2.356,6.269-3.627,2.444-1.454,5.137-2.763,8-4.228a100.639,100.639,0,0,0,12.858-7.236,54.441,54.441,0,0,0,5.369-4.233,84.521,84.521,0,0,0,6.511-6.611c1.793-1.916,3.559-3.932,5.883-6.215a99.107,99.107,0,0,1,18.058-13.257c.46-.24.824-.451,1.284-.691.363-.212.824-.451,1.187-.663,5.18-2.991,9.428-5.932,13.48-8.818,8.328-5.726,16.124-11.085,30.051-15.926,15.07-5.276,28.251-6.666,45.543-4.91,4.114.445,8.185,1.118,12.6,1.907,5.28.868,10.684,1.808,16.148,2.191a63.61,63.61,0,0,0,23.983-2.639c12.67-4.051,17.024-10.478,21.687-17.317,2.7-4.01,5.464-8.148,10.107-11.958a24.593,24.593,0,0,1,3.354-2.362c4.595-2.824,9.613-4.473,14.311-6.139,5.382-1.861,10.47-3.638,14.052-6.713,2.644-2.267,5.064-4.578,7.584-6.918,5.515-5.247,11.1-10.621,20.208-16.57s19.647-9.715,33.153-11.845a68.25,68.25,0,0,1,12.342-.609c7.69.071,15.062.125,24.024-4.811a39.772,39.772,0,0,0,7.785-5.787c6.648-6.11,12.888-11.78,22.808-10.078,3.848.628,6.912,2.237,10.2,3.89.971.479,1.818.885,2.789,1.364,9.746,4.559,19.33,6.573,28.626,5.969a22.937,22.937,0,0,0,2.867-.279l-.163-.6Z" transform="translate(188.763 227.74)" fill="#c7dac0"/>
        <path id="Path_3122" data-name="Path 3122" d="M281.428-120.911a59.1,59.1,0,0,1-9.413,1.717c-10.635,1.094-20.561-1.794-27.9-4.449-.7-.234-1.512-.54-2.208-.774a43.472,43.472,0,0,0-11.454-3.1c-9.729-1-15.12,4.319-20.747,9.922-.5.468-.91.908-1.415,1.376a35.5,35.5,0,0,1-7.226,5.52c-8.431,4.568-15.229,3.918-22.444,3.279a57.378,57.378,0,0,0-12.683-.265c-13.376,1.445-23.651,5.028-32.26,11.266-8.078,5.871-12.958,11.908-17.671,17.789-2.286,2.813-4.4,5.469-6.841,8.109-3.348,3.548-8.479,5.553-14,7.671a69.925,69.925,0,0,0-12.7,5.894,24.247,24.247,0,0,0-3.2,2.534C75-50.394,72.675-46.167,70.423-42.068,66.692-35.28,63.2-28.775,50.671-24.98A57.683,57.683,0,0,1,27.9-22.9,159.743,159.743,0,0,1,8.8-26.3c-2.916-.679-5.583-1.213-8.348-1.719-16.739-3.21-30.182-4.337-45.676-.236-13.641,3.572-20.846,9.95-28.512,16.566a113.676,113.676,0,0,1-12.347,9.9l-.433.34c-.531.368-1.159.763-1.788,1.159-7.32,4.791-13.161,8.834-17.928,12.572-1.9,1.515-3.635,2.874-5.244,4.306a99.339,99.339,0,0,1-9.031,7.007c-2.026,1.443-3.814,2.6-5.629,3.66-3.9,2.3-8.29,4.312-12.56,6.4-2.791,1.337-5.511,2.546-8.079,3.927-4.9,2.479-9.114,4.763-12.939,6.936-.558.267-1.089.635-1.647.9l.163.6c.628-.4,1.187-.663,1.815-1.058,3.825-2.172,8.041-4.457,12.939-6.935,2.6-1.281,5.191-2.563,7.982-3.9a116.946,116.946,0,0,0,12.56-6.4,64.865,64.865,0,0,0,5.727-3.687c3.354-2.362,6.1-4.656,9.129-7.035,1.636-1.331,3.343-2.79,5.244-4.306C-101.037,8.957-95.2,4.914-87.876.123c.629-.4,1.159-.763,1.788-1.159l.433-.34A109.485,109.485,0,0,0-73.21-11.3c7.568-6.589,14.676-12.939,28.121-16.455,15.3-4.046,28.644-2.89,45.286.347,2.667.534,5.459,1.141,8.348,1.719,6.25,1.346,12.723,2.737,19.227,3.471a57.929,57.929,0,0,0,23.061-2.16C63.628-28.357,67.218-34.89,71.019-41.807c2.155-4.071,4.505-8.2,8.7-12.1a21.61,21.61,0,0,1,3.034-2.378,68.882,68.882,0,0,1,12.6-5.866c5.619-2.145,10.849-4.178,14.266-7.854,2.438-2.64,4.652-5.324,6.938-8.137,4.713-5.881,9.5-11.891,17.573-17.762,8.511-6.211,18.62-9.637,31.9-11.054a58.311,58.311,0,0,1,12.585.293c7.339.711,14.234,1.334,22.86-3.29a31.952,31.952,0,0,0,7.4-5.676c.5-.468,1.008-.936,1.415-1.376,5.558-5.475,10.752-10.738,20.162-9.755a48.888,48.888,0,0,1,11.33,3.027c.693.234,1.512.54,2.206.774,7.465,2.727,17.391,5.615,28.219,4.466a73.59,73.59,0,0,0,9.512-1.745l-.191-.7Z" transform="translate(183.894 199.69)" fill="#c7dac0"/>
        <path id="Path_3123" data-name="Path 3123" d="M285.935-91.345l-4.485,1.282a89.049,89.049,0,0,1-11.426,2.831c-9.2,1.333-17.924-.6-27.519-3.046l-.693-.234c-4.5-1.09-8.68-2.164-13.45-2.314-9.317-.254-13.857,4.714-18.635,9.966-.715.852-1.554,1.632-2.269,2.484a25.656,25.656,0,0,1-6.836,5.408c-7.972,4.328-14.39,3.138-21.252,1.859A50.152,50.152,0,0,0,166.511-74.4c-13.274.66-23.088,4-31.1,10.5-7.075,5.692-11.125,12.465-15.062,18.88-1.885,3.13-3.937,6.416-6.141,9.529-3.088,4.121-8.36,6.383-13.926,8.729A60.3,60.3,0,0,0,89.1-21.087a16.053,16.053,0,0,0-2.98,2.579c-3.949,4.043-5.7,8.432-7.44,12.492C75.816.85,73.158,7.333,60.531,11.155A52.618,52.618,0,0,1,38.586,12.78c-8.255-.99-16.252-3.349-23.9-5.592l-2.179-.673C-2.445,2.147-16.676-1.887-33.037.95c-13.424,2.431-19.995,9.6-26.847,17.279a82.63,82.63,0,0,1-11.143,10.85l-2.1,1.571c-5.45,3.932-11.611,7.96-17.728,11.759-5.462,3.5-10.49,6.668-16.255,9.826-2.205,1.17-4.145,2.156-5.988,3.114-3.977,2-8.134,3.727-12.165,5.526-2.818,1.237-5.565,2.346-8.161,3.627-5.148,2.334-9.223,4.362-12.81,6.25-3.224,1.677-6.811,3.565-10.247,5.626l.163.6c3.506-2.189,7.093-4.077,10.414-5.782,3.587-1.889,7.591-3.788,12.81-6.251q3.934-1.772,8.161-3.627c4.059-1.7,8.285-3.554,12.165-5.526,1.842-.958,3.88-1.972,5.988-3.114,5.765-3.158,10.793-6.322,16.255-9.826,5.993-3.871,12.278-7.826,17.728-11.759l2.1-1.571A73.6,73.6,0,0,0-59.483,18.547C-52.6,10.967-46.131,3.827-33,1.479-16.86-1.4-2.727,2.659,12.127,7.056l2.179.673c7.774,2.315,15.77,4.674,24.123,5.636a53.994,53.994,0,0,0,22.238-1.709C73.711,7.823,76.412,1.112,79.351-5.883c1.738-4.06,3.421-8.32,7.272-12.336a16.894,16.894,0,0,1,2.812-2.423,53.024,53.024,0,0,1,11.109-5.548c5.662-2.373,11.06-4.563,14.288-8.94,2.327-3.041,4.256-6.4,6.238-9.557,3.937-6.416,7.915-13.06,14.895-18.724,7.844-6.344,17.56-9.659,30.611-10.364a51.166,51.166,0,0,1,12.637,1.25c6.96,1.251,13.5,2.514,21.766-1.9a29.216,29.216,0,0,0,7.1-5.592c.813-.88,1.554-1.632,2.269-2.484,4.609-5.1,9.051-10.036,17.978-9.671A56.775,56.775,0,0,1,241.584-89.8l.693.234c9.692,2.415,18.513,4.323,27.84,3.063a75.532,75.532,0,0,0,11.521-2.859l4.487-1.282Z" transform="translate(180.066 172.63)" fill="#c7dac0"/>
        <path id="Path_3124" data-name="Path 3124" d="M291.045-75.326a68.136,68.136,0,0,0-11.705,3.343,78.7,78.7,0,0,1-10.6,3.137c-8,1.527-15.913.226-23.612-1.031-5.92-.9-11.989-1.974-18.126-1.734-9.057.319-12.886,5.192-16.884,10.222-2.5,3.2-5.161,6.55-9.209,8.678-7.634,4.016-13.673,2.286-20.156.466-3.985-1.13-8.1-2.332-12.934-2.353-13.27-.1-22.429,2.95-29.915,9.84-6.071,5.514-9.276,12.693-12.314,19.715a100.674,100.674,0,0,1-5.51,11.077c-2.8,4.795-8.338,7.241-13.653,9.731C101.732-2.139,96.976.084,93.78,3.8c-3.6,4.16-4.841,8.51-6.107,12.759-2.148,7.2-3.9,13.532-16.679,17.182l-.1.028c-15.608,4.458-31.9-.606-45.8-6.138-1.068-.451-2.109-.8-3.08-1.28C8.682,20.983-5.121,15.423-20.193,16.813c-13.138,1.161-19.117,9.348-25.28,18.019-2.99,4.094-6.05,8.315-9.939,11.8-12.9,11.351-34.445,19.881-53.438,27.358-8.367,3.254-16.344,6.4-23.236,9.66-7.38,3.4-13.926,6.785-18.7,11.28l.19.7c4.718-4.7,11.389-8,18.742-11.508,6.92-3.164,14.8-6.279,23.139-9.633,19.091-7.5,40.637-16.034,53.633-27.413,3.987-3.515,7.047-7.736,10.01-11.93,6.093-8.543,11.9-16.574,24.722-17.752C-5.375,16.036,8.3,21.524,21.537,26.922c1.068.451,2.109.8,3.08,1.28,14.025,5.6,30.446,10.741,46.248,6.227l.1-.028c13.169-3.761,15.105-10.578,17.183-17.65,1.2-4.121,2.434-8.47,5.966-12.5,3.028-3.564,7.812-5.687,12.4-7.754,5.441-2.418,11.049-4.992,14.017-9.943a88.785,88.785,0,0,0,5.484-11.177c3.064-6.922,6.295-14,12.173-19.459,7.32-6.734,16.31-9.626,29.356-9.573a44.925,44.925,0,0,1,12.711,2.308c6.609,1.892,12.869,3.667,20.769-.533,4.217-2.284,6.882-5.637,9.476-8.861,3.926-4.9,7.588-9.618,16.325-9.954,6.039-.213,12.082.76,18,1.661,7.794,1.229,15.811,2.5,23.931,1.048a81.506,81.506,0,0,0,10.8-3.193,68.107,68.107,0,0,1,11.707-3.343Z" transform="translate(175.608 159.016)" fill="#c7dac0"/>
        <path id="Path_3125" data-name="Path 3125" d="M304.95-34.417a85.365,85.365,0,0,0-12.366,2.453A87.16,87.16,0,0,1,282.15-29.74c-7.419.931-14.559-.593-22.143-2.206-6.028-1.3-12.375-2.62-18.786-2.625-9.335.074-13.679,4.987-18.234,10.283-2.481,2.868-5.129,5.893-8.635,8.082a27.534,27.534,0,0,1-4.076,2.028c-4.839,1.922-8.813,1.221-13.354.359-.986-.15-2-.4-3.083-.523a41.529,41.529,0,0,0-9.915-.516c-7.653.458-13.543,1.6-18.4,3.852a32.861,32.861,0,0,0-10.566,7.553,39.093,39.093,0,0,0-6.405,9.713c-1.213,2.506-2.3,5.084-3.291,7.635-1.965,4.772-4,9.673-6.936,13.967-3.315,4.834-9.255,6.963-14.9,9.007-4.5,1.61-8.715,3.137-11.738,5.944-3.624,3.3-5.248,7.006-6.7,10.554-2.641,6.154-5.072,11.923-17.492,16.119-1.241.462-2.509.825-3.777,1.187-14.686,3.979-29.6.139-42.215-4.14-1.61-.512-3.247-1.124-4.982-1.709l-2.553-.89C22.489,59.977,9.375,55.407-4.934,56.9-17.5,58.225-23.325,65.827-29.526,73.97c-2.876,3.737-5.893,7.73-9.669,10.86-12.813,10.895-33.7,19.129-52.138,26.339-7.684,3.059-15.005,5.906-21.367,8.8-7.478,3.432-16.852,7.621-21.851,14.772-.309.412-.52.8-.829,1.208l-.845,1.537.244.9c.325-.741.747-1.509,1.169-2.278a11.03,11.03,0,0,1,.829-1.209c4.956-6.922,14.108-11.157,21.515-14.46,6.362-2.9,13.683-5.744,21.367-8.8C-72.567,104.4-51.677,96.17-38.669,85.22c3.847-3.258,6.863-7.252,9.739-10.989,6.061-7.886,11.883-15.489,24.061-16.7,14.113-1.44,27.1,3.057,38.579,7.014l2.553.891c1.637.612,3.247,1.124,4.982,1.708C53.959,71.4,69,75.308,83.878,71.274c1.268-.362,2.634-.752,3.875-1.215,12.713-4.279,15.328-10.533,17.926-16.459,1.483-3.447,3.01-7.123,6.563-10.3,2.856-2.651,7.066-4.178,11.471-5.76,5.842-2.1,11.879-4.257,15.237-9.319a81.024,81.024,0,0,0,6.908-14.067c.99-2.551,2.176-5.157,3.291-7.635a40.347,40.347,0,0,1,6.336-9.585,31.15,31.15,0,0,1,10.4-7.4c4.784-2.123,10.553-3.338,18.108-3.768a47.438,47.438,0,0,1,9.718.572c1.083.122,2.1.373,3.083.523,4.641.834,8.711,1.507,13.844-.5a21.949,21.949,0,0,0,4.243-2.184c3.6-2.217,6.251-5.241,8.8-8.238,4.388-5.141,8.563-9.9,17.577-9.988,6.386-.1,12.635,1.25,18.663,2.552,7.265,1.6,14.821,3.11,22.366,2.251a93.261,93.261,0,0,0,10.529-2.252,73.246,73.246,0,0,1,12.368-2.453l-.137-.5Z" transform="translate(164.201 127.328)" fill="#c7dac0"/>
        <path id="Path_3126" data-name="Path 3126" d="M322.352-7.063a105.218,105.218,0,0,0-12.639,1.45c-3.744.53-7.268,1.1-10.578,1.294-6.943.363-13.523-1.428-20.55-3.309C272.35-9.3,265.9-11.022,259.109-11.243c-9.833-.215-14.735,4.965-19.848,10.528a48.529,48.529,0,0,1-7.822,7.2,41.881,41.881,0,0,1-3.772,2.373c-4.312,2.312-7.413,2.118-11.445,1.974-.96-.05-1.92-.1-2.975-.122a68.562,68.562,0,0,0-9.573.358c-5.9.714-12.628,1.879-18.251,4.781a30.678,30.678,0,0,0-9.861,8.216,40.376,40.376,0,0,0-5.588,10.019c-.763,1.838-1.428,3.648-2.067,5.558-2.039,5.658-4.149,11.444-7.883,16.289-3.9,5-10.266,6.712-16.342,8.339-4.026,1.042-7.759,2-10.511,3.867-3.816,2.6-5.655,5.5-7.638,8.66-3.163,5.007-6.4,10.142-18.166,14.8l-3.723,1.387C88.668,98.235,73.8,95.353,61.184,91.831l-6.164-1.8-2.748-.835c-12.23-3.634-24.932-7.457-38.671-5.8C1.7,84.849-4.064,91.894-10.233,99.38A68.448,68.448,0,0,1-19.7,109.427c-12.824,10.466-33.058,18.4-51.033,25.375-6.931,2.736-13.5,5.259-19.427,7.817-7.24,3.148-16.126,7.2-21.12,13.591-.309.412-.547.7-.856,1.108-3.1,4.45-4.152,9.5-5.06,14.3l.407,1.5a.371.371,0,0,1,.043-.228c.924-5.123,1.891-10.475,5.108-15.281.211-.384.547-.7.758-1.08,4.923-6.266,13.74-10.188,20.882-13.307,5.928-2.557,12.469-5.181,19.427-7.817,17.975-6.97,38.4-14.965,51.2-25.531A66.128,66.128,0,0,0-9.832,99.7c6.1-7.357,11.792-14.274,23.276-15.719,13.544-1.6,26.219,2.122,38.351,5.784l2.748.835c2.179.673,4.109,1.2,6.164,1.8,12.718,3.494,27.706,6.448,42.874,1.144,1.338-.49,2.579-.953,3.82-1.415,12.063-4.741,15.507-10.26,18.528-15.011,1.911-3.03,3.753-5.931,7.4-8.377,2.654-1.838,6.388-2.8,10.318-3.811,5.976-1.6,12.763-3.322,16.8-8.579,3.705-4.946,5.913-10.759,7.954-16.417.735-1.938,1.4-3.748,2.067-5.558a39.037,39.037,0,0,1,5.419-9.863,29.163,29.163,0,0,1,9.595-8.032c5.528-2.875,12.154-4.012,17.959-4.7a64.464,64.464,0,0,1,9.447-.431c1.057.022,2.017.072,2.975.122,3.937.172,7.356.383,11.866-1.985a26.454,26.454,0,0,0,3.868-2.4,44.44,44.44,0,0,0,7.894-7.33c5.042-5.436,9.777-10.46,19.289-10.261,6.661.149,13.118,1.868,19.352,3.543,7.025,1.881,13.731,3.745,20.771,3.354a81.48,81.48,0,0,0,10.678-1.322,110.278,110.278,0,0,1,12.737-1.478l-.165-.6Z" transform="translate(149.297 109.195)" fill="#c7dac0"/>
        <path id="Path_3127" data-name="Path 3127" d="M339.191,20.048c-4.1-.016-8.054.141-11.978.4-4.147.212-8.071.469-11.686.314-6.466-.2-12.587-2.236-19.055-4.384-6.44-2.048-13.031-4.268-20.193-4.707-10.455-.577-16.295,5.41-21.9,11.114a72.393,72.393,0,0,1-6.55,6.082c-1.229.891-2.431,1.883-3.493,2.618-3.885,2.729-6.433,3.025-10.108,3.427-.709.095-1.517.217-2.325.34-.611.067-1.322.162-2.03.257q-3.2.427-7.27,1.1c-6.308,1.154-12.854,2.592-18.1,5.711a27.493,27.493,0,0,0-9.057,8.85,41.919,41.919,0,0,0-4.672,10.3c-.412,1.2-.726,2.367-1.138,3.564-2.017,6.516-4.078,13.259-8.537,18.528-4.555,5.3-11.822,6.4-18.186,7.354A40.863,40.863,0,0,0,154,92.922c-4.323,1.883-6.5,4.339-9.1,7.135-3.489,3.8-7.552,8.2-18.335,13.012-1.214.563-2.428,1.125-3.669,1.588-15.357,6.546-30.865,4.389-42.6,1.8-2.445-.49-4.819-1.107-7.318-1.8L72.4,114.5c-1.138-.323-2.25-.545-3.291-.9-11.872-3.088-24.063-6.193-37.358-4.447-11.262,1.489-17.036,8.106-23.173,14.934a68.423,68.423,0,0,1-9.269,9.234C-13.424,143.334-33.1,151.006-50.42,157.68c-6.275,2.44-12.187,4.669-17.53,7.059-6.877,2.936-15.357,6.546-20.389,12.411a8.968,8.968,0,0,0-.785.98c-3.423,4.433-4.721,9.339-5.976,14.017a59.242,59.242,0,0,1-2.175,7.1,36.5,36.5,0,0,1-1.651,3.6l.244.9a34.429,34.429,0,0,0,1.976-4.344,73.394,73.394,0,0,0,2.148-7.2c1.3-4.906,2.553-9.584,5.906-13.889.238-.284.547-.7.785-.98,4.989-5.636,13.372-9.219,20.151-12.127,5.37-2.29,11.255-4.619,17.53-7.059,17.417-6.7,37.191-14.4,50.025-24.439a66.639,66.639,0,0,0,9.339-9.363c6.04-6.8,11.673-13.161,22.616-14.667,13.072-1.79,24.722,1.254,37.038,4.431,1.138.323,2.25.545,3.291.9l.569.162c2.6.662,4.971,1.28,7.416,1.769,11.861,2.659,27.564,4.761,43.116-1.841,1.214-.563,2.455-1.025,3.766-1.616,10.979-4.863,15.181-9.52,18.5-13.168,2.507-2.768,4.609-5.1,8.836-6.951a38.826,38.826,0,0,1,8.719-1.951c6.559-1.009,14.022-2.169,18.648-7.594,4.555-5.3,6.687-12.168,8.7-18.684.412-1.2.7-2.467,1.135-3.564a40.811,40.811,0,0,1,4.6-10.169,26.57,26.57,0,0,1,8.819-8.566c5.153-3.091,11.6-4.5,17.814-5.628,2.687-.552,5.04-.792,7.17-1.076.709-.095,1.419-.19,2.032-.257.806-.123,1.614-.245,2.325-.34,3.772-.43,6.416-.753,10.468-3.638,1.064-.735,2.364-1.755,3.5-2.618a72.393,72.393,0,0,0,6.55-6.082c5.768-5.859,11.2-11.407,21.339-10.846,7.034.366,13.627,2.587,19.97,4.662,6.566,2.12,12.685,4.152,19.25,4.328,3.614.155,7.636-.13,11.783-.342,3.924-.257,7.972-.442,12.173-.454Z" transform="translate(134.985 91.405)" fill="#c7dac0"/>
        <path id="Path_3128" data-name="Path 3128" d="M347.473,47.69c-2.241-.116-4.451-.133-6.689-.249-6.368-.233-12.418-.449-17.4-.971-5.961-.673-11.595-2.843-17.5-5.259-6.576-2.549-13.4-5.243-20.838-5.926-11.4-.955-18.2,5.739-24.741,12.25-1.484,1.5-2.969,3.008-4.507,4.311a27.372,27.372,0,0,0-2.015,1.871c-.433.34-.743.752-1.177,1.092-3.959,3.615-5.785,4.244-10.15,5.6l-.39.111c-1.629.574-3.705,1.059-6.074,1.627-.878.251-1.881.429-2.953.735l-.2.056c-6.3,1.583-12.791,3.221-17.738,6.686a26.5,26.5,0,0,0-8.282,9.385,41.987,41.987,0,0,0-3.755,10.575L202.7,91.31c-1.66,7.061-3.59,15.063-8.927,20.583-5.309,5.62-13.753,5.872-20.5,6.18a39.558,39.558,0,0,0-6.986.592c-5.473,1.131-8.074,3.17-12.074,6.256a92.683,92.683,0,0,1-16.872,10.65c-1.214.563-2.4,1.226-3.614,1.788-12.17,6.284-25.449,7.7-42.844,4.787-2.542-.462-5.112-1.024-8.223-1.647-1.778-.356-3.583-.812-5.264-1.2-12.083-2.7-23.375-5.2-36.3-3.239-10.6,1.622-16.338,7.582-22.388,13.954a91.186,91.186,0,0,1-8.971,8.393c-12.846,9.608-32.061,17.041-49.115,23.531-5.327,2.061-10.459,4.067-15.2,5.961-6.9,2.836-14.756,6.05-19.783,11.158a9.036,9.036,0,0,0-.813.88c-3.532,4.032-5.188,8.393-6.871,12.653a48.656,48.656,0,0,1-2.544,6.126,35.416,35.416,0,0,1-6.992,9.88l.19.7a39.417,39.417,0,0,0,7.5-10.348,61.588,61.588,0,0,0,2.544-6.126c1.656-4.36,3.242-8.593,6.73-12.4.238-.284.574-.6.813-.88,4.957-4.979,12.711-8.166,19.517-10.974,4.714-1.994,9.776-3.872,15.1-5.933,17.026-6.591,36.367-13.951,49.283-23.687a85.515,85.515,0,0,0,9.068-8.421c5.98-6.243,11.625-12.175,21.928-13.714,12.725-1.907,24.017.591,35.975,3.222,1.778.356,3.583.812,5.361,1.168,3.014.651,5.584,1.213,8.223,1.647,17.617,2.959,30.993,1.514,43.358-4.826,1.187-.663,2.4-1.226,3.614-1.788a98.953,98.953,0,0,0,16.97-10.678c3.9-3.058,6.431-4.968,11.807-6.072a37.665,37.665,0,0,1,6.791-.536c6.873-.235,15.415-.515,20.962-6.419,5.476-5.776,7.406-13.778,9.138-20.967l.373-1.726A47.6,47.6,0,0,1,207.352,79.4a26.273,26.273,0,0,1,8.113-9.229c4.878-3.336,11.369-4.975,17.543-6.63l.2-.056c.975-.279,1.978-.457,2.856-.708,2.368-.568,4.444-1.053,6.076-1.627l.39-.111c4.334-1.454,6.286-2.012,10.414-5.782.336-.312.769-.652,1.174-1.092.574-.6,1.343-1.248,2.015-1.871,1.512-1.4,3.094-2.935,4.6-4.339,6.47-6.383,13.105-12.922,24.061-12.055,7.408.583,14.136,3.3,20.713,5.854,6.006,2.388,11.64,4.558,17.727,5.3,5.1.595,11.151.811,17.519,1.043,2.336.089,4.574.205,6.91.294Z" transform="translate(129.229 73.084)" fill="#c7dac0"/>
        <path id="Path_3129" data-name="Path 3129" d="M354.5,75.56a198.425,198.425,0,0,1-24.431-3.28c-5.458-1.14-10.6-3.45-16.026-6.005-6.711-3.05-13.673-6.245-21.608-7.218-12.912-1.5-21.315,7.06-28.708,14.679l-1.315,1.348c-1.148,1.192-2.032,2.2-2.914,3.208l-.618.824c-3.029,3.564-3.954,4.8-7.807,6.873a53.589,53.589,0,0,1-8.659,3.337l-1.729.6c-5.7,1.844-11.6,3.744-16.03,7.17a24.476,24.476,0,0,0-7.575,10.047A45.476,45.476,0,0,0,214.241,118c-1.259,7.379-2.836,16.684-9.12,22.582-6.353,6.026-16.084,5.026-23.1,4.331a35.893,35.893,0,0,0-4.5-.333c-7.844-.243-11.083,1.762-18.988,6.719-2.975,1.822-6.648,4.167-11.59,6.874a37.064,37.064,0,0,0-3.533,2.089c-12.386,7.425-25.713,9.828-43.113,7.671-2.613-.333-5.253-.767-8.435-1.262-2.418-.389-4.765-.907-7.085-1.324-11.752-2.258-22.81-4.283-35.286-2.231-9.956,1.656-15.709,7.187-21.728,12.9a80.882,80.882,0,0,1-8.673,7.553c-13.122,9.363-32.17,16.64-48.958,22.947-4.281,1.655-8.3,3.126-12.187,4.669-6.541,2.624-14.03,5.627-19.052,9.977-.238.284-.6.5-.84.78-3.667,3.531-5.752,7.474-7.669,11.261a51.6,51.6,0,0,1-2.843,5.023,37.965,37.965,0,0,1-11.847,12.131c-.433.34-.992.607-1.425.947l.163.6c.531-.367,1.089-.635,1.62-1a39.766,39.766,0,0,0,11.988-12.387c1.013-1.693,1.9-3.458,2.816-5.124,1.987-3.915,3.931-7.6,7.625-11.033a9.488,9.488,0,0,1,.84-.78c4.924-4.322,11.953-7.086,18.786-9.793,3.891-1.543,7.879-3.114,12.187-4.669,16.858-6.435,36.031-13.639,49.126-23.1a76.29,76.29,0,0,0,8.771-7.58c5.921-5.687,11.6-11.089,21.364-12.689,12.351-2.124,23.437,0,35.064,2.187,2.32.417,4.765.907,7.085,1.324,3.182.495,5.822.929,8.435,1.262,17.5,2.129,30.922-.3,43.6-7.81,1.187-.663,2.276-1.3,3.533-2.089,4.915-2.808,8.616-5.052,11.591-6.874,7.9-4.958,10.88-6.779,18.5-6.58q1.918.1,4.5.333c7.242.739,17.07,1.711,23.759-4.627,6.453-6.054,8-15.46,9.235-22.939a52.068,52.068,0,0,1,2.769-10.725,23.074,23.074,0,0,1,7.339-9.763c4.334-3.4,10.158-5.17,15.859-7.014l1.729-.6a55.967,55.967,0,0,0,8.758-3.365c3.95-2.1,5.044-3.492,8.071-7.057L260,78.58a36.385,36.385,0,0,1,2.817-3.18l1.315-1.348c7.226-7.463,15.46-15.862,28.052-14.384,7.811.9,14.676,4.123,21.387,7.173,5.519,2.527,10.691,4.937,16.152,6.078a183.035,183.035,0,0,0,24.526,3.253c.1-.028.223.045.418-.011Z" transform="translate(124.655 54.664)" fill="#c7dac0"/>
        <path id="Path_3130" data-name="Path 3130" d="M359.254,103.177a1.4,1.4,0,0,0-.639-.033,131.522,131.522,0,0,1-24.459-5.324,78.778,78.778,0,0,1-14.394-6.579c-6.875-3.652-14-7.448-22.31-8.638-13.909-2.074-24.266,7.8-30.825,15.392a21.2,21.2,0,0,0-2.611,3.553c-.943,1.565-1.647,2.846-2.182,3.971a15.27,15.27,0,0,1-4.323,5.77c-2.069,1.671-5.276,3.019-8.316,4.212l-2.845,1.136c-5.326,2.061-10.849,4.179-14.865,7.593a23.1,23.1,0,0,0-6.774,10.682,49.857,49.857,0,0,0-1.924,11.132c-.808,8.654-2.52,17.458-8.843,22.827-7.764,6.645-19.315,3.573-26.217,1.765-.57-.162-1.235-.3-1.707-.484-11.179-2.855-14.78-.637-32.115,10.252l-3.478,2.289c-12.575,8.667-25.978,11.955-43.258,10.628-3-.222-6.06-.645-8.673-.978-2.959-.451-5.919-.9-8.781-1.379-11.421-1.813-22.3-3.565-34.527-1.368-9.316,1.689-15.01,6.663-21.067,11.848a95.287,95.287,0,0,1-8.376,6.712C11.956,217.385-7.313,224.617-24.3,230.98c-2.775,1.008-5.452,1.989-8,3.042l-.293.084c-6.47,2.5-13.065,4.92-18.028,8.713-.266.184-.6.5-.867.679a46.745,46.745,0,0,0-8.688,9.825c-.9,1.337-1.923,2.6-2.919,3.965a45.138,45.138,0,0,1-12.059,10.572c-2.444,1.454-5.11,2.863-7.9,4.2l.163.6a80.831,80.831,0,0,0,8.068-4.356A43.368,43.368,0,0,0-62.6,257.577c1.094-1.392,2.02-2.629,2.919-3.965,2.443-3.4,4.717-6.639,8.618-9.7a10.523,10.523,0,0,1,.867-.679c4.795-3.637,11.46-6.189,17.86-8.557l.293-.083c2.579-.953,5.257-1.934,8-3.042,17.081-6.391,36.378-13.522,50.238-22.88a88.559,88.559,0,0,0,8.473-6.74c5.959-5.158,11.583-10,20.677-11.737,12.1-2.269,22.884-.489,34.3,1.324,2.862.478,5.822.929,8.782,1.379,2.613.333,5.67.756,8.673.978,17.475,1.272,30.975-2.044,43.745-10.767l3.478-2.289c17.068-10.706,20.574-12.9,31.5-10.186l1.707.484c7.027,1.881,18.9,4.969,26.9-1.96,6.49-5.525,8.178-14.43,9.029-23.312a48.948,48.948,0,0,1,1.95-11.032,23.184,23.184,0,0,1,6.535-10.4c3.918-3.386,9.341-5.476,14.57-7.509l2.845-1.137a35.814,35.814,0,0,0,8.585-4.4,14.522,14.522,0,0,0,4.49-5.926,29.45,29.45,0,0,1,2.111-3.843,24.9,24.9,0,0,1,2.54-3.425c6.392-7.441,16.583-17.154,30.145-15.2,8.212,1.218,15.211,4.942,22.087,8.593,4.906,2.594,9.59,5.143,14.518,6.651a128.281,128.281,0,0,0,24.557,5.3l.96.05Z" transform="translate(122.553 36.44)" fill="#c7dac0"/>
        <path id="Path_3131" data-name="Path 3131" d="M364.065,130.43c-.418.011-.765-.106-1.181-.094-8.6-1.106-17.51-4.5-24.364-7.3-4.368-1.776-8.442-4.392-12.832-7.025-7.066-4.353-14.256-8.779-23.092-10.358-13.252-2.37-25.02,6.175-31.6,14.858a18.976,18.976,0,0,0-2.308,3.9,28.443,28.443,0,0,0-1.7,5.346,11.968,11.968,0,0,1-2.81,6.31c-1.933,2.172-5.157,3.849-8.045,5.214-1.213.563-2.427,1.125-3.738,1.716-4.982,2.178-10.225,4.54-13.8,8.044a21.315,21.315,0,0,0-6,11.216,66.2,66.2,0,0,0-1.06,11.21l.026.1c-.158,7.172-1.242,17.524-8.539,23.172-6.431,4.968-15.677,4.586-28.212-1.336-11.69-5.516-17.359-4.329-33.651,6.912-1.159.763-2.29,1.627-3.424,2.49-12.764,9.909-26.117,14.155-43.5,13.613-2.531-.033-5.339-.311-8.884-.594-3.447-.311-6.949-.823-10.229-1.29-11.242-1.54-21.818-2.947-33.865-.477-8.774,1.75-14.506,6.2-20.477,10.924-2.5,2.011-5.131,3.949-7.981,5.843-15.252,9.648-36.7,17.392-53.928,23.61l-2.021.685c-5.842,2.1-11.879,4.257-16.641,7.237-.265.184-.531.368-.894.579a69.666,69.666,0,0,0-10.071,8.6l-2.73,2.724a59.762,59.762,0,0,1-12.3,8.912c-3.392,1.833-7.2,3.677-10.843,5.365-1.214.563-2.33,1.1-3.544,1.66l.163.6,3.641-1.688c3.739-1.716,7.548-3.56,10.94-5.393a57.228,57.228,0,0,0,12.467-9.068l2.73-2.724a61.679,61.679,0,0,1,9.974-8.572l.8-.552c4.665-2.952,10.7-5.108,16.446-7.181l2.021-.685c17.232-6.218,38.676-13.963,54.026-23.638a92.173,92.173,0,0,0,8.078-5.871c6-4.629,11.534-9.018,20.211-10.74,11.95-2.441,22.428-1.007,33.671.533,3.377.439,6.781.979,10.326,1.262,3.572.383,6.353.561,8.884.594,17.48.514,31.055-3.687,43.987-13.752,1.133-.863,2.264-1.727,3.424-2.49,16.992-11.764,21.974-12,32.94-6.817,12.784,6.067,22.253,6.494,28.951,1.342,7.465-5.8,8.522-16.256,8.75-23.557l-.026-.1a51.036,51.036,0,0,1,1.062-11.21,21.5,21.5,0,0,1,5.857-10.96c3.6-3.4,8.648-5.71,13.627-7.888,1.213-.563,2.527-1.153,3.74-1.716,2.986-1.393,6.308-3.1,8.312-5.4a12.994,12.994,0,0,0,2.949-6.566,23.358,23.358,0,0,1,1.634-5.218,18.053,18.053,0,0,1,2.236-3.77c6.414-8.527,17.915-16.887,30.849-14.535,8.711,1.507,15.9,5.933,22.869,10.314,4.392,2.633,8.464,5.249,12.958,7.1,6.88,2.894,15.885,6.261,24.487,7.368.542.061.986.15,1.528.211Z" transform="translate(120.295 18.609)" fill="#c7dac0"/>
        <path id="Path_3132" data-name="Path 3132" d="M369.268,157.492a11,11,0,0,1-1.751-.256c-8.559-1.335-17.517-5.688-24.266-9.267-3.811-2.043-7.341-4.6-11.192-7.17-7.157-5.083-14.563-10.31-23.924-12.279-13.265-2.8-26.282,5.023-32.379,14.323a19.027,19.027,0,0,0-1.933,4.116,20.751,20.751,0,0,0-.793,6.382c-.03,2.6-.071,4.772-1.7,7.29-1.322,2.105-3.655,3.96-7.775,6.216-1.38.719-2.86,1.465-4.34,2.212-4.828,2.351-9.725,4.83-13.047,8.478a21.531,21.531,0,0,0-5.294,11.879,64.373,64.373,0,0,0-.21,10.858l-.007.757c.44,11.321-2.282,19.117-8.262,23.417-10.4,7.4-24.4-1.237-28.431-4.082-11.257-7.8-18.635-9.04-35.185,3.571-1.133.863-2.238,1.827-3.343,2.791-13.094,11.407-26.16,16.326-43.645,16.57-2.629-.005-5.6-.127-9.122-.31-3.962-.272-7.854-.672-11.649-1.1-11.063-1.267-21.557-2.373-33.356.241-8.232,1.811-14.268,5.911-20.011,9.927-2.389,1.654-4.876,3.337-7.515,4.846-16.336,9.526-37.389,17.159-51.8,22.14l-2.119.713a108.367,108.367,0,0,0-14.739,5.722c-.266.184-.558.267-.824.451a107.911,107.911,0,0,0-12.57,7.91l-1.425.947a86.169,86.169,0,0,1-12.636,7.28c-1.842.958-3.712,1.816-5.776,2.73a168.072,168.072,0,0,0-15.031,7.749l.163.6A164.365,164.365,0,0,1-61.5,305.367c2.065-.914,3.907-1.872,5.776-2.73a103.246,103.246,0,0,0,12.733-7.308l1.425-.947A104.313,104.313,0,0,1-29.09,286.5c.265-.184.558-.267.824-.451A106,106,0,0,1-13.6,280.455l2.119-.713c14.539-4.909,35.69-12.57,52-22.2,2.639-1.51,5.1-3.292,7.488-4.946,6.036-4.1,11.709-7.988,19.718-9.844,11.7-2.586,22.1-1.452,33.16-.185q5.692.642,11.676,1.2c3.42.211,6.493.3,9.122.31,17.805-.226,30.968-5.174,44.231-16.737a32.568,32.568,0,0,1,3.369-2.69c15.922-12.215,22.845-11.493,34.351-3.549,4.154,2.917,18.5,11.668,29.363,4.031,6.08-4.328,8.943-12.381,8.546-23.929l0-.758a70.586,70.586,0,0,1,.141-10.73c.685-4.839,2.31-8.543,5.081-11.495,3.25-3.52,8.15-6,12.88-8.322,1.48-.746,2.96-1.493,4.34-2.211,4.217-2.284,6.55-4.139,8.041-6.4,1.7-2.645,1.688-5.018,1.746-7.518a20.166,20.166,0,0,1,.819-6.282,17.83,17.83,0,0,1,1.864-3.987c5.816-8.788,18.8-16.709,31.525-13.972,9.265,2,16.546,7.152,23.677,12.135a104.764,104.764,0,0,0,11.218,7.27c6.875,3.651,15.859,8.1,24.516,9.411.765.106,1.4.139,2.072.272l-.3-1.1Z" transform="translate(117.645 0.968)" fill="#c7dac0"/>
        <path id="Path_3133" data-name="Path 3133" d="M377.336,184.334a18.643,18.643,0,0,1-2.293-.317c-6.613-1.135-14.8-4.953-24.2-11.338-3.2-2.11-6.186-4.6-9.4-7.142-7.276-5.912-14.9-11.941-24.815-14.4-13.3-3.327-27.918,4.41-33.181,13.689a14.934,14.934,0,0,0-1.629,4.461,18.157,18.157,0,0,0,.163,7.189c.342,2.818.756,5.507-.57,8.369-1.213,2.506-3.467,4.662-7.53,7.118-1.523.975-3.17,1.877-4.817,2.78-4.579,2.5-9.326,5.147-12.425,8.84-2.789,3.28-4.234,7.257-4.492,12.513A60.071,60.071,0,0,0,252.8,226.6l.184,1.459c.867,7.851.156,18.421-7.987,23.662-9.2,5.977-21.322.043-28.747-6.8-11.3-10.272-20.537-13.355-36.693.331-1.105.964-2.21,1.927-3.289,2.991-13.131,12.821-26.271,18.626-43.913,19.454-2.8.151-5.843.157-9.333.074-4.45-.133-8.759-.522-12.971-.938-10.982-.967-21.227-1.928-32.97.887-7.788,1.9-13.932,5.6-19.811,9.114-2.178,1.27-4.427,2.668-6.73,3.866A290.456,290.456,0,0,1,1.8,300.992c-1.561.446-3.094.992-4.753,1.465-3.875,1.215-7.847,2.457-11.4,3.689l-.851.351c-5.327,2.061-9.846,4-15.064,6.463-4.1,1.927-8.426,3.81-12.875,5.621-10.28,4.34-20.743,9.164-26.6,16.237l.19.7c5.611-7.218,16.172-12.07,26.549-16.438,4.422-1.911,8.871-3.722,12.875-5.621,5.218-2.462,9.64-4.373,15.064-6.462l.851-.351c3.625-1.36,7.5-2.574,11.4-3.689,1.561-.446,3.192-1.02,4.753-1.465a291.675,291.675,0,0,0,48.927-20.346c2.3-1.2,4.551-2.6,6.73-3.866,6.144-3.7,11.953-7.086,19.643-8.958,11.646-2.786,21.864-1.925,32.748-.931,4.212.417,8.521.806,12.971.939,3.491.083,6.537.077,9.361.026,17.837-.883,31.174-6.744,44.472-19.722,1.079-1.064,2.184-2.027,3.289-2.991,15.846-13.273,24.741-10.307,35.762-.28,7.673,6.987,20.013,12.965,29.679,6.749,8.41-5.425,9.092-16.095,8.269-24.174l-.186-1.459a67.811,67.811,0,0,1-.613-10.408c.312-5.056,1.688-8.9,4.379-12.157,3-3.665,7.677-6.188,12.256-8.684,1.647-.9,3.294-1.8,4.817-2.78,2.806-1.666,6.132-4.128,7.768-7.4,1.4-2.991,1.053-5.808.683-8.726a22.935,22.935,0,0,1-.132-7.089A11.643,11.643,0,0,1,284.342,165c5.122-9.022,19.374-16.548,32.329-13.338,9.79,2.387,17.317,8.444,24.594,14.356,3.086,2.466,6.2,5.033,9.4,7.143,9.5,6.357,17.71,10.276,24.42,11.383a24.141,24.141,0,0,0,2.611.334l-.163-.6Z" transform="translate(112.129 -16.453)" fill="#c7dac0"/>
        <path id="Path_3134" data-name="Path 3134" d="M402.617,211.345c-.86-.078-1.848-.228-2.834-.378-9.558-1.914-20.032-9.936-24.1-13.309-2.561-2.077-5.1-4.482-7.5-6.714-7.452-6.943-15.25-14-25.842-17.023-12.5-3.45-28.964,2.874-33.957,13.154a15.02,15.02,0,0,0-1.352,4.706,21.234,21.234,0,0,0,1.09,7.9c.869,3.207,1.612,6.342.492,9.578-1.034,2.779-3.179,5.335-7.161,8.092-1.593,1.1-3.406,2.161-5.1,3.292-4.425,2.668-9.021,5.492-11.967,9.358-2.609,3.553-3.8,7.674-3.716,13.048a65.433,65.433,0,0,0,1.27,10.112c.091.729.282,1.431.375,2.16.9,5.251,1.993,18.22-7.71,23.907-10.069,5.9-21.926-1.4-29.064-9.516-7.235-8.084-13.623-11.875-20.132-11.851-5.675,0-11.619,2.887-18.1,8.841-1.008.936-2.184,2.027-3.235,3.191-13.168,14.236-26.384,20.926-44.156,22.439-2.965.307-6.108.341-9.572.358-4.84-.021-9.567-.4-14.169-.7-10.83-.794-21.118-1.527-32.683,1.56-7.636,2.073-14.209,5.354-20.586,8.58-1.675.8-3.322,1.7-5,2.507-11.233,5.476-28.128,13.326-45.66,18.441-5.072,1.449-10.394,2.753-15.424,3.974l-.878.251c-1.783.4-3.566.8-5.224,1.276-3.761.858-7.3,1.761-10.936,2.692-3.9,1.114-8.487,2.424-13.087,4.062-9.4,3.332-21.48,9.159-25.73,18.688-3.021,6.695-1.439,13.694.115,20.593.8,4.521,1.886,9.288,1.591,14.016l.489,1.8c.745-5.4-.4-10.792-1.619-16.06-1.608-7.1-3.081-13.7-.131-20.264,4.206-9.3,16.095-15.072,25.324-18.248,4.6-1.638,9.185-2.948,13.115-3.962,3.707-1.059,7.175-1.833,10.936-2.692,1.686-.374,3.468-.775,5.224-1.276l.878-.251c5.029-1.221,10.351-2.525,15.424-3.974,17.531-5.115,34.524-12.993,45.757-18.469,1.675-.8,3.349-1.6,5-2.507,6.67-3.309,12.853-6.479,20.489-8.552,11.467-3.059,21.658-2.3,32.39-1.477,4.6.305,9.329.683,14.169.7,3.463-.018,6.607-.052,9.572-.358,17.967-1.568,31.378-8.314,44.617-22.678a38.094,38.094,0,0,1,3.233-3.191c6.312-5.8,12.061-8.628,17.638-8.6,6.314.032,12.55,3.65,19.66,11.662,7.291,8.284,19.593,15.677,30.024,9.566,9.97-5.871,8.917-19.068,7.963-24.52-.091-.729-.282-1.431-.375-2.16a66.046,66.046,0,0,1-1.242-10.012c-.16-5.245,1.064-9.266,3.6-12.691,2.875-3.737,7.374-6.533,11.8-9.2,1.716-1.03,3.506-2.189,5.2-3.32,2.752-1.866,6.1-4.657,7.5-8.4,1.164-3.464.42-6.6-.477-9.906a23.059,23.059,0,0,1-1.062-7.8,12.174,12.174,0,0,1,1.283-4.578c4.852-10.024,20.93-16.237,33.007-12.775,10.468,2.949,18.169,10.036,25.593,16.878,2.392,2.233,5.031,4.61,7.593,6.686,5.146,4.253,15.112,11.557,24.446,13.426a22.1,22.1,0,0,0,3.155.395l-.137-.5Z" transform="translate(89.4 -34.043)" fill="#c7dac0"/>
        <path id="Path_3135" data-name="Path 3135" d="M443.145,238.068c-9.346-.354-20.873-9.156-27.478-15.692-1.866-1.843-3.785-3.886-5.554-5.757-7.653-8.073-15.582-16.391-26.977-20.047-8.273-2.6-19.382-.943-27.163,4.087-5.532,3.632-8.555,8.382-8.546,13.455a23.564,23.564,0,0,0,2.015,8.6c1.326,3.725,2.47,7.177,1.584,10.886-1.428,5.591-6.791,9.067-12.394,12.827-4.275,2.841-8.717,5.837-11.441,9.747-4.973,7.251-2.912,15.626-1.06,23.627a22.259,22.259,0,0,1,.581,2.534c.945,4.265,3.3,18.387-7.434,24.152s-22.555-2.952-29.447-12.106c-7.736-10.317-15.257-15.188-22.99-15.03-6.581.151-13.257,4.218-19.928,12.171-15.547,18.262-30.686,25.61-54.112,26.038-5.23.09-10.347-.176-15.269-.5-10.678-.621-20.814-1.182-32.13,2.05l-.293.083c-11.386,3.36-22,8.012-32.324,12.58C97.216,338.711,81.063,345.809,62.4,347.9c-3.062.335-6.152.569-9.143.776-7.208.547-14.612,1.15-21.663,3.056-9.1,2.491-20.044,8.641-22.987,18.336-2.061,6.744.148,13.347,2.3,19.752,2.21,6.6,4.6,13.48,1.9,20.189a16.121,16.121,0,0,1-1.142,2.378l.878-.251a20.94,20.94,0,0,0,.931-1.993c2.647-6.91.328-13.916-1.909-20.619-2.128-6.3-4.338-12.908-2.32-19.423,2.857-9.239,13.217-15.221,22.093-17.757l.39-.112c7.051-1.906,14.357-2.481,21.565-3.028,2.992-.207,6.081-.441,9.143-.776,18.764-2.12,35.015-9.245,50.68-16.2,10.225-4.54,20.841-9.192,32.227-12.552l.293-.084c11.218-3.2,21.256-2.616,31.934-1.994,4.922.322,10.039.588,15.269.5,23.426-.428,39.222-8.071,54.67-26.306,6.533-7.7,13.012-11.708,19.369-11.9,7.512-.2,14.81,4.625,22.394,14.769,7.073,9.426,19.144,18.289,30.338,12.284,11.1-5.977,8.732-20.527,7.785-24.793-.217-.8-.364-1.732-.581-2.534-1.95-7.974-3.857-16.176.973-23.171,2.626-3.882,7-6.75,11.274-9.591,5.8-3.816,11.233-7.42,12.7-13.239.958-3.837-.269-7.59-1.567-11.215a27.175,27.175,0,0,1-1.961-8.4c.02-4.973,3-9.495,8.264-12.943,7.515-4.846,18.4-6.552,26.453-3.993,11.27,3.584,19.075,11.829,26.728,19.9,1.794,1.971,3.688,3.914,5.554,5.757,1.892,1.943,16.251,15.767,28.171,15.926l-.163-.6Z" transform="translate(51.399 -51.445)" fill="#c7dac0"/>
      </g>
      <path id="Path_3136" data-name="Path 3136" d="M178.261-452.857a37.983,37.983,0,0,0-10.641,4.552c-92.175,57-120.816,55.242-146.162,53.627-13.584-.871-26.4-1.637-47.375,6.3-12.019,4.513-22.461,10.2-32.539,15.665-18.146,9.827-35.372,19.174-57.952,20.008-2.6.1-5.328.118-7.957.113-10.488.08-21.366.272-31.31,4.3-14.978,6.006-24.028,17.986-32.743,29.653-4.49,5.926-9.121,12.108-14.538,17.327-15.076,14.565-26.931,13.091-40.634,11.39-6.922-.722-14-1.618-22.126-.591l.326,1.2c7.837-.943,14.786-.12,21.513.658,13.578,1.629,26.295,3.18,41.875-11.853,5.515-5.247,10.118-11.529,14.679-17.583,8.574-11.412,17.456-23.235,32.044-29.13,9.678-3.844,20.459-4.008,30.725-4.133,2.629.005,5.355-.018,8.054-.141,23-.846,40.32-10.221,58.635-20.2,10.078-5.47,20.52-11.152,32.344-15.609,20.679-7.85,33.3-7.029,46.664-6.2,25.541,1.56,54.431,3.458,147.04-53.877a38,38,0,0,1,10.182-4.312l-.3-1.1Z" transform="translate(265.715 452.857)" fill="#c7dac0"/>
      <path id="Path_3137" data-name="Path 3137" d="M290.474-76.775a69.247,69.247,0,0,0-11.8,3.371,78.6,78.6,0,0,1-10.6,3.137c-7.9,1.5-15.816.2-23.512-1.059-5.92-.9-11.991-1.974-18.225-1.706-9.25.375-13.248,5.4-17.148,10.405-2.5,3.2-5.092,6.422-9.04,8.522-7.441,3.961-13.231,2.375-19.84.483a47.205,47.205,0,0,0-13.031-2.325c-13.365-.07-22.622,3.006-30.108,9.9-6.045,5.614-9.348,12.821-12.509,19.771A87.739,87.739,0,0,1,119.14-15.2c-2.828,4.695-7.976,7.029-13.486,9.575-4.687,2.095-9.543,4.345-12.738,8.066C89.243,6.727,88,11.076,86.738,15.325c-2.05,7.173-3.857,13.3-16.441,16.9-15.608,4.458-31.779-.534-45.679-6.066l-3.08-1.28C8.208,19.507-5.595,13.947-20.792,15.264c-13.333,1.216-19.621,9.816-25.546,18.2-2.99,4.094-5.952,8.287-9.869,11.674-12.9,11.351-34.374,19.753-53.368,27.23-8.464,3.282-16.344,6.4-23.236,9.66-7.283,3.376-13.856,6.657-18.6,11.252l.353,1.3c4.718-4.7,11.362-8.1,18.839-11.536,6.822-3.136,14.8-6.279,23.139-9.633,19.091-7.5,40.734-16.062,53.8-27.569,3.987-3.515,7.118-7.864,10.107-11.958,6.12-8.443,11.834-16.446,24.457-17.568C-5.838,14.988,7.742,20.5,20.949,25.8l3.08,1.28c14.025,5.6,30.543,10.713,46.541,6.144l.1-.028c13.364-3.817,15.3-10.633,17.421-17.934,1.2-4.121,2.461-8.37,5.9-12.374,3.055-3.464,7.716-5.659,12.208-7.7,5.51-2.546,11.146-5.02,14.184-10.1a119.509,119.509,0,0,0,5.582-11.2c3.092-6.822,6.295-14,12.1-19.331,7.248-6.606,16.21-9.6,29.062-9.489A45.884,45.884,0,0,1,179.738-52.6c6.7,1.864,12.992,3.739,21.062-.617,4.312-2.312,6.977-5.665,9.545-8.989,3.829-4.873,7.519-9.49,16.061-9.77,6.037-.213,12.082.76,17.9,1.689,7.8,1.229,15.84,2.6,24.028,1.02a81.389,81.389,0,0,0,10.8-3.193A68.085,68.085,0,0,1,290.842-75.8l-.271-1Z" transform="translate(176.18 160.464)" fill="#c7dac0"/>
      <path id="Path_3138" data-name="Path 3138" d="M441.449,236.838c-9.151-.41-20.552-9.139-27.159-15.675-1.866-1.843-3.785-3.886-5.554-5.756-7.651-8.073-15.608-16.491-27.1-20.119-8.4-2.677-19.606-.987-27.456,4.171-5.629,3.659-8.721,8.538-8.784,13.739a24.023,24.023,0,0,0,2.043,8.7c1.3,3.625,2.442,7.077,1.556,10.786-1.356,5.463-6.722,8.939-12.323,12.7-4.373,2.869-8.817,5.865-11.61,9.9-5.042,7.379-2.984,15.754-1.1,23.856a22.267,22.267,0,0,1,.581,2.534c.919,4.165,3.246,18.186-7.222,23.768s-22.139-2.964-28.934-12.145c-7.764-10.417-15.408-15.36-23.239-15.175-6.678.18-13.549,4.3-20.221,12.255-15.45,18.234-30.518,25.454-53.82,25.955-5.23.09-10.347-.176-15.171-.526-10.775-.594-21.009-1.126-32.617,2.189-11.386,3.36-22.1,8.04-32.324,12.58C94.67,337.832,79.269,344.606,60.7,346.67c-3.062.335-6.151.569-9.143.776-7.209.547-14.612,1.15-21.76,3.084-9.294,2.547-20.212,8.8-23.253,18.52C4.386,375.821,6.72,382.5,8.9,389c2.291,6.9,4.474,13.406,1.968,20.063A20,20,0,0,1,9.588,411.7l1.756-.5c.254-.612.606-1.253.861-1.864,2.717-7.039.3-14.016-1.936-20.721-2.128-6.3-4.311-12.806-2.293-19.322,2.857-9.239,13.439-15.177,22.245-17.584,7.05-1.906,14.357-2.481,21.44-3.1,2.992-.207,6.081-.441,9.143-.776,18.861-2.148,35.112-9.273,50.778-16.231,10.225-4.54,20.841-9.192,32.129-12.525,11.191-3.3,21.424-2.772,32.1-2.15,4.922.322,10.039.588,15.366.47,23.523-.456,39.416-8.127,54.935-26.489,6.462-7.569,12.845-11.552,19.1-11.72,7.289-.247,14.739,4.752,22.143,14.624,7.1,9.526,19.393,18.433,30.784,12.372,11.291-6.033,8.871-20.783,7.9-25.149-.217-.8-.364-1.732-.581-2.534-1.924-7.873-3.831-16.075.93-22.942,2.557-3.754,6.9-6.723,11.2-9.463,5.6-3.76,11.4-7.575,12.871-13.395,1.027-3.965-.3-7.69-1.595-11.315a27.318,27.318,0,0,1-1.963-8.4c-.05-4.845,2.83-9.339,8.123-12.687,7.417-4.818,18.208-6.5,26.162-3.909,11.144,3.512,18.977,11.857,26.6,19.83,1.794,1.971,3.688,3.914,5.554,5.757,1.989,1.915,16.405,15.939,28.518,16.043l-.325-1.2Z" transform="translate(53.122 -50.114)" fill="#c7dac0"/>
    </g>
  </g>
</svg>
