<svg xmlns="http://www.w3.org/2000/svg" xmlns:xlink="http://www.w3.org/1999/xlink" width="482" height="770" viewBox="0 0 482 770">
  <defs>
    <clipPath id="clip-path">
      <rect id="Rectangle_3530" data-name="Rectangle 3530" width="482" height="275" rx="32" transform="translate(717 409)" fill="#ebffe4"/>
    </clipPath>
  </defs>
  <g id="Group_60589" data-name="Group 60589" transform="translate(-719 -155)">
    <rect id="Rectangle_3517" data-name="Rectangle 3517" width="482" height="770" rx="32" transform="translate(719 155)" fill="#fff"/>
    <g id="Mask_Group_7" data-name="Mask Group 7" transform="translate(2 -254)" opacity="0.39" clip-path="url(#clip-path)" style="mix-blend-mode: normal;isolation: isolate">
      <g id="Group" transform="translate(560.399 184.883)" opacity="0.59">
        <g id="Group_60335" data-name="Group 60335" transform="translate(0.112 0.415)" opacity="0.7">
          <path id="Path_15133" data-name="Path 15133" d="M347.507-451.506a56.38,56.38,0,0,0-14.593,6.106c-127.333,78.851-167.039,76.33-202.025,74.1-18.616-1.242-36.311-2.3-65.125,8.614-16.456,6.191-30.869,14.034-44.916,21.624-25.183,13.6-48.961,26.505-80.264,27.7-3.591.131-7.355.163-11.118.194-14.44.249-29.358.336-43.084,5.9-20.54,8.252-32.9,24.75-44.965,40.717-6.16,8.318-12.687,16.89-20.165,24.094-20.908,20.281-37.406,18.286-56.456,15.976-9.323-1.213-19.05-2.31-30.137-.932l.225.83c10.953-1.34,20.545-.2,30,.97,18.608,2.287,36.027,4.466,57.4-16.245,7.478-7.2,13.967-15.914,20.165-24.094,11.932-15.929,24.193-32.25,44.464-40.425,13.494-5.345,28.375-5.571,42.68-5.781,3.629.007,7.392-.025,11.118-.194,31.61-1.129,55.522-14.07,80.668-27.811,13.912-7.551,28.325-15.394,44.781-21.585,28.679-10.875,46.1-9.741,64.682-8.638,35.12,2.191,74.961,4.674,202.7-74.293a54.043,54.043,0,0,1,14.189-5.991Z" transform="translate(265.339 451.506)" fill="#34ca00"/>
          <path id="Path_15134" data-name="Path 15134" d="M355.337-419.069a54.219,54.219,0,0,0-23.554,8.368c-5.438,3.491-10.044,6.3-14.42,8.888-22.842,13.679-42.445,22.707-59.74,30.628-22.588,10.328-41.512,18.118-57.789,23.363-28.113,9.222-45.2,9.333-61.884,9.329-2.88.077-5.8.016-8.68.094-16.572.411-32.111,1.421-54.229,10.273-2.214.93-4.428,1.861-6.874,3.007a356.375,356.375,0,0,0-32.91,17.747C22.5-299.852,10.373-292.663-3.7-287.3a120.711,120.711,0,0,1-40.853,8.241c-3.9.07-7.8.14-11.6.033-13.632.018-27.705.013-40.713,4.474-20.264,7.129-32.9,22.067-45.244,36.474-6.153,7.273-12.4,14.722-19.665,21.119-20.684,18.429-36.441,17.564-54.578,16.483-10.19-.667-20.785-1.218-33.36,1.629-1.519.285-3.135.746-4.885,1.246a31.194,31.194,0,0,0-3.426,1.277l.225.83a33.85,33.85,0,0,1,3.426-1.277c1.616-.462,3.231-.923,4.75-1.208,12.306-2.77,22.9-2.218,32.957-1.513,17.56,1.1,34.2,2.007,55.348-16.852a204.6,204.6,0,0,0,19.665-21.119c12.21-14.369,24.748-29.129,44.743-36.182,12.7-4.522,26.775-4.517,40.272-4.5,3.764-.031,7.833,0,11.732-.071a123.157,123.157,0,0,0,41.257-8.356c14.2-5.4,26.194-12.55,39.088-20.108,10.254-6.059,20.875-12.372,32.775-17.709a65.693,65.693,0,0,1,6.912-2.869c21.984-8.813,37.388-9.785,53.825-10.157,2.88-.077,5.8-.017,8.68-.094,16.684,0,34.041-.184,62.153-9.406,16.373-5.422,35.336-13.075,57.924-23.4,17.294-7.921,37.032-16.987,59.874-30.666,4.241-2.553,8.847-5.359,14.42-8.889a53.007,53.007,0,0,1,23.324-8.152l-.263-.969Z" transform="translate(260.208 429.03)" fill="#34ca00"/>
          <path id="Path_15135" data-name="Path 15135" d="M367.235-382.113c-11.067-1.758-23.671,2.587-33,8.831-5.4,3.629-9.739,6.359-13.881,8.735-18.272,10.734-33.807,17.109-48.942,23.369-3.117,1.338-6.41,2.576-9.529,3.914-24.353,10.236-41.775,17.15-56.153,22.448-26.037,9.375-42.039,10.816-57.407,11.926-2.844.216-5.686.431-8.492.786-1.286.069-2.536.277-3.957.385-13.3,1.263-28.415,2.75-48.244,10.948-2.079.892-4.294,1.823-6.6,2.93C70.139-282.5,60.9-276.43,51.9-270.579c-12.206,7.958-23.813,15.447-38.691,21.038a117.507,117.507,0,0,1-39.716,7.618c-4.033.108-8.275-.021-12.345-.051-12.824-.213-25.955-.487-38.17,3.152-19.988,6.007-32.475,18.815-45.755,32.446-5.915,6.012-12.024,12.378-18.8,17.891-20.423,16.714-35.3,16.94-52.527,17.09-9.7.087-19.527.212-31.317,3.281L-230-166.807a46.93,46.93,0,0,0-15.534,9.058l.225.83a42.1,42.1,0,0,1,15.669-9.1c1.616-.462,3.06-1.023,4.578-1.308,11.655-3.031,21.486-3.156,31.182-3.242,16.647-.134,32.411-.314,53.2-17.282a254.019,254.019,0,0,0,18.934-17.929c13.183-13.454,25.535-26.224,45.254-32.154,11.946-3.561,25.04-3.426,37.863-3.213,4.07.03,8.312.16,12.345.051a115.842,115.842,0,0,0,40.12-7.733c14.916-5.453,26.485-13.08,38.826-21.077a279.261,279.261,0,0,1,29.027-17.085,68.7,68.7,0,0,1,6.47-2.891c19.56-8.121,34.68-9.607,47.838-10.832,1.289-.069,2.671-.316,3.96-.385,2.841-.216,5.821-.47,8.491-.786,15.464-1.287,31.5-2.589,57.676-12,14.548-5.2,31.8-12.212,56.153-22.448,3.12-1.338,6.275-2.538,9.395-3.876,15.131-6.26,30.67-12.635,49.074-23.408,4.146-2.376,8.447-5.244,13.845-8.873,9.2-6.205,21.84-10.412,32.772-8.616l-.263-.968Z" transform="translate(251.459 403.695)" fill="#34ca00"/>
          <path id="Path_15136" data-name="Path 15136" d="M383.189-340.9a11.949,11.949,0,0,0-2.273-1.437c-13.277-7.238-30.078-1.247-41.4,6.757-5.264,3.591-9.332,6.243-13.343,8.581-16.4,9.6-30.448,14.511-44.094,19.3-4.367,1.546-8.6,3.053-12.8,4.7-19.208,7.275-34.917,13.551-48.777,19.149l-5.641,2.207c-24.1,9.567-38.784,12.122-53.067,14.562l-8.3,1.478c-2.77.492-5.671,1.023-8.746,1.454-11.686,1.847-25.062,3.879-41.256,11.039-2.079.892-4.121,1.922-6.3,2.991-9.9,5.213-18.025,11.111-25.915,16.793C59.76-224.966,48.8-217.215,33.484-211.647A110.991,110.991,0,0,1-5.1-204.652c-4.34.047-8.888-.144-13.131-.274-11.881-.482-24.167-.848-35.589,1.967-19.981,4.962-32.978,16.425-46.8,28.573-5.5,4.851-11.239,9.918-17.529,14.546-20.162,15-34.878,16.372-50.477,17.7-9.067.8-18.4,1.679-29.543,5.01-1.346.385-2.79.946-4.406,1.408-11.123,3.922-21.241,12.626-26.241,22.55l.337,1.245c4.655-10.124,14.968-19.181,26.091-23.1,1.578-.6,3.06-1.023,4.406-1.407,11-3.292,20.341-4.17,29.273-4.933,15.733-1.363,30.584-2.773,51.016-17.851,6.289-4.629,12.025-9.7,17.529-14.546,13.73-11.971,26.592-23.4,46.438-28.319,11.154-2.739,23.439-2.372,35.186-1.852,4.377.091,8.791.321,13.265.236a112.237,112.237,0,0,0,38.849-7.072c15.589-5.645,26.508-13.534,38.16-21.93,7.89-5.682,16.012-11.579,25.78-16.754a66.233,66.233,0,0,1,6.163-2.953c16.059-7.121,29.3-9.115,40.988-10.962,3.075-.431,5.976-.962,8.743-1.455l8.306-1.477c14.279-2.44,29.1-5.033,53.336-14.638l5.641-2.207c13.86-5.6,29.569-11.874,48.777-19.149,4.2-1.646,8.429-3.153,12.834-4.561,13.645-4.791,27.828-9.737,44.366-19.379,4.008-2.337,8.076-4.99,13.3-8.719,11.091-7.789,27.487-13.665,40.286-6.588a15.712,15.712,0,0,1,3.173,2.075l-.377-1.383Z" transform="translate(239.74 378.114)" fill="#34ca00"/>
          <path id="Path_15137" data-name="Path 15137" d="M411.035-289.348q-.888-.865-1.774-1.729c-1.567-1.491-2.937-3.335-4.367-4.865-3.048-3.751-6.266-7.6-11.243-9.906-15.754-7.276-32.91,3.289-39.565,8.171a116.2,116.2,0,0,1-12.8,8.427c-15.167,8.8-28.229,12.535-40.887,16.15-4.845,1.385-9.694,2.769-14.6,4.469-18.721,6.392-36.045,13.128-52.779,20.442a316.156,316.156,0,0,1-49.435,17.251l-7.406,2.115c-3.772,1.077-8.019,1.992-12.443,2.808-10.322,2.054-21.993,4.493-35.262,10.668a66.4,66.4,0,0,0-5.991,3.053c-9.02,5.259-16.162,11.026-23.072,16.577-10.731,8.58-20.73,16.653-36.588,22.375a106.921,106.921,0,0,1-37.308,6.333c-4.646-.014-9.5-.267-14.223-.558-10.9-.613-22.244-1.248-32.74.706-20.415,3.893-34.326,14.127-48.931,25.006-4.824,3.614-9.782,7.266-15.182,10.9-19.9,13.286-33.741,15.749-48.427,18.3a175.149,175.149,0,0,0-27.634,6.7c-1.444.561-2.887,1.123-4.234,1.507-11.145,4.376-21.4,13.117-26.57,22.942-3.072,5.8-3.525,10.547-4.017,15.158a32.834,32.834,0,0,1-2.3,10.792l-.291.53.375,1.384a13.072,13.072,0,0,0,.837-1.73,40.073,40.073,0,0,0,2.4-10.969c.491-4.612.983-9.224,3.957-14.844,4.977-9.471,15.23-18.212,26.106-22.511a41.586,41.586,0,0,1,4.1-1.469,174.089,174.089,0,0,1,27.5-6.662c14.82-2.593,28.795-5.094,48.793-18.558,5.4-3.629,10.358-7.281,15.182-10.9,14.643-10.741,28.419-20.936,48.565-24.753C-10.868-167.946.3-167.41,11.2-166.8c4.721.291,9.577.544,14.223.558a109.338,109.338,0,0,0,37.749-6.311C79.206-178.172,89.3-186.422,100.034-195c6.91-5.551,14.052-11.317,22.937-16.538a57.173,57.173,0,0,1,5.856-3.014c13.134-6.137,24.708-8.4,34.995-10.591,4.516-.992,8.668-1.731,12.574-2.847l7.406-2.115A318.412,318.412,0,0,0,233.375-247.4c16.732-7.313,34.056-14.05,52.779-20.442,4.905-1.7,9.619-3.046,14.6-4.469,12.79-3.654,25.986-7.423,41.117-16.365a151,151,0,0,0,12.766-8.565c6.52-4.844,23.312-15.155,38.587-8.04,4.8,2.205,7.813,5.817,10.9,9.706a58.555,58.555,0,0,0,4.4,5c.975.914,1.947,1.829,2.883,2.605Z" transform="translate(218.869 352.298)" fill="#34ca00"/>
          <path id="Path_15138" data-name="Path 15138" d="M423.678-248.583a48.135,48.135,0,0,1-13.4-8.245c-1.528-1.352-2.919-2.744-4.448-4.1-3.547-3.458-6.751-6.717-11.788-8.706-11.165-4.264-23.8-1.1-37.83,9.762a98.476,98.476,0,0,1-12.266,8.273c-15.939,9.173-28.992,11.859-42.855,14.775-3.709.762-7.555,1.562-11.363,2.5-20.288,4.9-36.407,12.337-51.179,19.388-22.439,10.881-35.162,15.857-48.655,21.2l-3.658,1.492a116.463,116.463,0,0,1-15.215,4.346c-9.1,2.3-19.444,4.808-30.327,10.152-1.907.992-3.68,1.945-5.684,3.114-8.309,5.205-14.568,11.018-20.633,16.476-9.639,8.865-18.852,17.16-35.017,22.821a100.964,100.964,0,0,1-36.209,5.573c-5.125-.176-10.46-.59-15.488-.942-9.921-.743-20.149-1.549-29.546-.355-21.6,2.741-36.153,11.668-53.078,22.017-3.47,2.184-7.075,4.406-10.852,6.528C-84.88-90.952-97.843-87.4-111.578-83.475a234.6,234.6,0,0,0-25.994,8.468,37.469,37.469,0,0,0-3.89,1.707c-10.532,4.5-20.59,12.887-26.294,21.82A42,42,0,0,0-173.2-37.851a36.138,36.138,0,0,1-3.638,10.132,39.08,39.08,0,0,1-5.966,7.964,53.191,53.191,0,0,1-4.076,3.7l.225.83a32.665,32.665,0,0,0,4.577-3.99,40.606,40.606,0,0,0,6.063-8.141,45.814,45.814,0,0,0,3.735-10.308,43.593,43.593,0,0,1,5.349-13.453c5.606-8.756,15.433-16.929,25.83-21.389a38.086,38.086,0,0,1,3.927-1.569,268.735,268.735,0,0,1,25.86-8.43c13.734-3.923,26.833-7.515,46.339-19.049,3.74-2.26,7.344-4.483,10.852-6.528,16.791-10.311,31.345-19.238,52.674-21.9,9.4-1.193,19.049-.373,29.411.394,5.028.353,10.363.766,15.622.9A102.471,102.471,0,0,0,80.2-134.376c16.472-5.6,25.647-14.033,35.421-22.936,6.065-5.459,12.189-11.232,20.5-16.438a54.389,54.389,0,0,1,5.55-3.076c10.883-5.344,21.094-7.814,30.056-10.075a118.4,118.4,0,0,0,15.35-4.384l3.658-1.492c13.492-5.345,26.082-10.282,48.658-21.2,14.734-7.19,30.757-14.449,51.045-19.35,3.808-.938,7.651-1.739,11.363-2.5,13.86-2.916,27.051-5.64,43.086-14.99a108.36,108.36,0,0,0,12.362-8.45c13.7-10.472,26.031-13.7,36.754-9.454,4.863,1.89,8.067,5.148,11.617,8.607a52.217,52.217,0,0,0,4.484,4.235,58.429,58.429,0,0,0,14.4,8.706l-.413-1.522Z" transform="translate(210.348 326.751)" fill="#34ca00"/>
          <path id="Path_15139" data-name="Path 15139" d="M431.295-212.75a63.662,63.662,0,0,1-23.835-10.333c-1.454-1.076-2.943-2.29-4.394-3.366-3.742-3.1-7.412-5.932-12.505-7.607-14.255-4.425-26.731,3.61-36,11.176a83.548,83.548,0,0,1-11.728,8.119c-13.433,7.712-25.154,9.421-36.338,10.976a149.128,149.128,0,0,0-16.436,3.055c-19,4.831-35.228,10.807-49.543,18.473-11.539,6.129-20,10.781-27.553,15.025-7.187,3.991-13.373,7.4-20.1,10.957-4.684,2.53-10.51,4.045-17.109,5.93-8.079,2.308-17.1,4.884-26.271,9.59-1.773.953-3.508,2.045-5.378,3.176-7.561,5.29-13.109,11.048-18.291,16.553-8.584,9.01-16.7,17.59-33.348,23.089a94.116,94.116,0,0,1-34.937,4.911c-5.739-.3-11.552-.874-17.194-1.349-9.113-.974-17.748-1.787-26.179-1.317-24.449,1.319-41.286,9.855-62.439,20.666l-1.271.661c-18.168,9.512-29.986,14.08-42.4,19.117-7.719,3.1-15.573,6.237-25.432,10.543-1.04.446-2.177,1.069-3.216,1.515l-.5.292c-10.15,4.837-19.82,12.518-25.883,20.659a64.756,64.756,0,0,0-6.7,12.2,56.211,56.211,0,0,1-5.075,9.648,36.717,36.717,0,0,1-6.46,7.211A86.831,86.831,0,0,1-180.187,16.91l.225.83c5.512-3.214,11.024-6.428,15.332-10.342A49.355,49.355,0,0,0-158.073.01,45.583,45.583,0,0,0-152.9-9.814a52.482,52.482,0,0,1,6.607-12.023c5.966-7.964,15.5-15.607,25.516-20.405l.5-.292c1.174-.484,2.177-1.069,3.216-1.515,9.686-4.406,17.675-7.582,25.3-10.5A419.53,419.53,0,0,0-48.918-73.649l1.271-.661c21.018-10.773,37.72-19.27,62.034-20.551,8.3-.432,16.932.381,26.045,1.355,5.679.614,11.493,1.189,17.194,1.349a96.319,96.319,0,0,0,35.341-5.026c16.876-5.714,25-14.294,33.715-23.343,5.182-5.5,10.633-11.086,18.194-16.376a45.165,45.165,0,0,1,5.243-3.137c9.035-4.668,18.057-7.244,26-9.514,6.464-1.846,12.523-3.577,17.378-6.007,6.858-3.6,13.044-7.005,20.1-10.957,7.591-4.106,16.014-8.9,27.553-15.025,14.183-7.628,30.407-13.6,49.274-18.4a149.769,149.769,0,0,1,16.3-3.017c11.318-1.594,23-3.441,36.745-11.091a81.965,81.965,0,0,0,11.823-8.3c9.168-7.389,21.374-15.347,35.016-11.045,4.923,1.575,8.456,4.441,12.161,7.407,1.451,1.076,2.806,2.328,4.43,3.5a66.1,66.1,0,0,0,24.622,10.556Z" transform="translate(205.656 301.709)" fill="#34ca00"/>
          <path id="Path_15140" data-name="Path 15140" d="M438.1-179.224a74.44,74.44,0,0,1-33.493-10.109c-1.415-.938-2.794-1.737-4.208-2.674-4.205-2.674-8.067-5.148-13.358-6.47-13.992-3.456-24.643,4.355-34.259,12.767a59.032,59.032,0,0,1-11.186,7.965c-12.837,7.243-23.228,7.976-34.465,8.8a117.17,117.17,0,0,0-16.869,1.987c-18.822,3.886-34.412,9.531-47.769,17.52a368.358,368.358,0,0,0-31.1,20.66c-4,2.929-7.89,5.682-12.057,8.511-4.9,3.337-11.459,5.36-18.386,7.636-7.1,2.177-15.238,4.8-22.927,9.082a51.7,51.7,0,0,0-5.071,3.237c-6.985,5.274-11.65,11.079-16.256,16.568-7.529,9.156-14.46,17.843-31.373,23.419a91.187,91.187,0,0,1-33.8,4.288c-6.487-.383-12.952-1.219-19.282-2.094a211.328,211.328,0,0,0-22.2-2.155c-24.361-.494-42.291,5.074-63.49,14.11a493.7,493.7,0,0,0-45.88,22.347c-5.587,2.937-11.406,6.09-18.3,9.55a16.087,16.087,0,0,0-2.274,1.246l-1.137.623A95.414,95.414,0,0,0-126.616,7.266a86.1,86.1,0,0,0-7.73,10.555,78.9,78.9,0,0,1-6.646,9.2,46.227,46.227,0,0,1-6.82,6.42c-5.115,4.144-11.607,7.489-17.793,10.9-2.775,1.538-5.587,2.937-8.19,4.575l.225.83c2.64-1.5,5.55-3.076,8.459-4.652,6.357-3.307,12.812-6.79,18.062-10.972a60.023,60.023,0,0,0,6.917-6.6,59.887,59.887,0,0,0,6.743-9.379,74.074,74.074,0,0,1,7.633-10.378,96.228,96.228,0,0,1,25.2-19.421l1.137-.623c.77-.369,1.5-.876,2.274-1.246,6.9-3.46,12.715-6.613,18.3-9.55C-65.392-30.195-53.754-36.5-32.96-45.421-12.031-54.38,5.9-59.948,30.126-59.415a211.324,211.324,0,0,1,22.2,2.155c6.33.875,12.93,1.673,19.416,2.056a90.592,90.592,0,0,0,34.241-4.266c17.182-5.653,24.248-14.379,31.874-23.712,4.471-5.451,9-11.217,15.987-16.491a42.311,42.311,0,0,1,4.936-3.2c7.554-4.245,15.558-6.829,22.657-9.005s13.621-4.338,18.655-7.713c4.166-2.83,8.064-5.582,12.057-8.511a351.793,351.793,0,0,1,30.969-20.622c13.262-7.812,28.851-13.457,47.539-17.3a118.445,118.445,0,0,1,16.735-1.948c10.795-.848,21.936-1.5,34.866-8.916a69.885,69.885,0,0,0,11.285-8.142c9.425-8.058,19.8-15.792,33.317-12.5,5.121,1.221,8.982,3.7,13.053,6.408,1.415.938,2.791,1.737,4.205,2.674A75.518,75.518,0,0,0,438.5-178.294l-.263-.969Z" transform="translate(201.176 276.76)" fill="#34ca00"/>
          <path id="Path_15141" data-name="Path 15141" d="M444.217-148.054a32.467,32.467,0,0,1-3.688.308c-12.7.794-25.792-2.024-39.075-8.217-1.34-.661-2.507-1.222-3.846-1.882-4.534-2.282-8.9-4.464-14.384-5.432-14.306-2.472-23.483,5.962-32.426,14.181a54.672,54.672,0,0,1-10.513,7.773c-12.1,6.736-22.142,6.623-32.626,6.486a97.433,97.433,0,0,0-17.3.918c-18.778,2.978-33.463,8.216-46.169,16.466-12.571,8.212-20.551,15.708-28.029,22.912-3.44,3.367-6.82,6.42-10.469,9.549-4.845,4.067-11.737,6.482-19.029,9.012-6.62,2.338-13.51,4.753-19.986,8.69a41.474,41.474,0,0,0-4.764,3.3c-6.506,5.436-10.326,11.148-14.183,16.721-6.339,9.263-12.215,18.1-29.3,23.573a85.956,85.956,0,0,1-32.663,3.665c-7.407-.567-15-1.826-22.155-3.062-6.1-1.09-11.852-1.981-17.531-2.595-23.868-2.424-42.2-.468-63.269,6.892C-36.551-12.074-47.448-4.639-58.906,3.4c-5.631,3.844-11.5,7.9-18.645,12.033-.5.292-1,.584-1.638.915-.5.292-1.137.623-1.772.954A144.679,144.679,0,0,0-106.12,35.82a111.887,111.887,0,0,0-8.255,8.618c-2.8,3.037-5.473,6.035-8.853,9.087a84.846,84.846,0,0,1-7.276,5.8,141.507,141.507,0,0,1-17.652,9.812c-3.949,2.022-7.667,3.829-11.04,5.836-3.007,1.753-5.782,3.291-8.384,4.929l.225.83c2.775-1.538,5.647-3.253,8.654-5.006,3.373-2.007,7.09-3.814,11.04-5.836,6.126-3.091,12.521-6.259,17.749-9.988a75.148,75.148,0,0,0,7.411-5.843,116.673,116.673,0,0,0,8.988-9.126c2.475-2.645,4.912-5.428,8.12-8.58a136.8,136.8,0,0,1,24.926-18.3c.636-.331,1.137-.623,1.772-.954.5-.292,1.137-.623,1.638-.915C-69.906,12.061-64.043,8-58.449,4.018c11.5-7.9,22.257-15.3,41.481-21.984,20.8-7.283,39-9.2,62.865-6.777,5.679.614,11.3,1.543,17.4,2.633,7.288,1.2,14.748,2.5,22.29,3.024a87.8,87.8,0,0,0,33.1-3.642c17.489-5.592,23.5-14.463,29.936-23.9,3.723-5.535,7.543-11.247,13.952-16.506a33.949,33.949,0,0,1,4.629-3.26c6.342-3.9,13.269-6.175,19.754-8.475,7.43-2.569,14.453-5.022,19.4-9.266,3.649-3.129,6.99-6.32,10.469-9.549,7.612-7.242,15.32-14.661,27.894-22.873s27.12-13.411,45.763-16.351a94.209,94.209,0,0,1,17.037-.841c10.615.1,20.791.173,33.161-6.64a54.9,54.9,0,0,0,10.747-7.988c9.176-8.434,17.791-16.261,31.483-13.911,5.312.867,9.541,3.088,14.076,5.37,1.34.661,2.509,1.222,3.849,1.882,13.454,6.293,26.683,9.072,39.514,8.24a31.672,31.672,0,0,0,3.957-.385l-.224-.83Z" transform="translate(196.82 252.093)" fill="#34ca00"/>
          <path id="Path_15142" data-name="Path 15142" d="M449.848-118.352a81.588,81.588,0,0,1-12.993,2.37c-14.68,1.51-28.382-2.477-38.512-6.142-.96-.322-2.088-.745-3.048-1.068-5.169-1.951-10-3.7-15.811-4.278-13.43-1.381-20.871,5.961-28.639,13.7-.7.646-1.256,1.253-1.953,1.9a49,49,0,0,1-9.975,7.619c-11.638,6.305-21.021,5.408-30.981,4.526-5.506-.514-11.183-1.128-17.506-.365-18.464,1.995-32.647,6.94-44.53,15.551-11.151,8.1-17.886,16.437-24.392,24.556-3.155,3.882-6.078,7.549-9.443,11.194-4.621,4.9-11.7,7.666-19.328,10.588-5.907,2.284-12.087,4.645-17.524,8.136a33.47,33.47,0,0,0-4.42,3.5c-5.893,5.558-9.1,11.393-12.208,17.051-5.15,9.371-9.97,18.35-27.265,23.588a79.623,79.623,0,0,1-31.429,2.866,220.5,220.5,0,0,1-26.368-4.691C69.5,11.3,65.815,10.567,62,9.869,38.893,5.438,20.337,3.881-1.05,9.543c-18.829,4.931-28.775,13.734-39.356,22.868A156.915,156.915,0,0,1-57.449,46.073l-.6.469c-.733.508-1.6,1.053-2.468,1.6-10.1,6.613-18.166,12.195-24.747,17.353-2.625,2.091-5.018,3.967-7.239,5.943a137.122,137.122,0,0,1-12.467,9.672c-2.8,1.991-5.265,3.591-7.771,5.052-5.378,3.176-11.444,5.952-17.338,8.828-3.852,1.846-7.607,3.514-11.152,5.421-6.762,3.422-12.581,6.575-17.861,9.574-.77.369-1.5.876-2.274,1.246l.225.83c.867-.546,1.638-.915,2.506-1.461,5.28-3,11.1-6.152,17.861-9.573,3.583-1.769,7.166-3.537,11.018-5.383a161.424,161.424,0,0,0,17.338-8.828,89.535,89.535,0,0,0,7.905-5.09c4.629-3.26,8.413-6.427,12.6-9.711,2.258-1.838,4.614-3.852,7.239-5.943,6.581-5.159,14.643-10.741,24.747-17.353.868-.546,1.6-1.053,2.468-1.6l.6-.469a151.128,151.128,0,0,0,17.178-13.7c10.447-9.1,20.258-17.86,38.817-22.714,21.118-5.585,39.539-3.99,62.51.479,3.681.737,7.535,1.574,11.523,2.373,8.628,1.859,17.562,3.778,26.541,4.791,11.455,1.051,21.944.142,31.833-2.981C149.206,9.4,154.161.388,159.408-9.16c2.975-5.619,6.219-11.316,12.014-16.7a29.829,29.829,0,0,1,4.188-3.283c5.437-3.491,11.48-5.813,17.391-8.1,7.756-2.961,14.976-5.768,19.693-10.842,3.365-3.644,6.422-7.35,9.577-11.232,6.505-8.118,13.107-16.413,24.257-24.517,11.749-8.573,25.7-13.3,44.031-15.259,6.185-.724,11.865-.11,17.372.4,10.131.982,19.648,1.841,31.555-4.541a44.106,44.106,0,0,0,10.208-7.835c.7-.646,1.391-1.292,1.953-1.9,7.672-7.557,14.841-14.823,27.831-13.465,5.68.614,10.5,2.365,15.64,4.178.957.323,2.088.745,3.045,1.068,10.3,3.764,24.006,7.751,38.952,6.164a101.583,101.583,0,0,0,13.13-2.409l-.263-.968Z" transform="translate(192.463 227.095)" fill="#34ca00"/>
          <path id="Path_15143" data-name="Path 15143" d="M454.209-90.779l-6.191,1.769A122.919,122.919,0,0,1,432.246-85.1c-12.7,1.84-24.742-.833-37.986-4.2l-.957-.323c-6.212-1.505-11.982-2.988-18.565-3.194-12.861-.351-19.128,6.507-25.723,13.756-.987,1.176-2.145,2.253-3.132,3.429a35.413,35.413,0,0,1-9.437,7.466c-11,5.975-19.863,4.332-29.336,2.566-5.521-1.106-11.315-2.135-17.749-1.787-18.323.911-31.869,5.525-42.93,14.5-9.766,7.858-15.356,17.206-20.791,26.062-2.6,4.32-5.435,8.856-8.476,13.153C212.9-7.992,205.626-4.87,197.942-1.632c-5.333,2.269-10.8,4.576-15.429,7.836a22.159,22.159,0,0,0-4.113,3.56c-5.451,5.581-7.872,11.639-10.27,17.243-3.96,9.478-7.629,18.426-25.058,23.7a72.632,72.632,0,0,1-30.292,2.243c-11.4-1.366-22.433-4.623-32.991-7.718L76.78,44.3c-20.638-6.03-40.281-11.6-62.866-7.682-18.531,3.355-27.6,13.25-37.059,23.851C-27.728,65.509-32.506,70.9-38.526,75.45l-2.894,2.168c-7.524,5.428-16.027,10.987-24.471,16.231-7.539,4.836-14.479,9.2-22.438,13.564-3.044,1.615-5.722,2.976-8.265,4.3-5.49,2.761-11.227,5.145-16.792,7.628-3.89,1.707-7.682,3.238-11.265,5.006-7.106,3.222-12.731,6.021-17.682,8.628-4.45,2.315-9.4,4.921-14.144,7.766l.225.83c4.839-3.022,9.79-5.628,14.376-7.981,4.951-2.607,10.479-5.229,17.682-8.628q5.43-2.446,11.265-5.006c5.6-2.346,11.437-4.906,16.792-7.628,2.543-1.322,5.355-2.722,8.265-4.3,7.958-4.36,14.9-8.727,22.438-13.564,8.272-5.344,16.948-10.8,24.471-16.231l2.894-2.168c6.155-4.59,10.933-9.979,15.479-15.153,9.5-10.463,18.431-20.319,36.557-23.559,22.279-3.978,41.787,1.629,62.29,7.7l3.008.93c10.731,3.2,21.768,6.452,33.3,7.78a74.532,74.532,0,0,0,30.7-2.358c18.006-5.292,21.734-14.555,25.791-24.21,2.4-5.6,4.722-11.485,10.038-17.028a23.32,23.32,0,0,1,3.881-3.345C187.6,3.558,192.932,1.29,198.3-.841c7.816-3.276,15.266-6.3,19.723-12.341,3.212-4.2,5.874-8.833,8.611-13.192,5.435-8.856,10.926-18.027,20.56-25.846,10.827-8.757,24.239-13.333,42.254-14.306,6.437-.347,12.093.72,17.444,1.726,9.607,1.728,18.637,3.471,30.045-2.62a40.329,40.329,0,0,0,9.8-7.719c1.122-1.215,2.145-2.253,3.132-3.429,6.362-7.034,12.493-13.854,24.816-13.349a78.37,78.37,0,0,1,18.3,3.271l.957.323c13.379,3.333,25.555,5.967,38.429,4.227a104.258,104.258,0,0,0,15.9-3.946l6.194-1.769Z" transform="translate(189.038 202.981)" fill="#34ca00"/>
          <path id="Path_15144" data-name="Path 15144" d="M459.1-75.326c-5.572.847-10.98,2.839-16.157,4.615A108.627,108.627,0,0,1,428.3-66.38c-11.037,2.108-21.966.312-32.593-1.423-8.171-1.244-16.549-2.725-25.02-2.393-12.5.441-17.788,7.167-23.306,14.11-3.446,4.413-7.125,9.041-12.712,11.978-10.537,5.544-18.873,3.155-27.822.644-5.5-1.559-11.174-3.218-17.853-3.248-18.317-.135-30.96,4.072-41.294,13.583-8.381,7.611-12.8,17.52-17,27.214A138.966,138.966,0,0,1,223.1,9.374c-3.864,6.619-11.509,9.995-18.846,13.432-6.473,2.891-13.038,5.96-17.45,11.1-4.972,5.743-6.682,11.746-8.43,17.611-2.965,9.939-5.384,18.679-23.023,23.718l-.135.038c-21.544,6.154-44.038-.837-63.226-8.473-1.474-.622-2.911-1.106-4.251-1.767-18.4-7.414-37.455-15.089-58.26-13.171-18.135,1.6-26.388,12.9-34.9,24.873-4.127,5.65-8.351,11.478-13.72,16.29-17.805,15.669-47.546,27.443-73.764,37.764-11.549,4.491-22.56,8.829-32.074,13.335-10.188,4.7-19.223,9.366-25.811,15.57l.263.968c6.513-6.481,15.72-11.049,25.87-15.886,9.552-4.368,20.428-8.667,31.94-13.3,26.352-10.359,56.093-22.133,74.033-37.84,5.5-4.851,9.728-10.679,13.817-16.468,8.41-11.793,16.432-22.878,34.126-24.5,20.671-1.88,39.552,5.7,57.819,13.148,1.474.622,2.911,1.106,4.251,1.767,19.36,7.736,42.026,14.826,63.839,8.6l.135-.038c18.178-5.192,20.851-14.6,23.718-24.364,1.65-5.688,3.36-11.692,8.235-17.258,4.179-4.92,10.783-7.85,17.118-10.7,7.51-3.337,15.251-6.89,19.349-13.725A122.557,122.557,0,0,0,231.3-5.34c4.229-9.555,8.689-19.326,16.8-26.86,10.1-9.3,22.513-13.287,40.522-13.214,6.544.068,12.179,1.589,17.545,3.186,9.123,2.612,17.764,5.062,28.669-.736,5.821-3.153,9.5-7.781,13.08-12.232,5.42-6.765,10.474-13.277,22.534-13.74,8.336-.294,16.678,1.05,24.849,2.293,10.759,1.7,21.825,3.454,33.033,1.446A112.506,112.506,0,0,0,443.24-69.6c5.312-1.815,10.585-3.769,16.161-4.615Z" transform="translate(185.049 190.848)" fill="#34ca00"/>
          <path id="Path_15145" data-name="Path 15145" d="M472.754-34.358a117.835,117.835,0,0,0-17.07,3.386,120.31,120.31,0,0,1-14.4,3.07c-10.241,1.286-20.1-.818-30.565-3.045-8.321-1.8-17.082-3.617-25.932-3.623-12.885.1-18.882,6.883-25.169,14.194-3.425,3.959-7.08,8.134-11.919,11.156a38.009,38.009,0,0,1-5.626,2.8c-6.679,2.653-12.164,1.686-18.434.5-1.361-.207-2.761-.553-4.256-.722a57.325,57.325,0,0,0-13.687-.712C295.129-6.728,287-5.15,280.3-2.043A45.36,45.36,0,0,0,265.713,8.382a53.963,53.963,0,0,0-8.841,13.407c-1.675,3.459-3.176,7.018-4.543,10.539-2.713,6.588-5.521,13.352-9.574,19.28-4.576,6.673-12.775,9.611-20.566,12.433-6.218,2.223-12.03,4.33-16.2,8.2-5,4.559-7.244,9.671-9.254,14.568-3.646,8.494-7,16.458-24.146,22.25-1.713.638-3.464,1.138-5.214,1.638-20.272,5.492-40.858.193-58.271-5.715-2.222-.707-4.482-1.552-6.877-2.358L98.7,101.4C82.856,95.938,64.754,89.631,45,91.7c-17.349,1.825-25.386,12.319-33.946,23.559-3.97,5.159-8.134,10.671-13.347,14.991C-19.975,145.284-48.811,156.65-74.258,166.6c-10.607,4.222-20.712,8.152-29.494,12.15-10.322,4.737-23.262,10.52-30.162,20.391-.426.569-.717,1.1-1.144,1.668l-1.166,2.122.337,1.245c.448-1.022,1.031-2.083,1.614-3.144a15.222,15.222,0,0,1,1.144-1.668c6.84-9.555,19.474-15.4,29.7-19.96,8.781-4,18.887-7.929,29.494-12.151,25.582-9.99,54.418-21.356,72.373-36.472,5.31-4.5,9.474-10.01,13.444-15.168,8.366-10.886,16.4-21.38,33.213-23.051,19.481-1.987,37.411,4.22,53.253,9.682l3.525,1.229c2.26.845,4.482,1.552,6.877,2.358,17.548,5.869,38.306,11.268,58.847,5.7,1.75-.5,3.636-1.039,5.349-1.677,17.549-5.907,21.158-14.54,24.744-22.719,2.047-4.758,4.154-9.832,9.059-14.214,3.942-3.66,9.754-5.767,15.834-7.951,8.064-2.9,16.4-5.876,21.033-12.864,4.014-6.066,6.823-12.83,9.535-19.418,1.367-3.521,3-7.118,4.543-10.539a55.692,55.692,0,0,1,8.746-13.23A43,43,0,0,1,280.79-1.29c6.6-2.93,14.566-4.607,25-5.2A65.482,65.482,0,0,1,319.2-5.7c1.5.169,2.9.514,4.256.722,6.407,1.152,12.024,2.081,19.11-.688a30.3,30.3,0,0,0,5.856-3.014c4.974-3.06,8.629-7.235,12.15-11.371,6.057-7.1,11.82-13.661,24.263-13.787,8.815-.132,17.441,1.726,25.762,3.523,10.029,2.2,20.458,4.293,30.873,3.107A128.731,128.731,0,0,0,456-30.319,101.106,101.106,0,0,1,473.077-33.7l-.188-.692Z" transform="translate(174.842 162.609)" fill="#34ca00"/>
          <path id="Path_15146" data-name="Path 15146" d="M489.538-5.471a145.239,145.239,0,0,0-17.447,2c-5.168.731-10.032,1.524-14.6,1.786-9.583.5-18.667-1.972-28.367-4.568-8.605-2.312-17.515-4.685-26.883-4.991-13.573-.3-20.339,6.853-27.4,14.533-3.269,3.467-6.634,7.111-10.8,9.941a57.8,57.8,0,0,1-5.207,3.276c-5.952,3.191-10.232,2.923-15.8,2.724-1.325-.069-2.65-.138-4.107-.168a94.64,94.64,0,0,0-13.214.495c-8.148.986-17.432,2.594-25.193,6.6A42.347,42.347,0,0,0,286.912,37.5a55.734,55.734,0,0,0-7.714,13.83c-1.053,2.537-1.971,5.035-2.853,7.672-2.815,7.81-5.728,15.8-10.881,22.485-5.381,6.9-14.171,9.265-22.558,11.511-5.557,1.439-10.711,2.762-14.509,5.338-5.267,3.591-7.807,7.6-10.543,11.955-4.366,6.911-8.828,14-25.075,20.428l-5.139,1.915c-20.668,7.245-41.185,3.267-58.605-1.595l-8.508-2.489-3.794-1.152c-16.882-5.016-34.415-10.293-53.379-8.006-16.429,2.01-24.384,11.735-32.9,22.067a94.483,94.483,0,0,1-13.07,13.869c-17.7,14.447-45.632,25.405-70.444,35.026-9.567,3.776-18.633,7.26-26.816,10.79-9.993,4.345-22.26,9.935-29.153,18.761-.426.569-.755.961-1.181,1.53-4.284,6.142-5.731,13.114-6.984,19.733l.562,2.075a.513.513,0,0,1,.06-.315c1.275-7.072,2.611-14.459,7.051-21.093.291-.53.755-.961,1.047-1.491,6.8-8.649,18.966-14.063,28.824-18.369,8.183-3.53,17.211-7.152,26.816-10.79,24.811-9.621,53.012-20.657,70.675-35.242,5.115-4.144,9.257-9.2,13.167-14.046,8.419-10.156,16.277-19.7,32.129-21.7,18.7-2.21,36.191,2.929,52.938,7.983l3.794,1.152c3.008.929,5.672,1.659,8.508,2.489,17.555,4.824,38.244,8.9,59.182,1.579,1.848-.677,3.561-1.315,5.273-1.954,16.651-6.544,21.4-14.163,25.576-20.72,2.638-4.182,5.18-8.187,10.214-11.563,3.664-2.537,8.818-3.86,14.243-5.26,8.249-2.208,17.617-4.585,23.192-11.842,5.115-6.827,8.162-14.852,10.98-22.662,1.014-2.675,1.932-5.174,2.853-7.672a53.885,53.885,0,0,1,7.481-13.614,40.254,40.254,0,0,1,13.244-11.087c7.63-3.968,16.777-5.538,24.789-6.485a88.983,88.983,0,0,1,13.041-.595c1.46.03,2.785.1,4.107.168,5.435.237,10.154.528,16.379-2.74a36.515,36.515,0,0,0,5.339-3.314,61.342,61.342,0,0,0,10.9-10.118c6.96-7.5,13.5-14.438,26.626-14.164,9.194.206,18.108,2.579,26.713,4.891,9.7,2.6,18.954,5.169,28.672,4.629a112.47,112.47,0,0,0,14.74-1.825A152.223,152.223,0,0,1,489.5-4.564l-.227-.83Z" transform="translate(161.506 146.449)" fill="#34ca00"/>
          <path id="Path_15147" data-name="Path 15147" d="M505.832,23.25c-5.665-.022-11.118.194-16.534.549-5.725.293-11.142.648-16.131.434-8.925-.283-17.375-3.086-26.3-6.052-8.889-2.827-17.988-5.892-27.873-6.5-14.432-.8-22.492,7.468-30.224,15.341a99.929,99.929,0,0,1-9.042,8.4c-1.7,1.23-3.356,2.6-4.822,3.614-5.363,3.767-8.88,4.176-13.953,4.73-.978.131-2.094.3-3.209.47-.843.092-1.824.223-2.8.354q-4.41.589-10.035,1.524C336.2,47.7,327.16,49.689,319.913,54a37.95,37.95,0,0,0-12.5,12.216,57.863,57.863,0,0,0-6.449,14.214c-.568,1.652-1,3.267-1.57,4.92-2.785,8.994-5.629,18.3-11.785,25.575-6.287,7.311-16.319,8.835-25.1,10.152-4.591.716-9.051,1.393-12.305,2.77-5.967,2.6-8.967,5.99-12.562,9.849-4.816,5.251-10.424,11.324-25.309,17.961-1.676.777-3.351,1.553-5.064,2.192-21.2,9.036-42.605,6.058-58.805,2.487-3.375-.676-6.652-1.528-10.1-2.481l-.786-.223c-1.572-.446-3.105-.753-4.542-1.237-16.387-4.262-33.216-8.548-51.568-6.138-15.546,2.055-23.516,11.189-31.988,20.614-3.888,4.39-7.873,8.956-12.794,12.747C19.1,193.429-8.063,204.018-31.97,213.232c-8.662,3.368-16.823,6.445-24.2,9.744-9.492,4.053-21.2,9.036-28.144,17.131A12.377,12.377,0,0,0-85.4,241.46c-4.725,6.119-6.517,12.892-8.249,19.349a81.776,81.776,0,0,1-3,9.8,50.387,50.387,0,0,1-2.279,4.973l.337,1.245a47.523,47.523,0,0,0,2.727-6,101.312,101.312,0,0,0,2.965-9.939c1.792-6.772,3.524-13.229,8.152-19.172.329-.392.755-.961,1.084-1.353,6.886-7.78,18.458-12.725,27.815-16.739,7.413-3.161,15.536-6.375,24.2-9.744C-7.607,204.633,19.688,194,37.4,180.15c4.921-3.79,8.906-8.357,12.891-12.924,8.337-9.387,16.113-18.167,31.217-20.245,18.045-2.471,34.125,1.73,51.126,6.116,1.571.446,3.105.753,4.542,1.237l.786.223c3.584.914,6.862,1.766,10.236,2.442,16.372,3.671,38.048,6.572,59.516-2.541,1.676-.777,3.389-1.415,5.2-2.23,15.154-6.713,20.955-13.141,25.54-18.176,3.461-3.821,6.362-7.035,12.2-9.6,3.254-1.377,7.576-2.015,12.036-2.693,9.054-1.393,19.355-2.994,25.741-10.482,6.287-7.311,9.23-16.8,12.015-25.791.568-1.653.963-3.405,1.567-4.92a56.335,56.335,0,0,1,6.353-14.037A36.676,36.676,0,0,1,320.541,54.71c7.113-4.267,16.014-6.214,24.589-7.768,3.709-.762,6.957-1.093,9.9-1.486.978-.131,1.959-.262,2.806-.354,1.113-.169,2.228-.339,3.209-.47,5.207-.593,8.856-1.04,14.45-5.022,1.469-1.015,3.263-2.422,4.824-3.614a99.931,99.931,0,0,0,9.042-8.4c7.962-8.088,15.464-15.745,29.456-14.972,9.709.505,18.81,3.57,27.565,6.436,9.063,2.927,17.509,5.731,26.572,5.975,4.989.214,10.54-.179,16.265-.472,5.417-.355,11-.609,16.8-.626Z" transform="translate(148.7 130.595)" fill="#34ca00"/>
          <path id="Path_15148" data-name="Path 15148" d="M514.47,52.444c-3.093-.161-6.144-.183-9.233-.344-8.791-.321-17.142-.619-24.012-1.34-8.228-.928-16-3.925-24.161-7.259-9.078-3.519-18.5-7.237-28.765-8.18C412.563,34,403.171,43.242,394.147,52.23c-2.049,2.076-4.1,4.152-6.221,5.951a37.784,37.784,0,0,0-2.782,2.583c-.6.469-1.026,1.038-1.624,1.507-5.465,4.99-7.986,5.859-14.01,7.728l-.538.154c-2.249.792-5.115,1.461-8.384,2.246-1.211.346-2.6.592-4.077,1.015l-.269.077c-8.695,2.185-17.656,4.446-24.484,9.229a36.574,36.574,0,0,0-11.432,12.954,57.956,57.956,0,0,0-5.183,14.6l-.514,2.383c-2.291,9.747-4.956,20.793-12.323,28.412-7.328,7.757-18.984,8.105-28.3,8.53a54.606,54.606,0,0,0-9.643.817c-7.555,1.562-11.145,4.376-16.666,8.635a127.935,127.935,0,0,1-23.289,14.7c-1.675.777-3.313,1.692-4.989,2.468-16.8,8.674-35.129,10.63-59.14,6.607-3.509-.637-7.056-1.413-11.351-2.273-2.454-.491-4.946-1.121-7.266-1.651-16.679-3.732-32.266-7.18-50.1-4.471-14.625,2.24-22.552,10.466-30.9,19.261a125.871,125.871,0,0,1-12.383,11.586C30.545,218.54,4.02,228.8-19.52,237.759c-7.353,2.846-14.437,5.614-20.982,8.229-9.53,3.915-20.368,8.352-27.307,15.4a12.471,12.471,0,0,0-1.122,1.215c-4.875,5.566-7.161,11.585-9.484,17.466a67.16,67.16,0,0,1-3.512,8.456,48.887,48.887,0,0,1-9.651,13.638l.262.969a54.409,54.409,0,0,0,10.347-14.284,85.017,85.017,0,0,0,3.512-8.456c2.286-6.019,4.475-11.861,9.29-17.112.329-.392.793-.823,1.122-1.215C-60.2,255.193-49.5,250.794-40.1,246.918c6.508-2.753,13.494-5.345,20.847-8.19,23.5-9.1,50.2-19.257,68.028-32.7a118.041,118.041,0,0,0,12.518-11.625c8.255-8.618,16.046-16.806,30.268-18.93,17.566-2.632,33.152.816,49.659,4.448,2.454.491,4.946,1.121,7.4,1.613,4.16.9,7.707,1.674,11.351,2.273,24.318,4.084,42.782,2.09,59.85-6.661,1.638-.915,3.313-1.692,4.989-2.468a136.589,136.589,0,0,0,23.424-14.74c5.384-4.221,8.877-6.858,16.3-8.381a51.991,51.991,0,0,1,9.374-.74c9.487-.325,21.278-.712,28.935-8.861,7.558-7.972,10.223-19.019,12.613-28.942l.514-2.383a65.7,65.7,0,0,1,5.088-14.421,36.266,36.266,0,0,1,11.2-12.739c6.733-4.605,15.694-6.867,24.215-9.152l.269-.077c1.346-.384,2.731-.631,3.942-.977,3.269-.785,6.135-1.454,8.387-2.246l.538-.154c5.982-2.007,8.677-2.777,14.375-7.982.464-.431,1.062-.9,1.621-1.507.793-.823,1.854-1.722,2.782-2.583,2.088-1.937,4.271-4.052,6.356-5.989,8.931-8.811,18.09-17.836,33.212-16.64,10.226.805,19.513,4.562,28.591,8.08,8.291,3.3,16.068,6.292,24.469,7.32,7.041.821,15.392,1.119,24.182,1.44,3.224.122,6.314.283,9.538.405Z" transform="translate(143.55 114.268)" fill="#34ca00"/>
          <path id="Path_15149" data-name="Path 15149" d="M521.951,81.9a273.9,273.9,0,0,1-33.724-4.528c-7.534-1.574-14.638-4.763-22.122-8.289-9.263-4.21-18.873-8.62-29.826-9.963-17.823-2.064-29.423,9.745-39.628,20.262l-1.816,1.86c-1.585,1.645-2.806,3.037-4.023,4.428l-.852,1.138c-4.181,4.92-5.459,6.627-10.777,9.487a73.975,73.975,0,0,1-11.952,4.607l-2.387.831c-7.869,2.546-16.008,5.169-22.128,9.9A33.786,33.786,0,0,0,332.261,125.5a62.775,62.775,0,0,0-3.921,14.982c-1.738,10.185-3.915,23.03-12.589,31.171-8.77,8.319-22.2,6.938-31.89,5.979a49.545,49.545,0,0,0-6.218-.46c-10.828-.336-15.3,2.432-26.21,9.275-4.107,2.514-9.176,5.752-16,9.489a51.164,51.164,0,0,0-4.877,2.883c-17.1,10.25-35.493,13.566-59.511,10.589-3.607-.46-7.251-1.059-11.643-1.742-3.337-.537-6.577-1.252-9.78-1.827-16.222-3.117-31.486-5.912-48.708-3.08-13.743,2.286-21.684,9.92-29.992,17.808a111.652,111.652,0,0,1-11.972,10.425c-18.114,12.925-44.406,22.969-67.58,31.675-5.909,2.284-11.452,4.314-16.823,6.445-9.028,3.622-19.366,7.767-26.3,13.772-.329.392-.83.684-1.159,1.076-5.062,4.874-7.94,10.317-10.585,15.544a71.23,71.23,0,0,1-3.924,6.934,52.405,52.405,0,0,1-16.353,16.745c-.6.469-1.369.838-1.967,1.307l.225.83c.733-.507,1.5-.876,2.236-1.384a54.891,54.891,0,0,0,16.547-17.1c1.4-2.337,2.623-4.774,3.887-7.072,2.743-5.4,5.426-10.493,10.526-15.229a13.1,13.1,0,0,1,1.159-1.076c6.8-5.966,16.5-9.781,25.932-13.518,5.371-2.13,10.876-4.3,16.823-6.445,23.271-8.883,49.735-18.827,67.812-31.89a105.308,105.308,0,0,0,12.107-10.464c8.173-7.85,16.017-15.307,29.491-17.516,17.049-2.932,32.351,0,48.4,3.019,3.2.576,6.577,1.251,9.779,1.827,4.392.683,8.036,1.282,11.643,1.742,24.153,2.939,42.683-.416,60.185-10.781,1.638-.915,3.141-1.792,4.877-2.883,6.784-3.876,11.893-6.974,16-9.489,10.911-6.843,15.018-9.357,25.537-9.083q2.647.138,6.215.46c10,1.02,23.563,2.362,32.8-6.387,8.907-8.357,11.046-21.34,12.748-31.663a71.874,71.874,0,0,1,3.823-14.8,31.85,31.85,0,0,1,10.131-13.476c5.982-4.69,14.022-7.136,21.891-9.682l2.387-.83a77.258,77.258,0,0,0,12.09-4.645c5.453-2.9,6.963-4.821,11.141-9.741l.852-1.138a50.226,50.226,0,0,1,3.888-4.39l1.816-1.86c9.975-10.3,21.341-21.9,38.722-19.855,10.783,1.243,20.258,5.692,29.521,9.9,7.618,3.488,14.758,6.815,22.3,8.389a252.65,252.65,0,0,0,33.855,4.49c.135-.038.308.061.577-.015Z" transform="translate(139.457 97.853)" fill="#34ca00"/>
          <path id="Path_15150" data-name="Path 15150" d="M527.49,111.109a1.936,1.936,0,0,0-.882-.046,181.547,181.547,0,0,1-33.762-7.349c-6.8-2.082-13.232-5.463-19.869-9.081-9.49-5.041-19.325-10.281-30.8-11.923-19.2-2.863-33.5,10.76-42.55,21.246a29.26,29.26,0,0,0-3.6,4.9c-1.3,2.16-2.273,3.928-3.012,5.481-1.516,2.967-2.647,5.227-5.967,7.964-2.856,2.307-7.283,4.168-11.479,5.814l-3.927,1.569c-7.352,2.846-14.976,5.768-20.518,10.481-4.343,3.775-7.274,8.487-9.35,14.744-1.606,4.781-2.121,9.847-2.656,15.366-1.116,11.945-3.479,24.1-12.206,31.51-10.717,9.172-26.662,4.933-36.188,2.436-.787-.223-1.7-.407-2.357-.668-15.431-3.94-20.4-.88-44.33,14.152l-4.8,3.16c-17.358,11.964-35.858,16.5-59.711,14.67-4.145-.307-8.365-.89-11.972-1.35-4.085-.622-8.171-1.243-12.121-1.9-15.766-2.5-30.783-4.921-47.66-1.889-12.86,2.331-20.719,9.2-29.08,16.355a131.532,131.532,0,0,1-11.561,9.265C48.095,268.757,21.5,278.74-1.947,287.523c-3.83,1.392-7.525,2.746-11.048,4.2l-.4.115c-8.931,3.445-18.035,6.791-24.885,12.027-.366.254-.83.684-1.2.938-5.347,4.359-8.621,8.872-11.993,13.561-1.241,1.845-2.654,3.59-4.03,5.474A62.307,62.307,0,0,1-72.15,338.429c-3.373,2.007-7.053,3.952-10.905,5.8l.225.83a111.579,111.579,0,0,0,11.137-6.013,59.863,59.863,0,0,0,16.878-14.808c1.51-1.922,2.789-3.629,4.03-5.474,3.372-4.689,6.511-9.164,11.9-13.385a14.534,14.534,0,0,1,1.2-.938c6.619-5.021,15.819-8.543,24.653-11.812l.4-.115c3.561-1.315,7.256-2.669,11.048-4.2,23.578-8.821,50.215-18.665,69.346-31.583a122.238,122.238,0,0,0,11.7-9.3c8.226-7.119,15.988-13.808,28.541-16.2,16.705-3.132,31.588-.675,47.353,1.828,3.951.66,8.036,1.282,12.122,1.9,3.606.46,7.827,1.044,11.972,1.35,24.122,1.755,42.757-2.822,60.384-14.863l4.8-3.16c23.56-14.778,28.4-17.8,43.483-14.06l2.357.668c9.7,2.6,26.085,6.859,37.13-2.706,8.958-7.627,11.288-19.918,12.464-32.178.535-5.519,1.086-10.446,2.692-15.227a32,32,0,0,1,9.021-14.353c5.408-4.674,12.894-7.558,20.112-10.365l3.927-1.569c4.331-1.684,8.856-3.722,11.85-6.067a20.046,20.046,0,0,0,6.2-8.18,40.657,40.657,0,0,1,2.913-5.3,34.37,34.37,0,0,1,3.505-4.728c8.824-10.271,22.89-23.679,41.611-20.977,11.336,1.681,21,6.821,30.487,11.862,6.772,3.58,13.238,7.1,20.04,9.181a177.074,177.074,0,0,0,33.9,7.311l1.325.069Z" transform="translate(137.576 81.612)" fill="#34ca00"/>
          <path id="Path_15151" data-name="Path 15151" d="M533.034,140c-.577.016-1.056-.146-1.63-.13-11.874-1.527-24.17-6.214-33.631-10.07-6.03-2.451-11.653-6.062-17.713-9.7-9.754-6.009-19.678-12.118-31.875-14.3-18.293-3.271-34.537,8.524-43.621,20.509a26.2,26.2,0,0,0-3.185,5.381,39.262,39.262,0,0,0-2.351,7.379c-.634,3.013-1.208,5.711-3.879,8.71s-7.119,5.313-11.106,7.2c-1.675.777-3.35,1.553-5.16,2.369-6.876,3.007-14.115,6.267-19.044,11.1a29.422,29.422,0,0,0-8.282,15.482,91.38,91.38,0,0,0-1.463,15.473l.036.138c-.218,9.9-1.714,24.19-11.788,31.986-8.877,6.858-21.64,6.33-38.943-1.844-16.137-7.614-23.961-5.975-46.45,9.54-1.6,1.054-3.161,2.245-4.726,3.437-17.619,13.678-36.051,19.539-60.045,18.79-3.494-.045-7.37-.429-12.263-.82-4.759-.43-9.592-1.136-14.119-1.781-15.518-2.126-30.116-4.068-46.746-.659-12.112,2.416-20.024,8.551-28.265,15.079-3.455,2.776-7.082,5.451-11.016,8.066-21.054,13.317-50.653,24.008-74.44,32.59l-2.79.946c-8.064,2.9-16.4,5.876-22.971,9.989-.366.254-.733.507-1.234.8a96.165,96.165,0,0,0-13.9,11.871l-3.769,3.759a82.492,82.492,0,0,1-16.977,12.3c-4.682,2.53-9.94,5.075-14.967,7.405-1.675.777-3.216,1.515-4.892,2.292l.225.83,5.026-2.33c5.161-2.369,10.419-4.914,15.1-7.444a79,79,0,0,0,17.208-12.517l3.769-3.759a85.136,85.136,0,0,1,13.767-11.832l1.1-.761c6.44-4.075,14.773-7.051,22.7-9.913l2.79-.946C25.3,306.045,54.9,295.354,76.09,282a127.238,127.238,0,0,0,11.151-8.1c8.279-6.389,15.921-12.448,27.9-14.825,16.5-3.37,30.959-1.39,46.477.736,4.661.606,9.36,1.351,14.254,1.742,4.931.529,8.769.775,12.263.82,24.129.71,42.868-5.09,60.718-18.983,1.564-1.192,3.126-2.383,4.726-3.437,23.456-16.239,30.332-16.563,45.469-9.41,17.647,8.375,30.718,8.964,39.963,1.852,10.3-8.011,11.764-22.439,12.078-32.516l-.036-.139a70.448,70.448,0,0,1,1.466-15.473,29.684,29.684,0,0,1,8.085-15.129c4.965-4.7,11.937-7.881,18.81-10.888,1.675-.777,3.488-1.592,5.162-2.369,4.122-1.922,8.707-4.275,11.474-7.45s3.341-5.873,4.071-9.064a32.241,32.241,0,0,1,2.255-7.2,24.92,24.92,0,0,1,3.087-5.2c8.853-11.77,24.73-23.311,42.583-20.063,12.024,2.081,21.948,8.19,31.567,14.237,6.063,3.634,11.683,7.246,17.886,9.8,9.5,4,21.927,8.643,33.8,10.17.748.084,1.361.207,2.109.291Z" transform="translate(135.556 65.721)" fill="#34ca00"/>
          <path id="Path_15152" data-name="Path 15152" d="M538.929,168.731a15.184,15.184,0,0,1-2.417-.353c-11.814-1.843-24.179-7.851-33.5-12.791-5.261-2.82-10.134-6.347-15.448-9.9-9.879-7.016-20.1-14.232-33.024-16.95-18.311-3.863-36.278,6.933-44.695,19.771a26.263,26.263,0,0,0-2.668,5.681A28.642,28.642,0,0,0,406.086,163c-.042,3.59-.1,6.587-2.351,10.062-1.824,2.906-5.046,5.466-10.732,8.58-1.905.992-3.948,2.023-5.991,3.053-6.664,3.245-13.424,6.667-18.009,11.7-3.924,4.251-6.263,9.54-7.307,16.4a88.864,88.864,0,0,0-.29,14.989l-.009,1.045c.607,15.627-3.15,26.388-11.4,32.324-14.354,10.211-33.685-1.707-39.245-5.634-15.538-10.766-25.723-12.478-48.568,4.929-1.564,1.192-3.09,2.522-4.615,3.852-18.075,15.746-36.11,22.536-60.245,22.872-3.629-.007-7.736-.175-12.592-.428-5.469-.376-10.842-.928-16.079-1.519-15.271-1.749-29.757-3.276-46.043.332-11.363,2.5-19.695,8.159-27.622,13.7-3.3,2.284-6.731,4.606-10.373,6.689C62.059,319.1,33,329.635,13.1,336.511l-2.925.985a149.581,149.581,0,0,0-20.346,7.9c-.367.254-.77.369-1.137.623a148.957,148.957,0,0,0-17.352,10.918l-1.967,1.307a118.952,118.952,0,0,1-17.442,10.05c-2.543,1.323-5.124,2.507-7.973,3.768a232,232,0,0,0-20.748,10.7l.225.83a226.874,226.874,0,0,1,20.883-10.735c2.85-1.261,5.393-2.584,7.973-3.768A142.517,142.517,0,0,0-30.131,359l1.967-1.307a143.987,143.987,0,0,1,17.217-10.88c.366-.254.77-.369,1.137-.623,5.991-3.053,13.187-5.406,20.249-7.722l2.925-.985c20.07-6.776,49.265-17.351,71.778-30.637,3.642-2.084,7.038-4.544,10.336-6.828,8.332-5.659,16.162-11.026,27.219-13.588,16.151-3.57,30.5-2,45.773-.255q7.856.886,16.117,1.657c4.721.291,8.963.421,12.592.428,24.577-.313,42.747-7.142,61.054-23.1a44.96,44.96,0,0,1,4.651-3.713c21.978-16.861,31.534-15.864,47.417-4.9,5.734,4.027,25.543,16.106,40.531,5.565,8.393-5.974,12.344-17.09,11.8-33.031l.006-1.046a97.435,97.435,0,0,1,.194-14.812c.945-6.68,3.188-11.792,7.014-15.867,4.487-4.859,11.249-8.281,17.779-11.487,2.043-1.03,4.086-2.061,5.991-3.053,5.821-3.153,9.042-5.713,11.1-8.834,2.345-3.652,2.33-6.926,2.411-10.377a27.834,27.834,0,0,1,1.131-8.671,24.61,24.61,0,0,1,2.572-5.5c8.028-12.131,25.956-23.065,43.516-19.287,12.79,2.757,22.839,9.872,32.683,16.75a144.6,144.6,0,0,0,15.484,10.035c9.491,5.04,21.891,11.187,33.84,12.991,1.056.146,1.938.192,2.859.376l-.413-1.522Z" transform="translate(133.184 50.001)" fill="#34ca00"/>
          <path id="Path_15153" data-name="Path 15153" d="M547.388,197.26a25.738,25.738,0,0,1-3.164-.438c-9.129-1.566-20.423-6.837-33.4-15.651-4.415-2.912-8.539-6.355-12.972-9.859-10.044-8.161-20.569-16.483-34.253-19.878-18.365-4.593-38.536,6.088-45.8,18.9a20.612,20.612,0,0,0-2.249,6.157,25.063,25.063,0,0,0,.224,9.923c.473,3.889,1.044,7.6-.787,11.553-1.675,3.459-4.786,6.435-10.394,9.826-2.1,1.345-4.376,2.591-6.649,3.837-6.32,3.445-12.873,7.1-17.15,12.2-3.849,4.528-5.844,10.017-6.2,17.273a82.918,82.918,0,0,0,.885,14.5l.254,2.014c1.2,10.838.215,25.427-11.025,32.662-12.706,8.25-29.432.06-39.682-9.385-15.592-14.178-28.349-18.434-50.65.456-1.525,1.33-3.051,2.66-4.54,4.129-18.126,17.7-36.263,25.711-60.616,26.854-3.86.208-8.065.217-12.883.1-6.143-.183-12.091-.72-17.9-1.3-15.159-1.334-29.3-2.661-45.511,1.224-10.75,2.623-19.231,7.729-27.346,12.581-3.007,1.753-6.111,3.683-9.289,5.336-19.364,10.45-43.218,20.393-67.268,28.008-2.154.615-4.271,1.369-6.56,2.023-5.349,1.677-10.832,3.392-15.739,5.092l-1.175.484c-7.353,2.846-13.591,5.522-20.794,8.921-5.662,2.661-11.631,5.26-17.772,7.759-14.19,5.991-28.633,12.65-36.723,22.413l.262.969c7.745-9.963,22.324-16.661,36.648-22.69,6.1-2.638,12.245-5.137,17.772-7.759,7.2-3.4,13.306-6.036,20.794-8.92L6.9,366.1c5-1.877,10.353-3.553,15.739-5.092,2.154-.615,4.406-1.408,6.56-2.023,24.184-7.653,48.173-17.635,67.537-28.085,3.179-1.653,6.283-3.583,9.289-5.336,8.481-5.105,16.5-9.781,27.114-12.365,16.076-3.846,30.18-2.658,45.2-1.285,5.814.576,11.762,1.112,17.9,1.3,4.818.114,9.023.106,12.921.036,24.622-1.219,43.031-9.31,61.387-27.223,1.49-1.468,3.015-2.8,4.54-4.129,21.873-18.321,34.151-14.227,49.364-.387,10.591,9.645,27.625,17.9,40.968,9.315,11.608-7.489,12.55-22.217,11.414-33.369l-.257-2.014a93.6,93.6,0,0,1-.846-14.366c.431-6.979,2.33-12.291,6.045-16.781,4.143-5.059,10.6-8.542,16.917-11.987,2.273-1.246,4.546-2.491,6.649-3.837,3.873-2.3,8.465-5.7,10.723-10.218,1.929-4.128,1.454-8.018.942-12.045a31.657,31.657,0,0,1-.182-9.785,16.072,16.072,0,0,1,2.186-5.842c7.071-12.454,26.743-22.842,44.626-18.411,13.513,3.295,23.9,11.656,33.948,19.817,4.259,3.4,8.557,6.947,12.972,9.859,13.113,8.775,24.446,14.184,33.709,15.712a33.329,33.329,0,0,0,3.6.461l-.224-.83Z" transform="translate(128.249 34.476)" fill="#34ca00"/>
          <path id="Path_15154" data-name="Path 15154" d="M571.248,225.94c-1.187-.107-2.551-.314-3.912-.522-13.193-2.642-27.652-13.715-33.266-18.372-3.535-2.866-7.044-6.186-10.346-9.268-10.286-9.583-21.051-19.327-35.671-23.5-17.249-4.762-39.981,3.967-46.872,18.157a20.732,20.732,0,0,0-1.866,6.5c-.41,3.843.565,7.441,1.5,10.9,1.2,4.427,2.225,8.754.679,13.221-1.427,3.836-4.388,7.365-9.885,11.17-2.2,1.522-4.7,2.983-7.038,4.544-6.108,3.683-12.452,7.582-16.519,12.917-3.6,4.9-5.252,10.593-5.13,18.01a90.321,90.321,0,0,0,1.753,13.959c.126,1.007.389,1.975.517,2.982,1.238,7.248,2.752,25.15-10.642,33-13.9,8.143-30.266-1.939-40.118-13.136-9.987-11.159-18.8-16.392-27.789-16.359-7.833,0-16.038,3.985-24.981,12.2-1.391,1.292-3.015,2.8-4.466,4.405-18.176,19.651-36.419,28.886-60.951,30.974-4.092.423-8.432.47-13.212.495-6.681-.029-13.206-.551-19.558-.972-14.949-1.1-29.15-2.108-45.114,2.154-10.54,2.861-19.613,7.391-28.416,11.843-2.311,1.107-4.585,2.353-6.9,3.46-15.505,7.559-38.827,18.394-63.027,25.455-7,2-14.348,3.8-21.29,5.485l-1.212.346c-2.461.554-4.922,1.108-7.211,1.761-5.192,1.185-10.077,2.431-15.1,3.716C9.83,393.006,3.5,394.814-2.849,397.075c-12.971,4.6-29.651,12.643-35.516,25.8-4.17,9.241-1.987,18.9.158,28.425,1.111,6.24,2.6,12.821,2.2,19.347l.675,2.49c1.028-7.45-.555-14.9-2.235-22.169-2.22-9.8-4.253-18.908-.18-27.971,5.806-12.838,22.217-20.8,34.956-25.188,6.351-2.261,12.679-4.069,18.1-5.469,5.117-1.461,9.9-2.531,15.1-3.716,2.327-.516,4.788-1.07,7.212-1.762l1.212-.346c6.942-1.685,14.288-3.485,21.29-5.485,24.2-7.061,47.656-17.935,63.162-25.494,2.311-1.107,4.623-2.214,6.9-3.46,9.208-4.568,17.742-8.943,28.282-11.8,15.829-4.223,29.9-3.173,44.71-2.038,6.352.421,12.877.943,19.558.972,4.781-.024,9.12-.071,13.213-.495,24.8-2.165,43.312-11.477,61.587-31.3A52.582,52.582,0,0,1,301.985,303c8.713-8,16.648-11.91,24.347-11.873,8.716.044,17.324,5.039,27.137,16.1,10.065,11.435,27.045,21.64,41.443,13.2,13.762-8.1,12.308-26.321,10.992-33.846-.126-1.007-.389-1.975-.517-2.982a91.166,91.166,0,0,1-1.714-13.82c-.221-7.241,1.469-12.791,4.974-17.518,3.969-5.159,10.178-9.018,16.289-12.7,2.369-1.422,4.839-3.022,7.172-4.582,3.8-2.576,8.414-6.428,10.346-11.6,1.606-4.781.58-9.108-.658-13.674a31.83,31.83,0,0,1-1.466-10.761,16.8,16.8,0,0,1,1.771-6.319c6.7-13.837,28.89-22.412,45.562-17.635,14.45,4.071,25.08,13.854,35.327,23.3,3.3,3.082,6.945,6.363,10.481,9.229,7.1,5.871,20.859,15.953,33.745,18.533a30.5,30.5,0,0,0,4.355.545l-.188-.692Z" transform="translate(107.912 18.8)" fill="#34ca00"/>
          <path id="Path_15155" data-name="Path 15155" d="M608.738,254.315c-12.9-.489-28.812-12.638-37.929-21.66-2.575-2.544-5.225-5.364-7.666-7.946-10.564-11.143-21.508-22.625-37.238-27.672-11.42-3.595-26.755-1.3-37.5,5.642-7.636,5.013-11.809,11.571-11.8,18.573-.027,4.181,1.328,8.116,2.782,11.875,1.831,5.142,3.41,9.907,2.186,15.027-1.971,7.718-9.374,12.516-17.109,17.706-5.9,3.921-12.033,8.058-15.793,13.455-6.864,10.009-4.02,21.569-1.463,32.614a30.73,30.73,0,0,1,.8,3.5c1.3,5.888,4.555,25.38-10.262,33.339s-31.133-4.076-40.648-16.71c-10.678-14.241-21.06-20.964-31.735-20.747-9.084.209-18.3,5.822-27.508,16.8-21.461,25.209-42.358,35.351-74.694,35.942-7.22.124-14.283-.243-21.076-.688-14.74-.858-28.731-1.631-44.35,2.83l-.4.115c-15.717,4.638-30.37,11.059-44.619,17.365-21.49,9.567-43.787,19.364-69.553,22.251-4.227.462-8.491.786-12.621,1.071-9.95.755-20.17,1.587-29.9,4.218-12.56,3.439-27.668,11.927-31.731,25.311-2.845,9.309.2,18.424,3.18,27.265,3.05,9.115,6.348,18.607,2.619,27.869a22.252,22.252,0,0,1-1.577,3.283l1.212-.347a28.9,28.9,0,0,0,1.285-2.752c3.653-9.538.453-19.209-2.635-28.461-2.938-8.7-5.988-17.818-3.2-26.811,3.943-12.753,18.244-21.011,30.5-24.511l.538-.154c9.732-2.631,19.817-3.425,29.768-4.18,4.13-.285,8.394-.609,12.621-1.071,25.9-2.926,48.333-12.762,69.957-22.366,14.115-6.267,28.768-12.689,44.484-17.327l.4-.115c15.485-4.423,29.342-3.611,44.081-2.753,6.794.444,13.857.812,21.076.688,32.336-.591,54.141-11.141,75.464-36.311,9.018-10.624,17.961-16.161,26.737-16.432,10.37-.279,20.444,6.384,30.912,20.386,9.763,13.012,26.426,25.245,41.877,16.956,15.317-8.251,12.054-28.335,10.747-34.223-.3-1.107-.5-2.39-.8-3.5-2.692-11.006-5.324-22.328,1.343-31.984,3.625-5.358,9.661-9.318,15.562-13.239,8-5.267,15.505-10.242,17.533-18.275,1.322-5.3-.371-10.477-2.163-15.48-1.319-3.8-2.674-7.732-2.707-11.6.027-6.864,4.137-13.106,11.408-17.866,10.373-6.689,25.4-9.044,36.514-5.511,15.556,4.947,26.33,16.329,36.894,27.472,2.477,2.721,5.091,5.4,7.666,7.946,2.611,2.682,22.433,21.764,38.886,21.983l-.224-.83Z" transform="translate(73.909 3.292)" fill="#34ca00"/>
        </g>
        <path id="Path_15156" data-name="Path 15156" d="M347.13-452.857a52.432,52.432,0,0,0-14.689,6.283C205.207-367.9,165.671-370.321,130.686-372.55c-18.751-1.2-36.445-2.26-65.394,8.691-16.591,6.23-31,14.073-44.916,21.624-25.049,13.564-48.826,26.467-79.994,27.619-3.591.131-7.355.163-10.983.156-14.477.111-29.493.375-43.219,5.935-20.675,8.29-33.168,24.827-45.2,40.932-6.2,8.18-12.59,16.713-20.068,23.917-20.81,20.1-37.174,18.071-56.089,15.723-9.555-1-19.319-2.233-30.541-.816l.45,1.66c10.818-1.3,20.41-.166,29.7.908,18.743,2.249,36.3,4.39,57.8-16.361,7.612-7.242,13.967-15.914,20.262-24.27,11.835-15.752,24.1-32.073,44.232-40.209,13.36-5.306,28.241-5.532,42.411-5.7,3.629.007,7.392-.025,11.118-.194C-28-314.108-4.088-327.049,21.192-340.829c13.912-7.551,28.325-15.394,44.646-21.547,28.544-10.836,45.97-9.7,64.413-8.561,35.255,2.153,75.134,4.773,202.967-74.37a52.449,52.449,0,0,1,14.055-5.952l-.413-1.522Z" transform="translate(265.715 452.857)" fill="#34ca00"/>
        <path id="Path_15157" data-name="Path 15157" d="M458.549-76.764c-5.575.847-10.983,2.839-16.3,4.654a108.494,108.494,0,0,1-14.638,4.33c-10.9,2.07-21.831.273-32.456-1.462C386.989-70.485,378.608-71.967,370-71.6c-12.769.518-18.287,7.46-23.671,14.363-3.446,4.413-7.029,8.864-12.479,11.763C323.582-40,315.59-42.192,306.468-44.8c-5.5-1.559-11.306-3.18-17.988-3.209-18.449-.1-31.226,4.149-41.56,13.66-8.345,7.75-12.9,17.7-17.267,27.291a121.11,121.11,0,0,1-7.606,15.29c-3.9,6.481-11.01,9.7-18.616,13.217-6.47,2.891-13.172,6-17.583,11.134-5.069,5.92-6.779,11.923-8.527,17.788-2.83,9.9-5.324,18.364-22.694,23.326-21.544,6.154-43.866-.737-63.053-8.373l-4.251-1.767c-18.4-7.414-37.455-15.089-58.432-13.27C10.486,51.961,1.806,63.831-6.372,75.408-10.5,81.059-14.588,86.848-20,91.522c-17.805,15.669-47.449,27.266-73.666,37.587-11.684,4.53-22.56,8.829-32.074,13.335-10.053,4.66-19.126,9.189-25.676,15.532l.487,1.8c6.513-6.481,15.683-11.187,26.005-15.924,9.417-4.329,20.428-8.667,31.94-13.3,26.353-10.359,56.228-22.171,74.265-38.056,5.5-4.851,9.825-10.855,13.952-16.506C3.684,64.338,11.571,53.291,29,51.742,49.532,49.9,68.278,57.515,86.508,64.828L90.758,66.6c19.36,7.737,42.16,14.788,64.243,8.481l.135-.038c18.447-5.269,21.12-14.678,24.047-24.756,1.65-5.688,3.4-11.553,8.138-17.081,4.217-4.782,10.65-7.812,16.851-10.626,7.606-3.514,15.386-6.929,19.579-13.94a164.969,164.969,0,0,0,7.7-15.467c4.268-9.417,8.689-19.326,16.708-26.683,10-9.118,22.376-13.248,40.115-13.1,6.413.106,12.048,1.627,17.414,3.225,9.254,2.573,17.934,5.162,29.073-.851,5.952-3.191,9.631-7.819,13.175-12.409,5.285-6.727,10.379-13.1,22.169-13.487,8.333-.294,16.678,1.05,24.712,2.332,10.762,1.7,21.864,3.593,33.167,1.408A112.349,112.349,0,0,0,442.9-70.8c5.309-1.815,10.585-3.769,16.157-4.615l-.374-1.383Z" transform="translate(185.6 192.286)" fill="#34ca00"/>
        <path id="Path_15158" data-name="Path 15158" d="M607.2,253.121c-12.631-.566-28.37-12.615-37.489-21.638-2.575-2.544-5.225-5.364-7.666-7.946-10.561-11.143-21.544-22.763-37.409-27.772-11.59-3.695-27.063-1.363-37.9,5.757-7.771,5.051-12.039,11.786-12.126,18.965-.027,4.182,1.328,8.117,2.821,12.014,1.792,5,3.371,9.769,2.148,14.888-1.872,7.541-9.278,12.339-17.01,17.529-6.036,3.96-12.17,8.1-16.026,13.67-6.96,10.186-4.119,21.746-1.522,32.929a30.731,30.731,0,0,1,.8,3.5c1.268,5.749,4.481,25.1-9.969,32.808s-30.559-4.091-39.939-16.764c-10.717-14.379-21.269-21.2-32.079-20.947-9.218.248-18.7,5.938-27.912,16.916-21.326,25.17-42.126,35.136-74.29,35.827-7.22.124-14.283-.243-20.942-.726-14.874-.82-29-1.555-45.023,3.022-15.717,4.638-30.5,11.1-44.619,17.366-22.53,10.012-43.788,19.363-69.418,22.213-4.227.462-8.491.786-12.621,1.071-9.951.755-20.17,1.587-30.037,4.257-12.829,3.515-27.9,12.143-32.1,25.564-2.98,9.346.242,18.562,3.255,27.541,3.163,9.529,6.175,18.505,2.717,27.694a27.608,27.608,0,0,1-1.771,3.636L13.5,493.8c.351-.844.837-1.729,1.188-2.573,3.75-9.716.416-19.347-2.672-28.6-2.938-8.7-5.95-17.676-3.165-26.671C12.79,423.2,27.4,415,39.553,411.678c9.732-2.631,19.817-3.424,29.6-4.28,4.13-.285,8.394-.609,12.621-1.071,26.035-2.964,48.467-12.8,70.091-22.4,14.115-6.267,28.768-12.689,44.35-17.288,15.447-4.561,29.573-3.826,44.313-2.968,6.794.444,13.857.812,21.211.649,32.47-.629,54.408-11.218,75.83-36.565,8.919-10.448,17.731-15.945,26.372-16.178,10.062-.34,20.345,6.56,30.565,20.186,9.8,13.149,26.77,25.444,42.493,17.078,15.586-8.328,12.245-28.689,10.9-34.715-.3-1.107-.5-2.39-.8-3.5-2.656-10.868-5.288-22.19,1.283-31.669,3.529-5.182,9.526-9.28,15.467-13.062,7.732-5.19,15.736-10.457,17.767-18.49,1.418-5.473-.413-10.615-2.2-15.619-1.319-3.8-2.638-7.594-2.71-11.6-.069-6.687,3.906-12.891,11.213-17.512,10.238-6.651,25.134-8.967,36.114-5.4,15.383,4.847,26.2,16.367,36.721,27.372,2.477,2.721,5.091,5.4,7.666,7.946,2.746,2.643,22.645,22,39.365,22.144l-.449-1.66Z" transform="translate(75.49 4.625)" fill="#34ca00"/>
      </g>
    </g>
  </g>
</svg>
