<svg xmlns="http://www.w3.org/2000/svg" xmlns:xlink="http://www.w3.org/1999/xlink" width="750" height="238" viewBox="0 0 750 238">
  <defs>
    <clipPath id="clip-path">
      <path id="Rectangle_3503" data-name="Rectangle 3503" d="M18,0H350a0,0,0,0,1,0,0V219a18,18,0,0,1-18,18H18A18,18,0,0,1,0,219V18A18,18,0,0,1,18,0Z" transform="translate(26 721)" fill="#ebffe4"/>
    </clipPath>
  </defs>
  <g id="Group_60590" data-name="Group 60590" transform="translate(-1128 -152)">
    <rect id="Rectangle_3497" data-name="Rectangle 3497" width="750" height="238" rx="22" transform="translate(1128 152)" fill="#fff"/>
    <g id="Mask_Group_6" data-name="Mask Group 6" transform="translate(1102 -569)" opacity="0.15" clip-path="url(#clip-path)">
      <g id="Group" transform="translate(-89.373 673.021) rotate(-14)">
        <g id="Group_60257" data-name="Group 60257" transform="translate(0.066 0.244)" opacity="0.7">
          <path id="Path_14273" data-name="Path 14273" d="M95.288-451.506a33.176,33.176,0,0,0-8.587,3.593C11.772-401.513-11.593-403-32.18-404.309c-10.955-.731-21.367-1.353-38.322,5.069-9.684,3.643-18.165,8.258-26.43,12.724-14.819,8-28.811,15.6-47.231,16.3-2.113.077-4.328.1-6.542.114-8.5.146-17.276.2-25.353,3.47-12.087,4.856-19.359,14.564-26.459,23.96A112.416,112.416,0,0,1-214.384-328.5c-12.3,11.934-22.011,10.76-33.221,9.4-5.486-.714-11.21-1.359-17.734-.548l.132.488c6.445-.788,12.09-.12,17.655.571,10.95,1.346,21.2,2.628,33.776-9.56,4.4-4.239,8.219-9.365,11.866-14.178,7.021-9.373,14.236-18.977,26.165-23.788,7.94-3.145,16.7-3.278,25.115-3.4,2.135,0,4.35-.014,6.542-.114,18.6-.664,32.671-8.279,47.469-16.365,8.186-4.443,16.667-9.059,26.351-12.7,16.876-6.4,27.13-5.732,38.062-5.083,20.667,1.289,44.11,2.75,119.277-43.717a31.8,31.8,0,0,1,8.35-3.525Z" transform="translate(265.339 451.506)" fill="#34ca00"/>
          <path id="Path_14274" data-name="Path 14274" d="M102.908-419.069a31.9,31.9,0,0,0-13.86,4.924c-3.2,2.054-5.91,3.706-8.485,5.23a338.793,338.793,0,0,1-35.153,18.023C32.117-384.815,20.981-380.23,11.4-377.144c-16.543,5.427-26.6,5.492-36.415,5.49-1.695.046-3.413.01-5.108.055-9.752.242-18.9.836-31.911,6.045-1.3.548-2.606,1.1-4.045,1.769a209.7,209.7,0,0,0-19.366,10.443c-7.508,4.425-14.643,8.656-22.922,11.81a71.031,71.031,0,0,1-24.04,4.849c-2.294.041-4.588.082-6.824.019-8.022.011-16.3.008-23.958,2.633-11.924,4.2-19.36,12.985-26.624,21.463a116.2,116.2,0,0,1-11.572,12.427c-12.171,10.844-21.444,10.335-32.116,9.7-6-.392-12.231-.717-19.631.958-.894.168-1.845.439-2.875.733a18.356,18.356,0,0,0-2.016.751l.132.488a19.92,19.92,0,0,1,2.016-.751c.951-.272,1.9-.543,2.8-.711,7.241-1.63,13.476-1.305,19.393-.891,10.333.645,20.125,1.181,32.569-9.917a120.394,120.394,0,0,0,11.572-12.427c7.185-8.455,14.563-17.141,26.329-21.291,7.474-2.661,15.755-2.658,23.7-2.646,2.215-.019,4.61,0,6.9-.042a72.47,72.47,0,0,0,24.278-4.917c8.359-3.177,15.414-7.385,23-11.833a192,192,0,0,1,19.286-10.421,38.656,38.656,0,0,1,4.067-1.688c12.936-5.186,22-5.758,31.673-5.977,1.695-.046,3.413-.01,5.108-.055,9.818,0,20.031-.108,36.574-5.535a342.254,342.254,0,0,0,34.085-13.771,339.8,339.8,0,0,0,35.233-18.045c2.5-1.5,5.206-3.154,8.485-5.23a31.192,31.192,0,0,1,13.725-4.8l-.155-.57Z" transform="translate(259.307 424.931)" fill="#34ca00"/>
          <path id="Path_14275" data-name="Path 14275" d="M115.046-382.275c-6.512-1.035-13.929,1.522-19.42,5.2-3.179,2.136-5.731,3.742-8.168,5.14-10.752,6.316-19.894,10.068-28.8,13.752-1.834.787-3.772,1.516-5.608,2.3-14.33,6.023-24.583,10.092-33.043,13.21a111.806,111.806,0,0,1-33.781,7.018c-1.674.127-3.346.254-5,.462-.757.041-1.493.163-2.329.227-7.823.743-16.721,1.618-28.389,6.442-1.224.525-2.527,1.072-3.887,1.724a161.31,161.31,0,0,0-17.138,10.158c-7.182,4.683-14.013,9.09-22.768,12.38a69.146,69.146,0,0,1-23.371,4.483c-2.373.064-4.869-.013-7.264-.03-7.546-.125-15.273-.286-22.461,1.855-11.762,3.535-19.11,11.072-26.924,19.093a138.393,138.393,0,0,1-11.062,10.528c-12.018,9.836-20.775,9.969-30.909,10.057-5.706.051-11.491.125-18.428,1.931l-2.694.769a27.616,27.616,0,0,0-9.141,5.33l.132.488a24.772,24.772,0,0,1,9.22-5.353c.951-.272,1.8-.6,2.694-.77,6.858-1.783,12.643-1.857,18.349-1.908,9.8-.079,19.072-.185,31.306-10.17a149.479,149.479,0,0,0,11.141-10.55c7.757-7.917,15.026-15.431,26.63-18.921,7.03-2.1,14.734-2.016,22.28-1.891,2.4.018,4.891.094,7.264.03a68.167,68.167,0,0,0,23.609-4.551c8.777-3.209,15.585-7.7,22.847-12.4A164.33,164.33,0,0,1-52.982-326.3a40.417,40.417,0,0,1,3.807-1.7c11.51-4.779,20.407-5.653,28.15-6.374.759-.041,1.572-.186,2.33-.227,1.672-.127,3.425-.277,5-.462,9.1-.757,18.539-1.524,33.939-7.063,8.561-3.059,18.711-7.186,33.043-13.21,1.836-.788,3.693-1.493,5.528-2.281,8.9-3.684,18.048-7.435,28.877-13.774,2.439-1.4,4.97-3.086,8.147-5.221,5.412-3.651,12.852-6.127,19.285-5.07l-.155-.57Z" transform="translate(249.021 394.975)" fill="#34ca00"/>
          <path id="Path_14276" data-name="Path 14276" d="M131.316-342.828a7.034,7.034,0,0,0-1.338-.846c-7.813-4.259-17.7-.734-24.363,3.976-3.1,2.113-5.491,3.674-7.852,5.049-9.65,5.651-17.917,8.539-25.947,11.358-2.57.91-5.062,1.8-7.531,2.765-11.3,4.281-20.547,7.974-28.7,11.268l-3.319,1.3a136.076,136.076,0,0,1-31.227,8.569l-4.886.869c-1.63.29-3.337.6-5.146.856-6.876,1.087-14.748,2.283-24.277,6.5-1.224.525-2.425,1.131-3.706,1.76a125.729,125.729,0,0,0-15.249,9.882c-6.777,4.918-13.224,9.479-22.239,12.755a65.313,65.313,0,0,1-22.7,4.116c-2.554.028-5.23-.085-7.727-.161-6.991-.284-14.221-.5-20.942,1.158-11.758,2.92-19.406,9.665-27.542,16.814-3.239,2.855-6.614,5.836-10.315,8.56-11.865,8.827-20.524,9.634-29.7,10.414a81.943,81.943,0,0,0-17.384,2.948c-.792.226-1.642.557-2.593.828a28.42,28.42,0,0,0-15.441,13.269l.2.733c2.739-5.958,8.808-11.287,15.353-13.6.929-.353,1.8-.6,2.593-.828a80.331,80.331,0,0,1,17.226-2.9c9.258-.8,18-1.632,30.02-10.5,3.7-2.724,7.076-5.705,10.315-8.56,8.079-7.044,15.648-13.767,27.327-16.664,6.563-1.612,13.792-1.4,20.7-1.09,2.575.054,5.173.189,7.806.139a66.045,66.045,0,0,0,22.86-4.161c9.173-3.322,15.6-7.964,22.455-12.9a128.032,128.032,0,0,1,15.17-9.859,38.974,38.974,0,0,1,3.627-1.738c9.45-4.19,17.242-5.363,24.119-6.45,1.809-.254,3.517-.566,5.145-.856l4.888-.869a137.443,137.443,0,0,0,31.385-8.614l3.319-1.3c8.156-3.294,17.4-6.987,28.7-11.268,2.469-.969,4.96-1.855,7.552-2.684,8.029-2.819,16.375-5.73,26.107-11.4,2.358-1.375,4.752-2.936,7.829-5.131,6.526-4.583,16.175-8.041,23.706-3.877a9.247,9.247,0,0,1,1.867,1.221l-.222-.814Z" transform="translate(235.244 364.728)" fill="#34ca00"/>
          <path id="Path_14277" data-name="Path 14277" d="M159.957-297.16q-.523-.509-1.044-1.018c-.922-.877-1.728-1.963-2.57-2.863-1.793-2.207-3.687-4.473-6.616-5.829-9.27-4.281-19.366,1.935-23.282,4.808a68.373,68.373,0,0,1-7.535,4.959c-8.925,5.181-16.611,7.376-24.06,9.5-2.851.815-5.7,1.629-8.593,2.63-11.016,3.761-21.21,7.725-31.058,12.029a186.039,186.039,0,0,1-29.09,10.151l-4.358,1.245c-2.219.634-4.719,1.172-7.322,1.652a85.9,85.9,0,0,0-20.75,6.278,39.07,39.07,0,0,0-3.526,1.8,107.826,107.826,0,0,0-13.576,9.755c-6.315,5.049-12.2,9.8-21.53,13.167A62.917,62.917,0,0,1-66.9-225.169c-2.734-.008-5.591-.157-8.37-.329-6.415-.361-13.089-.735-19.266.416-12.013,2.291-20.2,8.313-28.794,14.715-2.838,2.127-5.756,4.276-8.934,6.411-11.711,7.818-19.855,9.267-28.5,10.771a103.065,103.065,0,0,0-16.261,3.943c-.85.33-1.7.661-2.491.887-6.559,2.575-12.591,7.719-15.635,13.5a22.1,22.1,0,0,0-2.364,8.92,19.321,19.321,0,0,1-1.352,6.351l-.171.312.221.814a7.7,7.7,0,0,0,.492-1.018,23.581,23.581,0,0,0,1.41-6.455,21.737,21.737,0,0,1,2.329-8.735c2.929-5.573,8.962-10.717,15.362-13.247a24.472,24.472,0,0,1,2.412-.864,102.44,102.44,0,0,1,16.182-3.92c8.721-1.526,16.944-3,28.712-10.92,3.177-2.136,6.1-4.285,8.934-6.411,8.617-6.32,16.723-12.32,28.578-14.566,6.1-1.128,12.67-.812,19.085-.452,2.778.171,5.636.32,8.37.329a64.34,64.34,0,0,0,22.213-3.714c9.433-3.308,15.374-8.163,21.689-13.212a110.212,110.212,0,0,1,13.5-9.732,33.646,33.646,0,0,1,3.446-1.774c7.729-3.611,14.539-4.942,20.593-6.233,2.658-.584,5.1-1.019,7.4-1.675l4.358-1.245a187.368,187.368,0,0,0,29.171-10.174c9.846-4.3,20.04-8.268,31.058-12.029,2.886-1,5.66-1.792,8.593-2.63,7.526-2.15,15.291-4.368,24.2-9.63a88.856,88.856,0,0,0,7.512-5.04c3.837-2.85,13.718-8.918,22.706-4.731,2.827,1.3,4.6,3.423,6.414,5.711a34.455,34.455,0,0,0,2.589,2.944c.574.538,1.146,1.076,1.7,1.533Z" transform="translate(210.707 334.202)" fill="#34ca00"/>
          <path id="Path_14278" data-name="Path 14278" d="M172.4-258a28.325,28.325,0,0,1-7.887-4.852c-.9-.8-1.718-1.614-2.617-2.41-2.087-2.035-3.972-3.952-6.936-5.123-6.57-2.509-14-.649-22.261,5.744a57.948,57.948,0,0,1-7.218,4.868c-9.379,5.4-17.06,6.978-25.218,8.694-2.182.448-4.446.919-6.686,1.471-11.938,2.884-21.423,7.259-30.116,11.409-13.2,6.4-20.691,9.331-28.631,12.476l-2.153.878a68.53,68.53,0,0,1-8.953,2.557c-5.354,1.353-11.442,2.829-17.846,5.974-1.122.584-2.166,1.145-3.345,1.833a85.544,85.544,0,0,0-12.141,9.7c-5.672,5.216-11.093,10.1-20.605,13.429a59.412,59.412,0,0,1-21.307,3.279c-3.016-.1-6.155-.347-9.114-.555-5.838-.437-11.857-.911-17.386-.209-12.709,1.613-21.274,6.866-31.233,12.956-2.042,1.285-4.163,2.593-6.386,3.841-11.219,6.8-18.847,8.892-26.929,11.2a138.049,138.049,0,0,0-15.3,4.983,22.047,22.047,0,0,0-2.289,1,35.958,35.958,0,0,0-15.472,12.84,24.712,24.712,0,0,0-3.2,8.02,21.265,21.265,0,0,1-2.141,5.962,23,23,0,0,1-3.511,4.687,31.3,31.3,0,0,1-2.4,2.176l.132.488a19.222,19.222,0,0,0,2.693-2.348,23.9,23.9,0,0,0,3.568-4.791,26.959,26.959,0,0,0,2.2-6.066,25.652,25.652,0,0,1,3.148-7.916,35.35,35.35,0,0,1,15.2-12.586,22.411,22.411,0,0,1,2.311-.923,158.134,158.134,0,0,1,15.217-4.96c8.082-2.308,15.79-4.422,27.268-11.209,2.2-1.33,4.322-2.638,6.386-3.841,9.88-6.068,18.445-11.321,31-12.888,5.529-.7,11.209-.219,17.307.232,2.959.207,6.1.451,9.193.532a60.3,60.3,0,0,0,21.544-3.347c9.693-3.295,15.092-8.258,20.843-13.5a84.543,84.543,0,0,1,12.062-9.673,32,32,0,0,1,3.266-1.81c6.4-3.145,12.413-4.6,17.687-5.929a69.672,69.672,0,0,0,9.033-2.58l2.153-.878c7.94-3.145,15.348-6.051,28.632-12.476,8.67-4.231,18.1-8.5,30.037-11.386,2.241-.552,4.5-1.023,6.686-1.471,8.156-1.716,15.918-3.319,25.354-8.821a63.762,63.762,0,0,0,7.274-4.972c8.063-6.162,15.318-8.059,21.627-5.563,2.862,1.112,4.747,3.03,6.836,5.065a30.729,30.729,0,0,0,2.638,2.492,34.382,34.382,0,0,0,8.473,5.123l-.243-.9Z" transform="translate(200.69 303.996)" fill="#34ca00"/>
          <path id="Path_14279" data-name="Path 14279" d="M179.637-222.038a37.462,37.462,0,0,1-14.026-6.081c-.855-.633-1.732-1.348-2.586-1.981a22.044,22.044,0,0,0-7.359-4.476c-8.388-2.6-15.73,2.125-21.182,6.576a49.163,49.163,0,0,1-6.9,4.778c-7.9,4.538-14.8,5.544-21.383,6.459a87.756,87.756,0,0,0-9.671,1.8,127.881,127.881,0,0,0-29.153,10.87c-6.79,3.606-11.769,6.344-16.214,8.841-4.229,2.348-7.869,4.353-11.826,6.448-2.756,1.489-6.185,2.38-10.067,3.489a81.653,81.653,0,0,0-15.459,5.643c-1.043.561-2.064,1.2-3.164,1.869a68.013,68.013,0,0,0-10.763,9.74c-5.051,5.3-9.83,10.351-19.624,13.587a55.382,55.382,0,0,1-20.559,2.89c-3.377-.176-6.8-.514-10.118-.794a95.777,95.777,0,0,0-15.405-.775c-14.387.776-24.295,5.8-36.742,12.161l-.748.389a244.3,244.3,0,0,1-24.952,11.25c-4.542,1.824-9.164,3.67-14.965,6.2-.612.262-1.281.629-1.893.891l-.295.172a42.456,42.456,0,0,0-15.231,12.157,38.1,38.1,0,0,0-3.945,7.179,33.077,33.077,0,0,1-2.986,5.677,21.606,21.606,0,0,1-3.8,4.244,51.1,51.1,0,0,1-8.806,5.936l.132.488a53.616,53.616,0,0,0,9.022-6.086,29.044,29.044,0,0,0,3.859-4.347,26.824,26.824,0,0,0,3.043-5.781,30.881,30.881,0,0,1,3.888-7.075A42.383,42.383,0,0,1-145.228-121.7l.295-.172c.691-.285,1.281-.629,1.893-.891,5.7-2.593,10.4-4.462,14.886-6.181a246.872,246.872,0,0,0,25.212-11.236l.748-.389c12.368-6.339,22.2-11.339,36.5-12.093a98.028,98.028,0,0,1,15.326.8c3.342.361,6.763.7,10.118.794a56.679,56.679,0,0,0,20.8-2.958C-9.52-157.4-4.742-162.445.389-167.77a67.13,67.13,0,0,1,10.706-9.636,26.575,26.575,0,0,1,3.085-1.846,80.1,80.1,0,0,1,15.3-5.6,61.48,61.48,0,0,0,10.226-3.535c4.036-2.118,7.676-4.122,11.826-6.448,4.467-2.416,9.423-5.235,16.214-8.841a126.528,126.528,0,0,1,29-10.825,88.131,88.131,0,0,1,9.592-1.775c6.66-.938,13.537-2.025,21.622-6.527a48.232,48.232,0,0,0,6.957-4.882c5.395-4.348,12.577-9.031,20.6-6.5a22.029,22.029,0,0,1,7.156,4.359c.854.633,1.651,1.37,2.607,2.062a38.9,38.9,0,0,0,14.489,6.212Z" transform="translate(195.174 274.386)" fill="#34ca00"/>
          <path id="Path_14280" data-name="Path 14280" d="M186.272-187.492a43.8,43.8,0,0,1-19.709-5.948c-.833-.552-1.644-1.022-2.476-1.573a25.729,25.729,0,0,0-7.86-3.807c-8.234-2.034-14.5,2.563-20.16,7.513a34.736,34.736,0,0,1-6.583,4.687c-7.554,4.262-13.669,4.693-20.281,5.179a68.95,68.95,0,0,0-9.927,1.169c-11.076,2.286-20.249,5.608-28.11,10.309a216.758,216.758,0,0,0-18.3,12.157c-2.351,1.724-4.643,3.344-7.095,5.009-2.883,1.964-6.743,3.154-10.819,4.494a68.6,68.6,0,0,0-13.491,5.345,30.421,30.421,0,0,0-2.984,1.9,57.229,57.229,0,0,0-9.566,9.749c-4.43,5.388-8.509,10.5-18.461,13.781A53.659,53.659,0,0,1-29.442-115c-3.817-.225-7.621-.718-11.346-1.232A124.354,124.354,0,0,0-53.851-117.5c-14.335-.291-24.886,2.986-37.36,8.3a290.514,290.514,0,0,0-27,13.15c-3.288,1.728-6.712,3.584-10.77,5.62a9.466,9.466,0,0,0-1.338.733l-.669.366a56.146,56.146,0,0,0-15.046,11.578,50.664,50.664,0,0,0-4.549,6.211,46.428,46.428,0,0,1-3.911,5.415,27.2,27.2,0,0,1-4.013,3.778c-3.01,2.438-6.83,4.407-10.47,6.411-1.633.9-3.288,1.728-4.819,2.692l.132.488c1.554-.882,3.266-1.81,4.978-2.737a66.316,66.316,0,0,0,10.629-6.457,35.32,35.32,0,0,0,4.07-3.882,35.24,35.24,0,0,0,3.968-5.519,43.589,43.589,0,0,1,4.492-6.107A56.625,56.625,0,0,1-130.7-88.887l.669-.366c.453-.217.885-.516,1.338-.733,4.058-2.036,7.482-3.891,10.77-5.62,7.914-4.19,14.762-7.9,27-13.15,12.316-5.272,22.867-8.549,37.123-8.235a124.355,124.355,0,0,1,13.063,1.268c3.725.515,7.608.984,11.426,1.21a53.309,53.309,0,0,0,20.149-2.51C.951-120.35,5.108-125.484,9.6-130.976c2.631-3.208,5.3-6.6,9.407-9.7a24.9,24.9,0,0,1,2.9-1.882,66.606,66.606,0,0,1,13.332-5.3c4.178-1.281,8.015-2.553,10.977-4.539,2.452-1.665,4.745-3.285,7.095-5.009a207.009,207.009,0,0,1,18.224-12.135c7.8-4.6,16.977-7.919,27.974-10.183a69.7,69.7,0,0,1,9.847-1.146c6.352-.5,12.908-.88,20.517-5.246a41.123,41.123,0,0,0,6.641-4.791c5.546-4.741,11.653-9.293,19.605-7.354a23.215,23.215,0,0,1,7.681,3.771c.832.552,1.642,1.022,2.475,1.574a44.438,44.438,0,0,0,20.23,5.975l-.155-.57Z" transform="translate(189.907 244.887)" fill="#34ca00"/>
          <path id="Path_14281" data-name="Path 14281" d="M192.429-154.5a19.106,19.106,0,0,1-2.17.181c-7.471.467-15.177-1.191-22.993-4.835-.788-.389-1.475-.719-2.263-1.108a29.777,29.777,0,0,0-8.464-3.2c-8.418-1.455-13.818,3.508-19.081,8.345a32.173,32.173,0,0,1-6.187,4.574c-7.121,3.964-13.03,3.9-19.2,3.817a57.334,57.334,0,0,0-10.182.54c-11.05,1.753-19.691,4.835-27.168,9.689a104.536,104.536,0,0,0-16.493,13.482c-2.024,1.982-4.013,3.778-6.16,5.619-2.851,2.393-6.906,3.814-11.2,5.3a61.321,61.321,0,0,0-11.761,5.113,24.407,24.407,0,0,0-2.8,1.941c-3.828,3.2-6.076,6.56-8.346,9.84C14.231-89.742,10.773-84.544.719-81.322A50.581,50.581,0,0,1-18.5-79.165c-4.359-.334-8.828-1.075-13.037-1.8-3.588-.642-6.974-1.166-10.316-1.527-14.045-1.426-24.831-.275-37.231,4.056-11.392,3.956-17.8,8.331-24.546,13.063-3.314,2.262-6.764,4.651-10.972,7.081-.295.172-.59.344-.964.539-.295.172-.669.366-1.043.561a85.136,85.136,0,0,0-14.8,10.895,65.841,65.841,0,0,0-4.858,5.071c-1.65,1.787-3.221,3.551-5.21,5.347a49.927,49.927,0,0,1-4.282,3.416,83.269,83.269,0,0,1-10.387,5.774c-2.324,1.19-4.511,2.253-6.5,3.434-1.769,1.032-3.4,1.936-4.934,2.9l.132.488c1.633-.9,3.323-1.914,5.092-2.946,1.985-1.181,4.172-2.244,6.5-3.434a81.746,81.746,0,0,0,10.444-5.878,44.22,44.22,0,0,0,4.361-3.438,68.654,68.654,0,0,0,5.289-5.37c1.456-1.556,2.891-3.194,4.778-5.049a80.5,80.5,0,0,1,14.668-10.768c.374-.195.669-.367,1.043-.561.295-.172.669-.366.964-.538,4.208-2.43,7.658-4.819,10.95-7.162,6.764-4.651,13.1-9,24.41-12.936,12.241-4.286,22.948-5.414,36.993-3.988,3.342.361,6.648.908,10.237,1.549,4.289.7,8.678,1.468,13.116,1.779A51.668,51.668,0,0,0,.874-80.752c10.291-3.29,13.828-8.511,17.616-14.066a41.223,41.223,0,0,1,8.21-9.713,19.976,19.976,0,0,1,2.724-1.918,59.58,59.58,0,0,1,11.624-4.987c4.372-1.512,8.5-2.955,11.414-5.453,2.147-1.841,4.113-3.719,6.16-5.619a105.855,105.855,0,0,1,16.414-13.46c7.4-4.832,15.958-7.892,26.929-9.622a55.437,55.437,0,0,1,10.025-.5c6.246.058,12.234.1,19.514-3.907a32.305,32.305,0,0,0,6.324-4.7c5.4-4.963,10.469-9.569,18.526-8.186a28.013,28.013,0,0,1,8.283,3.16c.789.389,1.477.719,2.265,1.108,7.917,3.7,15.7,5.339,23.252,4.849a18.631,18.631,0,0,0,2.329-.227l-.132-.488Z" transform="translate(184.786 215.72)" fill="#34ca00"/>
          <path id="Path_14282" data-name="Path 14282" d="M198.3-122.174a48.01,48.01,0,0,1-7.646,1.395c-8.638.888-16.7-1.458-22.662-3.614-.565-.19-1.229-.438-1.793-.628a35.311,35.311,0,0,0-9.3-2.517c-7.9-.812-12.282,3.508-16.852,8.059-.41.38-.739.737-1.149,1.117a28.835,28.835,0,0,1-5.87,4.484c-6.848,3.71-12.37,3.182-18.231,2.663a46.606,46.606,0,0,0-10.3-.215c-10.865,1.174-19.211,4.084-26.2,9.151-6.561,4.769-10.525,9.673-14.353,14.45-1.857,2.285-3.576,4.442-5.556,6.587-2.719,2.882-6.887,4.511-11.373,6.231a56.8,56.8,0,0,0-10.312,4.787,19.7,19.7,0,0,0-2.6,2.059,37.309,37.309,0,0,0-7.184,10.034c-3.03,5.514-5.867,10.8-16.044,13.88A46.854,46.854,0,0,1-7.63-42.566a129.753,129.753,0,0,1-15.516-2.76c-2.369-.551-4.535-.985-6.781-1.4-13.6-2.607-24.516-3.523-37.1-.192-11.08,2.9-16.932,8.082-23.159,13.456a92.336,92.336,0,0,1-10.029,8.04l-.352.276c-.431.3-.942.62-1.452.941-5.946,3.891-10.69,7.176-14.562,10.212-1.545,1.231-2.953,2.335-4.26,3.5A80.69,80.69,0,0,1-128.178-4.8c-1.646,1.172-3.1,2.113-4.573,2.973-3.164,1.869-6.734,3.5-10.2,5.195-2.267,1.086-4.476,2.068-6.562,3.19-3.979,2.014-7.4,3.869-10.51,5.634-.453.217-.885.516-1.338.733l.132.488c.51-.321.964-.539,1.474-.86,3.107-1.765,6.531-3.62,10.51-5.633,2.108-1.041,4.217-2.082,6.483-3.168a94.989,94.989,0,0,0,10.2-5.195,52.687,52.687,0,0,0,4.652-3c2.724-1.918,4.951-3.782,7.415-5.714,1.329-1.081,2.715-2.267,4.26-3.5,3.873-3.036,8.617-6.32,14.562-10.212.511-.321.942-.62,1.452-.941l.352-.276A88.931,88.931,0,0,0-89.76-33.141c6.147-5.352,11.921-10.51,22.842-13.366,12.427-3.286,23.266-2.348,36.784.282,2.166.434,4.434.926,6.781,1.4,5.077,1.094,10.334,2.223,15.618,2.819A47.054,47.054,0,0,0,11-43.764C21.39-47,24.306-52.3,27.393-57.92a34.35,34.35,0,0,1,7.07-9.826,17.553,17.553,0,0,1,2.464-1.932A55.95,55.95,0,0,1,47.16-74.443c4.564-1.742,8.813-3.394,11.588-6.38,1.98-2.144,3.779-4.325,5.636-6.609,3.828-4.777,7.713-9.658,14.274-14.427,6.913-5.045,15.124-7.828,25.91-8.979a47.364,47.364,0,0,1,10.222.238c5.961.578,11.562,1.083,18.569-2.672a25.954,25.954,0,0,0,6.007-4.61c.41-.38.818-.76,1.149-1.117,4.515-4.447,8.733-8.722,16.377-7.923a39.71,39.71,0,0,1,9.2,2.459c.563.19,1.229.439,1.792.628,6.063,2.215,14.126,4.561,22.921,3.627a59.776,59.776,0,0,0,7.727-1.417l-.155-.57Z" transform="translate(179.664 186.163)" fill="#34ca00"/>
          <path id="Path_14283" data-name="Path 14283" d="M202.879-91.625l-3.643,1.041a72.33,72.33,0,0,1-9.281,2.3c-7.475,1.083-14.559-.49-22.353-2.474l-.563-.19a51.97,51.97,0,0,0-10.925-1.879c-7.568-.207-11.256,3.829-15.136,8.095-.581.692-1.262,1.326-1.843,2.018a20.839,20.839,0,0,1-5.553,4.393c-6.475,3.516-11.688,2.549-17.263,1.51a40.736,40.736,0,0,0-10.444-1.052c-10.782.536-18.753,3.251-25.262,8.531C74.867-64.709,71.577-59.209,68.379-54c-1.531,2.542-3.2,5.211-4.988,7.74-2.508,3.348-6.79,5.185-11.312,7.09A48.976,48.976,0,0,0,43-34.556a13.039,13.039,0,0,0-2.42,2.095c-3.208,3.284-4.632,6.849-6.043,10.147-2.33,5.577-4.489,10.843-14.745,13.948A42.74,42.74,0,0,1,1.966-7.047c-6.706-.8-13.2-2.72-19.414-4.542l-1.77-.547c-12.144-3.548-23.7-6.825-36.993-4.52-10.9,1.974-16.241,7.8-21.807,14.035a67.117,67.117,0,0,1-9.051,8.813l-1.7,1.276c-4.427,3.194-9.431,6.465-14.4,9.551-4.436,2.846-8.52,5.416-13.2,7.981-1.791.95-3.367,1.751-4.863,2.529-3.231,1.625-6.607,3.027-9.881,4.489-2.289,1-4.52,1.905-6.629,2.946-4.181,1.9-7.491,3.543-10.4,5.077-2.619,1.362-5.533,2.9-8.323,4.57l.132.488c2.848-1.778,5.761-3.312,8.459-4.7,2.914-1.534,6.166-3.077,10.4-5.077q3.2-1.439,6.629-2.946c3.3-1.38,6.73-2.887,9.881-4.489,1.5-.778,3.151-1.6,4.863-2.529,4.683-2.565,8.767-5.136,13.2-7.981,4.868-3.144,9.973-6.357,14.4-9.551l1.7-1.276a59.783,59.783,0,0,0,9.108-8.917C-72.1-8.521-66.847-14.32-56.18-16.227c13.11-2.341,24.589.958,36.654,4.529l1.77.547c6.314,1.88,12.809,3.8,19.594,4.578A43.858,43.858,0,0,0,19.9-7.96c10.6-3.114,12.789-8.565,15.177-14.246,1.411-3.3,2.779-6.758,5.907-10.02a13.723,13.723,0,0,1,2.284-1.968A43.069,43.069,0,0,1,52.293-38.7c4.6-1.928,8.983-3.706,11.606-7.262,1.89-2.47,3.457-5.2,5.067-7.763,3.2-5.211,6.429-10.608,12.1-15.209,6.371-5.153,14.263-7.846,24.864-8.418a41.56,41.56,0,0,1,10.265,1.016c5.653,1.017,10.967,2.042,17.68-1.541a23.731,23.731,0,0,0,5.769-4.542c.66-.715,1.262-1.326,1.843-2.018,3.744-4.139,7.352-8.152,14.6-7.855a46.116,46.116,0,0,1,10.766,1.925l.563.19c7.873,1.961,15.038,3.511,22.613,2.488a61.351,61.351,0,0,0,9.358-2.322l3.645-1.041Z" transform="translate(175.637 157.65)" fill="#34ca00"/>
          <path id="Path_14284" data-name="Path 14284" d="M208.1-75.326a55.345,55.345,0,0,0-9.508,2.716,63.922,63.922,0,0,1-8.614,2.548c-6.495,1.241-12.926.184-19.179-.837-4.808-.732-9.738-1.6-14.723-1.408-7.357.259-10.467,4.218-13.714,8.3-2.028,2.6-4.192,5.32-7.48,7.049-6.2,3.262-11.106,1.857-16.372.379A37.777,37.777,0,0,0,108-58.488c-10.779-.079-18.218,2.4-24.3,7.993-4.932,4.479-7.535,10.31-10,16.014a81.773,81.773,0,0,1-4.476,9c-2.274,3.895-6.773,5.881-11.09,7.9-3.809,1.7-7.672,3.507-10.268,6.529-2.926,3.379-3.932,6.912-4.96,10.363C41.162,5.161,39.738,10.3,29.358,13.269l-.079.023C16.6,16.912,3.365,12.8-7.926,8.305c-.868-.366-1.713-.651-2.5-1.04C-21.255,2.9-32.467-1.613-44.71-.485-55.381.458-60.238,7.108-65.244,14.152a59.877,59.877,0,0,1-8.073,9.586C-83.8,32.958-101.3,39.886-116.724,45.96c-6.8,2.643-13.275,5.2-18.874,7.847-5.995,2.765-11.312,5.511-15.188,9.162l.155.57c3.833-3.814,9.251-6.5,15.223-9.348,5.621-2.57,12.021-5.1,18.795-7.824,15.507-6.1,33.008-13.024,43.564-22.267a53.936,53.936,0,0,0,8.131-9.69C-59.969,7.47-55.249.947-44.837-.01c12.164-1.106,23.274,3.351,34.023,7.737.868.366,1.713.651,2.5,1.04,11.392,4.552,24.73,8.725,37.566,5.058l.079-.023C40.029,10.747,41.6,5.21,43.289-.534c.971-3.347,1.977-6.88,4.846-10.155,2.459-2.9,6.345-4.619,10.073-6.3,4.419-1.964,8.974-4.055,11.386-8.076a72.117,72.117,0,0,0,4.455-9.079c2.489-5.623,5.113-11.372,9.888-15.806,5.945-5.47,13.248-7.819,23.845-7.776a36.491,36.491,0,0,1,10.324,1.875c5.368,1.537,10.453,2.979,16.87-.433,3.425-1.855,5.59-4.579,7.7-7.2,3.189-3.981,6.164-7.813,13.26-8.085a79.183,79.183,0,0,1,14.622,1.349c6.331,1,12.843,2.033,19.438.851a66.2,66.2,0,0,0,8.772-2.594,55.321,55.321,0,0,1,9.51-2.716Z" transform="translate(170.948 143.304)" fill="#34ca00"/>
          <path id="Path_14285" data-name="Path 14285" d="M222.126-34.446a69.339,69.339,0,0,0-10.045,1.992,70.8,70.8,0,0,1-8.475,1.806c-6.026.757-11.826-.482-17.986-1.792a73,73,0,0,0-15.26-2.132c-7.582.06-11.111,4.05-14.811,8.353a31.832,31.832,0,0,1-7.014,6.564,22.365,22.365,0,0,1-3.311,1.647c-3.93,1.561-7.158.992-10.847.292-.8-.122-1.625-.325-2.5-.425a33.733,33.733,0,0,0-8.054-.419c-6.217.372-11,1.3-14.945,3.129A26.692,26.692,0,0,0,100.294-9.3a31.754,31.754,0,0,0-5.2,7.89c-.986,2.035-1.869,4.13-2.674,6.2a61,61,0,0,1-5.634,11.345c-2.693,3.927-7.517,5.655-12.1,7.316-3.659,1.308-7.079,2.548-9.534,4.828-2.944,2.683-4.263,5.691-5.446,8.572-2.145,5-4.12,9.685-14.209,13.093-1.008.376-2.038.67-3.068.964-11.929,3.232-24.043.113-34.289-3.363-1.308-.416-2.638-.913-4.047-1.388l-2.074-.723c-9.322-3.214-19.974-6.925-31.6-5.711C-39.79,40.8-44.52,46.979-49.557,53.593a53.38,53.38,0,0,1-7.854,8.822c-10.407,8.849-27.375,15.538-42.35,21.394-6.242,2.484-12.188,4.8-17.355,7.15-6.074,2.788-13.689,6.191-17.749,12-.251.335-.422.647-.673.982l-.686,1.249.2.733c.264-.6.607-1.226.95-1.85a8.958,8.958,0,0,1,.673-.982c4.025-5.623,11.459-9.062,17.476-11.745,5.167-2.353,11.114-4.666,17.355-7.15,15.054-5.879,32.022-12.567,42.588-21.462a56.078,56.078,0,0,0,7.911-8.926C-44.15,47.4-39.42,41.225-29.528,40.241c11.464-1.169,22.015,2.483,31.337,5.7l2.074.723c1.33.5,2.638.913,4.047,1.388C18.255,51.5,30.47,54.68,42.558,51.4c1.03-.294,2.139-.611,3.147-.987,10.327-3.476,12.45-8.556,14.561-13.369,1.2-2.8,2.445-5.786,5.331-8.364,2.32-2.153,5.74-3.394,9.318-4.679,4.745-1.706,9.649-3.458,12.377-7.57A65.813,65.813,0,0,0,92.9,5.008c.8-2.072,1.767-4.189,2.674-6.2a32.772,32.772,0,0,1,5.146-7.785,25.3,25.3,0,0,1,8.445-6.008c3.886-1.724,8.571-2.711,14.709-3.061a38.533,38.533,0,0,1,7.894.464c.88.1,1.7.3,2.5.425,3.77.678,7.075,1.224,11.245-.4a17.828,17.828,0,0,0,3.446-1.774,30.725,30.725,0,0,0,7.149-6.691c3.564-4.176,6.956-8.039,14.278-8.113,5.187-.078,10.263,1.016,15.159,2.073,5.9,1.3,12.039,2.526,18.167,1.828a75.752,75.752,0,0,0,8.552-1.829,59.5,59.5,0,0,1,10.046-1.992l-.111-.407Z" transform="translate(158.949 109.914)" fill="#34ca00"/>
          <path id="Path_14286" data-name="Path 14286" d="M239.834-7.849a85.465,85.465,0,0,0-10.266,1.178c-3.041.43-5.9.9-8.593,1.051-5.639.3-10.984-1.16-16.692-2.688-5.064-1.36-10.307-2.757-15.819-2.937-7.987-.175-11.968,4.033-16.122,8.552a39.418,39.418,0,0,1-6.354,5.85,34.018,34.018,0,0,1-3.064,1.927c-3.5,1.878-6.021,1.72-9.3,1.6-.78-.041-1.559-.081-2.417-.1a55.691,55.691,0,0,0-7.776.291c-4.794.58-10.258,1.526-14.825,3.884a24.918,24.918,0,0,0-8.01,6.673,32.8,32.8,0,0,0-4.539,8.138c-.62,1.493-1.16,2.963-1.679,4.514-1.656,4.6-3.37,9.3-6.4,13.231-3.166,4.062-8.339,5.452-13.274,6.774-3.27.847-6.3,1.625-8.538,3.141-3.1,2.113-4.594,4.47-6.2,7.035-2.569,4.067-5.195,8.238-14.755,12.021l-3.024,1.127C50.02,77.681,37.947,75.34,27.7,72.479l-5.007-1.464-2.232-.678C10.523,67.385.206,64.28-10.954,65.625c-9.668,1.183-14.349,6.905-19.36,12.985A55.6,55.6,0,0,1-38,86.772c-10.416,8.5-26.852,14.95-41.452,20.611-5.63,2.222-10.964,4.272-15.78,6.349-5.88,2.557-13.1,5.846-17.155,11.04-.251.335-.444.566-.7.9-2.521,3.615-3.372,7.717-4.11,11.612l.331,1.221a.3.3,0,0,1,.035-.185c.75-4.161,1.536-8.508,4.149-12.412.172-.312.444-.565.616-.878,4-5.089,11.16-8.275,16.962-10.809,4.815-2.077,10.128-4.208,15.78-6.349,14.6-5.661,31.194-12.155,41.589-20.738a53.713,53.713,0,0,0,7.748-8.265c4.954-5.976,9.578-11.595,18.906-12.768,11-1.3,21.3,1.724,31.151,4.7l2.232.678c1.77.547,3.338.976,5.007,1.464,10.33,2.838,22.5,5.238,34.825.929,1.087-.4,2.1-.774,3.1-1.15,9.8-3.851,12.6-8.334,15.05-12.193,1.552-2.461,3.048-4.818,6.011-6.8,2.156-1.493,5.189-2.272,8.381-3.1,4.854-1.3,10.367-2.7,13.647-6.968,3.01-4.017,4.8-8.74,6.461-13.335.6-1.574,1.137-3.044,1.679-4.514a31.708,31.708,0,0,1,4.4-8.011,23.688,23.688,0,0,1,7.793-6.524c4.49-2.335,9.872-3.259,14.587-3.816a52.362,52.362,0,0,1,7.674-.35c.859.018,1.639.058,2.417.1,3.2.14,5.975.311,9.638-1.612a21.488,21.488,0,0,0,3.142-1.95,36.1,36.1,0,0,0,6.412-5.954c4.1-4.415,7.941-8.5,15.668-8.335,5.41.121,10.655,1.518,15.719,2.878,5.706,1.528,11.153,3.042,16.872,2.724a66.184,66.184,0,0,0,8.674-1.074,89.575,89.575,0,0,1,10.346-1.2l-.134-.488Z" transform="translate(143.271 90.807)" fill="#34ca00"/>
          <path id="Path_14287" data-name="Path 14287" d="M256.941,18.468c-3.334-.013-6.542.114-9.73.323-3.369.173-6.556.381-9.492.255-5.252-.166-10.224-1.816-15.478-3.561-5.231-1.663-10.585-3.467-16.4-3.823-8.492-.469-13.236,4.395-17.785,9.027a58.8,58.8,0,0,1-5.321,4.94c-1,.724-1.975,1.529-2.837,2.126-3.156,2.217-5.226,2.457-8.211,2.783-.576.077-1.232.177-1.889.276-.5.054-1.074.131-1.649.208q-2.6.347-5.9.9c-5.124.937-10.441,2.105-14.705,4.639a22.331,22.331,0,0,0-7.357,7.189,34.05,34.05,0,0,0-3.795,8.364c-.334.972-.59,1.922-.924,2.895-1.639,5.292-3.312,10.77-6.935,15.05-3.7,4.3-9.6,5.2-14.772,5.974a33.192,33.192,0,0,0-7.241,1.63c-3.511,1.53-5.277,3.525-7.392,5.8-2.834,3.09-6.134,6.664-14.893,10.569-.986.457-1.972.914-2.98,1.29-12.474,5.317-25.071,3.565-34.6,1.464-1.986-.4-3.915-.9-5.944-1.46l-.462-.131c-.925-.262-1.827-.443-2.673-.728-9.643-2.508-19.546-5.03-30.345-3.612-9.148,1.209-13.838,6.584-18.823,12.13a55.577,55.577,0,0,1-7.529,7.5c-10.346,8.13-26.328,14.362-40.4,19.783-5.1,1.982-9.9,3.792-14.239,5.734-5.586,2.385-12.474,5.317-16.561,10.081a7.284,7.284,0,0,0-.638.8c-2.78,3.6-3.835,7.586-4.854,11.386a48.121,48.121,0,0,1-1.767,5.767,29.648,29.648,0,0,1-1.341,2.927l.2.733a27.965,27.965,0,0,0,1.6-3.528,59.615,59.615,0,0,0,1.745-5.849c1.054-3.985,2.074-7.785,4.8-11.282.194-.231.444-.565.638-.8,4.052-4.578,10.861-7.488,16.368-9.85,4.362-1.86,9.142-3.751,14.239-5.734C-45.19,125.2-29.128,118.948-18.7,110.8a54.128,54.128,0,0,0,7.586-7.6c4.906-5.524,9.482-10.69,18.37-11.913,10.618-1.454,20.081,1.018,30.085,3.6.925.262,1.827.443,2.673.728l.462.131c2.109.538,4.038,1.039,6.024,1.437,9.634,2.16,22.389,3.867,35.022-1.5.986-.457,1.994-.833,3.059-1.312,8.917-3.95,12.331-7.732,15.029-10.7,2.036-2.248,3.744-4.139,7.177-5.646a31.537,31.537,0,0,1,7.082-1.585c5.328-.82,11.389-1.762,15.147-6.168,3.7-4.3,5.432-9.884,7.07-15.176.334-.973.567-2,.922-2.9a33.149,33.149,0,0,1,3.738-8.26,21.582,21.582,0,0,1,7.163-6.958c4.185-2.511,9.423-3.657,14.469-4.571,2.182-.448,4.094-.643,5.824-.874.576-.077,1.153-.154,1.651-.208.655-.1,1.311-.2,1.889-.276,3.064-.349,5.212-.612,8.5-2.955.864-.6,1.92-1.425,2.839-2.126a58.8,58.8,0,0,0,5.321-4.94c4.685-4.759,9.1-9.265,17.333-8.81,5.713.3,11.069,2.1,16.221,3.787,5.333,1.722,10.3,3.372,15.636,3.516,2.936.126,6.2-.105,9.571-.278,3.187-.209,6.475-.359,9.888-.368Z" transform="translate(128.216 72.062)" fill="#34ca00"/>
          <path id="Path_14288" data-name="Path 14288" d="M265.048,45.344c-1.82-.095-3.615-.108-5.433-.2-5.173-.189-10.087-.364-14.13-.789-4.842-.546-9.418-2.309-14.218-4.271-5.342-2.07-10.886-4.259-16.926-4.814-9.26-.776-14.786,4.662-20.1,9.95-1.206,1.221-2.411,2.443-3.661,3.5a22.231,22.231,0,0,0-1.637,1.52c-.352.276-.6.611-.956.887-3.216,2.936-4.7,3.448-8.244,4.547l-.317.091c-1.324.466-3.01.86-4.933,1.322-.713.2-1.528.349-2.4.6l-.158.045c-5.116,1.286-10.39,2.616-14.408,5.431a21.522,21.522,0,0,0-6.727,7.623,34.1,34.1,0,0,0-3.05,8.59l-.3,1.4c-1.348,5.736-2.916,12.236-7.251,16.719-4.312,4.565-11.171,4.77-16.652,5.02a32.132,32.132,0,0,0-5.674.481c-4.446.919-6.558,2.575-9.807,5.081a75.283,75.283,0,0,1-13.7,8.651c-.986.457-1.95,1-2.936,1.453-9.885,5.1-20.671,6.255-34.8,3.888-2.065-.375-4.152-.831-6.68-1.338-1.444-.289-2.911-.66-4.276-.971-9.815-2.2-18.987-4.225-29.481-2.631-8.606,1.318-13.27,6.159-18.185,11.334a74.068,74.068,0,0,1-7.287,6.818c-10.434,7.8-26.042,13.842-39.894,19.114-4.327,1.674-8.5,3.3-12.347,4.842-5.608,2.3-11.986,4.915-16.069,9.063a7.34,7.34,0,0,0-.66.715c-2.869,3.275-4.214,6.817-5.581,10.278a39.522,39.522,0,0,1-2.066,4.976,28.768,28.768,0,0,1-5.679,8.025l.154.57a32.017,32.017,0,0,0,6.088-8.405,50.029,50.029,0,0,0,2.066-4.976c1.345-3.542,2.633-6.98,5.467-10.07.194-.231.466-.484.66-.715,4.026-4.044,10.325-6.633,15.853-8.914,3.829-1.62,7.94-3.145,12.267-4.819,13.83-5.354,29.539-11.332,40.031-19.24a69.461,69.461,0,0,0,7.366-6.84c4.858-5.071,9.442-9.889,17.811-11.139,10.336-1.549,19.508.48,29.222,2.617,1.444.289,2.91.66,4.355.949,2.448.529,4.535.985,6.68,1.337,14.31,2.4,25.175,1.23,35.219-3.92.964-.538,1.95-1,2.936-1.453a80.376,80.376,0,0,0,13.784-8.674c3.168-2.484,5.224-4.036,9.59-4.932a30.594,30.594,0,0,1,5.516-.435c5.583-.191,12.521-.419,17.027-5.214,4.448-4.691,6.016-11.191,7.422-17.031l.3-1.4a38.661,38.661,0,0,1,2.994-8.486,21.34,21.34,0,0,1,6.59-7.5c3.962-2.71,9.235-4.041,14.249-5.385l.158-.045c.792-.226,1.607-.371,2.32-.575,1.924-.462,3.61-.856,4.935-1.322l.317-.091c3.52-1.181,5.106-1.634,8.459-4.7.273-.253.625-.529.954-.887.466-.484,1.091-1.013,1.637-1.52,1.229-1.14,2.513-2.384,3.74-3.524,5.255-5.185,10.645-10.5,19.544-9.792,6.018.474,11.483,2.684,16.824,4.755,4.879,1.939,9.455,3.7,14.4,4.308,4.143.483,9.057.659,14.23.847,1.9.072,3.715.167,5.613.239Z" transform="translate(122.161 52.756)" fill="#34ca00"/>
          <path id="Path_14289" data-name="Path 14289" d="M271.854,72.429a161.176,161.176,0,0,1-19.845-2.665,59.477,59.477,0,0,1-13.017-4.878c-5.451-2.478-11.106-5.073-17.551-5.863-10.488-1.215-17.314,5.734-23.319,11.923l-1.068,1.095c-.933.968-1.651,1.787-2.367,2.606l-.5.67c-2.461,2.9-3.212,3.9-6.341,5.583a43.529,43.529,0,0,1-7.033,2.711l-1.4.489c-4.631,1.5-9.42,3.041-13.021,5.824a19.881,19.881,0,0,0-6.153,8.161,36.939,36.939,0,0,0-2.307,8.816c-1.023,5.993-2.3,13.552-7.408,18.343-5.16,4.9-13.065,4.083-18.766,3.518a29.157,29.157,0,0,0-3.659-.271c-6.371-.2-9,1.431-15.423,5.458-2.417,1.48-5.4,3.384-9.414,5.583a30.107,30.107,0,0,0-2.87,1.7c-10.061,6.031-20.886,7.983-35.019,6.231-2.122-.271-4.267-.623-6.851-1.025-1.964-.316-3.87-.737-5.755-1.075-9.546-1.834-18.528-3.479-28.662-1.812-8.087,1.345-12.76,5.837-17.649,10.479A65.7,65.7,0,0,1-.6,160.16c-10.659,7.606-26.131,13.516-39.767,18.639-3.477,1.344-6.739,2.539-9.9,3.792-5.313,2.131-11.4,4.571-15.475,8.1-.194.231-.488.4-.682.633a31.771,31.771,0,0,0-6.229,9.147,41.916,41.916,0,0,1-2.309,4.08,30.838,30.838,0,0,1-9.623,9.853c-.352.276-.805.493-1.157.769l.132.488c.431-.3.885-.516,1.316-.814a32.3,32.3,0,0,0,9.737-10.061c.823-1.375,1.544-2.809,2.287-4.162,1.614-3.18,3.193-6.175,6.194-8.961a7.708,7.708,0,0,1,.682-.633c4-3.511,9.709-5.755,15.259-7.955,3.16-1.254,6.4-2.53,9.9-3.792,13.694-5.227,29.267-11.079,39.9-18.766A61.967,61.967,0,0,0,6.8,154.365c4.809-4.619,9.425-9.008,17.354-10.307,10.033-1.725,19.037,0,28.482,1.776,1.884.339,3.87.736,5.755,1.075,2.585.4,4.729.754,6.851,1.025,14.213,1.73,25.117-.245,35.415-6.344.964-.538,1.849-1.054,2.87-1.7,3.992-2.281,7-4.1,9.415-5.583,6.421-4.027,8.837-5.506,15.027-5.345q1.558.081,3.657.271c5.882.6,13.866,1.39,19.3-3.758,5.241-4.918,6.5-12.557,7.5-18.632a42.293,42.293,0,0,1,2.249-8.712,18.742,18.742,0,0,1,5.961-7.93c3.52-2.76,8.251-4.2,12.882-5.7l1.4-.489a45.461,45.461,0,0,0,7.114-2.734c3.209-1.706,4.1-2.837,6.556-5.732l.5-.67a29.557,29.557,0,0,1,2.288-2.583l1.068-1.095c5.87-6.062,12.558-12.884,22.786-11.683,6.345.731,11.921,3.349,17.372,5.827,4.483,2.052,8.684,4.01,13.119,4.937a148.672,148.672,0,0,0,19.922,2.642c.079-.023.181.036.34-.009Z" transform="translate(117.349 33.347)" fill="#34ca00"/>
          <path id="Path_14290" data-name="Path 14290" d="M276.218,99.262a1.139,1.139,0,0,0-.519-.027,106.831,106.831,0,0,1-19.867-4.325,63.988,63.988,0,0,1-11.692-5.344c-5.585-2.966-11.372-6.05-18.121-7.016-11.3-1.685-19.711,6.332-25.038,12.5a17.218,17.218,0,0,0-2.121,2.886c-.766,1.271-1.338,2.312-1.772,3.225a12.4,12.4,0,0,1-3.511,4.687,27.244,27.244,0,0,1-6.755,3.421l-2.311.923c-4.326,1.674-8.813,3.394-12.074,6.168a18.763,18.763,0,0,0-5.5,8.676,40.5,40.5,0,0,0-1.563,9.042c-.656,7.029-2.047,14.18-7.183,18.542-6.306,5.4-15.689,2.9-21.295,1.434-.463-.131-1-.24-1.387-.393-9.08-2.319-12.005-.518-26.086,8.328l-2.825,1.86c-10.214,7.04-21.1,9.711-35.137,8.633-2.439-.18-4.923-.524-7.045-.795-2.4-.366-4.808-.732-7.133-1.12-9.277-1.473-18.114-2.9-28.045-1.112-7.567,1.372-12.192,5.412-17.112,9.624a77.4,77.4,0,0,1-6.8,5.452c-11.2,7.5-26.853,13.371-40.648,18.539-2.254.819-4.428,1.616-6.5,2.471l-.238.068c-5.256,2.027-10.613,4-14.644,7.077-.216.149-.488.4-.7.552a37.97,37.97,0,0,0-7.057,7.98c-.73,1.086-1.562,2.113-2.371,3.221a36.665,36.665,0,0,1-9.8,8.587c-1.985,1.181-4.15,2.326-6.417,3.412l.132.488a65.657,65.657,0,0,0,6.553-3.538,35.226,35.226,0,0,0,9.932-8.714c.889-1.131,1.641-2.135,2.371-3.221a34.784,34.784,0,0,1,7-7.876,8.547,8.547,0,0,1,.7-.552c3.895-2.954,9.309-5.027,14.507-6.951l.238-.068c2.1-.774,4.27-1.571,6.5-2.471,13.874-5.191,29.549-10.984,40.806-18.585a71.932,71.932,0,0,0,6.882-5.474c4.84-4.189,9.408-8.126,16.795-9.534,9.83-1.843,18.588-.4,27.865,1.075,2.325.389,4.729.754,7.133,1.12,2.122.271,4.606.614,7.045.795,14.195,1.033,25.16-1.661,35.533-8.746l2.825-1.859c13.864-8.7,16.712-10.474,25.588-8.274l1.387.393c5.708,1.528,15.349,4.036,21.849-1.592,5.271-4.488,6.642-11.721,7.334-18.935a39.759,39.759,0,0,1,1.584-8.961,18.832,18.832,0,0,1,5.308-8.446c3.182-2.751,7.588-4.448,11.835-6.1l2.311-.923a29.09,29.09,0,0,0,6.973-3.57,11.8,11.8,0,0,0,3.647-4.813,23.925,23.925,0,0,1,1.714-3.121,20.226,20.226,0,0,1,2.063-2.782c5.192-6.044,13.47-13.934,24.486-12.344,6.671.989,12.356,4.014,17.94,6.98a69.429,69.429,0,0,0,11.792,5.4,104.2,104.2,0,0,0,19.947,4.3l.78.041Z" transform="translate(115.138 14.144)" fill="#34ca00"/>
          <path id="Path_14291" data-name="Path 14291" d="M280.666,125.7c-.34.009-.621-.086-.959-.077-6.987-.9-14.223-3.656-19.79-5.926A78.2,78.2,0,0,1,249.494,114c-5.74-3.536-11.579-7.131-18.757-8.414-10.764-1.925-20.323,5.016-25.669,12.068a15.414,15.414,0,0,0-1.874,3.167,23.1,23.1,0,0,0-1.383,4.342,9.721,9.721,0,0,1-2.283,5.125c-1.57,1.764-4.189,3.126-6.535,4.235-.986.457-1.971.914-3.036,1.394-4.046,1.769-8.306,3.688-11.206,6.534a17.313,17.313,0,0,0-4.874,9.111,53.773,53.773,0,0,0-.861,9.105l.021.081c-.128,5.826-1.008,14.235-6.936,18.822-5.224,4.036-12.734,3.725-22.916-1.085-9.5-4.481-14.1-3.516-27.334,5.614-.942.62-1.86,1.321-2.781,2.022-10.368,8.049-21.214,11.5-35.334,11.057-2.056-.027-4.337-.252-7.216-.482-2.8-.253-5.644-.668-8.308-1.048-9.132-1.251-17.722-2.394-27.508-.388-7.127,1.422-11.783,5.032-16.632,8.873-2.033,1.633-4.167,3.208-6.482,4.746C-.8,216.712-18.216,223-32.214,228.053l-1.642.557c-4.745,1.706-9.649,3.458-13.517,5.878-.216.149-.431.3-.726.471a56.589,56.589,0,0,0-8.18,6.985l-2.218,2.212a48.543,48.543,0,0,1-9.99,7.239c-2.755,1.489-5.849,2.986-8.807,4.358-.986.457-1.893.891-2.879,1.348l.132.488,2.958-1.371c3.037-1.394,6.131-2.892,8.886-4.38a46.485,46.485,0,0,0,10.126-7.366l2.218-2.212a50.1,50.1,0,0,1,8.1-6.963l.647-.448c3.789-2.4,8.693-4.149,13.359-5.833l1.642-.557c14-5.051,31.415-11.341,43.883-19.2a74.871,74.871,0,0,0,6.562-4.769c4.871-3.76,9.369-7.325,16.417-8.724,9.707-1.983,18.218-.818,27.349.433,2.743.357,5.508.795,8.388,1.025,2.9.311,5.16.456,7.216.483,14.2.418,25.225-3,35.729-11.17.921-.7,1.839-1.4,2.781-2.022,13.8-9.556,17.849-9.746,26.756-5.537,10.384,4.928,18.076,5.275,23.516,1.09,6.063-4.714,6.922-13.2,7.107-19.134l-.021-.082a41.454,41.454,0,0,1,.862-9.105,17.467,17.467,0,0,1,4.757-8.9c2.922-2.764,7.024-4.638,11.069-6.407.986-.457,2.052-.937,3.038-1.394,2.425-1.131,5.123-2.516,6.752-4.384a10.555,10.555,0,0,0,2.4-5.333,18.972,18.972,0,0,1,1.327-4.238,14.665,14.665,0,0,1,1.816-3.062c5.21-6.926,14.552-13.717,25.058-11.806,7.075,1.224,12.915,4.819,18.576,8.378a80.227,80.227,0,0,0,10.525,5.765c5.588,2.351,12.9,5.086,19.89,5.985.44.05.8.122,1.241.171Z" transform="translate(112.763 -4.645)" fill="#34ca00"/>
          <path id="Path_14292" data-name="Path 14292" d="M285.528,151.945a8.935,8.935,0,0,1-1.422-.208c-6.952-1.084-14.228-4.62-19.711-7.527-3.1-1.659-5.963-3.735-9.091-5.824-5.813-4.128-11.829-8.375-19.433-9.974-10.775-2.273-21.348,4.08-26.3,11.634a15.455,15.455,0,0,0-1.57,3.343,16.855,16.855,0,0,0-.644,5.184c-.025,2.112-.058,3.876-1.383,5.921-1.074,1.71-2.969,3.217-6.315,5.049-1.121.584-2.323,1.19-3.525,1.8-3.921,1.91-7.9,3.923-10.6,6.886a17.489,17.489,0,0,0-4.3,9.649,52.289,52.289,0,0,0-.171,8.82l-.005.615c.357,9.2-1.853,15.528-6.711,19.021-8.446,6.008-19.822-1-23.094-3.315-9.143-6.335-15.136-7.342-28.58,2.9-.921.7-1.818,1.484-2.716,2.267-10.636,9.265-21.249,13.261-35.451,13.459-2.135,0-4.552-.1-7.41-.252-3.218-.221-6.38-.546-9.462-.894-8.986-1.029-17.51-1.928-27.094.2-6.687,1.471-11.589,4.8-16.254,8.063-1.941,1.344-3.961,2.71-6.1,3.936-13.27,7.737-30.37,13.937-42.079,17.983l-1.721.579A88.023,88.023,0,0,0-37.587,255.9c-.216.149-.453.217-.669.366a87.654,87.654,0,0,0-10.211,6.425l-1.157.769a70,70,0,0,1-10.264,5.914c-1.5.778-3.015,1.475-4.692,2.217a136.52,136.52,0,0,0-12.209,6.294l.132.488a133.5,133.5,0,0,1,12.289-6.317c1.677-.742,3.173-1.52,4.692-2.217a83.864,83.864,0,0,0,10.343-5.936l1.157-.769a84.73,84.73,0,0,1,10.131-6.4c.216-.149.453-.217.669-.366a86.1,86.1,0,0,1,11.915-4.544l1.721-.579c11.81-3.987,28.99-10.21,42.237-18.028,2.143-1.226,4.141-2.674,6.082-4.018,4.9-3.33,9.51-6.488,16.017-8,9.5-2.1,17.949-1.18,26.935-.15q4.623.522,9.484.975c2.778.171,5.274.248,7.41.252,14.463-.184,25.154-4.2,35.927-13.595a26.455,26.455,0,0,1,2.737-2.185c12.933-9.922,18.556-9.335,27.9-2.882,3.374,2.369,15.031,9.477,23.85,3.274,4.939-3.516,7.264-10.056,6.942-19.437l0-.615a57.334,57.334,0,0,1,.114-8.716,16.371,16.371,0,0,1,4.127-9.337c2.64-2.859,6.62-4.873,10.462-6.76,1.2-.606,2.4-1.213,3.525-1.8,3.425-1.855,5.321-3.362,6.532-5.2,1.38-2.149,1.371-4.076,1.419-6.106a16.379,16.379,0,0,1,.665-5.1,14.483,14.483,0,0,1,1.514-3.239c4.724-7.138,15.274-13.572,25.607-11.349,7.526,1.622,13.44,5.809,19.232,9.857A85.092,85.092,0,0,0,264.1,145c5.585,2.966,12.882,6.583,19.913,7.644.621.086,1.141.113,1.683.221l-.243-.9Z" transform="translate(109.974 -23.233)" fill="#34ca00"/>
          <path id="Path_14293" data-name="Path 14293" d="M293.4,177.954a15.143,15.143,0,0,1-1.862-.258c-5.372-.922-12.018-4.023-19.654-9.21-2.6-1.714-5.025-3.74-7.633-5.8-5.91-4.8-12.1-9.7-20.156-11.7-10.807-2.7-22.676,3.582-26.952,11.119a12.129,12.129,0,0,0-1.324,3.623,14.749,14.749,0,0,0,.132,5.839c.278,2.289.614,4.473-.463,6.8-.986,2.036-2.816,3.787-6.116,5.782-1.237.792-2.575,1.525-3.913,2.258-3.719,2.027-7.575,4.181-10.092,7.18a16.109,16.109,0,0,0-3.649,10.164,48.793,48.793,0,0,0,.521,8.535l.15,1.185c.7,6.377.127,14.962-6.488,19.22-7.477,4.855-17.319.035-23.351-5.523-9.175-8.343-16.682-10.848-29.8.269-.9.783-1.8,1.565-2.672,2.429-10.666,10.414-21.339,15.13-35.669,15.8-2.272.123-4.746.128-7.581.06-3.615-.108-7.115-.424-10.536-.762-8.92-.785-17.242-1.566-26.781.72-6.326,1.544-11.317,4.548-16.092,7.4-1.769,1.032-3.6,2.167-5.466,3.14a235.929,235.929,0,0,1-39.584,16.481c-1.268.362-2.513.806-3.86,1.19-3.147.987-6.374,2-9.261,3l-.691.285c-4.327,1.674-8,3.249-12.236,5.249-3.332,1.566-6.844,3.1-10.458,4.566-8.35,3.525-16.849,7.444-21.609,13.189l.154.57c4.558-5.863,13.136-9.8,21.565-13.352,3.592-1.552,7.205-3.023,10.458-4.566,4.239-2,7.83-3.552,12.236-5.249l.691-.285c2.945-1.1,6.092-2.091,9.262-3,1.268-.362,2.593-.828,3.86-1.19a236.92,236.92,0,0,0,39.742-16.527c1.87-.973,3.7-2.108,5.466-3.14,4.991-3,9.709-5.755,15.955-7.276,9.46-2.263,17.759-1.564,26.6-.756,3.421.339,6.921.655,10.536.762,2.835.067,5.31.062,7.6.021,14.489-.718,25.321-5.478,36.123-16.019.876-.864,1.774-1.647,2.672-2.429,12.871-10.781,20.1-8.372,29.048-.228,6.232,5.675,16.256,10.531,24.107,5.482,6.831-4.407,7.385-13.073,6.716-19.636l-.151-1.185a55.081,55.081,0,0,1-.5-8.454,16.258,16.258,0,0,1,3.557-9.875c2.438-2.977,6.236-5.026,9.955-7.054,1.338-.733,2.675-1.466,3.913-2.258,2.279-1.353,4.981-3.353,6.31-6.012,1.135-2.429.855-4.718.554-7.088a18.629,18.629,0,0,1-.107-5.758,9.458,9.458,0,0,1,1.287-3.438c4.161-7.328,15.737-13.441,26.26-10.834,7.952,1.939,14.066,6.859,19.977,11.661,2.506,2,5.035,4.088,7.633,5.8,7.716,5.164,14.385,8.347,19.836,9.246a19.609,19.609,0,0,0,2.121.271l-.132-.489Z" transform="translate(104.172 -41.59)" fill="#34ca00"/>
          <path id="Path_14294" data-name="Path 14294" d="M319.385,204.141c-.7-.063-1.5-.185-2.3-.307-7.764-1.554-16.272-8.07-19.575-10.811-2.08-1.687-4.145-3.64-6.088-5.454-6.053-5.639-12.387-11.373-20.99-13.827-10.15-2.8-23.527,2.334-27.582,10.685a12.2,12.2,0,0,0-1.1,3.822,17.248,17.248,0,0,0,.885,6.414c.706,2.605,1.309,5.151.4,7.78-.84,2.257-2.582,4.334-5.817,6.573-1.294.9-2.767,1.756-4.141,2.674-3.594,2.167-7.327,4.461-9.721,7.6a16.534,16.534,0,0,0-3.018,10.6,53.148,53.148,0,0,0,1.031,8.214c.074.592.229,1.162.3,1.755.729,4.265,1.619,14.8-6.262,19.419-8.179,4.792-17.81-1.141-23.608-7.73-5.877-6.566-11.065-9.646-16.353-9.626-4.61,0-9.437,2.345-14.7,7.181-.818.76-1.774,1.647-2.628,2.592-10.7,11.563-21.431,17-35.866,18.226-2.408.249-4.962.277-7.775.291-3.932-.017-7.771-.324-11.509-.572-8.8-.645-17.153-1.24-26.547,1.267-6.2,1.684-11.541,4.349-16.722,6.969-1.36.652-2.7,1.385-4.058,2.036-9.124,4.448-22.848,10.824-37.088,14.979-4.12,1.177-8.443,2.236-12.528,3.228l-.713.2c-1.448.326-2.9.652-4.243,1.037-3.055.7-5.93,1.43-8.883,2.187-3.169.905-6.893,1.969-10.63,3.3-7.633,2.706-17.448,7.44-20.9,15.179-2.454,5.438-1.169,11.123.093,16.727.654,3.672,1.532,7.545,1.292,11.385l.4,1.466c.605-4.384-.326-8.766-1.315-13.045-1.306-5.766-2.5-11.126-.106-16.459,3.417-7.554,13.073-12.242,20.569-14.822,3.737-1.331,7.461-2.394,10.653-3.218,3.011-.86,5.828-1.489,8.883-2.186,1.369-.3,2.817-.629,4.244-1.037l.713-.2c4.085-.991,8.408-2.051,12.528-3.228,14.24-4.155,28.043-10.553,37.167-15,1.36-.652,2.72-1.3,4.058-2.036,5.418-2.688,10.44-5.262,16.642-6.946,9.315-2.485,17.592-1.867,26.309-1.2,3.738.248,7.577.555,11.509.572,2.813-.014,5.367-.042,7.775-.291,14.594-1.274,25.487-6.754,36.241-18.421a30.941,30.941,0,0,1,2.626-2.592c5.127-4.71,9.8-7.008,14.327-6.986,5.129.026,10.194,2.965,15.969,9.473,5.923,6.729,15.914,12.734,24.387,7.77,8.1-4.769,7.243-15.489,6.468-19.917-.074-.593-.229-1.162-.3-1.755a53.645,53.645,0,0,1-1.009-8.132A15.653,15.653,0,0,1,223.7,219.63c2.336-3.036,5.989-5.307,9.585-7.474,1.394-.837,2.848-1.778,4.221-2.7,2.235-1.516,4.951-3.782,6.088-6.827.945-2.813.341-5.36-.387-8.046a18.73,18.73,0,0,1-.862-6.332,9.889,9.889,0,0,1,1.042-3.718c3.941-8.143,17-13.188,26.811-10.377,8.5,2.4,14.758,8.152,20.788,13.71,1.943,1.813,4.087,3.744,6.167,5.431,4.18,3.455,12.275,9.388,19.857,10.906a17.947,17.947,0,0,0,2.563.321l-.111-.407Z" transform="translate(80.264 -60.124)" fill="#34ca00"/>
          <path id="Path_14295" data-name="Path 14295" d="M361.412,230.049c-7.591-.288-16.955-7.437-22.319-12.746-1.515-1.5-3.075-3.157-4.511-4.676-6.216-6.557-12.656-13.313-21.913-16.283-6.72-2.115-15.744-.766-22.064,3.32-4.493,2.95-6.949,6.809-6.942,10.929a19.14,19.14,0,0,0,1.637,6.988c1.077,3.026,2.006,5.83,1.287,8.842-1.16,4.542-5.516,7.365-10.067,10.419-3.473,2.307-7.081,4.742-9.293,7.917-4.039,5.89-2.366,12.692-.861,19.192a18.081,18.081,0,0,1,.472,2.058c.767,3.465,2.681,14.935-6.039,19.618s-18.32-2.4-23.919-9.833c-6.283-8.38-12.392-12.336-18.674-12.208-5.345.123-10.768,3.426-16.187,9.886-12.628,14.834-24.925,20.8-43.953,21.15-4.248.073-8.4-.143-12.4-.4-8.674-.5-16.907-.96-26.1,1.665l-.238.068c-9.248,2.729-17.871,6.508-26.256,10.218-12.645,5.629-25.766,11.395-40.928,13.094-2.487.272-5,.462-7.427.63-5.855.444-11.869.934-17.6,2.482C19.73,324.4,10.84,329.394,8.449,337.269c-1.674,5.478.121,10.841,1.871,16.044,1.795,5.363,3.735,10.949,1.541,16.4a13.094,13.094,0,0,1-.928,1.932l.713-.2a17.007,17.007,0,0,0,.756-1.619c2.15-5.613.267-11.3-1.55-16.748-1.729-5.119-3.524-10.485-1.884-15.777,2.32-7.5,10.735-12.364,17.946-14.423l.317-.091c5.727-1.548,11.661-2.015,17.517-2.46,2.43-.168,4.939-.358,7.427-.63,15.241-1.722,28.441-7.51,41.166-13.161,8.306-3.688,16.928-7.467,26.177-10.2l.238-.068c9.112-2.6,17.266-2.125,25.939-1.62,4,.261,8.154.478,12.4.4,19.028-.348,31.859-6.556,44.406-21.367,5.307-6.252,10.569-9.51,15.733-9.669,6.1-.164,12.03,3.756,18.19,12,5.745,7.657,15.55,14.855,24.642,9.978,9.013-4.855,7.093-16.674,6.324-20.138-.176-.651-.3-1.407-.472-2.058-1.584-6.477-3.133-13.139.79-18.821,2.133-3.153,5.685-5.483,9.158-7.79,4.71-3.1,9.124-6.027,10.317-10.754.778-3.117-.218-6.165-1.273-9.109a22.074,22.074,0,0,1-1.593-6.825c.016-4.039,2.434-7.712,6.713-10.513,6.1-3.936,14.948-5.322,21.487-3.243,9.154,2.911,15.494,9.609,21.71,16.166,1.457,1.6,3,3.179,4.511,4.676,1.537,1.578,13.2,12.807,22.882,12.936l-.132-.488Z" transform="translate(40.289 -78.461)" fill="#34ca00"/>
        </g>
        <path id="Path_14296" data-name="Path 14296" d="M94.911-452.857a30.852,30.852,0,0,0-8.644,3.7C11.4-402.864-11.867-404.289-32.455-405.6c-11.034-.708-21.446-1.33-38.481,5.114-9.763,3.666-18.244,8.281-26.43,12.724-14.74,7.982-28.731,15.574-47.072,16.252-2.113.077-4.328.1-6.463.092-8.519.065-17.355.221-25.432,3.492-12.166,4.878-19.517,14.609-26.6,24.086-3.647,4.813-7.408,9.835-11.809,14.074-12.246,11.83-21.875,10.634-33.005,9.252-5.622-.587-11.368-1.314-17.972-.48l.265.977c6.366-.766,12.01-.1,17.474.535,11.029,1.323,21.359,2.583,34.014-9.628,4.479-4.262,8.219-9.364,11.923-14.282,6.964-9.269,14.179-18.873,26.028-23.661,7.861-3.123,16.618-3.255,24.957-3.357,2.135,0,4.35-.014,6.542-.114,18.68-.687,32.751-8.3,47.627-16.41,8.186-4.443,16.667-9.059,26.272-12.679,16.8-6.376,27.051-5.709,37.9-5.037,20.746,1.267,44.212,2.809,119.435-43.763a30.863,30.863,0,0,1,8.27-3.5l-.243-.9Z" transform="translate(265.715 452.857)" fill="#34ca00"/>
        <path id="Path_14297" data-name="Path 14297" d="M207.517-76.78a56.246,56.246,0,0,0-9.589,2.738,63.844,63.844,0,0,1-8.614,2.548c-6.414,1.218-12.847.161-19.1-.86-4.808-.732-9.74-1.6-14.8-1.386-7.514.3-10.761,4.39-13.929,8.452-2.028,2.6-4.136,5.216-7.343,6.922-6.044,3.217-10.747,1.929-16.115.392a38.343,38.343,0,0,0-10.585-1.889c-10.856-.057-18.375,2.442-24.456,8.038-4.911,4.56-7.593,10.414-10.161,16.059a71.268,71.268,0,0,1-4.476,9c-2.3,3.813-6.479,5.709-10.955,7.777-3.807,1.7-7.751,3.53-10.347,6.552C44.064-8.954,43.058-5.421,42.029-1.97,40.364,3.856,38.9,8.836,28.675,11.756,16,15.377,2.862,11.322-8.428,6.828l-2.5-1.04C-21.758,1.426-32.97-3.09-45.314-2.02c-10.83.988-15.937,7.973-20.75,14.786C-68.492,16.09-70.9,19.5-74.08,22.248-84.558,31.468-102,38.292-117.429,44.365c-6.875,2.666-13.275,5.2-18.874,7.847-5.916,2.742-11.254,5.407-15.109,9.14l.287,1.058c3.833-3.814,9.229-6.583,15.3-9.371,5.541-2.548,12.021-5.1,18.795-7.824,15.507-6.1,33.087-13.047,43.7-22.394a58.616,58.616,0,0,0,8.21-9.713C-60.146,6.251-55.505-.25-45.252-1.161c12.085-1.083,23.116,3.4,33.843,7.7l2.5,1.04c11.392,4.553,24.809,8.7,37.8,4.99l.079-.023C39.83,9.447,41.4,3.91,43.126-2.02c.971-3.347,2-6.8,4.789-10.051,2.481-2.814,6.267-4.6,9.916-6.253,4.476-2.068,9.054-4.077,11.521-8.2a97.073,97.073,0,0,0,4.534-9.1C76.4-41.17,79-47,83.717-51.33c5.887-5.366,13.167-7.8,23.606-7.708a37.27,37.27,0,0,1,10.247,1.9c5.446,1.514,10.553,3.037,17.108-.5,3.5-1.878,5.667-4.6,7.753-7.3,3.11-3.958,6.107-7.709,13.045-7.936a75.851,75.851,0,0,1,14.542,1.372c6.333,1,12.866,2.114,19.517.828a66.111,66.111,0,0,0,8.774-2.594,55.3,55.3,0,0,1,9.508-2.716l-.22-.814Z" transform="translate(171.53 144.758)" fill="#34ca00"/>
        <path id="Path_14298" data-name="Path 14298" d="M359.642,228.8c-7.433-.333-16.694-7.423-22.06-12.733-1.515-1.5-3.075-3.156-4.511-4.676-6.215-6.557-12.678-13.395-22.013-16.342-6.82-2.174-15.925-.8-22.3,3.388-4.573,2.972-7.084,6.935-7.135,11.16a19.514,19.514,0,0,0,1.66,7.069c1.054,2.944,1.984,5.748,1.264,8.761-1.1,4.437-5.46,7.261-10.009,10.315-3.552,2.33-7.162,4.764-9.43,8.044-4.1,5.994-2.424,12.8-.9,19.377a18.083,18.083,0,0,1,.472,2.058c.746,3.383,2.637,14.772-5.866,19.306s-17.982-2.407-23.5-9.865c-6.306-8.461-12.516-12.477-18.877-12.326-5.424.146-11.006,3.494-16.425,9.954-12.549,14.811-24.789,20.676-43.716,21.082-4.248.073-8.4-.143-12.323-.427-8.753-.482-17.065-.915-26.494,1.778-9.248,2.729-17.95,6.531-26.256,10.219-13.257,5.892-25.767,11.394-40.849,13.071-2.487.272-5,.462-7.427.63-5.855.444-11.869.934-17.675,2.5-7.549,2.069-16.418,7.145-18.888,15.043-1.754,5.5.143,10.923,1.915,16.207,1.861,5.607,3.634,10.889,1.6,16.3a16.246,16.246,0,0,1-1.042,2.14l1.426-.408c.207-.5.493-1.017.7-1.514,2.207-5.718.245-11.385-1.572-16.831-1.729-5.119-3.5-10.4-1.862-15.694,2.32-7.5,10.916-12.328,18.069-14.283,5.727-1.548,11.661-2.015,17.415-2.518,2.43-.168,4.94-.358,7.427-.63,15.32-1.744,28.52-7.532,41.245-13.184,8.306-3.688,16.928-7.467,26.1-10.173,9.09-2.684,17.4-2.252,26.076-1.747,4,.262,8.154.478,12.482.382,19.107-.37,32.016-6.6,44.622-21.516,5.248-6.148,10.434-9.383,15.518-9.52,5.921-.2,11.972,3.86,17.986,11.879,5.768,7.738,15.752,14.973,25.005,10.05,9.172-4.9,7.206-16.882,6.415-20.428-.176-.651-.3-1.407-.472-2.058-1.563-6.4-3.112-13.058.755-18.635,2.077-3.049,5.606-5.461,9.1-7.687,4.55-3.054,9.26-6.153,10.455-10.88.834-3.221-.243-6.246-1.3-9.191a22.19,22.19,0,0,1-1.595-6.825c-.04-3.935,2.3-7.586,6.6-10.305,6.025-3.914,14.79-5.277,21.251-3.175,9.052,2.852,15.415,9.631,21.608,16.107,1.457,1.6,3,3.179,4.511,4.676,1.616,1.556,13.325,12.947,23.164,13.031l-.264-.977Z" transform="translate(42.082 -77.132)" fill="#34ca00"/>
      </g>
    </g>
  </g>
</svg>
