<svg xmlns="http://www.w3.org/2000/svg" width="14" height="14" viewBox="0 0 14 14">
  <g id="vuesax_bold_menu" data-name="vuesax/bold/menu" transform="translate(-236 -256)">
    <g id="menu" transform="translate(236 256)">
      <path id="Vector" d="M0,0H14V14H0Z" fill="none" opacity="0"/>
      <path id="Vector-2" data-name="Vector" d="M3.453,1.727A1.727,1.727,0,1,1,1.727,0,1.727,1.727,0,0,1,3.453,1.727Z" transform="translate(8.505 1.686)"/>
      <path id="Vector-3" data-name="Vector" d="M3.453,1.727A1.727,1.727,0,1,1,1.727,0,1.727,1.727,0,0,1,3.453,1.727Z" transform="translate(2.042 1.686)"/>
      <path id="Vector-4" data-name="Vector" d="M3.453,1.727A1.727,1.727,0,1,1,1.727,0,1.727,1.727,0,0,1,3.453,1.727Z" transform="translate(8.505 8.861)"/>
      <path id="Vector-5" data-name="Vector" d="M3.453,1.727A1.727,1.727,0,1,1,1.727,0,1.727,1.727,0,0,1,3.453,1.727Z" transform="translate(2.042 8.861)"/>
    </g>
  </g>
</svg>
